<svg width="500" height="210" viewBox="0 0 500 210" fill="none" xmlns="http://www.w3.org/2000/svg">
<rect x="111" y="115" width="347" height="46" rx="23" fill="#0C3BAA"/>
<path d="M141.472 151.324C139.504 151.324 137.716 151.024 136.108 150.424C134.524 149.8 133.156 148.912 132.004 147.76C130.852 146.608 129.964 145.204 129.34 143.548C128.74 141.868 128.44 139.972 128.44 137.86C128.44 135.748 128.74 133.864 129.34 132.208C129.964 130.552 130.852 129.148 132.004 127.996C133.156 126.844 134.524 125.968 136.108 125.368C137.716 124.744 139.504 124.432 141.472 124.432C143.68 124.432 145.648 124.816 147.376 125.584C149.104 126.352 150.508 127.432 151.588 128.824C152.668 130.192 153.328 131.812 153.568 133.684H148.708C148.492 132.652 148.06 131.752 147.412 130.984C146.764 130.216 145.936 129.616 144.928 129.184C143.92 128.752 142.768 128.536 141.472 128.536C139.816 128.536 138.376 128.896 137.152 129.616C135.952 130.312 135.016 131.356 134.344 132.748C133.672 134.14 133.336 135.844 133.336 137.86C133.336 139.372 133.528 140.716 133.912 141.892C134.296 143.068 134.836 144.052 135.532 144.844C136.252 145.636 137.104 146.236 138.088 146.644C139.096 147.028 140.224 147.22 141.472 147.22C142.744 147.22 143.884 147.004 144.892 146.572C145.9 146.14 146.74 145.54 147.412 144.772C148.084 143.98 148.516 143.068 148.708 142.036H153.568C153.352 143.884 152.692 145.516 151.588 146.932C150.508 148.324 149.104 149.404 147.376 150.172C145.648 150.94 143.68 151.324 141.472 151.324ZM156.105 151V124.756H160.605V135.484H160.821C161.373 134.14 162.213 133.144 163.341 132.496C164.469 131.824 165.729 131.488 167.121 131.488C168.081 131.488 168.969 131.644 169.785 131.956C170.625 132.244 171.345 132.712 171.945 133.36C172.569 133.984 173.049 134.812 173.385 135.844C173.745 136.852 173.925 138.076 173.925 139.516V151H169.425V140.488C169.425 139.288 169.281 138.304 168.993 137.536C168.705 136.744 168.261 136.156 167.661 135.772C167.085 135.388 166.329 135.196 165.393 135.196C164.385 135.196 163.521 135.436 162.801 135.916C162.105 136.396 161.565 137.032 161.181 137.824C160.797 138.616 160.605 139.492 160.605 140.452V151H156.105ZM177.35 151V131.848H181.85V151H177.35ZM179.618 129.256C178.898 129.256 178.298 129.064 177.818 128.68C177.362 128.272 177.134 127.732 177.134 127.06C177.134 126.364 177.362 125.824 177.818 125.44C178.298 125.056 178.898 124.864 179.618 124.864C180.338 124.864 180.926 125.056 181.382 125.44C181.862 125.824 182.102 126.364 182.102 127.06C182.102 127.732 181.862 128.272 181.382 128.68C180.926 129.064 180.338 129.256 179.618 129.256ZM192.381 151V124.756H196.881V135.484H197.097C197.649 134.14 198.489 133.144 199.617 132.496C200.745 131.824 202.005 131.488 203.397 131.488C204.357 131.488 205.245 131.644 206.061 131.956C206.901 132.244 207.621 132.712 208.221 133.36C208.845 133.984 209.325 134.812 209.661 135.844C210.021 136.852 210.201 138.076 210.201 139.516V151H205.701V140.488C205.701 139.288 205.557 138.304 205.269 137.536C204.981 136.744 204.537 136.156 203.937 135.772C203.361 135.388 202.605 135.196 201.669 135.196C200.661 135.196 199.797 135.436 199.077 135.916C198.381 136.396 197.841 137.032 197.457 137.824C197.073 138.616 196.881 139.492 196.881 140.452V151H192.381ZM222.366 151.324C220.926 151.324 219.63 151.108 218.478 150.676C217.326 150.22 216.318 149.56 215.454 148.696C214.614 147.832 213.966 146.788 213.51 145.564C213.078 144.34 212.862 142.96 212.862 141.424C212.862 139.456 213.234 137.728 213.978 136.24C214.746 134.752 215.838 133.588 217.254 132.748C218.67 131.908 220.374 131.488 222.366 131.488C223.782 131.488 225.066 131.716 226.218 132.172C227.37 132.628 228.354 133.288 229.17 134.152C230.01 135.016 230.658 136.06 231.114 137.284C231.57 138.484 231.798 139.864 231.798 141.424C231.798 143.368 231.414 145.084 230.646 146.572C229.902 148.06 228.822 149.224 227.406 150.064C226.014 150.904 224.334 151.324 222.366 151.324ZM222.33 147.616C223.314 147.616 224.178 147.388 224.922 146.932C225.666 146.452 226.242 145.756 226.65 144.844C227.058 143.908 227.262 142.768 227.262 141.424C227.262 140.416 227.142 139.528 226.902 138.76C226.686 137.968 226.362 137.308 225.93 136.78C225.498 136.252 224.982 135.856 224.382 135.592C223.782 135.328 223.11 135.196 222.366 135.196C221.382 135.196 220.506 135.436 219.738 135.916C218.994 136.372 218.418 137.068 218.01 138.004C217.602 138.916 217.398 140.056 217.398 141.424C217.398 142.432 217.506 143.332 217.722 144.124C217.962 144.892 218.298 145.54 218.73 146.068C219.162 146.572 219.678 146.956 220.278 147.22C220.902 147.484 221.586 147.616 222.33 147.616ZM222.33 157.192C221.73 157.192 221.202 157 220.746 156.616C220.314 156.256 220.098 155.764 220.098 155.14C220.098 154.468 220.314 153.952 220.746 153.592C221.202 153.232 221.73 153.052 222.33 153.052C222.954 153.052 223.482 153.232 223.914 153.592C224.37 153.952 224.598 154.468 224.598 155.14C224.598 155.764 224.37 156.256 223.914 156.616C223.482 157 222.954 157.192 222.33 157.192ZM216.174 129.508L220.134 124.36H224.562L228.522 129.508H224.67L222.33 126.448L220.026 129.508H216.174ZM234.448 151V131.848H238.948V151H234.448ZM236.716 129.256C235.996 129.256 235.396 129.064 234.916 128.68C234.46 128.272 234.232 127.732 234.232 127.06C234.232 126.364 234.46 125.824 234.916 125.44C235.396 125.056 235.996 124.864 236.716 124.864C237.436 124.864 238.024 125.056 238.48 125.44C238.96 125.824 239.2 126.364 239.2 127.06C239.2 127.732 238.96 128.272 238.48 128.68C238.024 129.064 237.436 129.256 236.716 129.256ZM249.731 151V124.756H262.259C264.875 124.756 266.855 125.38 268.199 126.628C269.543 127.852 270.215 129.472 270.215 131.488C270.215 132.472 270.035 133.36 269.675 134.152C269.315 134.92 268.799 135.58 268.127 136.132C267.455 136.684 266.639 137.068 265.679 137.284L265.643 137.5C266.843 137.692 267.827 138.076 268.595 138.652C269.363 139.228 269.939 139.936 270.323 140.776C270.707 141.616 270.899 142.54 270.899 143.548C270.899 145.156 270.527 146.524 269.783 147.652C269.063 148.756 268.019 149.596 266.651 150.172C265.283 150.724 263.627 151 261.683 151H249.731ZM254.375 147.292H261.179C262.859 147.292 264.083 146.92 264.851 146.176C265.643 145.432 266.039 144.46 266.039 143.26C266.039 141.964 265.631 140.992 264.815 140.344C264.023 139.696 262.919 139.372 261.503 139.372H253.907V135.808H261.287C262.223 135.808 262.991 135.652 263.591 135.34C264.215 135.028 264.671 134.608 264.959 134.08C265.271 133.528 265.427 132.88 265.427 132.136C265.427 130.936 265.019 130.024 264.203 129.4C263.411 128.752 262.355 128.428 261.035 128.428H254.375V147.292ZM273.887 151V131.848H278.387V151H273.887ZM274.427 129.508L271.223 124.36H275.723L277.847 129.508H274.427ZM282.159 151V131.848H286.479L286.659 135.484H286.875C287.427 134.14 288.267 133.144 289.395 132.496C290.523 131.824 291.783 131.488 293.175 131.488C294.135 131.488 295.023 131.644 295.839 131.956C296.679 132.244 297.399 132.712 297.999 133.36C298.623 133.984 299.103 134.812 299.439 135.844C299.799 136.852 299.979 138.076 299.979 139.516V151H295.479V140.488C295.479 139.288 295.335 138.304 295.047 137.536C294.759 136.744 294.315 136.156 293.715 135.772C293.139 135.388 292.383 135.196 291.447 135.196C290.439 135.196 289.575 135.436 288.855 135.916C288.159 136.396 287.619 137.032 287.235 137.824C286.851 138.616 286.659 139.492 286.659 140.452V151H282.159ZM303.403 151V124.756H307.903V135.484H308.119C308.671 134.14 309.511 133.144 310.639 132.496C311.767 131.824 313.027 131.488 314.419 131.488C315.379 131.488 316.267 131.644 317.083 131.956C317.923 132.244 318.643 132.712 319.243 133.36C319.867 133.984 320.347 134.812 320.683 135.844C321.043 136.852 321.223 138.076 321.223 139.516V151H316.723V140.488C316.723 139.288 316.579 138.304 316.291 137.536C316.003 136.744 315.559 136.156 314.959 135.772C314.383 135.388 313.627 135.196 312.691 135.196C311.683 135.196 310.819 135.436 310.099 135.916C309.403 136.396 308.863 137.032 308.479 137.824C308.095 138.616 307.903 139.492 307.903 140.452V151H303.403ZM331.659 151V124.756H342.567C345.111 124.756 347.271 125.308 349.047 126.412C350.847 127.492 352.215 129.016 353.151 130.984C354.087 132.952 354.555 135.256 354.555 137.896C354.555 139.84 354.291 141.628 353.763 143.26C353.235 144.868 352.455 146.248 351.423 147.4C350.391 148.552 349.131 149.44 347.643 150.064C346.179 150.688 344.487 151 342.567 151H331.659ZM336.411 146.896H341.811C342.963 146.896 344.019 146.728 344.979 146.392C345.939 146.056 346.767 145.528 347.463 144.808C348.159 144.064 348.699 143.116 349.083 141.964C349.467 140.812 349.659 139.42 349.659 137.788C349.659 135.652 349.323 133.936 348.651 132.64C348.003 131.32 347.091 130.36 345.915 129.76C344.739 129.136 343.371 128.824 341.811 128.824H336.411V146.896ZM364.301 151.324C362.861 151.324 361.625 151.036 360.593 150.46C359.561 149.884 358.769 149.032 358.217 147.904C357.689 146.752 357.425 145.36 357.425 143.728V131.848H361.925V142.54C361.925 143.62 362.069 144.544 362.357 145.312C362.645 146.056 363.089 146.632 363.689 147.04C364.289 147.448 365.069 147.652 366.029 147.652C366.989 147.652 367.817 147.412 368.513 146.932C369.233 146.452 369.785 145.816 370.169 145.024C370.553 144.208 370.745 143.296 370.745 142.288V131.848H375.245V151H370.925L370.745 147.292H370.529C370.049 148.588 369.245 149.584 368.117 150.28C367.013 150.976 365.741 151.324 364.301 151.324ZM371.357 134.44V131.848C372.293 131.872 373.037 131.764 373.589 131.524C374.141 131.284 374.513 130.876 374.705 130.3C374.921 129.724 374.969 128.992 374.849 128.104H378.413C378.605 129.568 378.461 130.792 377.981 131.776C377.501 132.736 376.709 133.444 375.605 133.9C374.501 134.356 373.085 134.536 371.357 134.44ZM388.015 151.324C386.575 151.324 385.279 151.108 384.127 150.676C382.975 150.22 381.967 149.56 381.103 148.696C380.263 147.832 379.615 146.788 379.159 145.564C378.727 144.34 378.511 142.96 378.511 141.424C378.511 139.456 378.883 137.728 379.627 136.24C380.395 134.752 381.487 133.588 382.903 132.748C384.319 131.908 386.023 131.488 388.015 131.488C389.431 131.488 390.715 131.716 391.867 132.172C393.019 132.628 394.003 133.288 394.819 134.152C395.659 135.016 396.307 136.06 396.763 137.284C397.219 138.484 397.447 139.864 397.447 141.424C397.447 143.368 397.063 145.084 396.295 146.572C395.551 148.06 394.471 149.224 393.055 150.064C391.663 150.904 389.983 151.324 388.015 151.324ZM387.979 147.616C388.963 147.616 389.827 147.388 390.571 146.932C391.315 146.452 391.891 145.756 392.299 144.844C392.707 143.908 392.911 142.768 392.911 141.424C392.911 140.416 392.791 139.528 392.551 138.76C392.335 137.968 392.011 137.308 391.579 136.78C391.147 136.252 390.631 135.856 390.031 135.592C389.431 135.328 388.759 135.196 388.015 135.196C387.031 135.196 386.155 135.436 385.387 135.916C384.643 136.372 384.067 137.068 383.659 138.004C383.251 138.916 383.047 140.056 383.047 141.424C383.047 142.432 383.155 143.332 383.371 144.124C383.611 144.892 383.947 145.54 384.379 146.068C384.811 146.572 385.327 146.956 385.927 147.22C386.551 147.484 387.235 147.616 387.979 147.616ZM390.859 135.016V132.424C391.795 132.448 392.539 132.34 393.091 132.1C393.643 131.86 394.015 131.452 394.207 130.876C394.423 130.3 394.471 129.568 394.351 128.68H397.915C398.107 130.144 397.963 131.368 397.483 132.352C397.003 133.312 396.211 134.02 395.107 134.476C394.003 134.932 392.587 135.112 390.859 135.016ZM400.167 151V131.848H404.487L404.667 135.484H404.883C405.435 134.14 406.275 133.144 407.403 132.496C408.531 131.824 409.791 131.488 411.183 131.488C412.143 131.488 413.031 131.644 413.847 131.956C414.687 132.244 415.407 132.712 416.007 133.36C416.631 133.984 417.111 134.812 417.447 135.844C417.807 136.852 417.987 138.076 417.987 139.516V151H413.487V140.488C413.487 139.288 413.343 138.304 413.055 137.536C412.767 136.744 412.323 136.156 411.723 135.772C411.147 135.388 410.391 135.196 409.455 135.196C408.447 135.196 407.583 135.436 406.863 135.916C406.167 136.396 405.627 137.032 405.243 137.824C404.859 138.616 404.667 139.492 404.667 140.452V151H400.167ZM429.361 157.372C427.753 157.372 426.361 157.132 425.185 156.652C424.009 156.196 423.073 155.536 422.377 154.672C421.705 153.832 421.321 152.848 421.225 151.72H425.545C425.641 152.2 425.857 152.62 426.193 152.98C426.553 153.34 427.009 153.616 427.561 153.808C428.113 154.024 428.749 154.132 429.469 154.132C430.621 154.132 431.545 153.964 432.241 153.628C432.937 153.316 433.441 152.836 433.753 152.188C434.089 151.54 434.257 150.736 434.257 149.776V146.68H434.041C433.657 147.712 432.937 148.564 431.881 149.236C430.825 149.884 429.577 150.208 428.137 150.208C427.009 150.208 425.989 149.992 425.077 149.56C424.165 149.128 423.373 148.516 422.701 147.724C422.053 146.908 421.549 145.924 421.189 144.772C420.829 143.62 420.649 142.312 420.649 140.848C420.649 138.88 420.961 137.2 421.585 135.808C422.209 134.416 423.085 133.348 424.213 132.604C425.341 131.86 426.649 131.488 428.137 131.488C429.529 131.488 430.753 131.8 431.809 132.424C432.889 133.048 433.633 133.9 434.041 134.98H434.293L434.437 131.848H438.757V148.984C438.757 151 438.373 152.62 437.605 153.844C436.837 155.092 435.745 155.992 434.329 156.544C432.937 157.096 431.281 157.372 429.361 157.372ZM429.793 146.536C430.753 146.536 431.557 146.32 432.205 145.888C432.877 145.456 433.381 144.88 433.717 144.16C434.053 143.44 434.221 142.648 434.221 141.784V139.912C434.221 138.976 434.041 138.16 433.681 137.464C433.345 136.744 432.853 136.18 432.205 135.772C431.557 135.34 430.777 135.124 429.865 135.124C428.857 135.124 428.005 135.364 427.309 135.844C426.637 136.3 426.121 136.96 425.761 137.824C425.401 138.664 425.221 139.672 425.221 140.848C425.221 142 425.389 143.008 425.725 143.872C426.085 144.712 426.601 145.372 427.273 145.852C427.945 146.308 428.785 146.536 429.793 146.536Z" fill="#FFFCFE"/>
<g clip-path="url(#clip0_681_2497)">
<path d="M244.062 83.5984C242.43 81.5097 240.567 79.6662 239.348 77.4669C234.971 69.5704 238.502 59.7018 247.563 57.8524C257.311 55.8642 264.47 63.831 262.988 72.799C262.325 76.8015 260.103 79.8029 257.335 82.5168C256.59 83.2486 256.568 83.6788 257.331 84.4668C259.759 86.9777 262.091 89.579 264.428 92.1763C264.938 92.7412 265.401 92.9121 266.126 92.6146C272.281 90.0896 276.686 85.9183 277.816 79.1938C278.781 73.4584 277.569 67.9642 274.124 63.2118C272.303 60.701 270.071 58.4675 267.879 56.2501C265.889 54.2378 265.576 51.6345 267.345 49.6121C268.987 47.7365 271.835 47.6923 273.9 49.5216C278.584 53.6709 282.649 58.3388 284.809 64.2793C288.533 74.5198 288.106 84.3261 280.79 93.0488C276.88 97.7087 271.733 100.427 265.925 102.131C263.381 102.879 261.596 102.823 259.779 100.485C257.22 97.1921 254.172 94.2791 251.348 91.1893C251.052 90.8656 250.863 90.4455 250.546 89.9489C248.897 91.714 247.537 93.1513 246.195 94.6068C243.802 97.2061 241.431 99.8276 239.018 102.409C238.792 102.65 238.309 102.837 237.996 102.779C227.95 100.931 220.118 95.9959 215.738 86.4872C213.831 82.3479 213.416 77.9253 213.77 73.382C214.552 63.3767 219.663 55.7777 226.965 49.3749C228.984 47.6058 231.8 47.7968 233.407 49.7026C235.124 51.735 234.84 54.4529 232.72 56.2883C229.842 58.7791 227.307 61.5694 225.48 64.9266C222.777 69.8921 221.748 75.1712 223.2 80.6915C224.511 85.679 227.737 89.2534 232.334 91.533C235.416 93.0609 235.456 92.9925 237.785 90.4997C239.807 88.3326 241.82 86.1555 243.83 83.9763C243.961 83.8336 244.04 83.6406 244.066 83.5964L244.062 83.5984ZM250.367 76.8477C251.646 75.4305 252.857 74.2283 253.903 72.8995C255.452 70.9314 255.512 67.6064 254.154 65.8353C252.809 64.0803 250.343 63.5817 248.099 64.609C246.153 65.5016 245.214 67.733 245.655 70.1655C246.185 73.0744 248.467 74.6786 250.365 76.8477H250.367Z" fill="#C9187F"/>
<path d="M207.509 102.928H201.623C201.593 102.391 201.536 101.878 201.536 101.366C201.53 94.209 201.534 87.0523 201.532 79.8956C201.532 78.2511 201.526 78.2451 199.947 78.2451C191.881 78.2431 183.815 78.2652 175.747 78.219C174.56 78.2129 174.222 78.5869 174.23 79.7468C174.274 86.9035 174.252 94.0602 174.252 101.217C174.252 101.738 174.252 102.26 174.252 102.877H168.368C168.342 102.395 168.293 101.916 168.293 101.436C168.289 90.7412 168.225 80.0463 168.31 69.3535C168.382 60.3132 172.459 53.5043 180.672 49.6907C186.549 46.9627 192.566 47.594 198.017 51.1924C202.517 54.1616 205.575 58.325 206.834 63.6161C207.292 65.5359 207.531 67.5523 207.545 69.5284C207.612 80.2233 207.578 90.9181 207.576 101.611C207.576 102.009 207.537 102.409 207.511 102.93L207.509 102.928ZM187.886 72.5459C191.998 72.5459 196.111 72.5499 200.223 72.5419C200.817 72.5419 201.494 72.6585 201.53 71.7056C201.712 66.9512 200.918 62.5064 197.761 58.6908C192.421 52.2358 183.195 52.292 177.967 58.7793C175.098 62.3396 174.158 66.4024 174.246 70.8331C174.28 72.5399 174.256 72.5459 175.916 72.5459C179.907 72.5499 183.896 72.5459 187.886 72.5459Z" fill="#C9187F"/>
<path d="M162.445 102.928H156.517C156.517 102.409 156.517 101.937 156.517 101.464C156.517 94.2292 156.495 86.9921 156.539 79.757C156.547 78.6152 156.261 78.2111 155.05 78.2171C146.863 78.2654 138.679 78.2634 130.492 78.2191C129.358 78.2131 129.037 78.5609 129.045 79.6766C129.09 86.8715 129.068 94.0664 129.068 101.263C129.068 101.782 129.068 102.301 129.068 102.896H123.099C123.075 102.474 123.028 102.043 123.028 101.611C123.024 84.2923 123.036 66.9755 123 49.6567C122.998 48.4726 123.332 48.0706 124.509 48.1691C125.641 48.2636 126.793 48.2595 127.927 48.1691C129.019 48.0826 129.082 48.6556 129.08 49.4939C129.062 56.5681 129.068 63.6404 129.07 70.7147C129.07 71.9329 129.661 72.5434 130.844 72.5461C138.868 72.5461 146.892 72.5461 154.915 72.5461C156.515 72.5461 156.519 72.54 156.519 70.9197C156.519 63.8877 156.519 56.8536 156.519 49.8215C156.519 48.736 157.08 48.1925 158.203 48.1912C159.581 48.1912 160.959 48.1912 162.447 48.1912V102.928H162.445Z" fill="#C9187F"/>
<path d="M309.806 78.3035C306.712 78.3035 303.616 78.3377 300.522 78.2854C299.474 78.2673 299.085 78.5809 299.099 79.6705C299.15 83.2971 299.305 86.8694 300.856 90.2668C302.689 94.2774 305.856 96.5511 310.1 96.8767C315.04 97.2567 320.02 97.1401 324.983 97.1984C328.327 97.2366 328.341 97.2064 328.323 100.586C328.307 103.454 328.609 102.978 325.934 102.96C320.807 102.926 315.662 103.048 310.558 102.674C303.021 102.124 297.584 98.4005 294.762 91.1996C293.662 88.3932 293.201 85.4863 293.193 82.507C293.181 77.1838 293.076 71.8524 293.324 66.5392C293.574 61.1656 295.566 56.4253 299.633 52.7243C302.482 50.1331 305.971 48.8646 309.714 48.5389C313.434 48.2152 317.189 48.2715 320.93 48.1971C322.965 48.1569 325.003 48.2414 327.038 48.169C328.088 48.1308 328.406 48.5308 328.341 49.5119C328.281 50.4426 328.259 51.3875 328.345 52.3142C328.46 53.5365 327.926 53.8119 326.794 53.7958C322.886 53.7375 318.972 53.6813 315.068 53.8099C312.85 53.8823 310.616 54.1738 308.438 54.616C303.122 55.6976 300.757 59.5815 299.7 64.4324C299.262 66.4346 299.244 68.5394 299.14 70.602C299.057 72.2464 299.128 72.2545 300.842 72.2545C306.909 72.2565 312.977 72.2826 319.045 72.2324C320.173 72.2223 320.551 72.5601 320.465 73.6778C320.372 74.8498 320.396 76.0359 320.459 77.2119C320.505 78.0783 320.175 78.3296 319.337 78.3196C316.16 78.2834 312.985 78.3055 309.808 78.3055L309.806 78.3035Z" fill="#C9187F"/>
<path d="M347.57 78.3053C344.433 78.3053 341.294 78.3375 338.158 78.2872C337.133 78.2711 336.748 78.643 336.83 79.6361C337.03 82.0605 336.969 84.5312 337.435 86.9014C338.702 93.3685 343.176 97.0072 349.935 97.162C354.822 97.2745 359.713 97.2303 364.6 97.1801C365.666 97.17 366.066 97.4454 365.99 98.531C365.907 99.705 365.952 100.889 365.974 102.067C365.986 102.743 365.708 102.994 365.025 102.982C359.243 102.877 353.432 103.145 347.69 102.624C338.899 101.828 332.818 96.5267 331.389 87.1466C330.197 79.3124 330.201 71.3054 331.474 63.4531C332.868 54.851 338.915 49.3669 347.612 48.5125C351.772 48.1044 355.988 48.2693 360.178 48.1929C361.725 48.1647 363.274 48.221 364.822 48.1748C365.653 48.1507 366.018 48.4221 365.98 49.2845C365.934 50.3399 365.919 51.4013 365.984 52.4547C366.044 53.4559 365.676 53.8016 364.658 53.7896C360.952 53.7413 357.241 53.677 353.538 53.8057C351.075 53.8921 348.581 54.1052 346.169 54.5977C340.769 55.6994 338.345 59.6436 337.34 64.6231C336.933 66.6334 337.008 68.7402 336.822 70.7988C336.724 71.9004 337.122 72.2864 338.265 72.2764C344.375 72.2281 350.487 72.2904 356.598 72.2241C357.868 72.21 358.262 72.6 358.139 73.8143C358.047 74.741 358.121 75.6838 358.121 76.6186C358.121 77.739 357.577 78.3006 356.49 78.3033C353.516 78.3033 350.541 78.3033 347.568 78.3033L347.57 78.3053Z" fill="#C9187F"/>
</g>
<defs>
<clipPath id="clip0_681_2497">
<rect width="243" height="55" fill="white" transform="translate(123 48)"/>
</clipPath>
</defs>
</svg>
