<svg width="500" height="210" viewBox="0 0 500 210" fill="none" xmlns="http://www.w3.org/2000/svg">
<rect x="111" y="115" width="321" height="46" rx="23" fill="#9ADFF6"/>
<path d="M141.472 151.324C139.504 151.324 137.716 151.024 136.108 150.424C134.524 149.8 133.156 148.912 132.004 147.76C130.852 146.608 129.964 145.204 129.34 143.548C128.74 141.868 128.44 139.972 128.44 137.86C128.44 135.748 128.74 133.864 129.34 132.208C129.964 130.552 130.852 129.148 132.004 127.996C133.156 126.844 134.524 125.968 136.108 125.368C137.716 124.744 139.504 124.432 141.472 124.432C143.68 124.432 145.648 124.816 147.376 125.584C149.104 126.352 150.508 127.432 151.588 128.824C152.668 130.192 153.328 131.812 153.568 133.684H148.708C148.492 132.652 148.06 131.752 147.412 130.984C146.764 130.216 145.936 129.616 144.928 129.184C143.92 128.752 142.768 128.536 141.472 128.536C139.816 128.536 138.376 128.896 137.152 129.616C135.952 130.312 135.016 131.356 134.344 132.748C133.672 134.14 133.336 135.844 133.336 137.86C133.336 139.372 133.528 140.716 133.912 141.892C134.296 143.068 134.836 144.052 135.532 144.844C136.252 145.636 137.104 146.236 138.088 146.644C139.096 147.028 140.224 147.22 141.472 147.22C142.744 147.22 143.884 147.004 144.892 146.572C145.9 146.14 146.74 145.54 147.412 144.772C148.084 143.98 148.516 143.068 148.708 142.036H153.568C153.352 143.884 152.692 145.516 151.588 146.932C150.508 148.324 149.104 149.404 147.376 150.172C145.648 150.94 143.68 151.324 141.472 151.324ZM156.105 151V124.756H160.605V135.484H160.821C161.373 134.14 162.213 133.144 163.341 132.496C164.469 131.824 165.729 131.488 167.121 131.488C168.081 131.488 168.969 131.644 169.785 131.956C170.625 132.244 171.345 132.712 171.945 133.36C172.569 133.984 173.049 134.812 173.385 135.844C173.745 136.852 173.925 138.076 173.925 139.516V151H169.425V140.488C169.425 139.288 169.281 138.304 168.993 137.536C168.705 136.744 168.261 136.156 167.661 135.772C167.085 135.388 166.329 135.196 165.393 135.196C164.385 135.196 163.521 135.436 162.801 135.916C162.105 136.396 161.565 137.032 161.181 137.824C160.797 138.616 160.605 139.492 160.605 140.452V151H156.105ZM177.35 151V131.848H181.85V151H177.35ZM179.618 129.256C178.898 129.256 178.298 129.064 177.818 128.68C177.362 128.272 177.134 127.732 177.134 127.06C177.134 126.364 177.362 125.824 177.818 125.44C178.298 125.056 178.898 124.864 179.618 124.864C180.338 124.864 180.926 125.056 181.382 125.44C181.862 125.824 182.102 126.364 182.102 127.06C182.102 127.732 181.862 128.272 181.382 128.68C180.926 129.064 180.338 129.256 179.618 129.256ZM192.381 151V124.756H196.881V135.484H197.097C197.649 134.14 198.489 133.144 199.617 132.496C200.745 131.824 202.005 131.488 203.397 131.488C204.357 131.488 205.245 131.644 206.061 131.956C206.901 132.244 207.621 132.712 208.221 133.36C208.845 133.984 209.325 134.812 209.661 135.844C210.021 136.852 210.201 138.076 210.201 139.516V151H205.701V140.488C205.701 139.288 205.557 138.304 205.269 137.536C204.981 136.744 204.537 136.156 203.937 135.772C203.361 135.388 202.605 135.196 201.669 135.196C200.661 135.196 199.797 135.436 199.077 135.916C198.381 136.396 197.841 137.032 197.457 137.824C197.073 138.616 196.881 139.492 196.881 140.452V151H192.381ZM222.366 151.324C220.926 151.324 219.63 151.108 218.478 150.676C217.326 150.22 216.318 149.56 215.454 148.696C214.614 147.832 213.966 146.788 213.51 145.564C213.078 144.34 212.862 142.96 212.862 141.424C212.862 139.456 213.234 137.728 213.978 136.24C214.746 134.752 215.838 133.588 217.254 132.748C218.67 131.908 220.374 131.488 222.366 131.488C223.782 131.488 225.066 131.716 226.218 132.172C227.37 132.628 228.354 133.288 229.17 134.152C230.01 135.016 230.658 136.06 231.114 137.284C231.57 138.484 231.798 139.864 231.798 141.424C231.798 143.368 231.414 145.084 230.646 146.572C229.902 148.06 228.822 149.224 227.406 150.064C226.014 150.904 224.334 151.324 222.366 151.324ZM222.33 147.616C223.314 147.616 224.178 147.388 224.922 146.932C225.666 146.452 226.242 145.756 226.65 144.844C227.058 143.908 227.262 142.768 227.262 141.424C227.262 140.416 227.142 139.528 226.902 138.76C226.686 137.968 226.362 137.308 225.93 136.78C225.498 136.252 224.982 135.856 224.382 135.592C223.782 135.328 223.11 135.196 222.366 135.196C221.382 135.196 220.506 135.436 219.738 135.916C218.994 136.372 218.418 137.068 218.01 138.004C217.602 138.916 217.398 140.056 217.398 141.424C217.398 142.432 217.506 143.332 217.722 144.124C217.962 144.892 218.298 145.54 218.73 146.068C219.162 146.572 219.678 146.956 220.278 147.22C220.902 147.484 221.586 147.616 222.33 147.616ZM222.33 157.192C221.73 157.192 221.202 157 220.746 156.616C220.314 156.256 220.098 155.764 220.098 155.14C220.098 154.468 220.314 153.952 220.746 153.592C221.202 153.232 221.73 153.052 222.33 153.052C222.954 153.052 223.482 153.232 223.914 153.592C224.37 153.952 224.598 154.468 224.598 155.14C224.598 155.764 224.37 156.256 223.914 156.616C223.482 157 222.954 157.192 222.33 157.192ZM216.174 129.508L220.134 124.36H224.562L228.522 129.508H224.67L222.33 126.448L220.026 129.508H216.174ZM234.448 151V131.848H238.948V151H234.448ZM236.716 129.256C235.996 129.256 235.396 129.064 234.916 128.68C234.46 128.272 234.232 127.732 234.232 127.06C234.232 126.364 234.46 125.824 234.916 125.44C235.396 125.056 235.996 124.864 236.716 124.864C237.436 124.864 238.024 125.056 238.48 125.44C238.96 125.824 239.2 126.364 239.2 127.06C239.2 127.732 238.96 128.272 238.48 128.68C238.024 129.064 237.436 129.256 236.716 129.256ZM249.731 151V124.756H260.243C262.355 124.756 264.131 125.104 265.571 125.8C267.011 126.496 268.091 127.48 268.811 128.752C269.555 130 269.927 131.488 269.927 133.216C269.927 135.016 269.519 136.552 268.703 137.824C267.911 139.096 266.783 140.08 265.319 140.776C263.879 141.448 262.187 141.784 260.243 141.784H254.015V138.04H259.847C261.623 138.04 262.931 137.608 263.771 136.744C264.635 135.856 265.067 134.728 265.067 133.36C265.067 131.848 264.599 130.72 263.663 129.976C262.727 129.208 261.455 128.824 259.847 128.824H253.835L254.483 128.176V151H249.731ZM272.622 151V124.756H277.122V135.484H277.338C277.89 134.14 278.73 133.144 279.858 132.496C280.986 131.824 282.246 131.488 283.638 131.488C284.598 131.488 285.486 131.644 286.302 131.956C287.142 132.244 287.862 132.712 288.462 133.36C289.086 133.984 289.566 134.812 289.902 135.844C290.262 136.852 290.442 138.076 290.442 139.516V151H285.942V140.488C285.942 139.288 285.798 138.304 285.51 137.536C285.222 136.744 284.778 136.156 284.178 135.772C283.602 135.388 282.846 135.196 281.91 135.196C280.902 135.196 280.038 135.436 279.318 135.916C278.622 136.396 278.082 137.032 277.698 137.824C277.314 138.616 277.122 139.492 277.122 140.452V151H272.622ZM300.953 151.324C299.777 151.324 298.709 151.108 297.749 150.676C296.789 150.22 295.961 149.572 295.265 148.732C294.569 147.868 294.029 146.824 293.645 145.6C293.285 144.352 293.105 142.96 293.105 141.424C293.105 139.336 293.429 137.548 294.077 136.06C294.749 134.572 295.673 133.444 296.849 132.676C298.025 131.884 299.393 131.488 300.953 131.488C301.961 131.488 302.873 131.644 303.689 131.956C304.529 132.268 305.237 132.712 305.813 133.288C306.413 133.864 306.857 134.536 307.145 135.304H307.397L307.577 131.848H311.825V151H307.577L307.397 147.508H307.145C306.737 148.66 305.981 149.584 304.877 150.28C303.773 150.976 302.465 151.324 300.953 151.324ZM302.537 147.652C303.593 147.652 304.469 147.424 305.165 146.968C305.885 146.488 306.425 145.852 306.785 145.06C307.145 144.268 307.325 143.392 307.325 142.432V140.38C307.325 139.396 307.133 138.508 306.749 137.716C306.389 136.924 305.849 136.3 305.129 135.844C304.433 135.388 303.605 135.16 302.645 135.16C301.565 135.16 300.653 135.412 299.909 135.916C299.189 136.396 298.637 137.104 298.253 138.04C297.869 138.976 297.677 140.104 297.677 141.424C297.677 142.696 297.857 143.8 298.217 144.736C298.601 145.672 299.153 146.392 299.873 146.896C300.593 147.4 301.481 147.652 302.537 147.652ZM301.349 129.508L303.473 124.36H307.973L304.805 129.508H301.349ZM321.939 151C320.403 151 319.251 150.64 318.483 149.92C317.739 149.176 317.367 148 317.367 146.392V135.484H313.839V131.848H317.367V126.448L321.867 125.98V131.848H325.899V135.484H321.867V145.564C321.867 146.212 322.011 146.668 322.299 146.932C322.611 147.172 323.055 147.292 323.631 147.292H325.935V151H321.939ZM341.647 151V128.392H346.435V151H341.647ZM333.655 128.896V124.756H354.535V128.896H333.655ZM354.339 151V131.848H358.407L358.623 135.052H358.767C359.199 133.828 359.895 132.952 360.855 132.424C361.839 131.872 362.955 131.596 364.203 131.596C364.419 131.596 364.611 131.596 364.779 131.596C364.971 131.596 365.151 131.596 365.319 131.596V135.844C365.175 135.844 364.995 135.844 364.779 135.844C364.587 135.82 364.371 135.808 364.131 135.808C362.979 135.808 362.019 136 361.251 136.384C360.483 136.744 359.895 137.272 359.487 137.968C359.103 138.664 358.887 139.516 358.839 140.524V151H354.339ZM367.357 151V131.848H371.857V151H367.357ZM369.625 129.256C368.905 129.256 368.305 129.064 367.825 128.68C367.369 128.272 367.141 127.732 367.141 127.06C367.141 126.364 367.369 125.824 367.825 125.44C368.305 125.056 368.905 124.864 369.625 124.864C370.345 124.864 370.933 125.056 371.389 125.44C371.869 125.824 372.109 126.364 372.109 127.06C372.109 127.732 371.869 128.272 371.389 128.68C370.933 129.064 370.345 129.256 369.625 129.256ZM383.584 151.324C381.64 151.324 379.984 150.928 378.616 150.136C377.272 149.32 376.24 148.18 375.52 146.716C374.8 145.228 374.44 143.5 374.44 141.532C374.44 139.492 374.8 137.728 375.52 136.24C376.24 134.728 377.272 133.564 378.616 132.748C379.96 131.932 381.556 131.524 383.404 131.524C385.516 131.524 387.244 131.992 388.588 132.928C389.956 133.84 390.94 135.112 391.54 136.744C392.14 138.376 392.344 140.248 392.152 142.36H378.832C378.832 143.584 379.024 144.616 379.408 145.456C379.816 146.272 380.368 146.896 381.064 147.328C381.784 147.736 382.624 147.94 383.584 147.94C384.712 147.94 385.624 147.7 386.32 147.22C387.04 146.74 387.52 146.104 387.76 145.312H392.008C391.816 146.56 391.336 147.64 390.568 148.552C389.8 149.44 388.816 150.124 387.616 150.604C386.416 151.084 385.072 151.324 383.584 151.324ZM378.832 139.948L378.436 139.48H388.192L387.76 139.984C387.808 138.808 387.652 137.848 387.292 137.104C386.932 136.36 386.416 135.808 385.744 135.448C385.072 135.088 384.292 134.908 383.404 134.908C382.492 134.908 381.7 135.1 381.028 135.484C380.356 135.868 379.828 136.444 379.444 137.212C379.06 137.956 378.856 138.868 378.832 139.948ZM377.608 129.508L381.568 124.36H385.996L389.956 129.508H386.104L383.764 126.448L381.46 129.508H377.608ZM390.1 127.78L388.804 126.124C389.188 125.836 389.5 125.524 389.74 125.188C389.98 124.852 390.1 124.492 390.1 124.108C390.1 123.724 389.98 123.412 389.74 123.172C389.5 122.932 389.14 122.812 388.66 122.812C388.492 122.812 388.3 122.836 388.084 122.884C387.892 122.908 387.724 122.956 387.58 123.028V121.084C387.916 120.964 388.288 120.88 388.696 120.832C389.104 120.784 389.464 120.76 389.776 120.76C390.88 120.76 391.732 121.036 392.332 121.588C392.932 122.116 393.232 122.812 393.232 123.676C393.232 124.444 392.992 125.176 392.512 125.872C392.032 126.568 391.228 127.204 390.1 127.78ZM395.536 151V131.848H399.856L400.036 135.484H400.252C400.804 134.14 401.644 133.144 402.772 132.496C403.9 131.824 405.16 131.488 406.552 131.488C407.512 131.488 408.4 131.644 409.216 131.956C410.056 132.244 410.776 132.712 411.376 133.36C412 133.984 412.48 134.812 412.816 135.844C413.176 136.852 413.356 138.076 413.356 139.516V151H408.856V140.488C408.856 139.288 408.712 138.304 408.424 137.536C408.136 136.744 407.692 136.156 407.092 135.772C406.516 135.388 405.76 135.196 404.824 135.196C403.816 135.196 402.952 135.436 402.232 135.916C401.536 136.396 400.996 137.032 400.612 137.824C400.228 138.616 400.036 139.492 400.036 140.452V151H395.536Z" fill="#14576E"/>
<g clip-path="url(#clip0_681_2489)">
<path d="M244.062 83.5984C242.43 81.5097 240.567 79.6662 239.348 77.4669C234.971 69.5704 238.502 59.7018 247.563 57.8524C257.311 55.8642 264.47 63.831 262.988 72.799C262.325 76.8015 260.103 79.8029 257.335 82.5168C256.59 83.2486 256.568 83.6788 257.331 84.4668C259.759 86.9777 262.091 89.579 264.428 92.1763C264.938 92.7412 265.401 92.9121 266.126 92.6146C272.281 90.0896 276.686 85.9183 277.816 79.1938C278.781 73.4584 277.569 67.9642 274.124 63.2118C272.303 60.701 270.071 58.4675 267.879 56.2501C265.889 54.2378 265.576 51.6345 267.345 49.6121C268.987 47.7365 271.835 47.6923 273.9 49.5216C278.584 53.6709 282.649 58.3388 284.809 64.2793C288.533 74.5198 288.106 84.3261 280.79 93.0488C276.88 97.7087 271.733 100.427 265.925 102.131C263.381 102.879 261.596 102.823 259.779 100.485C257.22 97.1921 254.172 94.2791 251.348 91.1893C251.052 90.8656 250.863 90.4455 250.546 89.9489C248.897 91.714 247.537 93.1513 246.195 94.6068C243.802 97.2061 241.431 99.8276 239.018 102.409C238.792 102.65 238.309 102.837 237.996 102.779C227.95 100.931 220.118 95.9959 215.738 86.4872C213.831 82.3479 213.416 77.9253 213.77 73.382C214.552 63.3767 219.663 55.7777 226.965 49.3749C228.984 47.6058 231.8 47.7968 233.407 49.7026C235.124 51.735 234.84 54.4529 232.72 56.2883C229.842 58.7791 227.307 61.5694 225.48 64.9266C222.777 69.8921 221.748 75.1712 223.2 80.6915C224.511 85.679 227.737 89.2534 232.334 91.533C235.416 93.0609 235.456 92.9925 237.785 90.4997C239.807 88.3326 241.82 86.1555 243.83 83.9763C243.961 83.8336 244.04 83.6406 244.066 83.5964L244.062 83.5984ZM250.367 76.8477C251.646 75.4305 252.857 74.2283 253.903 72.8995C255.452 70.9314 255.512 67.6064 254.154 65.8353C252.809 64.0803 250.343 63.5817 248.099 64.609C246.153 65.5016 245.214 67.733 245.655 70.1655C246.185 73.0744 248.467 74.6786 250.365 76.8477H250.367Z" fill="#C9187F"/>
<path d="M207.509 102.928H201.623C201.593 102.391 201.536 101.878 201.536 101.366C201.53 94.209 201.534 87.0523 201.532 79.8956C201.532 78.2511 201.526 78.2451 199.947 78.2451C191.881 78.2431 183.815 78.2652 175.747 78.219C174.56 78.2129 174.222 78.5869 174.23 79.7468C174.274 86.9035 174.252 94.0602 174.252 101.217C174.252 101.738 174.252 102.26 174.252 102.877H168.368C168.342 102.395 168.293 101.916 168.293 101.436C168.289 90.7412 168.225 80.0463 168.31 69.3535C168.382 60.3132 172.459 53.5043 180.672 49.6907C186.549 46.9627 192.566 47.594 198.017 51.1924C202.517 54.1616 205.575 58.325 206.834 63.6161C207.292 65.5359 207.531 67.5523 207.545 69.5284C207.612 80.2233 207.578 90.9181 207.576 101.611C207.576 102.009 207.537 102.409 207.511 102.93L207.509 102.928ZM187.886 72.5459C191.998 72.5459 196.111 72.5499 200.223 72.5419C200.817 72.5419 201.494 72.6585 201.53 71.7056C201.712 66.9512 200.918 62.5064 197.761 58.6908C192.421 52.2358 183.195 52.292 177.967 58.7793C175.098 62.3396 174.158 66.4024 174.246 70.8331C174.28 72.5399 174.256 72.5459 175.916 72.5459C179.907 72.5499 183.896 72.5459 187.886 72.5459Z" fill="#C9187F"/>
<path d="M162.445 102.928H156.517C156.517 102.409 156.517 101.937 156.517 101.464C156.517 94.2292 156.495 86.9921 156.539 79.757C156.547 78.6152 156.261 78.2111 155.05 78.2171C146.863 78.2654 138.679 78.2634 130.492 78.2191C129.358 78.2131 129.037 78.5609 129.045 79.6766C129.09 86.8715 129.068 94.0664 129.068 101.263C129.068 101.782 129.068 102.301 129.068 102.896H123.099C123.075 102.474 123.028 102.043 123.028 101.611C123.024 84.2923 123.036 66.9755 123 49.6567C122.998 48.4726 123.332 48.0706 124.509 48.1691C125.641 48.2636 126.793 48.2595 127.927 48.1691C129.019 48.0826 129.082 48.6556 129.08 49.4939C129.062 56.5681 129.068 63.6404 129.07 70.7147C129.07 71.9329 129.661 72.5434 130.844 72.5461C138.868 72.5461 146.892 72.5461 154.915 72.5461C156.515 72.5461 156.519 72.54 156.519 70.9197C156.519 63.8877 156.519 56.8536 156.519 49.8215C156.519 48.736 157.08 48.1925 158.203 48.1912C159.581 48.1912 160.959 48.1912 162.447 48.1912V102.928H162.445Z" fill="#C9187F"/>
<path d="M309.806 78.3035C306.712 78.3035 303.616 78.3377 300.522 78.2854C299.474 78.2673 299.085 78.5809 299.099 79.6705C299.15 83.2971 299.305 86.8694 300.856 90.2668C302.689 94.2774 305.856 96.5511 310.1 96.8767C315.04 97.2567 320.02 97.1401 324.983 97.1984C328.327 97.2366 328.341 97.2064 328.323 100.586C328.307 103.454 328.609 102.978 325.934 102.96C320.807 102.926 315.662 103.048 310.558 102.674C303.021 102.124 297.584 98.4005 294.762 91.1996C293.662 88.3932 293.201 85.4863 293.193 82.507C293.181 77.1838 293.076 71.8524 293.324 66.5392C293.574 61.1656 295.566 56.4253 299.633 52.7243C302.482 50.1331 305.971 48.8646 309.714 48.5389C313.434 48.2152 317.189 48.2715 320.93 48.1971C322.965 48.1569 325.003 48.2414 327.038 48.169C328.088 48.1308 328.406 48.5308 328.341 49.5119C328.281 50.4426 328.259 51.3875 328.345 52.3142C328.46 53.5365 327.926 53.8119 326.794 53.7958C322.886 53.7375 318.972 53.6813 315.068 53.8099C312.85 53.8823 310.616 54.1738 308.438 54.616C303.122 55.6976 300.757 59.5815 299.7 64.4324C299.262 66.4346 299.244 68.5394 299.14 70.602C299.057 72.2464 299.127 72.2545 300.842 72.2545C306.909 72.2565 312.977 72.2826 319.045 72.2324C320.173 72.2223 320.551 72.5601 320.465 73.6778C320.372 74.8498 320.396 76.0359 320.459 77.2119C320.505 78.0783 320.175 78.3296 319.337 78.3196C316.16 78.2834 312.985 78.3055 309.808 78.3055L309.806 78.3035Z" fill="#C9187F"/>
<path d="M347.57 78.3053C344.433 78.3053 341.294 78.3375 338.158 78.2872C337.133 78.2711 336.748 78.643 336.83 79.6361C337.03 82.0605 336.969 84.5312 337.435 86.9014C338.702 93.3685 343.176 97.0072 349.935 97.162C354.822 97.2745 359.713 97.2303 364.6 97.1801C365.666 97.17 366.066 97.4454 365.99 98.531C365.907 99.705 365.952 100.889 365.974 102.067C365.986 102.743 365.708 102.994 365.025 102.982C359.243 102.877 353.432 103.145 347.69 102.624C338.899 101.828 332.818 96.5267 331.389 87.1466C330.197 79.3124 330.201 71.3054 331.474 63.4531C332.868 54.851 338.915 49.3669 347.612 48.5125C351.772 48.1044 355.988 48.2693 360.178 48.1929C361.725 48.1647 363.274 48.221 364.822 48.1748C365.653 48.1507 366.018 48.4221 365.98 49.2845C365.934 50.3399 365.919 51.4013 365.984 52.4547C366.044 53.4559 365.676 53.8016 364.658 53.7896C360.952 53.7413 357.241 53.677 353.538 53.8057C351.075 53.8921 348.581 54.1052 346.169 54.5977C340.769 55.6994 338.345 59.6436 337.34 64.6231C336.933 66.6334 337.008 68.7402 336.822 70.7988C336.724 71.9004 337.122 72.2864 338.265 72.2764C344.375 72.2281 350.487 72.2904 356.598 72.2241C357.868 72.21 358.262 72.6 358.139 73.8143C358.047 74.741 358.121 75.6838 358.121 76.6186C358.121 77.739 357.577 78.3006 356.49 78.3033C353.516 78.3033 350.541 78.3033 347.568 78.3033L347.57 78.3053Z" fill="#C9187F"/>
</g>
<defs>
<clipPath id="clip0_681_2489">
<rect width="243" height="55" fill="white" transform="translate(123 48)"/>
</clipPath>
</defs>
</svg>
