<svg width="500" height="210" viewBox="0 0 500 210" fill="none" xmlns="http://www.w3.org/2000/svg">
<rect x="111" y="115" width="309" height="46" rx="23" fill="#FFA100"/>
<path d="M141.472 151.324C139.504 151.324 137.716 151.024 136.108 150.424C134.524 149.8 133.156 148.912 132.004 147.76C130.852 146.608 129.964 145.204 129.34 143.548C128.74 141.868 128.44 139.972 128.44 137.86C128.44 135.748 128.74 133.864 129.34 132.208C129.964 130.552 130.852 129.148 132.004 127.996C133.156 126.844 134.524 125.968 136.108 125.368C137.716 124.744 139.504 124.432 141.472 124.432C143.68 124.432 145.648 124.816 147.376 125.584C149.104 126.352 150.508 127.432 151.588 128.824C152.668 130.192 153.328 131.812 153.568 133.684H148.708C148.492 132.652 148.06 131.752 147.412 130.984C146.764 130.216 145.936 129.616 144.928 129.184C143.92 128.752 142.768 128.536 141.472 128.536C139.816 128.536 138.376 128.896 137.152 129.616C135.952 130.312 135.016 131.356 134.344 132.748C133.672 134.14 133.336 135.844 133.336 137.86C133.336 139.372 133.528 140.716 133.912 141.892C134.296 143.068 134.836 144.052 135.532 144.844C136.252 145.636 137.104 146.236 138.088 146.644C139.096 147.028 140.224 147.22 141.472 147.22C142.744 147.22 143.884 147.004 144.892 146.572C145.9 146.14 146.74 145.54 147.412 144.772C148.084 143.98 148.516 143.068 148.708 142.036H153.568C153.352 143.884 152.692 145.516 151.588 146.932C150.508 148.324 149.104 149.404 147.376 150.172C145.648 150.94 143.68 151.324 141.472 151.324ZM156.105 151V124.756H160.605V135.484H160.821C161.373 134.14 162.213 133.144 163.341 132.496C164.469 131.824 165.729 131.488 167.121 131.488C168.081 131.488 168.969 131.644 169.785 131.956C170.625 132.244 171.345 132.712 171.945 133.36C172.569 133.984 173.049 134.812 173.385 135.844C173.745 136.852 173.925 138.076 173.925 139.516V151H169.425V140.488C169.425 139.288 169.281 138.304 168.993 137.536C168.705 136.744 168.261 136.156 167.661 135.772C167.085 135.388 166.329 135.196 165.393 135.196C164.385 135.196 163.521 135.436 162.801 135.916C162.105 136.396 161.565 137.032 161.181 137.824C160.797 138.616 160.605 139.492 160.605 140.452V151H156.105ZM177.35 151V131.848H181.85V151H177.35ZM179.618 129.256C178.898 129.256 178.298 129.064 177.818 128.68C177.362 128.272 177.134 127.732 177.134 127.06C177.134 126.364 177.362 125.824 177.818 125.44C178.298 125.056 178.898 124.864 179.618 124.864C180.338 124.864 180.926 125.056 181.382 125.44C181.862 125.824 182.102 126.364 182.102 127.06C182.102 127.732 181.862 128.272 181.382 128.68C180.926 129.064 180.338 129.256 179.618 129.256ZM192.381 151V124.756H196.881V135.484H197.097C197.649 134.14 198.489 133.144 199.617 132.496C200.745 131.824 202.005 131.488 203.397 131.488C204.357 131.488 205.245 131.644 206.061 131.956C206.901 132.244 207.621 132.712 208.221 133.36C208.845 133.984 209.325 134.812 209.661 135.844C210.021 136.852 210.201 138.076 210.201 139.516V151H205.701V140.488C205.701 139.288 205.557 138.304 205.269 137.536C204.981 136.744 204.537 136.156 203.937 135.772C203.361 135.388 202.605 135.196 201.669 135.196C200.661 135.196 199.797 135.436 199.077 135.916C198.381 136.396 197.841 137.032 197.457 137.824C197.073 138.616 196.881 139.492 196.881 140.452V151H192.381ZM222.366 151.324C220.926 151.324 219.63 151.108 218.478 150.676C217.326 150.22 216.318 149.56 215.454 148.696C214.614 147.832 213.966 146.788 213.51 145.564C213.078 144.34 212.862 142.96 212.862 141.424C212.862 139.456 213.234 137.728 213.978 136.24C214.746 134.752 215.838 133.588 217.254 132.748C218.67 131.908 220.374 131.488 222.366 131.488C223.782 131.488 225.066 131.716 226.218 132.172C227.37 132.628 228.354 133.288 229.17 134.152C230.01 135.016 230.658 136.06 231.114 137.284C231.57 138.484 231.798 139.864 231.798 141.424C231.798 143.368 231.414 145.084 230.646 146.572C229.902 148.06 228.822 149.224 227.406 150.064C226.014 150.904 224.334 151.324 222.366 151.324ZM222.33 147.616C223.314 147.616 224.178 147.388 224.922 146.932C225.666 146.452 226.242 145.756 226.65 144.844C227.058 143.908 227.262 142.768 227.262 141.424C227.262 140.416 227.142 139.528 226.902 138.76C226.686 137.968 226.362 137.308 225.93 136.78C225.498 136.252 224.982 135.856 224.382 135.592C223.782 135.328 223.11 135.196 222.366 135.196C221.382 135.196 220.506 135.436 219.738 135.916C218.994 136.372 218.418 137.068 218.01 138.004C217.602 138.916 217.398 140.056 217.398 141.424C217.398 142.432 217.506 143.332 217.722 144.124C217.962 144.892 218.298 145.54 218.73 146.068C219.162 146.572 219.678 146.956 220.278 147.22C220.902 147.484 221.586 147.616 222.33 147.616ZM222.33 157.192C221.73 157.192 221.202 157 220.746 156.616C220.314 156.256 220.098 155.764 220.098 155.14C220.098 154.468 220.314 153.952 220.746 153.592C221.202 153.232 221.73 153.052 222.33 153.052C222.954 153.052 223.482 153.232 223.914 153.592C224.37 153.952 224.598 154.468 224.598 155.14C224.598 155.764 224.37 156.256 223.914 156.616C223.482 157 222.954 157.192 222.33 157.192ZM216.174 129.508L220.134 124.36H224.562L228.522 129.508H224.67L222.33 126.448L220.026 129.508H216.174ZM234.448 151V131.848H238.948V151H234.448ZM236.716 129.256C235.996 129.256 235.396 129.064 234.916 128.68C234.46 128.272 234.232 127.732 234.232 127.06C234.232 126.364 234.46 125.824 234.916 125.44C235.396 125.056 235.996 124.864 236.716 124.864C237.436 124.864 238.024 125.056 238.48 125.44C238.96 125.824 239.2 126.364 239.2 127.06C239.2 127.732 238.96 128.272 238.48 128.68C238.024 129.064 237.436 129.256 236.716 129.256ZM255.887 151V128.392H260.675V151H255.887ZM247.895 128.896V124.756H268.775V128.896H247.895ZM276.546 151.324C275.106 151.324 273.81 151.108 272.658 150.676C271.506 150.22 270.498 149.56 269.634 148.696C268.794 147.832 268.146 146.788 267.69 145.564C267.258 144.34 267.042 142.96 267.042 141.424C267.042 139.456 267.414 137.728 268.158 136.24C268.926 134.752 270.018 133.588 271.434 132.748C272.85 131.908 274.554 131.488 276.546 131.488C277.962 131.488 279.246 131.716 280.398 132.172C281.55 132.628 282.534 133.288 283.35 134.152C284.19 135.016 284.838 136.06 285.294 137.284C285.75 138.484 285.978 139.864 285.978 141.424C285.978 143.368 285.594 145.084 284.826 146.572C284.082 148.06 283.002 149.224 281.586 150.064C280.194 150.904 278.514 151.324 276.546 151.324ZM276.51 147.616C277.494 147.616 278.358 147.388 279.102 146.932C279.846 146.452 280.422 145.756 280.83 144.844C281.238 143.908 281.442 142.768 281.442 141.424C281.442 140.416 281.322 139.528 281.082 138.76C280.866 137.968 280.542 137.308 280.11 136.78C279.678 136.252 279.162 135.856 278.562 135.592C277.962 135.328 277.29 135.196 276.546 135.196C275.562 135.196 274.686 135.436 273.918 135.916C273.174 136.372 272.598 137.068 272.19 138.004C271.782 138.916 271.578 140.056 271.578 141.424C271.578 142.432 271.686 143.332 271.902 144.124C272.142 144.892 272.478 145.54 272.91 146.068C273.342 146.572 273.858 146.956 274.458 147.22C275.082 147.484 275.766 147.616 276.51 147.616ZM274.998 130.084L273.846 127.852C274.806 127.468 275.478 127.096 275.862 126.736C276.246 126.376 276.438 125.968 276.438 125.512C276.438 125.104 276.27 124.792 275.934 124.576C275.622 124.36 275.214 124.252 274.71 124.252C274.398 124.252 274.098 124.276 273.81 124.324C273.522 124.372 273.234 124.444 272.946 124.54V122.2C273.402 122.08 273.87 121.996 274.35 121.948C274.83 121.876 275.31 121.84 275.79 121.84C276.798 121.84 277.638 121.984 278.31 122.272C279.006 122.536 279.522 122.92 279.858 123.424C280.218 123.904 280.398 124.48 280.398 125.152C280.398 126.256 279.954 127.204 279.066 127.996C278.202 128.764 276.846 129.46 274.998 130.084ZM296.172 151.324C294.996 151.324 293.928 151.108 292.968 150.676C292.008 150.22 291.18 149.572 290.484 148.732C289.788 147.868 289.248 146.824 288.864 145.6C288.504 144.352 288.324 142.96 288.324 141.424C288.324 139.336 288.648 137.548 289.296 136.06C289.968 134.572 290.892 133.444 292.068 132.676C293.244 131.884 294.612 131.488 296.172 131.488C297.18 131.488 298.092 131.644 298.908 131.956C299.748 132.268 300.456 132.712 301.032 133.288C301.632 133.864 302.076 134.536 302.364 135.304H302.616L302.796 131.848H307.044V151H302.796L302.616 147.508H302.364C301.956 148.66 301.2 149.584 300.096 150.28C298.992 150.976 297.684 151.324 296.172 151.324ZM297.756 147.652C298.812 147.652 299.688 147.424 300.384 146.968C301.104 146.488 301.644 145.852 302.004 145.06C302.364 144.268 302.544 143.392 302.544 142.432V140.38C302.544 139.396 302.352 138.508 301.968 137.716C301.608 136.924 301.068 136.3 300.348 135.844C299.652 135.388 298.824 135.16 297.864 135.16C296.784 135.16 295.872 135.412 295.128 135.916C294.408 136.396 293.856 137.104 293.472 138.04C293.088 138.976 292.896 140.104 292.896 141.424C292.896 142.696 293.076 143.8 293.436 144.736C293.82 145.672 294.372 146.392 295.092 146.896C295.812 147.4 296.7 147.652 297.756 147.652ZM327.05 151.324C324.698 151.324 322.73 150.964 321.146 150.244C319.586 149.524 318.41 148.516 317.618 147.22C316.826 145.924 316.418 144.448 316.394 142.792H321.254C321.278 143.776 321.494 144.628 321.902 145.348C322.334 146.068 322.982 146.632 323.846 147.04C324.71 147.448 325.826 147.652 327.194 147.652C328.298 147.652 329.258 147.52 330.074 147.256C330.89 146.992 331.514 146.584 331.946 146.032C332.402 145.456 332.63 144.736 332.63 143.872C332.63 143.2 332.522 142.648 332.306 142.216C332.09 141.76 331.73 141.388 331.226 141.1C330.722 140.788 330.05 140.524 329.21 140.308C328.37 140.092 327.338 139.876 326.114 139.66C324.602 139.42 323.27 139.108 322.118 138.724C320.99 138.316 320.042 137.824 319.274 137.248C318.506 136.672 317.93 135.976 317.546 135.16C317.162 134.32 316.97 133.324 316.97 132.172C316.97 130.588 317.366 129.22 318.158 128.068C318.974 126.916 320.126 126.028 321.614 125.404C323.102 124.756 324.878 124.432 326.942 124.432C328.982 124.432 330.722 124.756 332.162 125.404C333.626 126.052 334.754 126.964 335.546 128.14C336.338 129.292 336.746 130.636 336.77 132.172H331.946C331.922 131.236 331.682 130.468 331.226 129.868C330.77 129.244 330.158 128.788 329.39 128.5C328.622 128.212 327.746 128.068 326.762 128.068C325.754 128.068 324.89 128.212 324.17 128.5C323.45 128.764 322.898 129.16 322.514 129.688C322.13 130.192 321.938 130.816 321.938 131.56C321.938 132.376 322.13 133.024 322.514 133.504C322.922 133.96 323.606 134.332 324.566 134.62C325.55 134.908 326.894 135.196 328.598 135.484C329.75 135.676 330.854 135.916 331.91 136.204C332.966 136.492 333.926 136.924 334.79 137.5C335.654 138.052 336.326 138.82 336.806 139.804C337.31 140.764 337.562 142.012 337.562 143.548C337.562 145.084 337.166 146.44 336.374 147.616C335.582 148.792 334.406 149.704 332.846 150.352C331.286 151 329.354 151.324 327.05 151.324ZM347.6 151.324C346.424 151.324 345.356 151.108 344.396 150.676C343.436 150.22 342.608 149.572 341.912 148.732C341.216 147.868 340.676 146.824 340.292 145.6C339.932 144.352 339.752 142.96 339.752 141.424C339.752 139.336 340.076 137.548 340.724 136.06C341.396 134.572 342.32 133.444 343.496 132.676C344.672 131.884 346.04 131.488 347.6 131.488C348.608 131.488 349.52 131.644 350.336 131.956C351.176 132.268 351.884 132.712 352.46 133.288C353.06 133.864 353.504 134.536 353.792 135.304H354.044L354.224 131.848H358.472V151H354.224L354.044 147.508H353.792C353.384 148.66 352.628 149.584 351.524 150.28C350.42 150.976 349.112 151.324 347.6 151.324ZM349.184 147.652C350.24 147.652 351.116 147.424 351.812 146.968C352.532 146.488 353.072 145.852 353.432 145.06C353.792 144.268 353.972 143.392 353.972 142.432V140.38C353.972 139.396 353.78 138.508 353.396 137.716C353.036 136.924 352.496 136.3 351.776 135.844C351.08 135.388 350.252 135.16 349.292 135.16C348.212 135.16 347.3 135.412 346.556 135.916C345.836 136.396 345.284 137.104 344.9 138.04C344.516 138.976 344.324 140.104 344.324 141.424C344.324 142.696 344.504 143.8 344.864 144.736C345.248 145.672 345.8 146.392 346.52 146.896C347.24 147.4 348.128 147.652 349.184 147.652ZM347.996 129.508L350.12 124.36H354.62L351.452 129.508H347.996ZM362.214 151V131.848H366.534L366.714 135.484H366.93C367.482 134.14 368.322 133.144 369.45 132.496C370.578 131.824 371.838 131.488 373.23 131.488C374.19 131.488 375.078 131.644 375.894 131.956C376.734 132.244 377.454 132.712 378.054 133.36C378.678 133.984 379.158 134.812 379.494 135.844C379.854 136.852 380.034 138.076 380.034 139.516V151H375.534V140.488C375.534 139.288 375.39 138.304 375.102 137.536C374.814 136.744 374.37 136.156 373.77 135.772C373.194 135.388 372.438 135.196 371.502 135.196C370.494 135.196 369.63 135.436 368.91 135.916C368.214 136.396 367.674 137.032 367.29 137.824C366.906 138.616 366.714 139.492 366.714 140.452V151H362.214ZM391.408 157.372C389.8 157.372 388.408 157.132 387.232 156.652C386.056 156.196 385.12 155.536 384.424 154.672C383.752 153.832 383.368 152.848 383.272 151.72H387.592C387.688 152.2 387.904 152.62 388.24 152.98C388.6 153.34 389.056 153.616 389.608 153.808C390.16 154.024 390.796 154.132 391.516 154.132C392.668 154.132 393.592 153.964 394.288 153.628C394.984 153.316 395.488 152.836 395.8 152.188C396.136 151.54 396.304 150.736 396.304 149.776V146.68H396.088C395.704 147.712 394.984 148.564 393.928 149.236C392.872 149.884 391.624 150.208 390.184 150.208C389.056 150.208 388.036 149.992 387.124 149.56C386.212 149.128 385.42 148.516 384.748 147.724C384.1 146.908 383.596 145.924 383.236 144.772C382.876 143.62 382.696 142.312 382.696 140.848C382.696 138.88 383.008 137.2 383.632 135.808C384.256 134.416 385.132 133.348 386.26 132.604C387.388 131.86 388.696 131.488 390.184 131.488C391.576 131.488 392.8 131.8 393.856 132.424C394.936 133.048 395.68 133.9 396.088 134.98H396.34L396.484 131.848H400.804V148.984C400.804 151 400.42 152.62 399.652 153.844C398.884 155.092 397.792 155.992 396.376 156.544C394.984 157.096 393.328 157.372 391.408 157.372ZM391.84 146.536C392.8 146.536 393.604 146.32 394.252 145.888C394.924 145.456 395.428 144.88 395.764 144.16C396.1 143.44 396.268 142.648 396.268 141.784V139.912C396.268 138.976 396.088 138.16 395.728 137.464C395.392 136.744 394.9 136.18 394.252 135.772C393.604 135.34 392.824 135.124 391.912 135.124C390.904 135.124 390.052 135.364 389.356 135.844C388.684 136.3 388.168 136.96 387.808 137.824C387.448 138.664 387.268 139.672 387.268 140.848C387.268 142 387.436 143.008 387.772 143.872C388.132 144.712 388.648 145.372 389.32 145.852C389.992 146.308 390.832 146.536 391.84 146.536Z" fill="#FFFCFE"/>
<g clip-path="url(#clip0_681_2501)">
<path d="M244.062 83.5984C242.43 81.5097 240.567 79.6662 239.348 77.4669C234.971 69.5704 238.502 59.7018 247.563 57.8524C257.311 55.8642 264.471 63.831 262.988 72.799C262.325 76.8015 260.103 79.8029 257.335 82.5168C256.59 83.2486 256.568 83.6788 257.331 84.4668C259.759 86.9777 262.091 89.579 264.428 92.1763C264.938 92.7412 265.401 92.9121 266.126 92.6146C272.281 90.0896 276.686 85.9183 277.816 79.1938C278.781 73.4584 277.569 67.9642 274.124 63.2118C272.303 60.701 270.071 58.4675 267.879 56.2501C265.889 54.2378 265.576 51.6345 267.345 49.6121C268.987 47.7365 271.835 47.6923 273.9 49.5216C278.584 53.6709 282.649 58.3388 284.809 64.2793C288.533 74.5198 288.106 84.3261 280.79 93.0488C276.88 97.7087 271.733 100.427 265.925 102.131C263.381 102.879 261.596 102.823 259.779 100.485C257.22 97.1921 254.173 94.2791 251.348 91.1893C251.052 90.8656 250.863 90.4455 250.547 89.9489C248.897 91.714 247.537 93.1513 246.195 94.6068C243.802 97.2061 241.431 99.8276 239.018 102.409C238.792 102.65 238.309 102.837 237.996 102.779C227.95 100.931 220.118 95.9959 215.738 86.4872C213.831 82.3479 213.416 77.9253 213.77 73.382C214.552 63.3767 219.663 55.7777 226.965 49.3749C228.984 47.6058 231.8 47.7968 233.407 49.7026C235.124 51.735 234.84 54.4529 232.72 56.2883C229.842 58.7791 227.308 61.5694 225.48 64.9266C222.777 69.8921 221.748 75.1712 223.2 80.6915C224.511 85.679 227.737 89.2534 232.334 91.533C235.416 93.0609 235.456 92.9925 237.785 90.4997C239.807 88.3326 241.82 86.1555 243.83 83.9763C243.961 83.8336 244.04 83.6406 244.066 83.5964L244.062 83.5984ZM250.367 76.8477C251.646 75.4305 252.857 74.2283 253.903 72.8995C255.452 70.9314 255.512 67.6064 254.154 65.8353C252.809 64.0803 250.343 63.5817 248.099 64.609C246.153 65.5016 245.214 67.733 245.655 70.1655C246.185 73.0744 248.468 74.6786 250.365 76.8477H250.367Z" fill="#C9187F"/>
<path d="M207.509 102.928H201.623C201.593 102.391 201.536 101.878 201.536 101.366C201.53 94.209 201.534 87.0523 201.532 79.8956C201.532 78.2511 201.526 78.2451 199.947 78.2451C191.881 78.2431 183.815 78.2652 175.747 78.219C174.56 78.2129 174.222 78.5869 174.23 79.7468C174.274 86.9035 174.252 94.0602 174.252 101.217C174.252 101.738 174.252 102.26 174.252 102.877H168.368C168.342 102.395 168.293 101.916 168.293 101.436C168.289 90.7412 168.225 80.0463 168.31 69.3535C168.382 60.3132 172.459 53.5043 180.672 49.6907C186.549 46.9627 192.566 47.594 198.017 51.1924C202.517 54.1616 205.575 58.325 206.834 63.6161C207.292 65.5359 207.531 67.5523 207.545 69.5284C207.612 80.2233 207.578 90.9181 207.576 101.611C207.576 102.009 207.537 102.409 207.511 102.93L207.509 102.928ZM187.886 72.5459C191.998 72.5459 196.111 72.5499 200.223 72.5419C200.817 72.5419 201.494 72.6585 201.53 71.7056C201.712 66.9512 200.918 62.5064 197.761 58.6908C192.421 52.2358 183.194 52.292 177.967 58.7793C175.098 62.3396 174.158 66.4024 174.246 70.8331C174.28 72.5399 174.256 72.5459 175.916 72.5459C179.907 72.5499 183.896 72.5459 187.886 72.5459Z" fill="#C9187F"/>
<path d="M162.445 102.928H156.517C156.517 102.409 156.517 101.937 156.517 101.464C156.517 94.2292 156.495 86.9921 156.539 79.757C156.547 78.6152 156.261 78.2111 155.05 78.2171C146.863 78.2654 138.679 78.2634 130.492 78.2191C129.358 78.2131 129.037 78.5609 129.045 79.6766C129.09 86.8715 129.068 94.0664 129.068 101.263C129.068 101.782 129.068 102.301 129.068 102.896H123.099C123.075 102.474 123.028 102.043 123.028 101.611C123.024 84.2923 123.036 66.9755 123 49.6567C122.998 48.4726 123.332 48.0706 124.509 48.1691C125.641 48.2636 126.793 48.2595 127.927 48.1691C129.019 48.0826 129.082 48.6556 129.08 49.4939C129.062 56.5681 129.068 63.6404 129.07 70.7147C129.07 71.9329 129.661 72.5434 130.844 72.5461C138.868 72.5461 146.892 72.5461 154.915 72.5461C156.515 72.5461 156.519 72.54 156.519 70.9197C156.519 63.8877 156.519 56.8536 156.519 49.8215C156.519 48.736 157.08 48.1925 158.203 48.1912C159.581 48.1912 160.959 48.1912 162.447 48.1912V102.928H162.445Z" fill="#C9187F"/>
<path d="M309.806 78.3035C306.712 78.3035 303.616 78.3377 300.522 78.2854C299.474 78.2673 299.085 78.5809 299.099 79.6705C299.15 83.2971 299.305 86.8694 300.856 90.2668C302.689 94.2774 305.856 96.5511 310.1 96.8767C315.04 97.2567 320.02 97.1401 324.983 97.1984C328.327 97.2366 328.341 97.2064 328.323 100.586C328.307 103.454 328.609 102.978 325.934 102.96C320.807 102.926 315.662 103.048 310.558 102.674C303.021 102.124 297.584 98.4005 294.762 91.1996C293.662 88.3932 293.201 85.4863 293.193 82.507C293.181 77.1838 293.076 71.8524 293.324 66.5392C293.574 61.1656 295.566 56.4253 299.633 52.7243C302.482 50.1331 305.971 48.8646 309.714 48.5389C313.434 48.2152 317.189 48.2715 320.93 48.1971C322.965 48.1569 325.003 48.2414 327.038 48.169C328.088 48.1308 328.406 48.5308 328.341 49.5119C328.281 50.4426 328.259 51.3875 328.345 52.3142C328.46 53.5365 327.926 53.8119 326.794 53.7958C322.886 53.7375 318.972 53.6813 315.068 53.8099C312.85 53.8823 310.616 54.1738 308.438 54.616C303.122 55.6976 300.757 59.5815 299.7 64.4324C299.262 66.4346 299.244 68.5394 299.14 70.602C299.057 72.2464 299.128 72.2545 300.842 72.2545C306.909 72.2565 312.977 72.2826 319.045 72.2324C320.173 72.2223 320.551 72.5601 320.465 73.6778C320.372 74.8498 320.396 76.0359 320.459 77.2119C320.505 78.0783 320.175 78.3296 319.337 78.3196C316.16 78.2834 312.985 78.3055 309.808 78.3055L309.806 78.3035Z" fill="#C9187F"/>
<path d="M347.57 78.3053C344.433 78.3053 341.295 78.3375 338.158 78.2872C337.133 78.2711 336.748 78.643 336.83 79.6361C337.03 82.0605 336.969 84.5312 337.435 86.9014C338.702 93.3685 343.176 97.0072 349.935 97.162C354.822 97.2745 359.713 97.2303 364.6 97.1801C365.666 97.17 366.067 97.4454 365.99 98.531C365.907 99.705 365.952 100.889 365.974 102.067C365.986 102.743 365.708 102.994 365.025 102.982C359.244 102.877 353.432 103.145 347.69 102.624C338.899 101.828 332.818 96.5267 331.389 87.1466C330.197 79.3124 330.201 71.3054 331.474 63.4531C332.868 54.851 338.915 49.3669 347.612 48.5125C351.772 48.1044 355.988 48.2693 360.178 48.1929C361.725 48.1647 363.274 48.221 364.822 48.1748C365.654 48.1507 366.018 48.4221 365.98 49.2845C365.934 50.3399 365.919 51.4013 365.984 52.4547C366.044 53.4559 365.676 53.8016 364.658 53.7896C360.952 53.7413 357.241 53.677 353.539 53.8057C351.075 53.8921 348.581 54.1052 346.17 54.5977C340.769 55.6994 338.345 59.6436 337.34 64.6231C336.933 66.6334 337.008 68.7402 336.822 70.7988C336.724 71.9004 337.123 72.2864 338.265 72.2764C344.375 72.2281 350.487 72.2904 356.598 72.2241C357.868 72.21 358.262 72.6 358.14 73.8143C358.047 74.741 358.121 75.6838 358.121 76.6186C358.121 77.739 357.578 78.3006 356.49 78.3033C353.516 78.3033 350.541 78.3033 347.568 78.3033L347.57 78.3053Z" fill="#C9187F"/>
</g>
<defs>
<clipPath id="clip0_681_2501">
<rect width="243" height="55" fill="white" transform="translate(123 48)"/>
</clipPath>
</defs>
</svg>
