<svg width="500" height="210" viewBox="0 0 500 210" fill="none" xmlns="http://www.w3.org/2000/svg">
<rect x="111" y="115" width="310" height="46" rx="23" fill="#46A4F1"/>
<path d="M141.472 151.324C139.504 151.324 137.716 151.024 136.108 150.424C134.524 149.8 133.156 148.912 132.004 147.76C130.852 146.608 129.964 145.204 129.34 143.548C128.74 141.868 128.44 139.972 128.44 137.86C128.44 135.748 128.74 133.864 129.34 132.208C129.964 130.552 130.852 129.148 132.004 127.996C133.156 126.844 134.524 125.968 136.108 125.368C137.716 124.744 139.504 124.432 141.472 124.432C143.68 124.432 145.648 124.816 147.376 125.584C149.104 126.352 150.508 127.432 151.588 128.824C152.668 130.192 153.328 131.812 153.568 133.684H148.708C148.492 132.652 148.06 131.752 147.412 130.984C146.764 130.216 145.936 129.616 144.928 129.184C143.92 128.752 142.768 128.536 141.472 128.536C139.816 128.536 138.376 128.896 137.152 129.616C135.952 130.312 135.016 131.356 134.344 132.748C133.672 134.14 133.336 135.844 133.336 137.86C133.336 139.372 133.528 140.716 133.912 141.892C134.296 143.068 134.836 144.052 135.532 144.844C136.252 145.636 137.104 146.236 138.088 146.644C139.096 147.028 140.224 147.22 141.472 147.22C142.744 147.22 143.884 147.004 144.892 146.572C145.9 146.14 146.74 145.54 147.412 144.772C148.084 143.98 148.516 143.068 148.708 142.036H153.568C153.352 143.884 152.692 145.516 151.588 146.932C150.508 148.324 149.104 149.404 147.376 150.172C145.648 150.94 143.68 151.324 141.472 151.324ZM156.105 151V124.756H160.605V135.484H160.821C161.373 134.14 162.213 133.144 163.341 132.496C164.469 131.824 165.729 131.488 167.121 131.488C168.081 131.488 168.969 131.644 169.785 131.956C170.625 132.244 171.345 132.712 171.945 133.36C172.569 133.984 173.049 134.812 173.385 135.844C173.745 136.852 173.925 138.076 173.925 139.516V151H169.425V140.488C169.425 139.288 169.281 138.304 168.993 137.536C168.705 136.744 168.261 136.156 167.661 135.772C167.085 135.388 166.329 135.196 165.393 135.196C164.385 135.196 163.521 135.436 162.801 135.916C162.105 136.396 161.565 137.032 161.181 137.824C160.797 138.616 160.605 139.492 160.605 140.452V151H156.105ZM177.35 151V131.848H181.85V151H177.35ZM179.618 129.256C178.898 129.256 178.298 129.064 177.818 128.68C177.362 128.272 177.134 127.732 177.134 127.06C177.134 126.364 177.362 125.824 177.818 125.44C178.298 125.056 178.898 124.864 179.618 124.864C180.338 124.864 180.926 125.056 181.382 125.44C181.862 125.824 182.102 126.364 182.102 127.06C182.102 127.732 181.862 128.272 181.382 128.68C180.926 129.064 180.338 129.256 179.618 129.256ZM192.381 151V124.756H196.881V135.484H197.097C197.649 134.14 198.489 133.144 199.617 132.496C200.745 131.824 202.005 131.488 203.397 131.488C204.357 131.488 205.245 131.644 206.061 131.956C206.901 132.244 207.621 132.712 208.221 133.36C208.845 133.984 209.325 134.812 209.661 135.844C210.021 136.852 210.201 138.076 210.201 139.516V151H205.701V140.488C205.701 139.288 205.557 138.304 205.269 137.536C204.981 136.744 204.537 136.156 203.937 135.772C203.361 135.388 202.605 135.196 201.669 135.196C200.661 135.196 199.797 135.436 199.077 135.916C198.381 136.396 197.841 137.032 197.457 137.824C197.073 138.616 196.881 139.492 196.881 140.452V151H192.381ZM222.366 151.324C220.926 151.324 219.63 151.108 218.478 150.676C217.326 150.22 216.318 149.56 215.454 148.696C214.614 147.832 213.966 146.788 213.51 145.564C213.078 144.34 212.862 142.96 212.862 141.424C212.862 139.456 213.234 137.728 213.978 136.24C214.746 134.752 215.838 133.588 217.254 132.748C218.67 131.908 220.374 131.488 222.366 131.488C223.782 131.488 225.066 131.716 226.218 132.172C227.37 132.628 228.354 133.288 229.17 134.152C230.01 135.016 230.658 136.06 231.114 137.284C231.57 138.484 231.798 139.864 231.798 141.424C231.798 143.368 231.414 145.084 230.646 146.572C229.902 148.06 228.822 149.224 227.406 150.064C226.014 150.904 224.334 151.324 222.366 151.324ZM222.33 147.616C223.314 147.616 224.178 147.388 224.922 146.932C225.666 146.452 226.242 145.756 226.65 144.844C227.058 143.908 227.262 142.768 227.262 141.424C227.262 140.416 227.142 139.528 226.902 138.76C226.686 137.968 226.362 137.308 225.93 136.78C225.498 136.252 224.982 135.856 224.382 135.592C223.782 135.328 223.11 135.196 222.366 135.196C221.382 135.196 220.506 135.436 219.738 135.916C218.994 136.372 218.418 137.068 218.01 138.004C217.602 138.916 217.398 140.056 217.398 141.424C217.398 142.432 217.506 143.332 217.722 144.124C217.962 144.892 218.298 145.54 218.73 146.068C219.162 146.572 219.678 146.956 220.278 147.22C220.902 147.484 221.586 147.616 222.33 147.616ZM222.33 157.192C221.73 157.192 221.202 157 220.746 156.616C220.314 156.256 220.098 155.764 220.098 155.14C220.098 154.468 220.314 153.952 220.746 153.592C221.202 153.232 221.73 153.052 222.33 153.052C222.954 153.052 223.482 153.232 223.914 153.592C224.37 153.952 224.598 154.468 224.598 155.14C224.598 155.764 224.37 156.256 223.914 156.616C223.482 157 222.954 157.192 222.33 157.192ZM216.174 129.508L220.134 124.36H224.562L228.522 129.508H224.67L222.33 126.448L220.026 129.508H216.174ZM234.448 151V131.848H238.948V151H234.448ZM236.716 129.256C235.996 129.256 235.396 129.064 234.916 128.68C234.46 128.272 234.232 127.732 234.232 127.06C234.232 126.364 234.46 125.824 234.916 125.44C235.396 125.056 235.996 124.864 236.716 124.864C237.436 124.864 238.024 125.056 238.48 125.44C238.96 125.824 239.2 126.364 239.2 127.06C239.2 127.732 238.96 128.272 238.48 128.68C238.024 129.064 237.436 129.256 236.716 129.256ZM257.183 151L247.787 124.756H253.079L257.975 140.38L260.207 147.184H260.495L262.727 140.38L267.659 124.756H272.915L263.555 151H257.183ZM280.404 151.324C278.964 151.324 277.728 151.036 276.696 150.46C275.664 149.884 274.872 149.032 274.32 147.904C273.792 146.752 273.528 145.36 273.528 143.728V131.848H278.028V142.54C278.028 143.62 278.172 144.544 278.46 145.312C278.748 146.056 279.192 146.632 279.792 147.04C280.392 147.448 281.172 147.652 282.132 147.652C283.092 147.652 283.92 147.412 284.616 146.932C285.336 146.452 285.888 145.816 286.272 145.024C286.656 144.208 286.848 143.296 286.848 142.288V131.848H291.348V151H287.028L286.848 147.292H286.632C286.152 148.588 285.348 149.584 284.22 150.28C283.116 150.976 281.844 151.324 280.404 151.324ZM285.048 129.04C284.304 129.04 283.644 128.944 283.068 128.752C282.492 128.56 281.964 128.368 281.484 128.176C281.004 127.984 280.488 127.888 279.936 127.888C279.456 127.888 279.036 127.996 278.676 128.212C278.316 128.404 277.992 128.704 277.704 129.112L275.688 127.924C276.12 127.132 276.54 126.52 276.948 126.088C277.38 125.656 277.836 125.356 278.316 125.188C278.796 124.996 279.3 124.9 279.828 124.9C280.452 124.9 281.052 124.996 281.628 125.188C282.204 125.38 282.768 125.572 283.32 125.764C283.872 125.956 284.412 126.052 284.94 126.052C285.396 126.052 285.816 125.956 286.2 125.764C286.584 125.572 286.932 125.26 287.244 124.828L289.296 126.016C288.936 126.784 288.528 127.396 288.072 127.852C287.64 128.284 287.172 128.596 286.668 128.788C286.164 128.956 285.624 129.04 285.048 129.04ZM295.096 151V131.848H299.416L299.596 135.484H299.812C300.364 134.14 301.204 133.144 302.332 132.496C303.46 131.824 304.72 131.488 306.112 131.488C307.072 131.488 307.96 131.644 308.776 131.956C309.616 132.244 310.336 132.712 310.936 133.36C311.56 133.984 312.04 134.812 312.376 135.844C312.736 136.852 312.916 138.076 312.916 139.516V151H308.416V140.488C308.416 139.288 308.272 138.304 307.984 137.536C307.696 136.744 307.252 136.156 306.652 135.772C306.076 135.388 305.32 135.196 304.384 135.196C303.376 135.196 302.512 135.436 301.792 135.916C301.096 136.396 300.556 137.032 300.172 137.824C299.788 138.616 299.596 139.492 299.596 140.452V151H295.096ZM324.291 157.372C322.683 157.372 321.291 157.132 320.115 156.652C318.939 156.196 318.003 155.536 317.307 154.672C316.635 153.832 316.251 152.848 316.155 151.72H320.475C320.571 152.2 320.787 152.62 321.123 152.98C321.483 153.34 321.939 153.616 322.491 153.808C323.043 154.024 323.679 154.132 324.399 154.132C325.551 154.132 326.475 153.964 327.171 153.628C327.867 153.316 328.371 152.836 328.683 152.188C329.019 151.54 329.187 150.736 329.187 149.776V146.68H328.971C328.587 147.712 327.867 148.564 326.811 149.236C325.755 149.884 324.507 150.208 323.067 150.208C321.939 150.208 320.919 149.992 320.007 149.56C319.095 149.128 318.303 148.516 317.631 147.724C316.983 146.908 316.479 145.924 316.119 144.772C315.759 143.62 315.579 142.312 315.579 140.848C315.579 138.88 315.891 137.2 316.515 135.808C317.139 134.416 318.015 133.348 319.143 132.604C320.271 131.86 321.579 131.488 323.067 131.488C324.459 131.488 325.683 131.8 326.739 132.424C327.819 133.048 328.563 133.9 328.971 134.98H329.223L329.367 131.848H333.687V148.984C333.687 151 333.303 152.62 332.535 153.844C331.767 155.092 330.675 155.992 329.259 156.544C327.867 157.096 326.211 157.372 324.291 157.372ZM324.723 146.536C325.683 146.536 326.487 146.32 327.135 145.888C327.807 145.456 328.311 144.88 328.647 144.16C328.983 143.44 329.151 142.648 329.151 141.784V139.912C329.151 138.976 328.971 138.16 328.611 137.464C328.275 136.744 327.783 136.18 327.135 135.772C326.487 135.34 325.707 135.124 324.795 135.124C323.787 135.124 322.935 135.364 322.239 135.844C321.567 136.3 321.051 136.96 320.691 137.824C320.331 138.664 320.151 139.672 320.151 140.848C320.151 142 320.319 143.008 320.655 143.872C321.015 144.712 321.531 145.372 322.203 145.852C322.875 146.308 323.715 146.536 324.723 146.536ZM350.612 151V128.392H355.4V151H350.612ZM342.62 128.896V124.756H363.5V128.896H342.62ZM370.18 151.324C369.004 151.324 367.936 151.108 366.976 150.676C366.016 150.22 365.188 149.572 364.492 148.732C363.796 147.868 363.256 146.824 362.872 145.6C362.512 144.352 362.332 142.96 362.332 141.424C362.332 139.336 362.656 137.548 363.304 136.06C363.976 134.572 364.9 133.444 366.076 132.676C367.252 131.884 368.62 131.488 370.18 131.488C371.188 131.488 372.1 131.644 372.916 131.956C373.756 132.268 374.464 132.712 375.04 133.288C375.64 133.864 376.084 134.536 376.372 135.304H376.624L376.804 131.848H381.052V151H376.804L376.624 147.508H376.372C375.964 148.66 375.208 149.584 374.104 150.28C373 150.976 371.692 151.324 370.18 151.324ZM371.764 147.652C372.82 147.652 373.696 147.424 374.392 146.968C375.112 146.488 375.652 145.852 376.012 145.06C376.372 144.268 376.552 143.392 376.552 142.432V140.38C376.552 139.396 376.36 138.508 375.976 137.716C375.616 136.924 375.076 136.3 374.356 135.844C373.66 135.388 372.832 135.16 371.872 135.16C370.792 135.16 369.88 135.412 369.136 135.916C368.416 136.396 367.864 137.104 367.48 138.04C367.096 138.976 366.904 140.104 366.904 141.424C366.904 142.696 367.084 143.8 367.444 144.736C367.828 145.672 368.38 146.392 369.1 146.896C369.82 147.4 370.708 147.652 371.764 147.652ZM370.576 129.508L367.372 124.36H371.872L373.996 129.508H370.576ZM391.346 151.324C389.906 151.324 388.67 151.036 387.638 150.46C386.606 149.884 385.814 149.032 385.262 147.904C384.734 146.752 384.47 145.36 384.47 143.728V131.848H388.97V142.54C388.97 143.62 389.114 144.544 389.402 145.312C389.69 146.056 390.134 146.632 390.734 147.04C391.334 147.448 392.114 147.652 393.074 147.652C394.034 147.652 394.862 147.412 395.558 146.932C396.278 146.452 396.83 145.816 397.214 145.024C397.598 144.208 397.79 143.296 397.79 142.288V131.848H402.29V151H397.97L397.79 147.292H397.574C397.094 148.588 396.29 149.584 395.162 150.28C394.058 150.976 392.786 151.324 391.346 151.324Z" fill="#FFFCFE"/>
<g clip-path="url(#clip0_681_2493)">
<path d="M244.062 83.5984C242.43 81.5097 240.567 79.6662 239.348 77.4669C234.971 69.5704 238.502 59.7018 247.563 57.8524C257.311 55.8642 264.47 63.831 262.988 72.799C262.325 76.8015 260.103 79.8029 257.335 82.5168C256.59 83.2486 256.568 83.6788 257.331 84.4668C259.759 86.9777 262.091 89.579 264.428 92.1763C264.938 92.7412 265.401 92.9121 266.126 92.6146C272.281 90.0896 276.686 85.9183 277.816 79.1938C278.781 73.4584 277.569 67.9642 274.124 63.2118C272.303 60.701 270.071 58.4675 267.879 56.2501C265.889 54.2378 265.576 51.6345 267.345 49.6121C268.987 47.7365 271.835 47.6923 273.9 49.5216C278.584 53.6709 282.649 58.3388 284.809 64.2793C288.533 74.5198 288.106 84.3261 280.79 93.0488C276.88 97.7087 271.733 100.427 265.925 102.131C263.381 102.879 261.596 102.823 259.779 100.485C257.22 97.1921 254.172 94.2791 251.348 91.1893C251.052 90.8656 250.863 90.4455 250.546 89.9489C248.897 91.714 247.537 93.1513 246.195 94.6068C243.802 97.2061 241.431 99.8276 239.018 102.409C238.792 102.65 238.309 102.837 237.996 102.779C227.95 100.931 220.118 95.9959 215.738 86.4872C213.831 82.3479 213.416 77.9253 213.77 73.382C214.552 63.3767 219.663 55.7777 226.965 49.3749C228.984 47.6058 231.8 47.7968 233.407 49.7026C235.124 51.735 234.84 54.4529 232.72 56.2883C229.842 58.7791 227.307 61.5694 225.48 64.9266C222.777 69.8921 221.748 75.1712 223.2 80.6915C224.511 85.679 227.737 89.2534 232.334 91.533C235.416 93.0609 235.456 92.9925 237.785 90.4997C239.807 88.3326 241.82 86.1555 243.83 83.9763C243.961 83.8336 244.04 83.6406 244.066 83.5964L244.062 83.5984ZM250.367 76.8477C251.646 75.4305 252.857 74.2283 253.903 72.8995C255.452 70.9314 255.512 67.6064 254.154 65.8353C252.809 64.0803 250.343 63.5817 248.099 64.609C246.153 65.5016 245.214 67.733 245.655 70.1655C246.185 73.0744 248.467 74.6786 250.365 76.8477H250.367Z" fill="#C9187F"/>
<path d="M207.509 102.928H201.623C201.593 102.391 201.536 101.878 201.536 101.366C201.53 94.209 201.534 87.0523 201.532 79.8956C201.532 78.2511 201.526 78.2451 199.947 78.2451C191.881 78.2431 183.815 78.2652 175.747 78.219C174.56 78.2129 174.222 78.5869 174.23 79.7468C174.274 86.9035 174.252 94.0602 174.252 101.217C174.252 101.738 174.252 102.26 174.252 102.877H168.368C168.342 102.395 168.293 101.916 168.293 101.436C168.289 90.7412 168.225 80.0463 168.31 69.3535C168.382 60.3132 172.459 53.5043 180.672 49.6907C186.549 46.9627 192.566 47.594 198.017 51.1924C202.517 54.1616 205.575 58.325 206.834 63.6161C207.292 65.5359 207.531 67.5523 207.545 69.5284C207.612 80.2233 207.578 90.9181 207.576 101.611C207.576 102.009 207.537 102.409 207.511 102.93L207.509 102.928ZM187.886 72.5459C191.998 72.5459 196.111 72.5499 200.223 72.5419C200.817 72.5419 201.494 72.6585 201.53 71.7056C201.712 66.9512 200.918 62.5064 197.761 58.6908C192.421 52.2358 183.195 52.292 177.967 58.7793C175.098 62.3396 174.158 66.4024 174.246 70.8331C174.28 72.5399 174.256 72.5459 175.916 72.5459C179.907 72.5499 183.896 72.5459 187.886 72.5459Z" fill="#C9187F"/>
<path d="M162.445 102.928H156.517C156.517 102.409 156.517 101.937 156.517 101.464C156.517 94.2292 156.495 86.9921 156.539 79.757C156.547 78.6152 156.261 78.2111 155.05 78.2171C146.863 78.2654 138.679 78.2634 130.492 78.2191C129.358 78.2131 129.037 78.5609 129.045 79.6766C129.09 86.8715 129.068 94.0664 129.068 101.263C129.068 101.782 129.068 102.301 129.068 102.896H123.099C123.075 102.474 123.028 102.043 123.028 101.611C123.024 84.2923 123.036 66.9755 123 49.6567C122.998 48.4726 123.332 48.0706 124.509 48.1691C125.641 48.2636 126.793 48.2595 127.927 48.1691C129.019 48.0826 129.082 48.6556 129.08 49.4939C129.062 56.5681 129.068 63.6404 129.07 70.7147C129.07 71.9329 129.661 72.5434 130.844 72.5461C138.868 72.5461 146.892 72.5461 154.915 72.5461C156.515 72.5461 156.519 72.54 156.519 70.9197C156.519 63.8877 156.519 56.8536 156.519 49.8215C156.519 48.736 157.08 48.1925 158.203 48.1912C159.581 48.1912 160.959 48.1912 162.447 48.1912V102.928H162.445Z" fill="#C9187F"/>
<path d="M309.806 78.3035C306.712 78.3035 303.616 78.3377 300.522 78.2854C299.474 78.2673 299.085 78.5809 299.099 79.6705C299.15 83.2971 299.305 86.8694 300.856 90.2668C302.689 94.2774 305.856 96.5511 310.1 96.8767C315.04 97.2567 320.02 97.1401 324.983 97.1984C328.327 97.2366 328.341 97.2064 328.323 100.586C328.307 103.454 328.609 102.978 325.934 102.96C320.807 102.926 315.662 103.048 310.558 102.674C303.021 102.124 297.584 98.4005 294.762 91.1996C293.662 88.3932 293.201 85.4863 293.193 82.507C293.181 77.1838 293.076 71.8524 293.324 66.5392C293.574 61.1656 295.566 56.4253 299.633 52.7243C302.482 50.1331 305.971 48.8646 309.714 48.5389C313.434 48.2152 317.189 48.2715 320.93 48.1971C322.965 48.1569 325.003 48.2414 327.038 48.169C328.088 48.1308 328.406 48.5308 328.341 49.5119C328.281 50.4426 328.259 51.3875 328.345 52.3142C328.46 53.5365 327.926 53.8119 326.794 53.7958C322.886 53.7375 318.972 53.6813 315.068 53.8099C312.85 53.8823 310.616 54.1738 308.438 54.616C303.122 55.6976 300.757 59.5815 299.7 64.4324C299.262 66.4346 299.244 68.5394 299.14 70.602C299.057 72.2464 299.127 72.2545 300.842 72.2545C306.909 72.2565 312.977 72.2826 319.045 72.2324C320.173 72.2223 320.551 72.5601 320.465 73.6778C320.372 74.8498 320.396 76.0359 320.459 77.2119C320.505 78.0783 320.175 78.3296 319.337 78.3196C316.16 78.2834 312.985 78.3055 309.808 78.3055L309.806 78.3035Z" fill="#C9187F"/>
<path d="M347.57 78.3053C344.433 78.3053 341.294 78.3375 338.158 78.2872C337.133 78.2711 336.748 78.643 336.83 79.6361C337.03 82.0605 336.969 84.5312 337.435 86.9014C338.702 93.3685 343.176 97.0072 349.935 97.162C354.822 97.2745 359.713 97.2303 364.6 97.1801C365.666 97.17 366.066 97.4454 365.99 98.531C365.907 99.705 365.952 100.889 365.974 102.067C365.986 102.743 365.708 102.994 365.025 102.982C359.243 102.877 353.432 103.145 347.69 102.624C338.899 101.828 332.818 96.5267 331.389 87.1466C330.197 79.3124 330.201 71.3054 331.474 63.4531C332.868 54.851 338.915 49.3669 347.612 48.5125C351.772 48.1044 355.988 48.2693 360.178 48.1929C361.725 48.1647 363.274 48.221 364.822 48.1748C365.654 48.1507 366.018 48.4221 365.98 49.2845C365.934 50.3399 365.919 51.4013 365.984 52.4547C366.044 53.4559 365.676 53.8016 364.658 53.7896C360.952 53.7413 357.241 53.677 353.538 53.8057C351.075 53.8921 348.581 54.1052 346.169 54.5977C340.769 55.6994 338.345 59.6436 337.34 64.6231C336.933 66.6334 337.008 68.7402 336.822 70.7988C336.724 71.9004 337.122 72.2864 338.265 72.2764C344.375 72.2281 350.487 72.2904 356.598 72.2241C357.868 72.21 358.262 72.6 358.14 73.8143C358.047 74.741 358.121 75.6838 358.121 76.6186C358.121 77.739 357.577 78.3006 356.49 78.3033C353.516 78.3033 350.541 78.3033 347.568 78.3033L347.57 78.3053Z" fill="#C9187F"/>
</g>
<defs>
<clipPath id="clip0_681_2493">
<rect width="243" height="55" fill="white" transform="translate(123 48)"/>
</clipPath>
</defs>
</svg>
