<svg width="500" height="210" viewBox="0 0 500 210" fill="none" xmlns="http://www.w3.org/2000/svg">
<rect x="111" y="115" width="351" height="46" rx="23" fill="#E2C8FF"/>
<path d="M141.472 151.324C139.504 151.324 137.716 151.024 136.108 150.424C134.524 149.8 133.156 148.912 132.004 147.76C130.852 146.608 129.964 145.204 129.34 143.548C128.74 141.868 128.44 139.972 128.44 137.86C128.44 135.748 128.74 133.864 129.34 132.208C129.964 130.552 130.852 129.148 132.004 127.996C133.156 126.844 134.524 125.968 136.108 125.368C137.716 124.744 139.504 124.432 141.472 124.432C143.68 124.432 145.648 124.816 147.376 125.584C149.104 126.352 150.508 127.432 151.588 128.824C152.668 130.192 153.328 131.812 153.568 133.684H148.708C148.492 132.652 148.06 131.752 147.412 130.984C146.764 130.216 145.936 129.616 144.928 129.184C143.92 128.752 142.768 128.536 141.472 128.536C139.816 128.536 138.376 128.896 137.152 129.616C135.952 130.312 135.016 131.356 134.344 132.748C133.672 134.14 133.336 135.844 133.336 137.86C133.336 139.372 133.528 140.716 133.912 141.892C134.296 143.068 134.836 144.052 135.532 144.844C136.252 145.636 137.104 146.236 138.088 146.644C139.096 147.028 140.224 147.22 141.472 147.22C142.744 147.22 143.884 147.004 144.892 146.572C145.9 146.14 146.74 145.54 147.412 144.772C148.084 143.98 148.516 143.068 148.708 142.036H153.568C153.352 143.884 152.692 145.516 151.588 146.932C150.508 148.324 149.104 149.404 147.376 150.172C145.648 150.94 143.68 151.324 141.472 151.324ZM156.105 151V124.756H160.605V135.484H160.821C161.373 134.14 162.213 133.144 163.341 132.496C164.469 131.824 165.729 131.488 167.121 131.488C168.081 131.488 168.969 131.644 169.785 131.956C170.625 132.244 171.345 132.712 171.945 133.36C172.569 133.984 173.049 134.812 173.385 135.844C173.745 136.852 173.925 138.076 173.925 139.516V151H169.425V140.488C169.425 139.288 169.281 138.304 168.993 137.536C168.705 136.744 168.261 136.156 167.661 135.772C167.085 135.388 166.329 135.196 165.393 135.196C164.385 135.196 163.521 135.436 162.801 135.916C162.105 136.396 161.565 137.032 161.181 137.824C160.797 138.616 160.605 139.492 160.605 140.452V151H156.105ZM177.35 151V131.848H181.85V151H177.35ZM179.618 129.256C178.898 129.256 178.298 129.064 177.818 128.68C177.362 128.272 177.134 127.732 177.134 127.06C177.134 126.364 177.362 125.824 177.818 125.44C178.298 125.056 178.898 124.864 179.618 124.864C180.338 124.864 180.926 125.056 181.382 125.44C181.862 125.824 182.102 126.364 182.102 127.06C182.102 127.732 181.862 128.272 181.382 128.68C180.926 129.064 180.338 129.256 179.618 129.256ZM192.381 151V124.756H196.881V135.484H197.097C197.649 134.14 198.489 133.144 199.617 132.496C200.745 131.824 202.005 131.488 203.397 131.488C204.357 131.488 205.245 131.644 206.061 131.956C206.901 132.244 207.621 132.712 208.221 133.36C208.845 133.984 209.325 134.812 209.661 135.844C210.021 136.852 210.201 138.076 210.201 139.516V151H205.701V140.488C205.701 139.288 205.557 138.304 205.269 137.536C204.981 136.744 204.537 136.156 203.937 135.772C203.361 135.388 202.605 135.196 201.669 135.196C200.661 135.196 199.797 135.436 199.077 135.916C198.381 136.396 197.841 137.032 197.457 137.824C197.073 138.616 196.881 139.492 196.881 140.452V151H192.381ZM222.366 151.324C220.926 151.324 219.63 151.108 218.478 150.676C217.326 150.22 216.318 149.56 215.454 148.696C214.614 147.832 213.966 146.788 213.51 145.564C213.078 144.34 212.862 142.96 212.862 141.424C212.862 139.456 213.234 137.728 213.978 136.24C214.746 134.752 215.838 133.588 217.254 132.748C218.67 131.908 220.374 131.488 222.366 131.488C223.782 131.488 225.066 131.716 226.218 132.172C227.37 132.628 228.354 133.288 229.17 134.152C230.01 135.016 230.658 136.06 231.114 137.284C231.57 138.484 231.798 139.864 231.798 141.424C231.798 143.368 231.414 145.084 230.646 146.572C229.902 148.06 228.822 149.224 227.406 150.064C226.014 150.904 224.334 151.324 222.366 151.324ZM222.33 147.616C223.314 147.616 224.178 147.388 224.922 146.932C225.666 146.452 226.242 145.756 226.65 144.844C227.058 143.908 227.262 142.768 227.262 141.424C227.262 140.416 227.142 139.528 226.902 138.76C226.686 137.968 226.362 137.308 225.93 136.78C225.498 136.252 224.982 135.856 224.382 135.592C223.782 135.328 223.11 135.196 222.366 135.196C221.382 135.196 220.506 135.436 219.738 135.916C218.994 136.372 218.418 137.068 218.01 138.004C217.602 138.916 217.398 140.056 217.398 141.424C217.398 142.432 217.506 143.332 217.722 144.124C217.962 144.892 218.298 145.54 218.73 146.068C219.162 146.572 219.678 146.956 220.278 147.22C220.902 147.484 221.586 147.616 222.33 147.616ZM222.33 157.192C221.73 157.192 221.202 157 220.746 156.616C220.314 156.256 220.098 155.764 220.098 155.14C220.098 154.468 220.314 153.952 220.746 153.592C221.202 153.232 221.73 153.052 222.33 153.052C222.954 153.052 223.482 153.232 223.914 153.592C224.37 153.952 224.598 154.468 224.598 155.14C224.598 155.764 224.37 156.256 223.914 156.616C223.482 157 222.954 157.192 222.33 157.192ZM216.174 129.508L220.134 124.36H224.562L228.522 129.508H224.67L222.33 126.448L220.026 129.508H216.174ZM234.448 151V131.848H238.948V151H234.448ZM236.716 129.256C235.996 129.256 235.396 129.064 234.916 128.68C234.46 128.272 234.232 127.732 234.232 127.06C234.232 126.364 234.46 125.824 234.916 125.44C235.396 125.056 235.996 124.864 236.716 124.864C237.436 124.864 238.024 125.056 238.48 125.44C238.96 125.824 239.2 126.364 239.2 127.06C239.2 127.732 238.96 128.272 238.48 128.68C238.024 129.064 237.436 129.256 236.716 129.256ZM257.363 151V140.848L247.643 124.756H253.115L256.967 131.74L259.631 136.672H259.847L262.547 131.74L266.471 124.756H271.907L262.115 140.848V151H257.363ZM279.593 151.324C277.649 151.324 275.993 150.928 274.625 150.136C273.281 149.32 272.249 148.18 271.529 146.716C270.809 145.228 270.449 143.5 270.449 141.532C270.449 139.492 270.809 137.728 271.529 136.24C272.249 134.728 273.281 133.564 274.625 132.748C275.969 131.932 277.565 131.524 279.413 131.524C281.525 131.524 283.253 131.992 284.597 132.928C285.965 133.84 286.949 135.112 287.549 136.744C288.149 138.376 288.353 140.248 288.161 142.36H274.841C274.841 143.584 275.033 144.616 275.417 145.456C275.825 146.272 276.377 146.896 277.073 147.328C277.793 147.736 278.633 147.94 279.593 147.94C280.721 147.94 281.633 147.7 282.329 147.22C283.049 146.74 283.529 146.104 283.769 145.312H288.017C287.825 146.56 287.345 147.64 286.577 148.552C285.809 149.44 284.825 150.124 283.625 150.604C282.425 151.084 281.081 151.324 279.593 151.324ZM274.841 139.948L274.445 139.48H284.201L283.769 139.984C283.817 138.808 283.661 137.848 283.301 137.104C282.941 136.36 282.425 135.808 281.753 135.448C281.081 135.088 280.301 134.908 279.413 134.908C278.501 134.908 277.709 135.1 277.037 135.484C276.365 135.868 275.837 136.444 275.453 137.212C275.069 137.956 274.865 138.868 274.841 139.948ZM273.617 129.508L277.577 124.36H282.005L285.965 129.508H282.113L279.773 126.448L277.469 129.508H273.617ZM298.098 151.324C296.658 151.324 295.422 151.036 294.39 150.46C293.358 149.884 292.566 149.032 292.014 147.904C291.486 146.752 291.222 145.36 291.222 143.728V131.848H295.722V142.54C295.722 143.62 295.866 144.544 296.154 145.312C296.442 146.056 296.886 146.632 297.486 147.04C298.086 147.448 298.866 147.652 299.826 147.652C300.786 147.652 301.614 147.412 302.31 146.932C303.03 146.452 303.582 145.816 303.966 145.024C304.35 144.208 304.542 143.296 304.542 142.288V131.848H309.042V151H304.722L304.542 147.292H304.326C303.846 148.588 303.042 149.584 301.914 150.28C300.81 150.976 299.538 151.324 298.098 151.324ZM325.958 151V128.392H330.746V151H325.958ZM317.966 128.896V124.756H338.846V128.896H317.966ZM340.829 151V124.756H345.329V135.484H345.545C346.097 134.14 346.937 133.144 348.065 132.496C349.193 131.824 350.453 131.488 351.845 131.488C352.805 131.488 353.693 131.644 354.509 131.956C355.349 132.244 356.069 132.712 356.669 133.36C357.293 133.984 357.773 134.812 358.109 135.844C358.469 136.852 358.649 138.076 358.649 139.516V151H354.149V140.488C354.149 139.288 354.005 138.304 353.717 137.536C353.429 136.744 352.985 136.156 352.385 135.772C351.809 135.388 351.053 135.196 350.117 135.196C349.109 135.196 348.245 135.436 347.525 135.916C346.829 136.396 346.289 137.032 345.905 137.824C345.521 138.616 345.329 139.492 345.329 140.452V151H340.829ZM368.625 151.324C367.185 151.324 365.949 151.036 364.917 150.46C363.885 149.884 363.093 149.032 362.541 147.904C362.013 146.752 361.749 145.36 361.749 143.728V131.848H366.249V142.54C366.249 143.62 366.393 144.544 366.681 145.312C366.969 146.056 367.413 146.632 368.013 147.04C368.613 147.448 369.393 147.652 370.353 147.652C371.313 147.652 372.141 147.412 372.837 146.932C373.557 146.452 374.109 145.816 374.493 145.024C374.877 144.208 375.069 143.296 375.069 142.288V131.848H379.569V151H375.249L375.069 147.292H374.853C374.373 148.588 373.569 149.584 372.441 150.28C371.337 150.976 370.065 151.324 368.625 151.324ZM375.681 134.44V131.848C376.617 131.872 377.361 131.764 377.913 131.524C378.465 131.284 378.837 130.876 379.029 130.3C379.245 129.724 379.293 128.992 379.173 128.104H382.737C382.929 129.568 382.785 130.792 382.305 131.776C381.825 132.736 381.033 133.444 379.929 133.9C378.825 134.356 377.409 134.536 375.681 134.44ZM392.339 151.324C390.899 151.324 389.603 151.108 388.451 150.676C387.299 150.22 386.291 149.56 385.427 148.696C384.587 147.832 383.939 146.788 383.483 145.564C383.051 144.34 382.835 142.96 382.835 141.424C382.835 139.456 383.207 137.728 383.951 136.24C384.719 134.752 385.811 133.588 387.227 132.748C388.643 131.908 390.347 131.488 392.339 131.488C393.755 131.488 395.039 131.716 396.191 132.172C397.343 132.628 398.327 133.288 399.143 134.152C399.983 135.016 400.631 136.06 401.087 137.284C401.543 138.484 401.771 139.864 401.771 141.424C401.771 143.368 401.387 145.084 400.619 146.572C399.875 148.06 398.795 149.224 397.379 150.064C395.987 150.904 394.307 151.324 392.339 151.324ZM392.303 147.616C393.287 147.616 394.151 147.388 394.895 146.932C395.639 146.452 396.215 145.756 396.623 144.844C397.031 143.908 397.235 142.768 397.235 141.424C397.235 140.416 397.115 139.528 396.875 138.76C396.659 137.968 396.335 137.308 395.903 136.78C395.471 136.252 394.955 135.856 394.355 135.592C393.755 135.328 393.083 135.196 392.339 135.196C391.355 135.196 390.479 135.436 389.711 135.916C388.967 136.372 388.391 137.068 387.983 138.004C387.575 138.916 387.371 140.056 387.371 141.424C387.371 142.432 387.479 143.332 387.695 144.124C387.935 144.892 388.271 145.54 388.703 146.068C389.135 146.572 389.651 146.956 390.251 147.22C390.875 147.484 391.559 147.616 392.303 147.616ZM395.183 135.016V132.424C396.119 132.448 396.863 132.34 397.415 132.1C397.967 131.86 398.339 131.452 398.531 130.876C398.747 130.3 398.795 129.568 398.675 128.68H402.239C402.431 130.144 402.287 131.368 401.807 132.352C401.327 133.312 400.535 134.02 399.431 134.476C398.327 134.932 396.911 135.112 395.183 135.016ZM404.491 151V131.848H408.811L408.991 135.484H409.207C409.759 134.14 410.599 133.144 411.727 132.496C412.855 131.824 414.115 131.488 415.507 131.488C416.467 131.488 417.355 131.644 418.171 131.956C419.011 132.244 419.731 132.712 420.331 133.36C420.955 133.984 421.435 134.812 421.771 135.844C422.131 136.852 422.311 138.076 422.311 139.516V151H417.811V140.488C417.811 139.288 417.667 138.304 417.379 137.536C417.091 136.744 416.647 136.156 416.047 135.772C415.471 135.388 414.715 135.196 413.779 135.196C412.771 135.196 411.907 135.436 411.187 135.916C410.491 136.396 409.951 137.032 409.567 137.824C409.183 138.616 408.991 139.492 408.991 140.452V151H404.491ZM433.686 157.372C432.078 157.372 430.686 157.132 429.51 156.652C428.334 156.196 427.398 155.536 426.702 154.672C426.03 153.832 425.646 152.848 425.55 151.72H429.87C429.966 152.2 430.182 152.62 430.518 152.98C430.878 153.34 431.334 153.616 431.886 153.808C432.438 154.024 433.074 154.132 433.794 154.132C434.946 154.132 435.87 153.964 436.566 153.628C437.262 153.316 437.766 152.836 438.078 152.188C438.414 151.54 438.582 150.736 438.582 149.776V146.68H438.366C437.982 147.712 437.262 148.564 436.206 149.236C435.15 149.884 433.902 150.208 432.462 150.208C431.334 150.208 430.314 149.992 429.402 149.56C428.49 149.128 427.698 148.516 427.026 147.724C426.378 146.908 425.874 145.924 425.514 144.772C425.154 143.62 424.974 142.312 424.974 140.848C424.974 138.88 425.286 137.2 425.91 135.808C426.534 134.416 427.41 133.348 428.538 132.604C429.666 131.86 430.974 131.488 432.462 131.488C433.854 131.488 435.078 131.8 436.134 132.424C437.214 133.048 437.958 133.9 438.366 134.98H438.618L438.762 131.848H443.082V148.984C443.082 151 442.698 152.62 441.93 153.844C441.162 155.092 440.07 155.992 438.654 156.544C437.262 157.096 435.606 157.372 433.686 157.372ZM434.118 146.536C435.078 146.536 435.882 146.32 436.53 145.888C437.202 145.456 437.706 144.88 438.042 144.16C438.378 143.44 438.546 142.648 438.546 141.784V139.912C438.546 138.976 438.366 138.16 438.006 137.464C437.67 136.744 437.178 136.18 436.53 135.772C435.882 135.34 435.102 135.124 434.19 135.124C433.182 135.124 432.33 135.364 431.634 135.844C430.962 136.3 430.446 136.96 430.086 137.824C429.726 138.664 429.546 139.672 429.546 140.848C429.546 142 429.714 143.008 430.05 143.872C430.41 144.712 430.926 145.372 431.598 145.852C432.27 146.308 433.11 146.536 434.118 146.536Z" fill="#461685"/>
<g clip-path="url(#clip0_681_2485)">
<path d="M244.062 83.5984C242.43 81.5097 240.567 79.6662 239.348 77.4669C234.971 69.5704 238.502 59.7018 247.563 57.8524C257.311 55.8642 264.471 63.831 262.988 72.799C262.325 76.8015 260.103 79.8029 257.335 82.5168C256.59 83.2486 256.568 83.6788 257.331 84.4668C259.759 86.9777 262.091 89.579 264.428 92.1763C264.938 92.7412 265.401 92.9121 266.126 92.6146C272.281 90.0896 276.686 85.9183 277.816 79.1938C278.781 73.4584 277.569 67.9642 274.124 63.2118C272.303 60.701 270.071 58.4675 267.879 56.2501C265.889 54.2378 265.576 51.6345 267.345 49.6121C268.987 47.7365 271.835 47.6923 273.9 49.5216C278.584 53.6709 282.649 58.3388 284.809 64.2793C288.533 74.5198 288.106 84.3261 280.79 93.0488C276.88 97.7087 271.733 100.427 265.925 102.131C263.381 102.879 261.596 102.823 259.779 100.485C257.22 97.1921 254.173 94.2791 251.348 91.1893C251.052 90.8656 250.863 90.4455 250.547 89.9489C248.897 91.714 247.537 93.1513 246.195 94.6068C243.802 97.2061 241.431 99.8276 239.018 102.409C238.792 102.65 238.309 102.837 237.996 102.779C227.95 100.931 220.118 95.9959 215.738 86.4872C213.831 82.3479 213.416 77.9253 213.77 73.382C214.552 63.3767 219.663 55.7777 226.965 49.3749C228.984 47.6058 231.8 47.7968 233.407 49.7026C235.124 51.735 234.84 54.4529 232.72 56.2883C229.842 58.7791 227.308 61.5694 225.48 64.9266C222.777 69.8921 221.748 75.1712 223.2 80.6915C224.511 85.679 227.737 89.2534 232.334 91.533C235.416 93.0609 235.456 92.9925 237.785 90.4997C239.807 88.3326 241.82 86.1555 243.83 83.9763C243.961 83.8336 244.04 83.6406 244.066 83.5964L244.062 83.5984ZM250.367 76.8477C251.646 75.4305 252.857 74.2283 253.903 72.8995C255.452 70.9314 255.512 67.6064 254.154 65.8353C252.809 64.0803 250.343 63.5817 248.099 64.609C246.153 65.5016 245.214 67.733 245.655 70.1655C246.185 73.0744 248.468 74.6786 250.365 76.8477H250.367Z" fill="#C9187F"/>
<path d="M207.509 102.928H201.623C201.593 102.391 201.536 101.878 201.536 101.366C201.53 94.209 201.534 87.0523 201.532 79.8956C201.532 78.2511 201.526 78.2451 199.947 78.2451C191.881 78.2431 183.815 78.2652 175.747 78.219C174.56 78.2129 174.222 78.5869 174.23 79.7468C174.274 86.9035 174.252 94.0602 174.252 101.217C174.252 101.738 174.252 102.26 174.252 102.877H168.368C168.342 102.395 168.293 101.916 168.293 101.436C168.289 90.7412 168.225 80.0463 168.31 69.3535C168.382 60.3132 172.459 53.5043 180.672 49.6907C186.549 46.9627 192.566 47.594 198.017 51.1924C202.517 54.1616 205.575 58.325 206.834 63.6161C207.292 65.5359 207.531 67.5523 207.545 69.5284C207.612 80.2233 207.578 90.9181 207.576 101.611C207.576 102.009 207.537 102.409 207.511 102.93L207.509 102.928ZM187.886 72.5459C191.998 72.5459 196.111 72.5499 200.223 72.5419C200.817 72.5419 201.494 72.6585 201.53 71.7056C201.712 66.9512 200.918 62.5064 197.761 58.6908C192.421 52.2358 183.194 52.292 177.967 58.7793C175.098 62.3396 174.158 66.4024 174.246 70.8331C174.28 72.5399 174.256 72.5459 175.916 72.5459C179.907 72.5499 183.896 72.5459 187.886 72.5459Z" fill="#C9187F"/>
<path d="M162.445 102.928H156.517C156.517 102.409 156.517 101.937 156.517 101.464C156.517 94.2292 156.495 86.9921 156.539 79.757C156.547 78.6152 156.261 78.2111 155.05 78.2171C146.863 78.2654 138.679 78.2634 130.492 78.2191C129.358 78.2131 129.037 78.5609 129.045 79.6766C129.09 86.8715 129.068 94.0664 129.068 101.263C129.068 101.782 129.068 102.301 129.068 102.896H123.099C123.075 102.474 123.028 102.043 123.028 101.611C123.024 84.2923 123.036 66.9755 123 49.6567C122.998 48.4726 123.332 48.0706 124.509 48.1691C125.641 48.2636 126.793 48.2595 127.927 48.1691C129.019 48.0826 129.082 48.6556 129.08 49.4939C129.062 56.5681 129.068 63.6404 129.07 70.7147C129.07 71.9329 129.661 72.5434 130.844 72.5461C138.868 72.5461 146.892 72.5461 154.915 72.5461C156.515 72.5461 156.519 72.54 156.519 70.9197C156.519 63.8877 156.519 56.8536 156.519 49.8215C156.519 48.736 157.08 48.1925 158.203 48.1912C159.581 48.1912 160.959 48.1912 162.447 48.1912V102.928H162.445Z" fill="#C9187F"/>
<path d="M309.806 78.3035C306.712 78.3035 303.616 78.3377 300.522 78.2854C299.474 78.2673 299.085 78.5809 299.099 79.6705C299.15 83.2971 299.305 86.8694 300.856 90.2668C302.689 94.2774 305.856 96.5511 310.1 96.8767C315.04 97.2567 320.02 97.1401 324.983 97.1984C328.327 97.2366 328.341 97.2064 328.323 100.586C328.307 103.454 328.609 102.978 325.934 102.96C320.807 102.926 315.662 103.048 310.558 102.674C303.021 102.124 297.584 98.4005 294.762 91.1996C293.662 88.3932 293.201 85.4863 293.193 82.507C293.181 77.1838 293.076 71.8524 293.324 66.5392C293.574 61.1656 295.566 56.4253 299.633 52.7243C302.482 50.1331 305.971 48.8646 309.714 48.5389C313.434 48.2152 317.189 48.2715 320.93 48.1971C322.965 48.1569 325.003 48.2414 327.038 48.169C328.088 48.1308 328.406 48.5308 328.341 49.5119C328.281 50.4426 328.259 51.3875 328.345 52.3142C328.46 53.5365 327.926 53.8119 326.794 53.7958C322.886 53.7375 318.972 53.6813 315.068 53.8099C312.85 53.8823 310.616 54.1738 308.438 54.616C303.122 55.6976 300.757 59.5815 299.7 64.4324C299.262 66.4346 299.244 68.5394 299.14 70.602C299.057 72.2464 299.128 72.2545 300.842 72.2545C306.909 72.2565 312.977 72.2826 319.045 72.2324C320.173 72.2223 320.551 72.5601 320.465 73.6778C320.372 74.8498 320.396 76.0359 320.459 77.2119C320.505 78.0783 320.175 78.3296 319.337 78.3196C316.16 78.2834 312.985 78.3055 309.808 78.3055L309.806 78.3035Z" fill="#C9187F"/>
<path d="M347.57 78.3053C344.433 78.3053 341.295 78.3375 338.158 78.2872C337.133 78.2711 336.748 78.643 336.83 79.6361C337.03 82.0605 336.969 84.5312 337.435 86.9014C338.702 93.3685 343.176 97.0072 349.935 97.162C354.822 97.2745 359.713 97.2303 364.6 97.1801C365.666 97.17 366.067 97.4454 365.99 98.531C365.907 99.705 365.952 100.889 365.974 102.067C365.986 102.743 365.708 102.994 365.025 102.982C359.244 102.877 353.432 103.145 347.69 102.624C338.899 101.828 332.818 96.5267 331.389 87.1466C330.197 79.3124 330.201 71.3054 331.474 63.4531C332.868 54.851 338.915 49.3669 347.612 48.5125C351.772 48.1044 355.988 48.2693 360.178 48.1929C361.725 48.1647 363.274 48.221 364.822 48.1748C365.654 48.1507 366.018 48.4221 365.98 49.2845C365.934 50.3399 365.919 51.4013 365.984 52.4547C366.044 53.4559 365.676 53.8016 364.658 53.7896C360.952 53.7413 357.241 53.677 353.539 53.8057C351.075 53.8921 348.581 54.1052 346.17 54.5977C340.769 55.6994 338.345 59.6436 337.34 64.6231C336.933 66.6334 337.008 68.7402 336.822 70.7988C336.724 71.9004 337.123 72.2864 338.265 72.2764C344.375 72.2281 350.487 72.2904 356.598 72.2241C357.868 72.21 358.262 72.6 358.14 73.8143C358.047 74.741 358.121 75.6838 358.121 76.6186C358.121 77.739 357.578 78.3006 356.49 78.3033C353.516 78.3033 350.541 78.3033 347.568 78.3033L347.57 78.3053Z" fill="#C9187F"/>
</g>
<defs>
<clipPath id="clip0_681_2485">
<rect width="243" height="55" fill="white" transform="translate(123 48)"/>
</clipPath>
</defs>
</svg>
