<svg width="561" height="411" viewBox="0 0 561 411" fill="none" xmlns="http://www.w3.org/2000/svg">
<path d="M162.516 264.386V211.494H200.244V219.765H170.062L172.093 217.661V258.219L170.062 256.115H200.389V264.386H162.516ZM170.062 241.314V233.55H196.689V241.314H170.062ZM206.111 264.386V211.494H218.01L242.605 251.036H243.041L242.605 234.058V211.494H251.892V264.386H240.574L215.906 225.207H215.47L215.906 241.023V264.386H206.111ZM272.882 264.386V218.822H282.531V264.386H272.882ZM256.775 219.838V211.494H298.856V219.838H256.775ZM325.529 265.039C321.563 265.039 317.96 264.434 314.719 263.225C311.526 261.967 308.769 260.178 306.448 257.856C304.126 255.534 302.336 252.705 301.079 249.367C299.869 245.981 299.265 242.16 299.265 237.904C299.265 233.647 299.869 229.85 301.079 226.513C302.336 223.175 304.126 220.346 306.448 218.024C308.769 215.702 311.526 213.937 314.719 212.727C317.96 211.47 321.563 210.841 325.529 210.841C329.496 210.841 333.099 211.47 336.34 212.727C339.581 213.937 342.362 215.726 344.684 218.096C347.005 220.418 348.771 223.248 349.98 226.585C351.238 229.874 351.866 233.647 351.866 237.904C351.866 242.16 351.238 245.981 349.98 249.367C348.771 252.705 346.981 255.534 344.611 257.856C342.289 260.178 339.508 261.967 336.267 263.225C333.075 264.434 329.496 265.039 325.529 265.039ZM325.529 256.768C328.915 256.768 331.841 256.042 334.308 254.591C336.775 253.14 338.662 251.012 339.968 248.206C341.322 245.401 341.999 241.967 341.999 237.904C341.999 234.856 341.612 232.172 340.838 229.85C340.064 227.528 338.952 225.569 337.501 223.973C336.098 222.377 334.381 221.168 332.349 220.346C330.318 219.523 328.044 219.112 325.529 219.112C322.192 219.112 319.29 219.838 316.823 221.289C314.404 222.691 312.518 224.796 311.164 227.601C309.809 230.406 309.132 233.841 309.132 237.904C309.132 240.951 309.519 243.66 310.293 246.03C311.067 248.4 312.155 250.383 313.558 251.979C315.009 253.575 316.726 254.784 318.709 255.607C320.741 256.381 323.014 256.768 325.529 256.768ZM357.938 264.386V211.494H383.985C386.113 211.494 388.048 211.687 389.789 212.074C391.579 212.461 393.175 213.042 394.578 213.816C395.981 214.59 397.166 215.557 398.133 216.718C399.1 217.879 399.85 219.233 400.382 220.781C400.914 222.28 401.18 223.973 401.18 225.86C401.18 229.149 400.31 231.93 398.568 234.203C396.875 236.428 394.505 237.952 391.458 238.774V239.21C393.538 239.548 395.207 240.177 396.464 241.096C397.722 241.967 398.641 243.103 399.221 244.506C399.802 245.909 400.092 247.602 400.092 249.585V258.509C400.092 259.428 400.116 260.395 400.165 261.411C400.261 262.378 400.527 263.37 400.963 264.386H391.24C390.95 263.709 390.733 262.862 390.587 261.846C390.491 260.831 390.442 259.694 390.442 258.436V251.253C390.442 249.609 390.2 248.255 389.717 247.19C389.233 246.078 388.362 245.232 387.105 244.651C385.847 244.022 384.033 243.708 381.663 243.708H366.572V236.09H381.808C385.243 236.09 387.685 235.292 389.136 233.695C390.587 232.051 391.313 230.019 391.313 227.601C391.313 226.101 391.071 224.868 390.587 223.901C390.152 222.885 389.499 222.063 388.628 221.434C387.806 220.757 386.815 220.273 385.654 219.983C384.493 219.644 383.211 219.475 381.808 219.475H367.515V264.386H357.938ZM407.91 264.386V211.494H417.487V264.386H407.91ZM426.068 264.386V211.494H437.967L462.563 251.036H462.998L462.563 234.058V211.494H471.849V264.386H460.531L435.863 225.207H435.427L435.863 241.023V264.386H426.068ZM502.924 265.039C499.151 265.039 495.717 264.434 492.621 263.225C489.574 261.967 486.938 260.178 484.713 257.856C482.536 255.534 480.843 252.753 479.634 249.512C478.473 246.223 477.893 242.547 477.893 238.484C477.893 234.179 478.522 230.334 479.779 226.948C481.085 223.514 482.923 220.612 485.293 218.241C487.664 215.823 490.469 213.985 493.71 212.727C496.999 211.47 500.675 210.841 504.738 210.841C509.236 210.841 513.227 211.567 516.709 213.018C520.24 214.42 523.118 216.452 525.343 219.112C527.568 221.724 528.947 224.892 529.479 228.617H519.684C519.152 226.682 518.185 225.013 516.782 223.61C515.427 222.159 513.735 221.047 511.703 220.273C509.672 219.499 507.326 219.112 504.665 219.112C501.038 219.112 497.966 219.91 495.451 221.506C492.936 223.103 491.025 225.328 489.719 228.181C488.413 231.035 487.76 234.373 487.76 238.194C487.76 241.193 488.147 243.853 488.921 246.175C489.743 248.496 490.88 250.48 492.331 252.124C493.782 253.72 495.524 254.954 497.555 255.824C499.587 256.647 501.884 257.058 504.448 257.058C507.495 257.058 510.179 256.502 512.501 255.389C514.823 254.277 516.637 252.729 517.943 250.746C519.249 248.714 519.902 246.32 519.902 243.563V240.878L522.006 242.837H503.214V235.8H530.132V264.386H522.441L521.933 255.171H521.498C520.676 257.155 519.345 258.896 517.507 260.395C515.669 261.846 513.493 262.983 510.978 263.805C508.462 264.628 505.778 265.039 502.924 265.039Z" fill="#50002F"/>
<path d="M209.064 152.614C177.251 171.222 151.811 194.719 125.632 221.644C106.371 241.449 109.185 255.743 117.828 261.261C155.534 285.325 161.324 178.225 137.035 170.624C104.98 160.589 81.6152 266.663 81.6152 266.663C81.6152 266.663 84.3434 207.513 65.8444 213.622C50.5866 218.659 45.0291 252.214 40.482 269.112C40.482 269.112 45.8063 239.039 27.1985 237.251" stroke="#50002F" stroke-width="8.31066" stroke-linejoin="bevel"/>
<g clip-path="url(#clip0_711_8337)">
<path d="M436.152 170.479C434.856 168.808 433.376 167.333 432.408 165.574C428.932 159.256 431.736 151.361 438.933 149.882C446.675 148.291 452.362 154.665 451.184 161.839C450.658 165.041 448.893 167.442 446.695 169.613C446.103 170.199 446.085 170.543 446.691 171.173C448.619 173.182 450.472 175.263 452.328 177.341C452.733 177.793 453.101 177.93 453.677 177.692C458.565 175.672 462.064 172.335 462.961 166.955C463.728 162.367 462.765 157.971 460.029 154.169C458.582 152.161 456.81 150.374 455.069 148.6C453.488 146.99 453.24 144.908 454.645 143.29C455.949 141.789 458.211 141.754 459.851 143.217C463.571 146.537 466.8 150.271 468.515 155.023C471.473 163.216 471.134 171.061 465.323 178.039C462.218 181.767 458.13 183.941 453.517 185.305C451.496 185.903 450.079 185.858 448.635 183.988C446.603 181.354 444.183 179.023 441.939 176.551C441.704 176.292 441.554 175.956 441.303 175.559C439.992 176.971 438.912 178.121 437.847 179.285C435.946 181.365 434.063 183.462 432.146 185.527C431.967 185.72 431.583 185.87 431.335 185.823C423.356 184.345 417.135 180.397 413.657 172.79C412.142 169.478 411.812 165.94 412.094 162.306C412.714 154.301 416.773 148.222 422.573 143.1C424.177 141.685 426.413 141.837 427.69 143.362C429.053 144.988 428.828 147.162 427.144 148.631C424.858 150.623 422.845 152.856 421.394 155.541C419.247 159.514 418.429 163.737 419.583 168.153C420.625 172.143 423.186 175.003 426.837 176.826C429.285 178.049 429.317 177.994 431.167 176C432.773 174.266 434.372 172.524 435.968 170.781C436.072 170.667 436.135 170.512 436.156 170.477L436.152 170.479ZM441.16 165.078C442.176 163.944 443.138 162.983 443.968 161.92C445.199 160.345 445.247 157.685 444.168 156.268C443.099 154.864 441.141 154.465 439.359 155.287C437.813 156.001 437.068 157.786 437.418 159.732C437.839 162.06 439.651 163.343 441.159 165.078H441.16Z" fill="#C9187F"/>
<path d="M407.121 185.942H402.446C402.422 185.512 402.377 185.102 402.377 184.692C402.372 178.967 402.376 173.241 402.374 167.516C402.374 166.2 402.369 166.195 401.115 166.195C394.709 166.194 388.302 166.212 381.894 166.175C380.952 166.17 380.683 166.469 380.69 167.397C380.725 173.122 380.707 178.848 380.707 184.573C380.707 184.989 380.707 185.408 380.707 185.901H376.034C376.013 185.515 375.974 185.133 375.974 184.748C375.971 176.192 375.92 167.636 375.987 159.082C376.045 151.85 379.283 146.403 385.806 143.352C390.473 141.17 395.253 141.675 399.582 144.553C403.156 146.929 405.585 150.259 406.585 154.492C406.948 156.028 407.139 157.641 407.15 159.222C407.203 167.778 407.176 176.334 407.174 184.888C407.174 185.207 407.144 185.527 407.123 185.943L407.121 185.942ZM391.536 161.636C394.801 161.636 398.068 161.639 401.334 161.633C401.806 161.633 402.344 161.726 402.372 160.964C402.516 157.16 401.886 153.605 399.379 150.552C395.137 145.388 387.809 145.433 383.657 150.623C381.379 153.471 380.632 156.721 380.702 160.266C380.73 161.631 380.71 161.636 382.029 161.636C385.198 161.639 388.366 161.636 391.536 161.636Z" fill="#C9187F"/>
<path d="M371.329 185.942H366.62C366.62 185.528 366.62 185.15 366.62 184.772C366.62 178.984 366.603 173.194 366.638 167.406C366.644 166.492 366.417 166.169 365.456 166.174C358.953 166.212 352.453 166.211 345.95 166.176C345.05 166.171 344.795 166.449 344.802 167.341C344.837 173.097 344.819 178.853 344.819 184.611C344.819 185.026 344.819 185.441 344.819 185.917H340.078C340.059 185.579 340.022 185.235 340.022 184.889C340.019 171.034 340.029 157.181 340 143.326C339.998 142.378 340.264 142.057 341.198 142.135C342.098 142.211 343.013 142.208 343.914 142.135C344.781 142.066 344.83 142.525 344.829 143.195C344.814 148.855 344.819 154.513 344.821 160.172C344.821 161.147 345.291 161.635 346.23 161.637C352.603 161.637 358.976 161.637 365.348 161.637C366.619 161.637 366.622 161.632 366.622 160.336C366.622 154.71 366.622 149.083 366.622 143.457C366.622 142.589 367.068 142.154 367.96 142.153C369.054 142.153 370.148 142.153 371.331 142.153V185.942H371.329Z" fill="#C9187F"/>
<path d="M488.368 166.242C485.911 166.242 483.452 166.27 480.994 166.228C480.162 166.213 479.853 166.464 479.864 167.336C479.904 170.237 480.028 173.095 481.26 175.813C482.716 179.022 485.231 180.84 488.602 181.101C492.525 181.405 496.48 181.312 500.422 181.358C503.078 181.389 503.09 181.365 503.075 184.068C503.062 186.363 503.302 185.982 501.178 185.968C497.106 185.94 493.019 186.038 488.965 185.739C482.98 185.299 478.661 182.32 476.42 176.559C475.546 174.314 475.18 171.989 475.173 169.605C475.164 165.347 475.081 161.082 475.277 156.831C475.476 152.532 477.058 148.74 480.288 145.779C482.551 143.706 485.322 142.691 488.295 142.431C491.25 142.172 494.232 142.217 497.203 142.157C498.819 142.125 500.438 142.193 502.054 142.135C502.888 142.104 503.141 142.424 503.09 143.209C503.042 143.954 503.024 144.71 503.093 145.451C503.184 146.429 502.76 146.649 501.861 146.636C498.757 146.59 495.648 146.545 492.547 146.648C490.786 146.705 489.011 146.939 487.282 147.292C483.06 148.158 481.181 151.265 480.341 155.146C479.994 156.747 479.98 158.431 479.896 160.081C479.831 161.397 479.887 161.403 481.248 161.403C486.068 161.405 490.887 161.426 495.706 161.386C496.602 161.377 496.903 161.648 496.834 162.542C496.76 163.479 496.779 164.428 496.829 165.369C496.866 166.062 496.603 166.263 495.938 166.255C493.415 166.226 490.893 166.244 488.37 166.244L488.368 166.242Z" fill="#C9187F"/>
<path d="M518.362 166.244C515.871 166.244 513.378 166.27 510.887 166.23C510.073 166.217 509.767 166.514 509.833 167.309C509.991 169.248 509.943 171.225 510.313 173.121C511.319 178.295 514.873 181.206 520.241 181.33C524.122 181.42 528.007 181.384 531.888 181.344C532.735 181.336 533.053 181.556 532.992 182.425C532.927 183.364 532.962 184.311 532.98 185.254C532.989 185.794 532.768 185.995 532.226 185.985C527.634 185.902 523.018 186.116 518.458 185.699C511.476 185.062 506.646 180.821 505.511 173.317C504.564 167.05 504.567 160.644 505.579 154.363C506.686 147.481 511.489 143.094 518.396 142.41C521.7 142.084 525.049 142.215 528.377 142.154C529.605 142.132 530.836 142.177 532.064 142.14C532.725 142.121 533.015 142.338 532.984 143.028C532.948 143.872 532.936 144.721 532.988 145.564C533.036 146.365 532.743 146.641 531.935 146.632C528.991 146.593 526.044 146.542 523.103 146.645C521.146 146.714 519.165 146.884 517.25 147.278C512.961 148.16 511.036 151.315 510.238 155.299C509.914 156.907 509.974 158.592 509.826 160.239C509.748 161.12 510.065 161.429 510.972 161.421C515.825 161.383 520.679 161.432 525.533 161.379C526.541 161.368 526.855 161.68 526.757 162.651C526.684 163.393 526.743 164.147 526.743 164.895C526.743 165.791 526.311 166.24 525.447 166.243C523.085 166.243 520.722 166.243 518.361 166.243L518.362 166.244Z" fill="#C9187F"/>
</g>
<defs>
<clipPath id="clip0_711_8337">
<rect width="193" height="44" fill="white" transform="translate(340 142)"/>
</clipPath>
</defs>
</svg>
