<svg width="547" height="401" viewBox="0 0 547 401" fill="none" xmlns="http://www.w3.org/2000/svg">
<g clip-path="url(#clip0_711_8321)">
<path d="M78.7862 261.687C73.5597 261.687 68.8291 260.849 64.6036 259.171C60.375 257.493 56.7295 255.073 53.6641 251.911C50.5987 248.749 48.2599 244.941 46.6445 240.488C45.0292 236.035 44.2246 231.067 44.2246 225.579C44.2246 220.091 45.0479 215.026 46.6944 210.573C48.3409 206.12 50.6798 202.331 53.714 199.2C56.7482 196.069 60.3781 193.668 64.6036 191.987C68.8291 190.31 73.5566 189.471 78.7862 189.471C84.4649 189.471 89.5479 190.456 94.0322 192.424C98.5165 194.395 102.178 197.183 105.018 200.797C107.856 204.411 109.665 208.671 110.438 213.576H102.015C101.37 210.286 99.9978 207.38 97.9022 204.863C95.8035 202.347 93.1435 200.363 89.9159 198.91C86.6883 197.457 82.9774 196.734 78.7831 196.734C73.4256 196.734 68.8135 197.894 64.9404 200.217C61.0673 202.54 58.0829 205.849 55.9873 210.14C53.8886 214.434 52.8408 219.579 52.8408 225.579C52.8408 230.032 53.4521 234.049 54.6807 237.632C55.9063 241.215 57.6339 244.246 59.8604 246.731C62.087 249.217 64.7969 251.122 67.9933 252.441C71.1866 253.763 74.7853 254.425 78.7862 254.425C82.7872 254.425 86.707 253.717 89.9658 252.295C93.2246 250.876 95.9033 248.874 98.002 246.292C100.098 243.713 101.439 240.679 102.019 237.192H110.441C109.796 242.163 108.053 246.485 105.215 250.165C102.374 253.845 98.6974 256.685 94.1788 258.684C89.6602 260.686 84.5304 261.684 78.7862 261.684V261.687Z" fill="#50002F"/>
<path d="M199.305 260.814V190.247H209.857L249.642 249.878H250.126L249.739 225.969V190.247H257.675V260.814H247.512L207.727 201.473H207.244L207.631 224.126V260.814H199.305Z" fill="#50002F"/>
<path d="M249.658 260.767V190.197H260.211L299.996 249.828H300.479L300.092 225.919V190.197H308.029V260.767H297.866L258.081 201.427H257.597L257.984 224.079V260.767H249.658Z" fill="#50002F"/>
<path d="M323.325 260.767V190.197H371.822V197.457H329.618L331.554 195.52V255.348L329.618 253.411H371.919V260.767H323.325ZM329.618 228.049V221.272H367.079V228.049H329.618Z" fill="#50002F"/>
<path d="M412.287 261.638C407.061 261.638 402.33 260.799 398.105 259.121C393.876 257.443 390.231 255.023 387.165 251.861C384.1 248.699 381.761 244.892 380.145 240.438C378.53 235.985 377.726 231.018 377.726 225.529C377.726 220.041 378.549 214.976 380.195 210.523C381.842 206.07 384.181 202.281 387.215 199.15C390.249 196.02 393.879 193.618 398.105 191.937C402.33 190.26 407.058 189.421 412.287 189.421C417.966 189.421 423.049 190.406 427.533 192.374C432.018 194.345 435.679 197.133 438.519 200.747C441.357 204.361 443.166 208.621 443.939 213.526H435.516C434.871 210.236 433.499 207.33 431.403 204.813C429.304 202.297 426.644 200.314 423.417 198.86C420.189 197.407 416.478 196.684 412.284 196.684C406.927 196.684 402.314 197.844 398.441 200.167C394.568 202.49 391.584 205.799 389.488 210.09C387.39 214.384 386.342 219.529 386.342 225.529C386.342 229.982 386.953 233.999 388.182 237.582C389.407 241.165 391.135 244.196 393.361 246.682C395.588 249.167 398.298 251.072 401.494 252.391C404.688 253.714 408.286 254.375 412.287 254.375C416.288 254.375 420.208 253.667 423.467 252.245C426.726 250.826 429.404 248.824 431.503 246.242C433.599 243.663 434.94 240.629 435.52 237.142H443.942C443.297 242.113 441.554 246.435 438.716 250.115C435.875 253.795 432.198 256.636 427.68 258.635C423.161 260.637 418.031 261.634 412.287 261.634V261.638Z" fill="#50002F"/>
<path d="M447.136 197.457V190.197H501.25V197.457H447.136ZM469.981 260.767V196.394H478.211V260.767H469.981Z" fill="#50002F"/>
<path d="M153.473 261.431C165.139 253.357 185.559 252.877 185.559 252.877V244.323C164.559 246.054 153.473 261.434 153.473 261.434V261.431Z" fill="#50002F"/>
<path d="M185.555 240.884V236.896C185.555 236.896 161.135 240.301 153.47 261.434C145.805 240.304 121.384 236.896 121.384 236.896V240.884C143.338 242.122 153.47 261.431 153.47 261.431C153.47 261.431 142.387 246.051 121.384 244.321V252.874C121.384 252.874 141.801 253.355 153.47 261.428C153.47 261.428 163.602 242.119 185.555 240.881V240.884Z" fill="#50002F"/>
<path d="M153.473 205.293C158.461 205.293 162.504 201.25 162.504 196.262C162.504 191.275 158.461 187.231 153.473 187.231C148.485 187.231 144.442 191.275 144.442 196.262C144.442 201.25 148.485 205.293 153.473 205.293Z" fill="#50002F"/>
<path d="M125.603 222.81C130.591 222.81 134.634 218.767 134.634 213.779C134.634 208.791 130.591 204.748 125.603 204.748C120.616 204.748 116.572 208.791 116.572 213.779C116.572 218.767 120.616 222.81 125.603 222.81Z" fill="#50002F"/>
<path d="M181.426 222.81C186.414 222.81 190.457 218.767 190.457 213.779C190.457 208.791 186.414 204.748 181.426 204.748C176.439 204.748 172.396 208.791 172.396 213.779C172.396 218.767 176.439 222.81 181.426 222.81Z" fill="#50002F"/>
<path d="M123.77 233.182C123.037 230.696 122.647 228.077 122.647 225.373C122.647 209.295 136.468 196.263 153.516 196.263C170.565 196.263 184.386 209.298 184.386 225.373C184.386 228.389 183.899 231.295 182.998 234.03" stroke="#50002F" stroke-width="3.11843" stroke-miterlimit="10"/>
</g>
<g clip-path="url(#clip1_711_8321)">
<path d="M273.421 152.479C272.125 150.808 270.645 149.333 269.677 147.574C266.2 141.256 269.005 133.361 276.201 131.882C283.944 130.291 289.63 136.665 288.452 143.839C287.926 147.041 286.161 149.442 283.963 151.613C283.371 152.199 283.353 152.543 283.96 153.173C285.888 155.182 287.74 157.263 289.596 159.341C290.001 159.793 290.369 159.93 290.945 159.692C295.833 157.672 299.332 154.335 300.23 148.955C300.996 144.367 300.033 139.971 297.297 136.169C295.851 134.161 294.078 132.374 292.337 130.6C290.756 128.99 290.508 126.908 291.913 125.29C293.217 123.789 295.48 123.754 297.12 125.217C300.839 128.537 304.068 132.271 305.783 137.023C308.742 145.216 308.403 153.061 302.591 160.039C299.486 163.767 295.398 165.941 290.785 167.305C288.764 167.903 287.347 167.858 285.904 165.988C283.872 163.354 281.451 161.023 279.208 158.551C278.973 158.292 278.822 157.956 278.571 157.559C277.261 158.971 276.181 160.121 275.115 161.285C273.214 163.365 271.331 165.462 269.414 167.527C269.235 167.72 268.851 167.87 268.603 167.823C260.624 166.345 254.403 162.397 250.925 154.79C249.41 151.478 249.08 147.94 249.362 144.306C249.983 136.301 254.042 130.222 259.842 125.1C261.445 123.685 263.682 123.837 264.958 125.362C266.322 126.988 266.096 129.162 264.413 130.631C262.126 132.623 260.114 134.856 258.663 137.541C256.515 141.514 255.698 145.737 256.851 150.153C257.893 154.143 260.455 157.003 264.106 158.826C266.554 160.049 266.586 159.994 268.435 158C270.042 156.266 271.64 154.524 273.237 152.781C273.341 152.667 273.403 152.512 273.424 152.477L273.421 152.479ZM278.429 147.078C279.445 145.944 280.406 144.983 281.237 143.92C282.467 142.345 282.515 139.685 281.437 138.268C280.368 136.864 278.409 136.465 276.627 137.287C275.081 138.001 274.336 139.786 274.686 141.732C275.107 144.06 276.92 145.343 278.427 147.078H278.429Z" fill="#C9187F"/>
<path d="M244.389 167.942H239.714C239.69 167.512 239.646 167.102 239.646 166.692C239.641 160.967 239.644 155.241 239.642 149.516C239.642 148.2 239.638 148.195 238.383 148.195C231.977 148.194 225.571 148.212 219.163 148.175C218.22 148.17 217.952 148.469 217.958 149.397C217.993 155.122 217.976 160.848 217.976 166.573C217.976 166.989 217.976 167.408 217.976 167.901H213.302C213.281 167.515 213.243 167.133 213.243 166.748C213.24 158.192 213.188 149.636 213.256 141.082C213.313 133.85 216.552 128.403 223.075 125.352C227.742 123.17 232.521 123.675 236.85 126.553C240.425 128.929 242.854 132.259 243.853 136.492C244.217 138.028 244.407 139.641 244.418 141.222C244.471 149.778 244.444 158.334 244.442 166.888C244.442 167.207 244.412 167.527 244.391 167.943L244.389 167.942ZM228.804 143.636C232.07 143.636 235.337 143.639 238.602 143.633C239.074 143.633 239.612 143.726 239.641 142.964C239.785 139.16 239.154 135.605 236.647 132.552C232.406 127.388 225.078 127.433 220.926 132.623C218.648 135.471 217.9 138.721 217.971 142.266C217.998 143.631 217.979 143.636 219.297 143.636C222.467 143.639 225.635 143.636 228.804 143.636Z" fill="#C9187F"/>
<path d="M208.597 167.942H203.889C203.889 167.528 203.889 167.15 203.889 166.772C203.889 160.984 203.871 155.194 203.906 149.406C203.913 148.492 203.685 148.169 202.724 148.174C196.222 148.212 189.721 148.211 183.219 148.176C182.318 148.171 182.063 148.449 182.07 149.341C182.105 155.097 182.087 160.853 182.087 166.611C182.087 167.026 182.087 167.441 182.087 167.917H177.347C177.328 167.579 177.291 167.235 177.291 166.889C177.288 153.034 177.297 139.181 177.268 125.326C177.267 124.378 177.532 124.057 178.467 124.135C179.366 124.211 180.281 124.208 181.182 124.135C182.049 124.066 182.099 124.525 182.097 125.195C182.083 130.855 182.087 136.513 182.089 142.172C182.089 143.147 182.559 143.635 183.499 143.637C189.871 143.637 196.244 143.637 202.617 143.637C203.887 143.637 203.89 143.632 203.89 142.336C203.89 136.71 203.89 131.083 203.89 125.457C203.89 124.589 204.336 124.154 205.228 124.153C206.322 124.153 207.417 124.153 208.599 124.153V167.942H208.597Z" fill="#C9187F"/>
<path d="M325.637 148.242C323.179 148.242 320.72 148.27 318.262 148.228C317.43 148.213 317.122 148.464 317.133 149.336C317.173 152.237 317.296 155.095 318.528 157.813C319.984 161.022 322.499 162.84 325.87 163.101C329.793 163.405 333.749 163.312 337.691 163.358C340.347 163.389 340.358 163.365 340.344 166.068C340.331 168.363 340.571 167.982 338.446 167.968C334.374 167.94 330.288 168.038 326.233 167.739C320.248 167.299 315.93 164.32 313.688 158.559C312.814 156.314 312.448 153.989 312.442 151.605C312.432 147.347 312.349 143.082 312.546 138.831C312.744 134.532 314.326 130.74 317.557 127.779C319.819 125.706 322.59 124.691 325.563 124.431C328.518 124.172 331.501 124.217 334.472 124.157C336.088 124.125 337.707 124.193 339.323 124.135C340.156 124.104 340.409 124.424 340.358 125.209C340.31 125.954 340.292 126.71 340.361 127.451C340.452 128.429 340.028 128.649 339.129 128.636C336.025 128.59 332.917 128.545 329.816 128.648C328.054 128.705 326.28 128.939 324.55 129.292C320.328 130.158 318.45 133.265 317.61 137.146C317.262 138.747 317.248 140.431 317.165 142.081C317.099 143.397 317.155 143.403 318.517 143.403C323.336 143.405 328.155 143.426 332.974 143.386C333.87 143.377 334.171 143.648 334.102 144.542C334.029 145.479 334.048 146.428 334.097 147.369C334.134 148.062 333.872 148.263 333.206 148.255C330.683 148.226 328.161 148.244 325.638 148.244L325.637 148.242Z" fill="#C9187F"/>
<path d="M355.631 148.244C353.14 148.244 350.647 148.27 348.156 148.23C347.341 148.217 347.036 148.514 347.101 149.309C347.26 151.248 347.212 153.225 347.581 155.121C348.588 160.295 352.141 163.206 357.509 163.33C361.391 163.42 365.275 163.384 369.157 163.344C370.003 163.336 370.322 163.556 370.261 164.425C370.195 165.364 370.23 166.311 370.248 167.254C370.258 167.794 370.037 167.995 369.494 167.985C364.903 167.902 360.287 168.116 355.727 167.699C348.744 167.062 343.914 162.821 342.78 155.317C341.833 149.05 341.836 142.644 342.847 136.363C343.954 129.481 348.757 125.094 355.664 124.41C358.968 124.084 362.317 124.215 365.645 124.154C366.874 124.132 368.104 124.177 369.333 124.14C369.994 124.121 370.283 124.338 370.253 125.028C370.216 125.872 370.205 126.721 370.256 127.564C370.304 128.365 370.011 128.641 369.203 128.632C366.259 128.593 363.312 128.542 360.371 128.645C358.415 128.714 356.434 128.884 354.519 129.278C350.229 130.16 348.304 133.315 347.506 137.299C347.183 138.907 347.242 140.592 347.095 142.239C347.016 143.12 347.333 143.429 348.24 143.421C353.093 143.383 357.947 143.432 362.802 143.379C363.81 143.368 364.123 143.68 364.026 144.651C363.952 145.393 364.011 146.147 364.011 146.895C364.011 147.791 363.579 148.24 362.715 148.243C360.354 148.243 357.991 148.243 355.629 148.243L355.631 148.244Z" fill="#C9187F"/>
</g>
<defs>
<clipPath id="clip0_711_8321">
<rect width="457.022" height="74.4557" fill="white" transform="translate(44.2279 187.231)"/>
</clipPath>
<clipPath id="clip1_711_8321">
<rect width="193" height="44" fill="white" transform="translate(177.268 124)"/>
</clipPath>
</defs>
</svg>
