<svg width="562" height="413" viewBox="0 0 562 413" fill="none" xmlns="http://www.w3.org/2000/svg">
<path d="M198.124 319.787V284.449H223.282V289.975H203.407L204.522 288.86V319.787H198.124ZM202.777 305.293V300.058H221.343V305.293H202.777ZM243.941 320.223C241.291 320.223 238.884 319.819 236.718 319.012C234.586 318.171 232.743 316.976 231.192 315.424C229.641 313.873 228.445 311.983 227.605 309.753C226.797 307.491 226.393 304.938 226.393 302.094C226.393 299.25 226.797 296.713 227.605 294.483C228.445 292.254 229.641 290.363 231.192 288.812C232.743 287.261 234.586 286.081 236.718 285.273C238.884 284.433 241.291 284.013 243.941 284.013C246.591 284.013 248.999 284.433 251.164 285.273C253.329 286.081 255.187 287.277 256.738 288.86C258.289 290.412 259.469 292.302 260.277 294.532C261.117 296.729 261.537 299.25 261.537 302.094C261.537 304.938 261.117 307.491 260.277 309.753C259.469 311.983 258.273 313.873 256.69 315.424C255.139 316.976 253.28 318.171 251.115 319.012C248.982 319.819 246.591 320.223 243.941 320.223ZM243.941 314.697C246.203 314.697 248.158 314.213 249.806 313.243C251.455 312.274 252.715 310.852 253.587 308.977C254.492 307.103 254.945 304.809 254.945 302.094C254.945 300.058 254.686 298.264 254.169 296.713C253.652 295.162 252.909 293.853 251.939 292.787C251.002 291.72 249.855 290.913 248.498 290.363C247.14 289.814 245.622 289.539 243.941 289.539C241.711 289.539 239.772 290.024 238.124 290.993C236.508 291.93 235.248 293.336 234.343 295.211C233.438 297.085 232.986 299.379 232.986 302.094C232.986 304.13 233.244 305.94 233.761 307.523C234.279 309.107 235.006 310.432 235.943 311.498C236.912 312.564 238.06 313.372 239.384 313.922C240.742 314.439 242.261 314.697 243.941 314.697ZM267.048 319.787V284.449H284.451C285.872 284.449 287.165 284.579 288.328 284.837C289.524 285.096 290.591 285.483 291.528 286C292.465 286.518 293.257 287.164 293.903 287.939C294.549 288.715 295.05 289.62 295.406 290.654C295.761 291.656 295.939 292.787 295.939 294.047C295.939 296.245 295.357 298.103 294.194 299.622C293.063 301.108 291.479 302.126 289.443 302.676V302.966C290.833 303.193 291.948 303.613 292.788 304.227C293.628 304.809 294.242 305.568 294.63 306.505C295.018 307.442 295.212 308.573 295.212 309.898V315.861C295.212 316.475 295.228 317.121 295.26 317.8C295.325 318.446 295.503 319.108 295.794 319.787H289.298C289.104 319.335 288.959 318.769 288.862 318.091C288.797 317.412 288.765 316.652 288.765 315.812V311.013C288.765 309.914 288.603 309.01 288.28 308.299C287.957 307.555 287.375 306.99 286.535 306.602C285.695 306.182 284.483 305.972 282.899 305.972H272.817V300.882H282.996C285.291 300.882 286.923 300.349 287.892 299.282C288.862 298.184 289.346 296.826 289.346 295.211C289.346 294.209 289.185 293.385 288.862 292.738C288.571 292.06 288.135 291.51 287.553 291.09C287.004 290.638 286.341 290.315 285.565 290.121C284.79 289.895 283.933 289.781 282.996 289.781H273.447V319.787H267.048ZM316.091 320.223C312.989 320.223 310.339 319.674 308.141 318.575C305.944 317.444 304.263 315.861 303.1 313.825C301.937 311.757 301.355 309.317 301.355 306.505V284.449H307.753V306.457C307.753 308.234 308.093 309.721 308.771 310.916C309.45 312.112 310.403 313.017 311.631 313.631C312.892 314.213 314.394 314.503 316.14 314.503C318.014 314.503 319.565 314.18 320.793 313.534C322.053 312.888 322.991 311.967 323.605 310.771C324.219 309.575 324.526 308.137 324.526 306.457V284.449H330.876V306.505C330.876 309.349 330.278 311.805 329.082 313.873C327.919 315.909 326.222 317.476 323.992 318.575C321.795 319.674 319.161 320.223 316.091 320.223ZM337.63 319.787V284.449H347.761L353.529 301.949L355.904 310.965H356.244L358.619 301.949L364.339 284.449H374.47V319.787H368.265V302.676L368.459 290.412H368.071L364.63 301.803L358.813 319.787H353.335L347.567 301.803L344.077 290.412H343.689L343.883 302.676V319.787H337.63Z" fill="#50002F"/>
<path d="M91.8954 257.358L126.913 251.11L159.881 245.229C160.452 245.127 160.871 244.63 160.871 244.047V224.749C160.871 224.001 160.229 223.41 159.486 223.473L113.541 227.322V136.808C113.541 136.256 113.345 135.786 112.962 135.399C112.574 135.011 112.101 134.819 111.553 134.819H92.1145C91.5588 134.819 91.0931 135.015 90.7057 135.399C90.3182 135.786 90.1265 136.26 90.1265 136.808V255.874C90.1265 256.814 90.9757 257.523 91.8954 257.358Z" fill="#50002F"/>
<path d="M67.2211 286.541C90.1816 285.868 97.2299 298.475 97.7112 299.418L133.371 266.958C86.0646 276.773 67.2211 286.541 67.2211 286.541Z" fill="#50002F"/>
<path d="M146.102 264.444L113.87 293.78C247.427 249.998 485.45 250.158 493.915 250.17C320.688 241.408 210.874 252.323 146.106 264.448L146.102 264.444Z" fill="#50002F"/>
<path d="M283.165 235.602H305.918C310.642 235.602 314.825 234.721 318.457 232.956C322.089 231.194 324.895 228.688 326.871 225.439C328.843 222.193 329.833 218.419 329.833 214.112V182.987C329.833 178.684 328.843 174.906 326.871 171.661C324.895 168.415 322.093 165.909 318.457 164.144C314.821 162.382 310.642 161.497 305.918 161.497H283.165C282.813 161.497 282.511 161.622 282.265 161.869C282.018 162.116 281.893 162.417 281.893 162.769V234.33C281.893 234.682 282.014 234.984 282.265 235.23C282.511 235.477 282.809 235.602 283.165 235.602ZM296.815 174.836C296.815 174.483 296.991 174.307 297.344 174.307H306.02C308.701 174.307 310.849 175.243 312.473 177.114C314.093 178.986 314.907 181.507 314.907 184.682V212.417C314.837 215.526 313.992 218.012 312.367 219.879C310.743 221.751 308.626 222.686 306.02 222.686L297.344 222.792C296.991 222.792 296.815 222.616 296.815 222.263V174.836Z" fill="#50002F"/>
<path d="M338.541 235.602H381.081C381.433 235.602 381.73 235.481 381.981 235.23C382.227 234.984 382.353 234.686 382.353 234.33V224.06C382.353 223.708 382.227 223.411 381.981 223.16C381.734 222.913 381.433 222.788 381.081 222.788H352.72C352.367 222.788 352.191 222.612 352.191 222.259V205.217C352.191 204.865 352.367 204.689 352.72 204.689H370.393C370.745 204.689 371.043 204.567 371.293 204.317C371.54 204.07 371.665 203.772 371.665 203.416V193.147C371.665 192.794 371.54 192.497 371.293 192.246C371.047 192 370.745 191.874 370.393 191.874H352.72C352.367 191.874 352.191 191.698 352.191 191.346V174.832C352.191 174.48 352.367 174.303 352.72 174.303H381.081C381.433 174.303 381.73 174.182 381.981 173.931C382.227 173.685 382.353 173.387 382.353 173.031V162.762C382.353 162.409 382.227 162.112 381.981 161.861C381.734 161.615 381.433 161.489 381.081 161.489H338.541C338.189 161.489 337.887 161.615 337.641 161.861C337.394 162.108 337.269 162.409 337.269 162.762V234.33C337.269 234.682 337.39 234.984 337.641 235.23C337.887 235.477 338.185 235.602 338.541 235.602Z" fill="#50002F"/>
<path d="M391.013 235.602H403.395C403.748 235.602 404.045 235.481 404.296 235.23C404.542 234.984 404.667 234.686 404.667 234.33V205.428C404.667 205.076 404.843 204.9 405.196 204.9H411.86C412.072 204.9 412.248 205.041 412.389 205.323L423.077 234.541C423.288 235.246 423.781 235.598 424.56 235.598H437.47C438.245 235.598 438.633 235.281 438.633 234.647C438.633 234.435 438.598 234.259 438.527 234.118L426.462 203.737C426.321 203.385 426.426 203.138 426.779 202.997C430.375 201.376 433.162 198.906 435.138 195.586C437.11 192.27 438.1 188.351 438.1 183.837C438.1 179.323 437.216 175.58 435.455 172.193C433.69 168.807 431.185 166.176 427.941 164.308C424.697 162.441 420.991 161.501 416.831 161.501H391.009C390.657 161.501 390.356 161.626 390.109 161.873C389.863 162.12 389.737 162.421 389.737 162.773V234.33C389.737 234.682 389.859 234.984 390.109 235.23C390.356 235.477 390.653 235.602 391.009 235.602H391.013ZM404.663 174.836C404.663 174.483 404.84 174.307 405.192 174.307H414.396C417.007 174.307 419.12 175.173 420.744 176.899C422.364 178.63 423.178 180.975 423.178 183.938C423.178 186.902 422.368 189.146 420.744 190.872C419.12 192.603 417.003 193.464 414.396 193.464H405.192C404.84 193.464 404.663 193.288 404.663 192.935V174.832V174.836Z" fill="#50002F"/>
<path d="M457.555 233.856C461.222 235.586 465.491 236.448 470.36 236.448C477.557 236.448 483.321 234.561 487.661 230.783C492.001 227.008 494.169 221.907 494.169 215.486C494.169 211.888 493.391 208.819 491.841 206.278C490.287 203.737 488.366 201.639 486.072 199.979C483.779 198.323 480.586 196.361 476.496 194.102L474.273 192.834C470.677 191.072 467.992 189.643 466.231 188.546C464.466 187.454 463.163 186.307 462.317 185.105C461.472 183.907 461.049 182.494 461.049 180.869C461.049 178.539 461.773 176.723 463.217 175.415C464.662 174.111 466.657 173.458 469.197 173.458C472.23 173.458 474.629 174.303 476.394 175.999C478.155 177.694 479.04 179.808 479.04 182.349V184.256C479.04 184.612 479.161 184.909 479.412 185.156C479.658 185.403 479.956 185.528 480.312 185.528H492.483C492.835 185.528 493.132 185.407 493.383 185.156C493.629 184.909 493.755 184.612 493.755 184.256V182.137C493.755 177.901 492.729 174.162 490.686 170.917C488.64 167.671 485.783 165.146 482.116 163.349C478.445 161.548 474.25 160.647 469.522 160.647C464.795 160.647 460.987 161.477 457.461 163.134C453.931 164.794 451.199 167.154 449.258 170.228C447.317 173.297 446.346 176.879 446.346 180.971C446.346 185.062 447.297 188.558 449.203 191.451C451.109 194.345 453.398 196.709 456.083 198.546C458.764 200.382 462.22 202.355 466.454 204.473C469.91 206.239 472.469 207.633 474.124 208.654C475.78 209.676 477.067 210.773 477.987 211.935C478.903 213.098 479.365 214.496 479.365 216.117C479.365 218.305 478.641 220.106 477.196 221.516C475.748 222.929 473.651 223.634 470.9 223.634C467.796 223.634 465.327 222.804 463.491 221.148C461.656 219.491 460.74 217.428 460.74 214.954V212.942C460.74 212.589 460.615 212.288 460.368 212.041C460.122 211.794 459.821 211.669 459.468 211.669H447.297C446.945 211.669 446.644 211.794 446.397 212.041C446.151 212.288 446.025 212.589 446.025 212.942V215.694C446.025 219.789 447.031 223.407 449.043 226.546C451.054 229.686 453.892 232.122 457.562 233.852L457.555 233.856Z" fill="#50002F"/>
<path d="M220.713 238.304L233.996 236.992C234.567 236.937 235.037 236.526 235.173 235.97L235.455 234.823C235.494 234.737 235.534 234.643 235.565 234.541L236.387 231.029L237.995 224.166C238.066 223.884 238.242 223.743 238.523 223.743H258.31C258.592 223.743 258.768 223.884 258.839 224.166L261.273 234.541C261.484 235.246 261.977 235.598 262.756 235.598H275.667C276.441 235.598 276.829 235.281 276.829 234.647L276.723 234.224L257.676 162.554C257.465 161.849 256.972 161.497 256.193 161.497H240.848C240.069 161.497 239.58 161.849 239.365 162.554L220.717 232.725L219.555 236.937C219.351 237.673 219.95 238.378 220.705 238.304H220.713ZM240.852 211.571L247.943 180.873C248.014 180.591 248.119 180.45 248.26 180.45C248.401 180.45 248.507 180.591 248.577 180.873L255.88 211.571C255.95 211.783 255.915 211.943 255.774 212.049C255.633 212.155 255.492 212.209 255.352 212.209H241.384C241.243 212.209 241.102 212.155 240.962 212.049C240.821 211.943 240.785 211.787 240.856 211.571H240.852Z" fill="#50002F"/>
<path d="M170.119 243.812L211.809 239.059C212.553 238.973 213.116 238.343 213.116 237.595V222.706C213.116 222.06 212.576 221.543 211.931 221.57L183.487 222.792C183.135 222.792 182.959 222.616 182.959 222.263V205.425C182.959 205.017 183.288 204.688 183.695 204.688H201.071C201.478 204.688 201.885 204.536 202.147 204.223C202.335 203.996 202.432 203.725 202.432 203.416V193.241C202.432 192.83 202.28 192.419 201.963 192.156C201.736 191.972 201.47 191.878 201.164 191.878H183.698C183.291 191.878 182.963 191.549 182.963 191.142V175.039C182.963 174.632 183.291 174.303 183.698 174.303H211.762C212.169 174.303 212.58 174.151 212.838 173.837C213.026 173.61 213.12 173.344 213.12 173.035V162.86C213.12 162.448 212.968 162.037 212.651 161.775C212.424 161.587 212.158 161.497 211.852 161.497H169.312C169.003 161.497 168.733 161.591 168.506 161.783C168.193 162.045 168.044 162.452 168.044 162.86V241.956C168.044 243.072 169.015 243.941 170.126 243.816L170.119 243.812Z" fill="#50002F"/>
<g clip-path="url(#clip0_711_8308)">
<path d="M285.152 119.479C283.856 117.808 282.376 116.333 281.408 114.574C277.932 108.256 280.736 100.361 287.933 98.8819C295.675 97.2913 301.362 103.665 300.184 110.839C299.658 114.041 297.893 116.442 295.695 118.613C295.103 119.199 295.085 119.543 295.691 120.173C297.619 122.182 299.472 124.263 301.328 126.341C301.733 126.793 302.101 126.93 302.677 126.692C307.565 124.672 311.064 121.335 311.961 115.955C312.728 111.367 311.765 106.971 309.029 103.169C307.582 101.161 305.81 99.374 304.069 97.6001C302.488 95.9903 302.24 93.9076 303.645 92.2897C304.949 90.7892 307.211 90.7538 308.851 92.2173C312.571 95.5367 315.8 99.2711 317.515 104.023C320.473 112.216 320.134 120.061 314.323 127.039C311.218 130.767 307.13 132.941 302.517 134.305C300.496 134.903 299.079 134.858 297.635 132.988C295.603 130.354 293.183 128.023 290.939 125.551C290.704 125.292 290.554 124.956 290.303 124.559C288.992 125.971 287.912 127.121 286.847 128.285C284.946 130.365 283.063 132.462 281.146 134.527C280.967 134.72 280.583 134.87 280.335 134.823C272.356 133.345 266.135 129.397 262.657 121.79C261.142 118.478 260.812 114.94 261.094 111.306C261.714 103.301 265.773 97.2222 271.573 92.0999C273.177 90.6847 275.413 90.8374 276.69 92.3621C278.053 93.988 277.828 96.1623 276.144 97.6307C273.858 99.6233 271.845 101.856 270.394 104.541C268.247 108.514 267.429 112.737 268.583 117.153C269.625 121.143 272.186 124.003 275.837 125.826C278.285 127.049 278.317 126.994 280.167 125C281.773 123.266 283.372 121.524 284.968 119.781C285.072 119.667 285.135 119.512 285.156 119.477L285.152 119.479ZM290.16 114.078C291.176 112.944 292.138 111.983 292.968 110.92C294.199 109.345 294.247 106.685 293.168 105.268C292.099 103.864 290.141 103.465 288.359 104.287C286.813 105.001 286.068 106.786 286.418 108.732C286.839 111.06 288.651 112.343 290.159 114.078H290.16Z" fill="#C9187F"/>
<path d="M256.121 134.942H251.446C251.422 134.512 251.377 134.102 251.377 133.692C251.372 127.967 251.376 122.241 251.374 116.516C251.374 115.2 251.369 115.195 250.115 115.195C243.709 115.194 237.302 115.212 230.894 115.175C229.952 115.17 229.683 115.469 229.69 116.397C229.725 122.122 229.707 127.848 229.707 133.573C229.707 133.989 229.707 134.408 229.707 134.901H225.034C225.013 134.515 224.974 134.133 224.974 133.748C224.971 125.192 224.92 116.636 224.987 108.082C225.045 100.85 228.283 95.4028 234.806 92.352C239.473 90.1696 244.253 90.6746 248.582 93.5533C252.156 95.9287 254.585 99.2594 255.585 103.492C255.948 105.028 256.139 106.641 256.15 108.222C256.203 116.778 256.176 125.334 256.174 133.888C256.174 134.207 256.144 134.527 256.123 134.943L256.121 134.942ZM240.536 110.636C243.801 110.636 247.068 110.639 250.334 110.633C250.806 110.633 251.344 110.726 251.372 109.964C251.516 106.16 250.886 102.605 248.379 99.5521C244.137 94.388 236.809 94.433 232.657 99.6229C230.379 102.471 229.632 105.721 229.702 109.266C229.73 110.631 229.71 110.636 231.029 110.636C234.198 110.639 237.366 110.636 240.536 110.636Z" fill="#C9187F"/>
<path d="M220.329 134.942H215.62C215.62 134.528 215.62 134.15 215.62 133.772C215.62 127.984 215.603 122.194 215.638 116.406C215.644 115.492 215.417 115.169 214.456 115.174C207.953 115.212 201.453 115.211 194.95 115.176C194.05 115.171 193.795 115.449 193.802 116.341C193.837 122.097 193.819 127.853 193.819 133.611C193.819 134.026 193.819 134.441 193.819 134.917H189.078C189.059 134.579 189.022 134.235 189.022 133.889C189.019 120.034 189.029 106.181 189 92.3256C188.998 91.3783 189.264 91.0566 190.198 91.1354C191.098 91.211 192.013 91.2078 192.914 91.1354C193.781 91.0663 193.83 91.5246 193.829 92.1953C193.814 97.8547 193.819 103.513 193.821 109.172C193.821 110.147 194.291 110.635 195.23 110.637C201.603 110.637 207.976 110.637 214.348 110.637C215.619 110.637 215.622 110.632 215.622 109.336C215.622 103.71 215.622 98.0831 215.622 92.4574C215.622 91.589 216.068 91.1542 216.96 91.1531C218.054 91.1531 219.148 91.1531 220.331 91.1531V134.942H220.329Z" fill="#C9187F"/>
<path d="M337.368 115.242C334.911 115.242 332.452 115.27 329.994 115.228C329.162 115.213 328.853 115.464 328.864 116.336C328.904 119.237 329.028 122.095 330.26 124.813C331.716 128.022 334.231 129.84 337.602 130.101C341.525 130.405 345.48 130.312 349.422 130.358C352.078 130.389 352.09 130.365 352.075 133.068C352.062 135.363 352.302 134.982 350.178 134.968C346.106 134.94 342.019 135.038 337.965 134.739C331.98 134.299 327.661 131.32 325.42 125.559C324.546 123.314 324.18 120.989 324.173 118.605C324.164 114.347 324.081 110.082 324.277 105.831C324.476 101.532 326.058 97.7399 329.288 94.7791C331.551 92.7061 334.322 91.6913 337.295 91.4307C340.25 91.1718 343.232 91.2168 346.203 91.1573C347.819 91.1252 349.438 91.1927 351.054 91.1348C351.888 91.1042 352.141 91.4243 352.09 92.2091C352.042 92.9537 352.024 93.7096 352.093 94.451C352.184 95.4288 351.76 95.6491 350.861 95.6363C347.757 95.5896 344.648 95.5446 341.547 95.6475C339.786 95.7054 338.011 95.9386 336.282 96.2924C332.06 97.1577 330.181 100.265 329.341 104.146C328.994 105.747 328.98 107.431 328.896 109.081C328.831 110.397 328.887 110.403 330.248 110.403C335.068 110.405 339.887 110.426 344.706 110.386C345.602 110.377 345.903 110.648 345.834 111.542C345.76 112.479 345.779 113.428 345.829 114.369C345.866 115.062 345.603 115.263 344.938 115.255C342.415 115.226 339.893 115.244 337.37 115.244L337.368 115.242Z" fill="#C9187F"/>
<path d="M367.362 115.244C364.871 115.244 362.378 115.27 359.887 115.23C359.073 115.217 358.767 115.514 358.833 116.309C358.991 118.248 358.943 120.225 359.313 122.121C360.319 127.295 363.873 130.206 369.241 130.33C373.122 130.42 377.007 130.384 380.888 130.344C381.735 130.336 382.053 130.556 381.992 131.425C381.927 132.364 381.962 133.311 381.98 134.254C381.989 134.794 381.768 134.995 381.226 134.985C376.634 134.902 372.018 135.116 367.458 134.699C360.476 134.062 355.646 129.821 354.511 122.317C353.564 116.05 353.567 109.644 354.579 103.363C355.686 96.4808 360.489 92.0935 367.396 91.41C370.7 91.0835 374.049 91.2154 377.377 91.1543C378.605 91.1318 379.836 91.1768 381.064 91.1398C381.725 91.1205 382.015 91.3377 381.984 92.0276C381.948 92.8719 381.936 93.7211 381.988 94.5638C382.036 95.3647 381.743 95.6413 380.935 95.6317C377.991 95.5931 375.044 95.5416 372.103 95.6445C370.146 95.7137 368.165 95.8842 366.25 96.2782C361.961 97.1595 360.036 100.315 359.238 104.299C358.914 105.907 358.974 107.592 358.826 109.239C358.748 110.12 359.065 110.429 359.972 110.421C364.825 110.383 369.679 110.432 374.533 110.379C375.541 110.368 375.855 110.68 375.757 111.651C375.684 112.393 375.743 113.147 375.743 113.895C375.743 114.791 375.311 115.24 374.447 115.243C372.085 115.243 369.722 115.243 367.361 115.243L367.362 115.244Z" fill="#C9187F"/>
</g>
<defs>
<clipPath id="clip0_711_8308">
<rect width="193" height="44" fill="white" transform="translate(189 91)"/>
</clipPath>
</defs>
</svg>
