<svg width="715" height="206" viewBox="0 0 715 206" fill="none" xmlns="http://www.w3.org/2000/svg">
<path d="M8.463 189.004C8.463 188.926 8.48625 188.864 8.53275 188.818C8.59475 188.756 8.6645 188.725 8.742 188.725H11.4623C11.5398 188.725 11.6018 188.756 11.6483 188.818C11.7103 188.864 11.7412 188.926 11.7412 189.004V204.721C11.7412 204.798 11.7103 204.868 11.6483 204.93C11.6018 204.977 11.5398 205 11.4623 205H8.742C8.6645 205 8.59475 204.977 8.53275 204.93C8.48625 204.868 8.463 204.798 8.463 204.721V198.35C8.463 198.273 8.42425 198.234 8.34675 198.234H4.62675C4.54925 198.234 4.5105 198.273 4.5105 198.35V204.721C4.5105 204.798 4.4795 204.868 4.4175 204.93C4.371 204.977 4.309 205 4.2315 205H1.51125C1.43375 205 1.364 204.977 1.302 204.93C1.2555 204.868 1.23225 204.798 1.23225 204.721V189.004C1.23225 188.926 1.2555 188.864 1.302 188.818C1.364 188.756 1.43375 188.725 1.51125 188.725H4.2315C4.309 188.725 4.371 188.756 4.4175 188.818C4.4795 188.864 4.5105 188.926 4.5105 189.004V195.281C4.5105 195.359 4.54925 195.398 4.62675 195.398H8.34675C8.42425 195.398 8.463 195.359 8.463 195.281V189.004ZM19.221 205.209C18.1515 205.209 17.206 204.992 16.3845 204.558C15.5785 204.124 14.9508 203.512 14.5013 202.721C14.0518 201.931 13.827 201.009 13.827 199.955V193.77C13.827 192.732 14.0518 191.817 14.5013 191.027C14.9508 190.236 15.5785 189.624 16.3845 189.19C17.206 188.756 18.1515 188.539 19.221 188.539C20.2905 188.539 21.236 188.756 22.0575 189.19C22.879 189.624 23.5145 190.236 23.964 191.027C24.4135 191.817 24.6383 192.732 24.6383 193.77V199.955C24.6383 201.009 24.4135 201.931 23.964 202.721C23.5145 203.512 22.879 204.124 22.0575 204.558C21.236 204.992 20.2905 205.209 19.221 205.209ZM19.221 202.396C19.872 202.396 20.3913 202.187 20.7788 201.768C21.1663 201.334 21.36 200.776 21.36 200.094V193.677C21.36 192.98 21.1663 192.422 20.7788 192.003C20.3913 191.569 19.872 191.352 19.221 191.352C18.5855 191.352 18.074 191.569 17.6865 192.003C17.299 192.422 17.1053 192.98 17.1053 193.677V200.094C17.1053 200.776 17.299 201.334 17.6865 201.768C18.074 202.187 18.5855 202.396 19.221 202.396ZM36.5207 205.186C35.4667 205.186 34.5367 204.977 33.7307 204.558C32.9247 204.14 32.2969 203.543 31.8474 202.768C31.4134 201.993 31.1964 201.094 31.1964 200.071V193.607C31.1964 192.6 31.4134 191.716 31.8474 190.957C32.2969 190.182 32.9247 189.585 33.7307 189.167C34.5367 188.748 35.4667 188.539 36.5207 188.539C37.5747 188.539 38.5047 188.748 39.3107 189.167C40.1167 189.57 40.7367 190.143 41.1707 190.887C41.6202 191.631 41.8449 192.499 41.8449 193.491V193.607C41.8449 193.685 41.8139 193.755 41.7519 193.817C41.7054 193.879 41.6434 193.91 41.5659 193.91L38.8457 194.026C38.6597 194.026 38.5667 193.941 38.5667 193.77V193.468C38.5667 192.832 38.3807 192.321 38.0087 191.933C37.6367 191.546 37.1407 191.352 36.5207 191.352C35.9007 191.352 35.4047 191.546 35.0327 191.933C34.6607 192.321 34.4747 192.832 34.4747 193.468V200.28C34.4747 200.916 34.6607 201.427 35.0327 201.815C35.4047 202.187 35.9007 202.373 36.5207 202.373C37.1407 202.373 37.6367 202.187 38.0087 201.815C38.3807 201.427 38.5667 200.916 38.5667 200.28V199.978C38.5667 199.807 38.6597 199.722 38.8457 199.722L41.5659 199.838C41.6434 199.838 41.7054 199.869 41.7519 199.931C41.8139 199.978 41.8449 200.04 41.8449 200.117V200.187C41.8449 201.179 41.6202 202.055 41.1707 202.814C40.7367 203.574 40.1167 204.163 39.3107 204.581C38.5047 204.984 37.5747 205.186 36.5207 205.186ZM51.1713 189.004C51.1713 188.926 51.1945 188.864 51.241 188.818C51.303 188.756 51.3728 188.725 51.4503 188.725H54.1705C54.248 188.725 54.31 188.756 54.3565 188.818C54.4185 188.864 54.4495 188.926 54.4495 189.004V204.721C54.4495 204.798 54.4185 204.868 54.3565 204.93C54.31 204.977 54.248 205 54.1705 205H51.4503C51.3728 205 51.303 204.977 51.241 204.93C51.1945 204.868 51.1713 204.798 51.1713 204.721V198.35C51.1713 198.273 51.1325 198.234 51.055 198.234H47.335C47.2575 198.234 47.2188 198.273 47.2188 198.35V204.721C47.2188 204.798 47.1878 204.868 47.1258 204.93C47.0793 204.977 47.0173 205 46.9398 205H44.2195C44.142 205 44.0723 204.977 44.0103 204.93C43.9638 204.868 43.9405 204.798 43.9405 204.721V189.004C43.9405 188.926 43.9638 188.864 44.0103 188.818C44.0723 188.756 44.142 188.725 44.2195 188.725H46.9398C47.0173 188.725 47.0793 188.756 47.1258 188.818C47.1878 188.864 47.2188 188.926 47.2188 189.004V195.281C47.2188 195.359 47.2575 195.398 47.335 195.398H51.055C51.1325 195.398 51.1713 195.359 51.1713 195.281V189.004ZM57.0933 205C57.0158 205 56.946 204.977 56.884 204.93C56.8375 204.868 56.8143 204.798 56.8143 204.721V189.004C56.8143 188.926 56.8375 188.864 56.884 188.818C56.946 188.756 57.0158 188.725 57.0933 188.725H59.8135C59.891 188.725 59.953 188.756 59.9995 188.818C60.0615 188.864 60.0925 188.926 60.0925 189.004V204.721C60.0925 204.798 60.0615 204.868 59.9995 204.93C59.953 204.977 59.891 205 59.8135 205H57.0933ZM76.1418 188.911C76.2038 188.787 76.3123 188.725 76.4673 188.725H79.1643C79.2418 188.725 79.3038 188.756 79.3503 188.818C79.4123 188.864 79.4433 188.926 79.4433 189.004V204.721C79.4433 204.798 79.4123 204.868 79.3503 204.93C79.3038 204.977 79.2418 205 79.1643 205H76.444C76.3665 205 76.2968 204.977 76.2348 204.93C76.1883 204.868 76.165 204.798 76.165 204.721V194.398C76.165 194.336 76.1495 194.305 76.1185 194.305C76.0875 194.289 76.0565 194.305 76.0255 194.351L73.8865 197.885C73.8245 198.009 73.716 198.071 73.561 198.071H73.0263C72.8713 198.071 72.7628 198.009 72.7008 197.885L70.5618 194.351C70.5308 194.305 70.4998 194.289 70.4688 194.305C70.4378 194.305 70.4223 194.336 70.4223 194.398V204.721C70.4223 204.798 70.3913 204.868 70.3293 204.93C70.2828 204.977 70.2208 205 70.1433 205H67.423C67.3455 205 67.2758 204.977 67.2138 204.93C67.1673 204.868 67.144 204.798 67.144 204.721V189.004C67.144 188.926 67.1673 188.864 67.2138 188.818C67.2758 188.756 67.3455 188.725 67.423 188.725H70.12C70.275 188.725 70.3835 188.787 70.4455 188.911L73.2355 193.491C73.282 193.584 73.3285 193.584 73.375 193.491L76.1418 188.911ZM82.137 205C82.0595 205 81.9897 204.977 81.9277 204.93C81.8812 204.868 81.858 204.798 81.858 204.721V189.004C81.858 188.926 81.8812 188.864 81.9277 188.818C81.9897 188.756 82.0595 188.725 82.137 188.725H84.8572C84.9347 188.725 84.9967 188.756 85.0432 188.818C85.1052 188.864 85.1362 188.926 85.1362 189.004V204.721C85.1362 204.798 85.1052 204.868 85.0432 204.93C84.9967 204.977 84.9347 205 84.8572 205H82.137ZM95.5777 189.004C95.5777 188.926 95.6009 188.864 95.6474 188.818C95.7094 188.756 95.7792 188.725 95.8567 188.725H98.5537C98.6312 188.725 98.6932 188.756 98.7397 188.818C98.8017 188.864 98.8327 188.926 98.8327 189.004V204.721C98.8327 204.798 98.8017 204.868 98.7397 204.93C98.6932 204.977 98.6312 205 98.5537 205H95.7172C95.5622 205 95.4537 204.93 95.3917 204.791L90.9509 195.328C90.9199 195.281 90.8889 195.258 90.8579 195.258C90.8269 195.258 90.8114 195.289 90.8114 195.351L90.8347 204.721C90.8347 204.798 90.8037 204.868 90.7417 204.93C90.6952 204.977 90.6332 205 90.5557 205H87.8587C87.7812 205 87.7114 204.977 87.6494 204.93C87.6029 204.868 87.5797 204.798 87.5797 204.721V189.004C87.5797 188.926 87.6029 188.864 87.6494 188.818C87.7114 188.756 87.7812 188.725 87.8587 188.725H90.6719C90.8269 188.725 90.9354 188.795 90.9974 188.934L95.4382 198.397C95.4692 198.443 95.5002 198.467 95.5312 198.467C95.5622 198.467 95.5777 198.436 95.5777 198.374V189.004ZM108.524 189.004C108.524 188.926 108.548 188.864 108.594 188.818C108.656 188.756 108.726 188.725 108.803 188.725H111.524C111.601 188.725 111.663 188.756 111.71 188.818C111.772 188.864 111.803 188.926 111.803 189.004V204.721C111.803 204.798 111.772 204.868 111.71 204.93C111.663 204.977 111.601 205 111.524 205H108.803C108.726 205 108.656 204.977 108.594 204.93C108.548 204.868 108.524 204.798 108.524 204.721V198.35C108.524 198.273 108.486 198.234 108.408 198.234H104.688C104.611 198.234 104.572 198.273 104.572 198.35V204.721C104.572 204.798 104.541 204.868 104.479 204.93C104.432 204.977 104.37 205 104.293 205H101.573C101.495 205 101.425 204.977 101.363 204.93C101.317 204.868 101.294 204.798 101.294 204.721V189.004C101.294 188.926 101.317 188.864 101.363 188.818C101.425 188.756 101.495 188.725 101.573 188.725H104.293C104.37 188.725 104.432 188.756 104.479 188.818C104.541 188.864 104.572 188.926 104.572 189.004V195.281C104.572 195.359 104.611 195.398 104.688 195.398H108.408C108.486 195.398 108.524 195.359 108.524 195.281V189.004ZM123.867 205.186C122.813 205.186 121.883 204.977 121.077 204.558C120.271 204.14 119.643 203.543 119.194 202.768C118.76 201.993 118.543 201.094 118.543 200.071V193.607C118.543 192.6 118.76 191.716 119.194 190.957C119.643 190.182 120.271 189.585 121.077 189.167C121.883 188.748 122.813 188.539 123.867 188.539C124.921 188.539 125.851 188.748 126.657 189.167C127.463 189.57 128.083 190.143 128.517 190.887C128.967 191.631 129.191 192.499 129.191 193.491V193.607C129.191 193.685 129.16 193.755 129.098 193.817C129.052 193.879 128.99 193.91 128.912 193.91L126.192 194.026C126.006 194.026 125.913 193.941 125.913 193.77V193.468C125.913 192.832 125.727 192.321 125.355 191.933C124.983 191.546 124.487 191.352 123.867 191.352C123.247 191.352 122.751 191.546 122.379 191.933C122.007 192.321 121.821 192.832 121.821 193.468V200.28C121.821 200.916 122.007 201.427 122.379 201.815C122.751 202.187 123.247 202.373 123.867 202.373C124.487 202.373 124.983 202.187 125.355 201.815C125.727 201.427 125.913 200.916 125.913 200.28V199.978C125.913 199.807 126.006 199.722 126.192 199.722L128.912 199.838C128.99 199.838 129.052 199.869 129.098 199.931C129.16 199.978 129.191 200.04 129.191 200.117V200.187C129.191 201.179 128.967 202.055 128.517 202.814C128.083 203.574 127.463 204.163 126.657 204.581C125.851 204.984 124.921 205.186 123.867 205.186ZM131.566 205C131.488 205 131.419 204.977 131.357 204.93C131.31 204.868 131.287 204.798 131.287 204.721V189.004C131.287 188.926 131.31 188.864 131.357 188.818C131.419 188.756 131.488 188.725 131.566 188.725H134.286C134.364 188.725 134.426 188.756 134.472 188.818C134.534 188.864 134.565 188.926 134.565 189.004V204.721C134.565 204.798 134.534 204.868 134.472 204.93C134.426 204.977 134.364 205 134.286 205H131.566ZM147.122 188.725C147.2 188.725 147.262 188.756 147.308 188.818C147.37 188.864 147.401 188.926 147.401 189.004V191.282C147.401 191.36 147.37 191.43 147.308 191.492C147.262 191.538 147.2 191.561 147.122 191.561H143.588C143.511 191.561 143.472 191.6 143.472 191.678V204.721C143.472 204.798 143.441 204.868 143.379 204.93C143.333 204.977 143.271 205 143.193 205H140.473C140.395 205 140.326 204.977 140.264 204.93C140.217 204.868 140.194 204.798 140.194 204.721V191.678C140.194 191.6 140.155 191.561 140.078 191.561H136.66C136.582 191.561 136.513 191.538 136.451 191.492C136.404 191.43 136.381 191.36 136.381 191.282V189.004C136.381 188.926 136.404 188.864 136.451 188.818C136.513 188.756 136.582 188.725 136.66 188.725H147.122ZM152.99 204.977C152.912 204.977 152.843 204.953 152.781 204.907C152.734 204.845 152.711 204.775 152.711 204.698V198.746L152.688 198.606L148.665 189.05C148.65 189.019 148.642 188.973 148.642 188.911C148.642 188.787 148.72 188.725 148.875 188.725H151.804C151.975 188.725 152.083 188.802 152.13 188.957L154.292 194.84C154.307 194.886 154.331 194.909 154.362 194.909C154.393 194.909 154.416 194.886 154.431 194.84L156.594 188.957C156.64 188.802 156.749 188.725 156.919 188.725H159.849C159.957 188.725 160.027 188.756 160.058 188.818C160.089 188.88 160.089 188.957 160.058 189.05L156.012 198.606L155.989 198.746V204.698C155.989 204.775 155.958 204.845 155.896 204.907C155.85 204.953 155.788 204.977 155.71 204.977H152.99ZM175.196 205C175.025 205 174.917 204.922 174.87 204.767L174.336 202.489C174.32 202.427 174.281 202.396 174.219 202.396H169.872C169.81 202.396 169.771 202.427 169.755 202.489L169.221 204.767C169.174 204.922 169.073 205 168.918 205H166.105C165.904 205 165.826 204.899 165.873 204.698L170.058 188.957C170.104 188.802 170.213 188.725 170.383 188.725H173.754C173.925 188.725 174.033 188.802 174.08 188.957L178.265 204.698L178.288 204.791C178.288 204.93 178.203 205 178.032 205H175.196ZM170.383 199.722C170.368 199.769 170.375 199.807 170.406 199.838C170.437 199.854 170.468 199.862 170.499 199.862H173.568C173.599 199.862 173.63 199.854 173.661 199.838C173.692 199.807 173.7 199.769 173.685 199.722L172.08 192.98C172.065 192.918 172.042 192.887 172.011 192.887C171.98 192.887 171.956 192.918 171.941 192.98L170.383 199.722ZM184.1 205.186C183.03 205.186 182.093 205 181.287 204.628C180.481 204.24 179.853 203.706 179.403 203.024C178.969 202.326 178.752 201.528 178.752 200.629V200.024C178.752 199.947 178.776 199.885 178.822 199.838C178.884 199.776 178.954 199.745 179.031 199.745H181.705C181.783 199.745 181.845 199.776 181.891 199.838C181.953 199.885 181.984 199.947 181.984 200.024V200.466C181.984 201.009 182.186 201.466 182.589 201.838C182.992 202.194 183.534 202.373 184.216 202.373C184.821 202.373 185.278 202.218 185.588 201.908C185.913 201.598 186.076 201.202 186.076 200.722C186.076 200.365 185.975 200.063 185.774 199.815C185.572 199.552 185.286 199.311 184.914 199.094C184.557 198.862 183.999 198.552 183.24 198.165C182.31 197.699 181.55 197.265 180.961 196.862C180.372 196.459 179.868 195.94 179.45 195.305C179.031 194.669 178.822 193.902 178.822 193.003C178.822 192.104 179.031 191.321 179.45 190.655C179.884 189.973 180.488 189.453 181.263 189.097C182.038 188.725 182.922 188.539 183.914 188.539C184.952 188.539 185.875 188.74 186.681 189.143C187.487 189.531 188.114 190.081 188.564 190.794C189.013 191.507 189.238 192.329 189.238 193.259V193.724C189.238 193.801 189.207 193.871 189.145 193.933C189.099 193.979 189.037 194.003 188.959 194.003H186.285C186.208 194.003 186.138 193.979 186.076 193.933C186.03 193.871 186.006 193.801 186.006 193.724V193.305C186.006 192.747 185.813 192.282 185.425 191.91C185.038 191.538 184.511 191.352 183.844 191.352C183.286 191.352 182.844 191.499 182.519 191.794C182.209 192.073 182.054 192.468 182.054 192.98C182.054 193.336 182.147 193.646 182.333 193.91C182.519 194.173 182.806 194.429 183.193 194.677C183.581 194.909 184.17 195.219 184.96 195.607L185.448 195.886C186.347 196.382 187.045 196.816 187.541 197.188C188.052 197.544 188.479 198.002 188.82 198.56C189.161 199.118 189.331 199.792 189.331 200.582C189.331 201.993 188.851 203.117 187.89 203.954C186.944 204.775 185.681 205.186 184.1 205.186ZM196.179 205.186C195.109 205.186 194.172 205 193.366 204.628C192.56 204.24 191.932 203.706 191.482 203.024C191.048 202.326 190.831 201.528 190.831 200.629V200.024C190.831 199.947 190.855 199.885 190.901 199.838C190.963 199.776 191.033 199.745 191.11 199.745H193.784C193.862 199.745 193.924 199.776 193.97 199.838C194.032 199.885 194.063 199.947 194.063 200.024V200.466C194.063 201.009 194.265 201.466 194.668 201.838C195.071 202.194 195.613 202.373 196.295 202.373C196.9 202.373 197.357 202.218 197.667 201.908C197.992 201.598 198.155 201.202 198.155 200.722C198.155 200.365 198.054 200.063 197.853 199.815C197.651 199.552 197.365 199.311 196.993 199.094C196.636 198.862 196.078 198.552 195.319 198.165C194.389 197.699 193.629 197.265 193.04 196.862C192.451 196.459 191.947 195.94 191.529 195.305C191.11 194.669 190.901 193.902 190.901 193.003C190.901 192.104 191.11 191.321 191.529 190.655C191.963 189.973 192.567 189.453 193.342 189.097C194.117 188.725 195.001 188.539 195.993 188.539C197.031 188.539 197.954 188.74 198.76 189.143C199.566 189.531 200.193 190.081 200.643 190.794C201.092 191.507 201.317 192.329 201.317 193.259V193.724C201.317 193.801 201.286 193.871 201.224 193.933C201.178 193.979 201.116 194.003 201.038 194.003H198.364C198.287 194.003 198.217 193.979 198.155 193.933C198.109 193.871 198.085 193.801 198.085 193.724V193.305C198.085 192.747 197.892 192.282 197.504 191.91C197.117 191.538 196.59 191.352 195.923 191.352C195.365 191.352 194.923 191.499 194.598 191.794C194.288 192.073 194.133 192.468 194.133 192.98C194.133 193.336 194.226 193.646 194.412 193.91C194.598 194.173 194.885 194.429 195.272 194.677C195.66 194.909 196.249 195.219 197.039 195.607L197.527 195.886C198.426 196.382 199.124 196.816 199.62 197.188C200.131 197.544 200.558 198.002 200.899 198.56C201.24 199.118 201.41 199.792 201.41 200.582C201.41 201.993 200.93 203.117 199.969 203.954C199.023 204.775 197.76 205.186 196.179 205.186ZM208.491 205.209C207.421 205.209 206.476 204.992 205.654 204.558C204.848 204.124 204.22 203.512 203.771 202.721C203.321 201.931 203.097 201.009 203.097 199.955V193.77C203.097 192.732 203.321 191.817 203.771 191.027C204.22 190.236 204.848 189.624 205.654 189.19C206.476 188.756 207.421 188.539 208.491 188.539C209.56 188.539 210.506 188.756 211.327 189.19C212.149 189.624 212.784 190.236 213.234 191.027C213.683 191.817 213.908 192.732 213.908 193.77V199.955C213.908 201.009 213.683 201.931 213.234 202.721C212.784 203.512 212.149 204.124 211.327 204.558C210.506 204.992 209.56 205.209 208.491 205.209ZM208.491 202.396C209.142 202.396 209.661 202.187 210.048 201.768C210.436 201.334 210.63 200.776 210.63 200.094V193.677C210.63 192.98 210.436 192.422 210.048 192.003C209.661 191.569 209.142 191.352 208.491 191.352C207.855 191.352 207.344 191.569 206.956 192.003C206.569 192.422 206.375 192.98 206.375 193.677V200.094C206.375 200.776 206.569 201.334 206.956 201.768C207.344 202.187 207.855 202.396 208.491 202.396ZM221.136 205.186C220.082 205.186 219.152 204.977 218.346 204.558C217.54 204.14 216.912 203.543 216.462 202.768C216.028 201.993 215.811 201.094 215.811 200.071V193.607C215.811 192.6 216.028 191.716 216.462 190.957C216.912 190.182 217.54 189.585 218.346 189.167C219.152 188.748 220.082 188.539 221.136 188.539C222.19 188.539 223.12 188.748 223.926 189.167C224.732 189.57 225.352 190.143 225.786 190.887C226.235 191.631 226.46 192.499 226.46 193.491V193.607C226.46 193.685 226.429 193.755 226.367 193.817C226.32 193.879 226.258 193.91 226.181 193.91L223.461 194.026C223.275 194.026 223.182 193.941 223.182 193.77V193.468C223.182 192.832 222.996 192.321 222.624 191.933C222.252 191.546 221.756 191.352 221.136 191.352C220.516 191.352 220.02 191.546 219.648 191.933C219.276 192.321 219.09 192.832 219.09 193.468V200.28C219.09 200.916 219.276 201.427 219.648 201.815C220.02 202.187 220.516 202.373 221.136 202.373C221.756 202.373 222.252 202.187 222.624 201.815C222.996 201.427 223.182 200.916 223.182 200.28V199.978C223.182 199.807 223.275 199.722 223.461 199.722L226.181 199.838C226.258 199.838 226.32 199.869 226.367 199.931C226.429 199.978 226.46 200.04 226.46 200.117V200.187C226.46 201.179 226.235 202.055 225.786 202.814C225.352 203.574 224.732 204.163 223.926 204.581C223.12 204.984 222.19 205.186 221.136 205.186ZM228.834 205C228.757 205 228.687 204.977 228.625 204.93C228.579 204.868 228.555 204.798 228.555 204.721V189.004C228.555 188.926 228.579 188.864 228.625 188.818C228.687 188.756 228.757 188.725 228.834 188.725H231.555C231.632 188.725 231.694 188.756 231.741 188.818C231.803 188.864 231.834 188.926 231.834 189.004V204.721C231.834 204.798 231.803 204.868 231.741 204.93C231.694 204.977 231.632 205 231.555 205H228.834ZM242.88 205C242.709 205 242.601 204.922 242.554 204.767L242.019 202.489C242.004 202.427 241.965 202.396 241.903 202.396H237.555C237.493 202.396 237.455 202.427 237.439 202.489L236.904 204.767C236.858 204.922 236.757 205 236.602 205H233.789C233.587 205 233.51 204.899 233.556 204.698L237.741 188.957C237.788 188.802 237.896 188.725 238.067 188.725H241.438C241.609 188.725 241.717 188.802 241.764 188.957L245.949 204.698L245.972 204.791C245.972 204.93 245.887 205 245.716 205H242.88ZM238.067 199.722C238.051 199.769 238.059 199.807 238.09 199.838C238.121 199.854 238.152 199.862 238.183 199.862H241.252C241.283 199.862 241.314 199.854 241.345 199.838C241.376 199.807 241.384 199.769 241.368 199.722L239.764 192.98C239.749 192.918 239.725 192.887 239.694 192.887C239.663 192.887 239.64 192.918 239.625 192.98L238.067 199.722ZM256.107 188.725C256.184 188.725 256.246 188.756 256.293 188.818C256.355 188.864 256.386 188.926 256.386 189.004V191.282C256.386 191.36 256.355 191.43 256.293 191.492C256.246 191.538 256.184 191.561 256.107 191.561H252.573C252.495 191.561 252.456 191.6 252.456 191.678V204.721C252.456 204.798 252.425 204.868 252.363 204.93C252.317 204.977 252.255 205 252.177 205H249.457C249.38 205 249.31 204.977 249.248 204.93C249.201 204.868 249.178 204.798 249.178 204.721V191.678C249.178 191.6 249.139 191.561 249.062 191.561H245.644C245.567 191.561 245.497 191.538 245.435 191.492C245.388 191.43 245.365 191.36 245.365 191.282V189.004C245.365 188.926 245.388 188.864 245.435 188.818C245.497 188.756 245.567 188.725 245.644 188.725H256.107ZM258.51 205C258.433 205 258.363 204.977 258.301 204.93C258.254 204.868 258.231 204.798 258.231 204.721V189.004C258.231 188.926 258.254 188.864 258.301 188.818C258.363 188.756 258.433 188.725 258.51 188.725H261.23C261.308 188.725 261.37 188.756 261.416 188.818C261.478 188.864 261.509 188.926 261.509 189.004V204.721C261.509 204.798 261.478 204.868 261.416 204.93C261.37 204.977 261.308 205 261.23 205H258.51ZM269.068 205.209C267.998 205.209 267.053 204.992 266.231 204.558C265.425 204.124 264.797 203.512 264.348 202.721C263.898 201.931 263.674 201.009 263.674 199.955V193.77C263.674 192.732 263.898 191.817 264.348 191.027C264.797 190.236 265.425 189.624 266.231 189.19C267.053 188.756 267.998 188.539 269.068 188.539C270.137 188.539 271.083 188.756 271.904 189.19C272.726 189.624 273.361 190.236 273.811 191.027C274.26 191.817 274.485 192.732 274.485 193.77V199.955C274.485 201.009 274.26 201.931 273.811 202.721C273.361 203.512 272.726 204.124 271.904 204.558C271.083 204.992 270.137 205.209 269.068 205.209ZM269.068 202.396C269.719 202.396 270.238 202.187 270.625 201.768C271.013 201.334 271.207 200.776 271.207 200.094V193.677C271.207 192.98 271.013 192.422 270.625 192.003C270.238 191.569 269.719 191.352 269.068 191.352C268.432 191.352 267.921 191.569 267.533 192.003C267.146 192.422 266.952 192.98 266.952 193.677V200.094C266.952 200.776 267.146 201.334 267.533 201.768C267.921 202.187 268.432 202.396 269.068 202.396ZM284.666 189.004C284.666 188.926 284.689 188.864 284.735 188.818C284.797 188.756 284.867 188.725 284.945 188.725H287.642C287.719 188.725 287.781 188.756 287.828 188.818C287.89 188.864 287.921 188.926 287.921 189.004V204.721C287.921 204.798 287.89 204.868 287.828 204.93C287.781 204.977 287.719 205 287.642 205H284.805C284.65 205 284.542 204.93 284.48 204.791L280.039 195.328C280.008 195.281 279.977 195.258 279.946 195.258C279.915 195.258 279.899 195.289 279.899 195.351L279.923 204.721C279.923 204.798 279.892 204.868 279.83 204.93C279.783 204.977 279.721 205 279.644 205H276.947C276.869 205 276.799 204.977 276.737 204.93C276.691 204.868 276.668 204.798 276.668 204.721V189.004C276.668 188.926 276.691 188.864 276.737 188.818C276.799 188.756 276.869 188.725 276.947 188.725H279.76C279.915 188.725 280.023 188.795 280.085 188.934L284.526 198.397C284.557 198.443 284.588 198.467 284.619 198.467C284.65 198.467 284.666 198.436 284.666 198.374V189.004ZM304.917 191.259C304.917 191.337 304.886 191.406 304.824 191.468C304.778 191.515 304.716 191.538 304.638 191.538H298.43C298.353 191.538 298.314 191.577 298.314 191.654V195.281C298.314 195.359 298.353 195.398 298.43 195.398H302.29C302.367 195.398 302.429 195.429 302.476 195.491C302.538 195.537 302.569 195.599 302.569 195.677V197.932C302.569 198.009 302.538 198.079 302.476 198.141C302.429 198.188 302.367 198.211 302.29 198.211H298.43C298.353 198.211 298.314 198.25 298.314 198.327V204.721C298.314 204.798 298.283 204.868 298.221 204.93C298.175 204.977 298.113 205 298.035 205H295.315C295.237 205 295.168 204.977 295.106 204.93C295.059 204.868 295.036 204.798 295.036 204.721V189.004C295.036 188.926 295.059 188.864 295.106 188.818C295.168 188.756 295.237 188.725 295.315 188.725H304.638C304.716 188.725 304.778 188.756 304.824 188.818C304.886 188.864 304.917 188.926 304.917 189.004V191.259ZM311.526 205.209C310.457 205.209 309.511 204.992 308.69 204.558C307.884 204.124 307.256 203.512 306.806 202.721C306.357 201.931 306.132 201.009 306.132 199.955V193.77C306.132 192.732 306.357 191.817 306.806 191.027C307.256 190.236 307.884 189.624 308.69 189.19C309.511 188.756 310.457 188.539 311.526 188.539C312.596 188.539 313.541 188.756 314.363 189.19C315.184 189.624 315.82 190.236 316.269 191.027C316.719 191.817 316.943 192.732 316.943 193.77V199.955C316.943 201.009 316.719 201.931 316.269 202.721C315.82 203.512 315.184 204.124 314.363 204.558C313.541 204.992 312.596 205.209 311.526 205.209ZM311.526 202.396C312.177 202.396 312.696 202.187 313.084 201.768C313.471 201.334 313.665 200.776 313.665 200.094V193.677C313.665 192.98 313.471 192.422 313.084 192.003C312.696 191.569 312.177 191.352 311.526 191.352C310.891 191.352 310.379 191.569 309.992 192.003C309.604 192.422 309.41 192.98 309.41 193.677V200.094C309.41 200.776 309.604 201.334 309.992 201.768C310.379 202.187 310.891 202.396 311.526 202.396ZM326.775 205C326.605 205 326.496 204.922 326.45 204.767L324.102 198.35C324.071 198.288 324.032 198.257 323.985 198.257H322.521C322.443 198.257 322.404 198.296 322.404 198.374V204.721C322.404 204.798 322.373 204.868 322.311 204.93C322.265 204.977 322.203 205 322.125 205H319.405C319.328 205 319.258 204.977 319.196 204.93C319.149 204.868 319.126 204.798 319.126 204.721V189.004C319.126 188.926 319.149 188.864 319.196 188.818C319.258 188.756 319.328 188.725 319.405 188.725H325.078C325.993 188.725 326.806 188.934 327.519 189.353C328.232 189.756 328.783 190.329 329.17 191.073C329.558 191.817 329.751 192.67 329.751 193.631C329.751 194.623 329.534 195.483 329.1 196.211C328.666 196.94 328.054 197.482 327.264 197.839C327.186 197.87 327.163 197.924 327.194 198.002L329.844 204.674C329.86 204.705 329.868 204.744 329.868 204.791C329.868 204.93 329.782 205 329.612 205H326.775ZM322.521 191.538C322.443 191.538 322.404 191.577 322.404 191.654V195.63C322.404 195.708 322.443 195.746 322.521 195.746H324.543C325.117 195.746 325.582 195.56 325.938 195.188C326.295 194.801 326.473 194.289 326.473 193.654C326.473 193.003 326.295 192.491 325.938 192.119C325.582 191.732 325.117 191.538 324.543 191.538H322.521ZM339.636 205C339.481 205 339.381 204.922 339.334 204.767L335.684 189.027V188.934C335.684 188.795 335.769 188.725 335.94 188.725H338.799C338.985 188.725 339.086 188.81 339.102 188.981L340.869 197.909C340.884 197.955 340.907 197.978 340.938 197.978C340.969 197.978 340.993 197.955 341.008 197.909L342.705 188.981C342.721 188.81 342.822 188.725 343.008 188.725H345.588C345.759 188.725 345.86 188.81 345.891 188.981L347.751 197.909C347.766 197.955 347.789 197.978 347.82 197.978C347.851 197.978 347.875 197.955 347.89 197.909L349.564 188.981C349.58 188.81 349.68 188.725 349.866 188.725H352.61C352.811 188.725 352.889 188.826 352.842 189.027L349.448 204.744C349.417 204.915 349.316 205 349.146 205H346.518C346.348 205 346.247 204.915 346.216 204.744L344.333 195.398C344.317 195.351 344.294 195.328 344.263 195.328C344.232 195.328 344.209 195.351 344.193 195.398L342.496 204.744C342.481 204.915 342.38 205 342.194 205H339.636ZM359.139 205.209C358.069 205.209 357.124 204.992 356.302 204.558C355.496 204.124 354.869 203.512 354.419 202.721C353.97 201.931 353.745 201.009 353.745 199.955V193.77C353.745 192.732 353.97 191.817 354.419 191.027C354.869 190.236 355.496 189.624 356.302 189.19C357.124 188.756 358.069 188.539 359.139 188.539C360.208 188.539 361.154 188.756 361.975 189.19C362.797 189.624 363.432 190.236 363.882 191.027C364.331 191.817 364.556 192.732 364.556 193.77V199.955C364.556 201.009 364.331 201.931 363.882 202.721C363.432 203.512 362.797 204.124 361.975 204.558C361.154 204.992 360.208 205.209 359.139 205.209ZM359.139 202.396C359.79 202.396 360.309 202.187 360.697 201.768C361.084 201.334 361.278 200.776 361.278 200.094V193.677C361.278 192.98 361.084 192.422 360.697 192.003C360.309 191.569 359.79 191.352 359.139 191.352C358.503 191.352 357.992 191.569 357.604 192.003C357.217 192.422 357.023 192.98 357.023 193.677V200.094C357.023 200.776 357.217 201.334 357.604 201.768C357.992 202.187 358.503 202.396 359.139 202.396ZM375.69 188.911C375.752 188.787 375.86 188.725 376.015 188.725H378.712C378.79 188.725 378.852 188.756 378.898 188.818C378.96 188.864 378.991 188.926 378.991 189.004V204.721C378.991 204.798 378.96 204.868 378.898 204.93C378.852 204.977 378.79 205 378.712 205H375.992C375.915 205 375.845 204.977 375.783 204.93C375.736 204.868 375.713 204.798 375.713 204.721V194.398C375.713 194.336 375.698 194.305 375.667 194.305C375.636 194.289 375.605 194.305 375.574 194.351L373.435 197.885C373.373 198.009 373.264 198.071 373.109 198.071H372.574C372.419 198.071 372.311 198.009 372.249 197.885L370.11 194.351C370.079 194.305 370.048 194.289 370.017 194.305C369.986 194.305 369.97 194.336 369.97 194.398V204.721C369.97 204.798 369.939 204.868 369.877 204.93C369.831 204.977 369.769 205 369.691 205H366.971C366.894 205 366.824 204.977 366.762 204.93C366.715 204.868 366.692 204.798 366.692 204.721V189.004C366.692 188.926 366.715 188.864 366.762 188.818C366.824 188.756 366.894 188.725 366.971 188.725H369.668C369.823 188.725 369.932 188.787 369.994 188.911L372.784 193.491C372.83 193.584 372.877 193.584 372.923 193.491L375.69 188.911ZM391.311 191.259C391.311 191.337 391.28 191.406 391.218 191.468C391.171 191.515 391.109 191.538 391.032 191.538H384.801C384.723 191.538 384.684 191.577 384.684 191.654V195.281C384.684 195.359 384.723 195.398 384.801 195.398H388.683C388.761 195.398 388.823 195.429 388.869 195.491C388.931 195.537 388.962 195.599 388.962 195.677V197.932C388.962 198.009 388.931 198.079 388.869 198.141C388.823 198.188 388.761 198.211 388.683 198.211H384.801C384.723 198.211 384.684 198.25 384.684 198.327V202.07C384.684 202.148 384.723 202.187 384.801 202.187H391.032C391.109 202.187 391.171 202.218 391.218 202.28C391.28 202.326 391.311 202.388 391.311 202.466V204.721C391.311 204.798 391.28 204.868 391.218 204.93C391.171 204.977 391.109 205 391.032 205H381.685C381.608 205 381.538 204.977 381.476 204.93C381.429 204.868 381.406 204.798 381.406 204.721V189.004C381.406 188.926 381.429 188.864 381.476 188.818C381.538 188.756 381.608 188.725 381.685 188.725H391.032C391.109 188.725 391.171 188.756 391.218 188.818C391.28 188.864 391.311 188.926 391.311 189.004V191.259ZM401.279 189.004C401.279 188.926 401.302 188.864 401.349 188.818C401.411 188.756 401.48 188.725 401.558 188.725H404.255C404.332 188.725 404.394 188.756 404.441 188.818C404.503 188.864 404.534 188.926 404.534 189.004V204.721C404.534 204.798 404.503 204.868 404.441 204.93C404.394 204.977 404.332 205 404.255 205H401.418C401.263 205 401.155 204.93 401.093 204.791L396.652 195.328C396.621 195.281 396.59 195.258 396.559 195.258C396.528 195.258 396.513 195.289 396.513 195.351L396.536 204.721C396.536 204.798 396.505 204.868 396.443 204.93C396.396 204.977 396.334 205 396.257 205H393.56C393.482 205 393.413 204.977 393.351 204.93C393.304 204.868 393.281 204.798 393.281 204.721V189.004C393.281 188.926 393.304 188.864 393.351 188.818C393.413 188.756 393.482 188.725 393.56 188.725H396.373C396.528 188.725 396.637 188.795 396.699 188.934L401.139 198.397C401.17 198.443 401.201 198.467 401.232 198.467C401.263 198.467 401.279 198.436 401.279 198.374V189.004ZM421.554 191.259C421.554 191.337 421.523 191.406 421.461 191.468C421.414 191.515 421.352 191.538 421.275 191.538H415.044C414.966 191.538 414.927 191.577 414.927 191.654V195.281C414.927 195.359 414.966 195.398 415.044 195.398H418.926C419.004 195.398 419.066 195.429 419.112 195.491C419.174 195.537 419.205 195.599 419.205 195.677V197.932C419.205 198.009 419.174 198.079 419.112 198.141C419.066 198.188 419.004 198.211 418.926 198.211H415.044C414.966 198.211 414.927 198.25 414.927 198.327V202.07C414.927 202.148 414.966 202.187 415.044 202.187H421.275C421.352 202.187 421.414 202.218 421.461 202.28C421.523 202.326 421.554 202.388 421.554 202.466V204.721C421.554 204.798 421.523 204.868 421.461 204.93C421.414 204.977 421.352 205 421.275 205H411.928C411.851 205 411.781 204.977 411.719 204.93C411.672 204.868 411.649 204.798 411.649 204.721V189.004C411.649 188.926 411.672 188.864 411.719 188.818C411.781 188.756 411.851 188.725 411.928 188.725H421.275C421.352 188.725 421.414 188.756 421.461 188.818C421.523 188.864 421.554 188.926 421.554 189.004V191.259ZM423.175 205C423.067 205 422.989 204.977 422.943 204.93C422.912 204.868 422.919 204.783 422.966 204.674L426.802 196.932C426.818 196.886 426.818 196.839 426.802 196.793L422.966 189.05C422.935 188.988 422.919 188.942 422.919 188.911C422.919 188.787 423.005 188.725 423.175 188.725H426.035C426.19 188.725 426.298 188.795 426.36 188.934L428.662 193.84C428.709 193.933 428.755 193.933 428.802 193.84L431.08 188.934C431.142 188.795 431.251 188.725 431.406 188.725H434.265C434.374 188.725 434.444 188.756 434.475 188.818C434.521 188.864 434.521 188.942 434.475 189.05L430.662 196.793C430.646 196.839 430.646 196.886 430.662 196.932L434.475 204.674C434.506 204.736 434.521 204.783 434.521 204.814C434.521 204.938 434.436 205 434.265 205H431.429C431.274 205 431.165 204.93 431.103 204.791L428.802 199.908C428.755 199.815 428.709 199.815 428.662 199.908L426.36 204.791C426.298 204.93 426.19 205 426.035 205H423.175ZM446.257 191.259C446.257 191.337 446.226 191.406 446.164 191.468C446.117 191.515 446.055 191.538 445.978 191.538H439.747C439.669 191.538 439.631 191.577 439.631 191.654V195.281C439.631 195.359 439.669 195.398 439.747 195.398H443.63C443.707 195.398 443.769 195.429 443.816 195.491C443.878 195.537 443.909 195.599 443.909 195.677V197.932C443.909 198.009 443.878 198.079 443.816 198.141C443.769 198.188 443.707 198.211 443.63 198.211H439.747C439.669 198.211 439.631 198.25 439.631 198.327V202.07C439.631 202.148 439.669 202.187 439.747 202.187H445.978C446.055 202.187 446.117 202.218 446.164 202.28C446.226 202.326 446.257 202.388 446.257 202.466V204.721C446.257 204.798 446.226 204.868 446.164 204.93C446.117 204.977 446.055 205 445.978 205H436.631C436.554 205 436.484 204.977 436.422 204.93C436.376 204.868 436.352 204.798 436.352 204.721V189.004C436.352 188.926 436.376 188.864 436.422 188.818C436.484 188.756 436.554 188.725 436.631 188.725H445.978C446.055 188.725 446.117 188.756 446.164 188.818C446.226 188.864 446.257 188.926 446.257 189.004V191.259ZM453.272 205.186C452.218 205.186 451.288 204.977 450.482 204.558C449.676 204.14 449.049 203.543 448.599 202.768C448.165 201.993 447.948 201.094 447.948 200.071V193.607C447.948 192.6 448.165 191.716 448.599 190.957C449.049 190.182 449.676 189.585 450.482 189.167C451.288 188.748 452.218 188.539 453.272 188.539C454.326 188.539 455.256 188.748 456.062 189.167C456.868 189.57 457.488 190.143 457.922 190.887C458.372 191.631 458.597 192.499 458.597 193.491V193.607C458.597 193.685 458.566 193.755 458.504 193.817C458.457 193.879 458.395 193.91 458.318 193.91L455.597 194.026C455.411 194.026 455.318 193.941 455.318 193.77V193.468C455.318 192.832 455.132 192.321 454.76 191.933C454.388 191.546 453.892 191.352 453.272 191.352C452.652 191.352 452.156 191.546 451.784 191.933C451.412 192.321 451.226 192.832 451.226 193.468V200.28C451.226 200.916 451.412 201.427 451.784 201.815C452.156 202.187 452.652 202.373 453.272 202.373C453.892 202.373 454.388 202.187 454.76 201.815C455.132 201.427 455.318 200.916 455.318 200.28V199.978C455.318 199.807 455.411 199.722 455.597 199.722L458.318 199.838C458.395 199.838 458.457 199.869 458.504 199.931C458.566 199.978 458.597 200.04 458.597 200.117V200.187C458.597 201.179 458.372 202.055 457.922 202.814C457.488 203.574 456.868 204.163 456.062 204.581C455.256 204.984 454.326 205.186 453.272 205.186ZM465.9 205.186C464.846 205.186 463.916 204.969 463.11 204.535C462.304 204.101 461.676 203.496 461.227 202.721C460.793 201.931 460.576 201.024 460.576 200.001V189.004C460.576 188.926 460.599 188.864 460.646 188.818C460.708 188.756 460.777 188.725 460.855 188.725H463.575C463.653 188.725 463.715 188.756 463.761 188.818C463.823 188.864 463.854 188.926 463.854 189.004V200.164C463.854 200.83 464.04 201.365 464.412 201.768C464.784 202.171 465.28 202.373 465.9 202.373C466.52 202.373 467.016 202.171 467.388 201.768C467.76 201.365 467.946 200.83 467.946 200.164V189.004C467.946 188.926 467.969 188.864 468.016 188.818C468.078 188.756 468.148 188.725 468.225 188.725H470.945C471.023 188.725 471.085 188.756 471.131 188.818C471.193 188.864 471.224 188.926 471.224 189.004V200.001C471.224 201.024 471 201.931 470.55 202.721C470.116 203.496 469.496 204.101 468.69 204.535C467.884 204.969 466.954 205.186 465.9 205.186ZM483.68 188.725C483.757 188.725 483.819 188.756 483.866 188.818C483.928 188.864 483.959 188.926 483.959 189.004V191.282C483.959 191.36 483.928 191.43 483.866 191.492C483.819 191.538 483.757 191.561 483.68 191.561H480.146C480.068 191.561 480.029 191.6 480.029 191.678V204.721C480.029 204.798 479.998 204.868 479.936 204.93C479.89 204.977 479.828 205 479.75 205H477.03C476.953 205 476.883 204.977 476.821 204.93C476.774 204.868 476.751 204.798 476.751 204.721V191.678C476.751 191.6 476.712 191.561 476.635 191.561H473.217C473.14 191.561 473.07 191.538 473.008 191.492C472.961 191.43 472.938 191.36 472.938 191.282V189.004C472.938 188.926 472.961 188.864 473.008 188.818C473.07 188.756 473.14 188.725 473.217 188.725H483.68ZM486.083 205C486.006 205 485.936 204.977 485.874 204.93C485.827 204.868 485.804 204.798 485.804 204.721V189.004C485.804 188.926 485.827 188.864 485.874 188.818C485.936 188.756 486.006 188.725 486.083 188.725H488.803C488.881 188.725 488.943 188.756 488.989 188.818C489.051 188.864 489.082 188.926 489.082 189.004V204.721C489.082 204.798 489.051 204.868 488.989 204.93C488.943 204.977 488.881 205 488.803 205H486.083ZM495.246 205C495.075 205 494.967 204.922 494.92 204.767L490.875 189.027V188.934C490.875 188.795 490.96 188.725 491.13 188.725H494.083C494.254 188.725 494.354 188.81 494.385 188.981L496.734 199.792C496.749 199.854 496.772 199.885 496.803 199.885C496.834 199.885 496.858 199.854 496.873 199.792L499.198 188.981C499.229 188.81 499.33 188.725 499.5 188.725H502.36C502.577 188.725 502.662 188.826 502.616 189.027L498.524 204.767C498.477 204.922 498.369 205 498.198 205H495.246ZM514.259 191.259C514.259 191.337 514.228 191.406 514.166 191.468C514.119 191.515 514.057 191.538 513.98 191.538H507.749C507.671 191.538 507.632 191.577 507.632 191.654V195.281C507.632 195.359 507.671 195.398 507.749 195.398H511.631C511.709 195.398 511.771 195.429 511.817 195.491C511.879 195.537 511.91 195.599 511.91 195.677V197.932C511.91 198.009 511.879 198.079 511.817 198.141C511.771 198.188 511.709 198.211 511.631 198.211H507.749C507.671 198.211 507.632 198.25 507.632 198.327V202.07C507.632 202.148 507.671 202.187 507.749 202.187H513.98C514.057 202.187 514.119 202.218 514.166 202.28C514.228 202.326 514.259 202.388 514.259 202.466V204.721C514.259 204.798 514.228 204.868 514.166 204.93C514.119 204.977 514.057 205 513.98 205H504.633C504.556 205 504.486 204.977 504.424 204.93C504.377 204.868 504.354 204.798 504.354 204.721V189.004C504.354 188.926 504.377 188.864 504.424 188.818C504.486 188.756 504.556 188.725 504.633 188.725H513.98C514.057 188.725 514.119 188.756 514.166 188.818C514.228 188.864 514.259 188.926 514.259 189.004V191.259ZM521.111 205.186C520.042 205.186 519.104 205 518.298 204.628C517.492 204.24 516.864 203.706 516.415 203.024C515.981 202.326 515.764 201.528 515.764 200.629V200.024C515.764 199.947 515.787 199.885 515.834 199.838C515.896 199.776 515.965 199.745 516.043 199.745H518.717C518.794 199.745 518.856 199.776 518.903 199.838C518.965 199.885 518.996 199.947 518.996 200.024V200.466C518.996 201.009 519.197 201.466 519.6 201.838C520.003 202.194 520.546 202.373 521.228 202.373C521.832 202.373 522.289 202.218 522.599 201.908C522.925 201.598 523.088 201.202 523.088 200.722C523.088 200.365 522.987 200.063 522.785 199.815C522.584 199.552 522.297 199.311 521.925 199.094C521.569 198.862 521.011 198.552 520.251 198.165C519.321 197.699 518.562 197.265 517.973 196.862C517.384 196.459 516.88 195.94 516.461 195.305C516.043 194.669 515.834 193.902 515.834 193.003C515.834 192.104 516.043 191.321 516.461 190.655C516.895 189.973 517.5 189.453 518.275 189.097C519.05 188.725 519.933 188.539 520.925 188.539C521.964 188.539 522.886 188.74 523.692 189.143C524.498 189.531 525.126 190.081 525.575 190.794C526.025 191.507 526.25 192.329 526.25 193.259V193.724C526.25 193.801 526.219 193.871 526.157 193.933C526.11 193.979 526.048 194.003 525.971 194.003H523.297C523.219 194.003 523.15 193.979 523.088 193.933C523.041 193.871 523.018 193.801 523.018 193.724V193.305C523.018 192.747 522.824 192.282 522.437 191.91C522.049 191.538 521.522 191.352 520.856 191.352C520.298 191.352 519.856 191.499 519.53 191.794C519.22 192.073 519.065 192.468 519.065 192.98C519.065 193.336 519.158 193.646 519.344 193.91C519.53 194.173 519.817 194.429 520.205 194.677C520.592 194.909 521.181 195.219 521.972 195.607L522.46 195.886C523.359 196.382 524.056 196.816 524.552 197.188C525.064 197.544 525.49 198.002 525.831 198.56C526.172 199.118 526.343 199.792 526.343 200.582C526.343 201.993 525.862 203.117 524.901 203.954C523.956 204.775 522.692 205.186 521.111 205.186ZM545.913 204.651C545.975 204.744 546.006 204.806 546.006 204.837C546.006 204.946 545.92 205 545.75 205H542.751C542.627 205 542.51 204.946 542.402 204.837L541.658 204C541.611 203.938 541.557 203.93 541.495 203.977C540.224 204.798 538.814 205.209 537.264 205.209C535.838 205.209 534.683 204.86 533.799 204.163C532.916 203.465 532.474 202.442 532.474 201.094C532.474 200.071 532.722 199.211 533.218 198.513C533.714 197.8 534.396 197.149 535.264 196.56C535.326 196.498 535.334 196.444 535.287 196.397C534.543 195.452 534.055 194.731 533.823 194.235C533.59 193.724 533.474 193.181 533.474 192.608C533.474 191.833 533.66 191.135 534.032 190.515C534.419 189.895 534.954 189.415 535.636 189.074C536.318 188.717 537.101 188.539 537.984 188.539C538.899 188.539 539.713 188.717 540.426 189.074C541.139 189.43 541.697 189.934 542.1 190.585C542.503 191.22 542.704 191.957 542.704 192.794C542.704 193.739 542.448 194.561 541.937 195.258C541.441 195.94 540.759 196.576 539.891 197.165C539.844 197.211 539.837 197.265 539.868 197.327L541.797 199.606C541.828 199.652 541.883 199.652 541.96 199.606C542.41 199.063 542.813 198.482 543.169 197.862C543.216 197.785 543.27 197.738 543.332 197.723C543.409 197.692 543.487 197.699 543.564 197.746L545.564 198.885C545.719 198.994 545.75 199.118 545.657 199.257C545.161 200.172 544.556 201.063 543.843 201.931C543.797 201.977 543.797 202.024 543.843 202.07L545.913 204.651ZM538.077 191.515C537.674 191.515 537.349 191.639 537.101 191.887C536.868 192.119 536.752 192.437 536.752 192.84C536.752 193.088 536.814 193.336 536.938 193.584C537.078 193.832 537.372 194.251 537.822 194.84C537.868 194.902 537.922 194.909 537.984 194.863C538.449 194.537 538.806 194.22 539.054 193.91C539.302 193.584 539.426 193.228 539.426 192.84C539.426 192.437 539.302 192.119 539.054 191.887C538.806 191.639 538.48 191.515 538.077 191.515ZM537.496 202.442C538.101 202.442 538.79 202.21 539.565 201.745C539.643 201.683 539.658 201.629 539.612 201.582L538.659 200.466L538.054 199.769L537.333 198.908C537.287 198.846 537.233 198.839 537.171 198.885C536.721 199.211 536.372 199.536 536.124 199.862C535.892 200.187 535.776 200.544 535.776 200.931C535.776 201.381 535.931 201.745 536.241 202.024C536.551 202.303 536.969 202.442 537.496 202.442ZM562.734 191.259C562.734 191.337 562.703 191.406 562.641 191.468C562.594 191.515 562.532 191.538 562.455 191.538H556.224C556.146 191.538 556.108 191.577 556.108 191.654V195.281C556.108 195.359 556.146 195.398 556.224 195.398H560.107C560.184 195.398 560.246 195.429 560.293 195.491C560.355 195.537 560.386 195.599 560.386 195.677V197.932C560.386 198.009 560.355 198.079 560.293 198.141C560.246 198.188 560.184 198.211 560.107 198.211H556.224C556.146 198.211 556.108 198.25 556.108 198.327V202.07C556.108 202.148 556.146 202.187 556.224 202.187H562.455C562.532 202.187 562.594 202.218 562.641 202.28C562.703 202.326 562.734 202.388 562.734 202.466V204.721C562.734 204.798 562.703 204.868 562.641 204.93C562.594 204.977 562.532 205 562.455 205H553.108C553.031 205 552.961 204.977 552.899 204.93C552.853 204.868 552.829 204.798 552.829 204.721V189.004C552.829 188.926 552.853 188.864 552.899 188.818C552.961 188.756 553.031 188.725 553.108 188.725H562.455C562.532 188.725 562.594 188.756 562.641 188.818C562.703 188.864 562.734 188.926 562.734 189.004V191.259ZM572.702 189.004C572.702 188.926 572.725 188.864 572.772 188.818C572.834 188.756 572.904 188.725 572.981 188.725H575.678C575.756 188.725 575.818 188.756 575.864 188.818C575.926 188.864 575.957 188.926 575.957 189.004V204.721C575.957 204.798 575.926 204.868 575.864 204.93C575.818 204.977 575.756 205 575.678 205H572.842C572.687 205 572.578 204.93 572.516 204.791L568.075 195.328C568.044 195.281 568.013 195.258 567.982 195.258C567.951 195.258 567.936 195.289 567.936 195.351L567.959 204.721C567.959 204.798 567.928 204.868 567.866 204.93C567.82 204.977 567.758 205 567.68 205H564.983C564.906 205 564.836 204.977 564.774 204.93C564.727 204.868 564.704 204.798 564.704 204.721V189.004C564.704 188.926 564.727 188.864 564.774 188.818C564.836 188.756 564.906 188.725 564.983 188.725H567.796C567.951 188.725 568.06 188.795 568.122 188.934L572.563 198.397C572.594 198.443 572.625 198.467 572.656 198.467C572.687 198.467 572.702 198.436 572.702 198.374V189.004ZM588.532 188.725C588.609 188.725 588.671 188.756 588.718 188.818C588.78 188.864 588.811 188.926 588.811 189.004V191.282C588.811 191.36 588.78 191.43 588.718 191.492C588.671 191.538 588.609 191.561 588.532 191.561H584.998C584.92 191.561 584.882 191.6 584.882 191.678V204.721C584.882 204.798 584.851 204.868 584.789 204.93C584.742 204.977 584.68 205 584.603 205H581.882C581.805 205 581.735 204.977 581.673 204.93C581.627 204.868 581.603 204.798 581.603 204.721V191.678C581.603 191.6 581.565 191.561 581.487 191.561H578.069C577.992 191.561 577.922 191.538 577.86 191.492C577.814 191.43 577.79 191.36 577.79 191.282V189.004C577.79 188.926 577.814 188.864 577.86 188.818C577.922 188.756 577.992 188.725 578.069 188.725H588.532ZM598.305 205C598.135 205 598.026 204.922 597.98 204.767L595.632 198.35C595.601 198.288 595.562 198.257 595.515 198.257H594.051C593.973 198.257 593.934 198.296 593.934 198.374V204.721C593.934 204.798 593.903 204.868 593.841 204.93C593.795 204.977 593.733 205 593.655 205H590.935C590.858 205 590.788 204.977 590.726 204.93C590.679 204.868 590.656 204.798 590.656 204.721V189.004C590.656 188.926 590.679 188.864 590.726 188.818C590.788 188.756 590.858 188.725 590.935 188.725H596.608C597.523 188.725 598.336 188.934 599.049 189.353C599.762 189.756 600.313 190.329 600.7 191.073C601.088 191.817 601.281 192.67 601.281 193.631C601.281 194.623 601.064 195.483 600.63 196.211C600.196 196.94 599.584 197.482 598.794 197.839C598.716 197.87 598.693 197.924 598.724 198.002L601.374 204.674C601.39 204.705 601.398 204.744 601.398 204.791C601.398 204.93 601.312 205 601.142 205H598.305ZM594.051 191.538C593.973 191.538 593.934 191.577 593.934 191.654V195.63C593.934 195.708 593.973 195.746 594.051 195.746H596.073C596.647 195.746 597.112 195.56 597.468 195.188C597.825 194.801 598.003 194.289 598.003 193.654C598.003 193.003 597.825 192.491 597.468 192.119C597.112 191.732 596.647 191.538 596.073 191.538H594.051ZM613.185 191.259C613.185 191.337 613.154 191.406 613.092 191.468C613.045 191.515 612.983 191.538 612.906 191.538H606.675C606.597 191.538 606.558 191.577 606.558 191.654V195.281C606.558 195.359 606.597 195.398 606.675 195.398H610.557C610.635 195.398 610.697 195.429 610.743 195.491C610.805 195.537 610.836 195.599 610.836 195.677V197.932C610.836 198.009 610.805 198.079 610.743 198.141C610.697 198.188 610.635 198.211 610.557 198.211H606.675C606.597 198.211 606.558 198.25 606.558 198.327V202.07C606.558 202.148 606.597 202.187 606.675 202.187H612.906C612.983 202.187 613.045 202.218 613.092 202.28C613.154 202.326 613.185 202.388 613.185 202.466V204.721C613.185 204.798 613.154 204.868 613.092 204.93C613.045 204.977 612.983 205 612.906 205H603.559C603.482 205 603.412 204.977 603.35 204.93C603.303 204.868 603.28 204.798 603.28 204.721V189.004C603.28 188.926 603.303 188.864 603.35 188.818C603.412 188.756 603.482 188.725 603.559 188.725H612.906C612.983 188.725 613.045 188.756 613.092 188.818C613.154 188.864 613.185 188.926 613.185 189.004V191.259ZM620.991 188.702C621.921 188.702 622.742 188.911 623.455 189.329C624.184 189.748 624.742 190.337 625.129 191.096C625.532 191.856 625.734 192.724 625.734 193.7C625.734 194.661 625.532 195.514 625.129 196.258C624.742 196.986 624.184 197.552 623.455 197.955C622.742 198.358 621.921 198.56 620.991 198.56H618.48C618.402 198.56 618.363 198.598 618.363 198.676V204.721C618.363 204.798 618.332 204.868 618.27 204.93C618.224 204.977 618.162 205 618.084 205H615.364C615.287 205 615.217 204.977 615.155 204.93C615.108 204.868 615.085 204.798 615.085 204.721V188.981C615.085 188.903 615.108 188.841 615.155 188.795C615.217 188.733 615.287 188.702 615.364 188.702H620.991ZM620.456 195.956C621.06 195.956 621.541 195.762 621.897 195.374C622.269 194.971 622.455 194.437 622.455 193.77C622.455 193.088 622.269 192.546 621.897 192.143C621.541 191.74 621.06 191.538 620.456 191.538H618.48C618.402 191.538 618.363 191.577 618.363 191.654V195.839C618.363 195.917 618.402 195.956 618.48 195.956H620.456ZM635.156 205C634.985 205 634.877 204.922 634.83 204.767L632.482 198.35C632.451 198.288 632.412 198.257 632.366 198.257H630.901C630.823 198.257 630.785 198.296 630.785 198.374V204.721C630.785 204.798 630.754 204.868 630.692 204.93C630.645 204.977 630.583 205 630.506 205H627.785C627.708 205 627.638 204.977 627.576 204.93C627.53 204.868 627.506 204.798 627.506 204.721V189.004C627.506 188.926 627.53 188.864 627.576 188.818C627.638 188.756 627.708 188.725 627.785 188.725H633.458C634.373 188.725 635.187 188.934 635.9 189.353C636.613 189.756 637.163 190.329 637.55 191.073C637.938 191.817 638.132 192.67 638.132 193.631C638.132 194.623 637.915 195.483 637.481 196.211C637.047 196.94 636.434 197.482 635.644 197.839C635.566 197.87 635.543 197.924 635.574 198.002L638.225 204.674C638.24 204.705 638.248 204.744 638.248 204.791C638.248 204.93 638.163 205 637.992 205H635.156ZM630.901 191.538C630.823 191.538 630.785 191.577 630.785 191.654V195.63C630.785 195.708 630.823 195.746 630.901 195.746H632.924C633.497 195.746 633.962 195.56 634.319 195.188C634.675 194.801 634.853 194.289 634.853 193.654C634.853 193.003 634.675 192.491 634.319 192.119C633.962 191.732 633.497 191.538 632.924 191.538H630.901ZM650.035 191.259C650.035 191.337 650.004 191.406 649.942 191.468C649.895 191.515 649.833 191.538 649.756 191.538H643.525C643.447 191.538 643.409 191.577 643.409 191.654V195.281C643.409 195.359 643.447 195.398 643.525 195.398H647.408C647.485 195.398 647.547 195.429 647.594 195.491C647.656 195.537 647.687 195.599 647.687 195.677V197.932C647.687 198.009 647.656 198.079 647.594 198.141C647.547 198.188 647.485 198.211 647.408 198.211H643.525C643.447 198.211 643.409 198.25 643.409 198.327V202.07C643.409 202.148 643.447 202.187 643.525 202.187H649.756C649.833 202.187 649.895 202.218 649.942 202.28C650.004 202.326 650.035 202.388 650.035 202.466V204.721C650.035 204.798 650.004 204.868 649.942 204.93C649.895 204.977 649.833 205 649.756 205H640.409C640.332 205 640.262 204.977 640.2 204.93C640.154 204.868 640.13 204.798 640.13 204.721V189.004C640.13 188.926 640.154 188.864 640.2 188.818C640.262 188.756 640.332 188.725 640.409 188.725H649.756C649.833 188.725 649.895 188.756 649.942 188.818C650.004 188.864 650.035 188.926 650.035 189.004V191.259ZM660.003 189.004C660.003 188.926 660.026 188.864 660.073 188.818C660.135 188.756 660.205 188.725 660.282 188.725H662.979C663.057 188.725 663.119 188.756 663.165 188.818C663.227 188.864 663.258 188.926 663.258 189.004V204.721C663.258 204.798 663.227 204.868 663.165 204.93C663.119 204.977 663.057 205 662.979 205H660.143C659.988 205 659.879 204.93 659.817 204.791L655.376 195.328C655.345 195.281 655.314 195.258 655.283 195.258C655.252 195.258 655.237 195.289 655.237 195.351L655.26 204.721C655.26 204.798 655.229 204.868 655.167 204.93C655.121 204.977 655.059 205 654.981 205H652.284C652.207 205 652.137 204.977 652.075 204.93C652.028 204.868 652.005 204.798 652.005 204.721V189.004C652.005 188.926 652.028 188.864 652.075 188.818C652.137 188.756 652.207 188.725 652.284 188.725H655.097C655.252 188.725 655.361 188.795 655.423 188.934L659.864 198.397C659.895 198.443 659.926 198.467 659.957 198.467C659.988 198.467 660.003 198.436 660.003 198.374V189.004ZM675.555 191.259C675.555 191.337 675.524 191.406 675.462 191.468C675.416 191.515 675.354 191.538 675.276 191.538H669.045C668.968 191.538 668.929 191.577 668.929 191.654V195.281C668.929 195.359 668.968 195.398 669.045 195.398H672.928C673.006 195.398 673.068 195.429 673.114 195.491C673.176 195.537 673.207 195.599 673.207 195.677V197.932C673.207 198.009 673.176 198.079 673.114 198.141C673.068 198.188 673.006 198.211 672.928 198.211H669.045C668.968 198.211 668.929 198.25 668.929 198.327V202.07C668.929 202.148 668.968 202.187 669.045 202.187H675.276C675.354 202.187 675.416 202.218 675.462 202.28C675.524 202.326 675.555 202.388 675.555 202.466V204.721C675.555 204.798 675.524 204.868 675.462 204.93C675.416 204.977 675.354 205 675.276 205H665.93C665.852 205 665.783 204.977 665.721 204.93C665.674 204.868 665.651 204.798 665.651 204.721V189.004C665.651 188.926 665.674 188.864 665.721 188.818C665.783 188.756 665.852 188.725 665.93 188.725H675.276C675.354 188.725 675.416 188.756 675.462 188.818C675.524 188.864 675.555 188.926 675.555 189.004V191.259ZM682.734 205.186C681.68 205.186 680.75 204.969 679.944 204.535C679.138 204.101 678.51 203.496 678.06 202.721C677.626 201.931 677.409 201.024 677.409 200.001V189.004C677.409 188.926 677.433 188.864 677.479 188.818C677.541 188.756 677.611 188.725 677.688 188.725H680.409C680.486 188.725 680.548 188.756 680.595 188.818C680.657 188.864 680.688 188.926 680.688 189.004V200.164C680.688 200.83 680.874 201.365 681.246 201.768C681.618 202.171 682.114 202.373 682.734 202.373C683.354 202.373 683.85 202.171 684.222 201.768C684.594 201.365 684.78 200.83 684.78 200.164V189.004C684.78 188.926 684.803 188.864 684.849 188.818C684.911 188.756 684.981 188.725 685.059 188.725H687.779C687.856 188.725 687.918 188.756 687.965 188.818C688.027 188.864 688.058 188.926 688.058 189.004V200.001C688.058 201.024 687.833 201.931 687.384 202.721C686.95 203.496 686.33 204.101 685.524 204.535C684.718 204.969 683.788 205.186 682.734 205.186ZM698.049 205C697.878 205 697.77 204.922 697.723 204.767L695.375 198.35C695.344 198.288 695.305 198.257 695.259 198.257H693.794C693.716 198.257 693.678 198.296 693.678 198.374V204.721C693.678 204.798 693.647 204.868 693.585 204.93C693.538 204.977 693.476 205 693.399 205H690.678C690.601 205 690.531 204.977 690.469 204.93C690.423 204.868 690.399 204.798 690.399 204.721V189.004C690.399 188.926 690.423 188.864 690.469 188.818C690.531 188.756 690.601 188.725 690.678 188.725H696.351C697.266 188.725 698.08 188.934 698.793 189.353C699.506 189.756 700.056 190.329 700.443 191.073C700.831 191.817 701.025 192.67 701.025 193.631C701.025 194.623 700.808 195.483 700.374 196.211C699.94 196.94 699.327 197.482 698.537 197.839C698.459 197.87 698.436 197.924 698.467 198.002L701.118 204.674C701.133 204.705 701.141 204.744 701.141 204.791C701.141 204.93 701.056 205 700.885 205H698.049ZM693.794 191.538C693.716 191.538 693.678 191.577 693.678 191.654V195.63C693.678 195.708 693.716 195.746 693.794 195.746H695.817C696.39 195.746 696.855 195.56 697.212 195.188C697.568 194.801 697.746 194.289 697.746 193.654C697.746 193.003 697.568 192.491 697.212 192.119C696.855 191.732 696.39 191.538 695.817 191.538H693.794ZM707.929 205.186C706.859 205.186 705.921 205 705.115 204.628C704.309 204.24 703.682 203.706 703.232 203.024C702.798 202.326 702.581 201.528 702.581 200.629V200.024C702.581 199.947 702.604 199.885 702.651 199.838C702.713 199.776 702.783 199.745 702.86 199.745H705.534C705.611 199.745 705.673 199.776 705.72 199.838C705.782 199.885 705.813 199.947 705.813 200.024V200.466C705.813 201.009 706.014 201.466 706.417 201.838C706.82 202.194 707.363 202.373 708.045 202.373C708.649 202.373 709.107 202.218 709.417 201.908C709.742 201.598 709.905 201.202 709.905 200.722C709.905 200.365 709.804 200.063 709.603 199.815C709.401 199.552 709.114 199.311 708.742 199.094C708.386 198.862 707.828 198.552 707.068 198.165C706.138 197.699 705.379 197.265 704.79 196.862C704.201 196.459 703.697 195.94 703.279 195.305C702.86 194.669 702.651 193.902 702.651 193.003C702.651 192.104 702.86 191.321 703.279 190.655C703.713 189.973 704.317 189.453 705.092 189.097C705.867 188.725 706.751 188.539 707.743 188.539C708.781 188.539 709.703 188.74 710.509 189.143C711.315 189.531 711.943 190.081 712.393 190.794C712.842 191.507 713.067 192.329 713.067 193.259V193.724C713.067 193.801 713.036 193.871 712.974 193.933C712.927 193.979 712.865 194.003 712.788 194.003H710.114C710.037 194.003 709.967 193.979 709.905 193.933C709.858 193.871 709.835 193.801 709.835 193.724V193.305C709.835 192.747 709.641 192.282 709.254 191.91C708.866 191.538 708.339 191.352 707.673 191.352C707.115 191.352 706.673 191.499 706.348 191.794C706.038 192.073 705.883 192.468 705.883 192.98C705.883 193.336 705.976 193.646 706.162 193.91C706.348 194.173 706.634 194.429 707.022 194.677C707.409 194.909 707.998 195.219 708.789 195.607L709.277 195.886C710.176 196.382 710.874 196.816 711.37 197.188C711.881 197.544 712.307 198.002 712.648 198.56C712.989 199.118 713.16 199.792 713.16 200.582C713.16 201.993 712.679 203.117 711.718 203.954C710.773 204.775 709.51 205.186 707.929 205.186Z" fill="#FFFCFE"/>
<g clip-path="url(#clip0_767_299)">
<path d="M356.413 104.448C351.614 98.2928 346.135 92.8606 342.551 86.3797C329.679 63.1104 340.063 34.0297 366.708 28.5796C395.373 22.7208 416.426 46.1975 412.066 72.6243C410.117 84.4189 403.583 93.2634 395.444 101.261C393.252 103.417 393.187 104.685 395.432 107.007C402.57 114.406 409.43 122.072 416.301 129.725C417.8 131.39 419.162 131.894 421.295 131.017C439.392 123.576 452.347 111.284 455.67 91.4684C458.508 74.5674 454.942 58.3772 444.812 44.3729C439.457 36.9739 432.894 30.3924 426.449 23.8582C420.596 17.9283 419.678 10.2568 424.879 4.29729C429.707 -1.22976 438.083 -1.36009 444.155 4.03071C457.927 16.2578 469.881 30.0132 476.231 47.5185C487.184 77.6952 485.929 106.592 464.414 132.296C452.916 146.028 437.781 154.037 420.703 159.061C413.221 161.265 407.972 161.099 402.629 154.209C395.106 144.506 386.144 135.922 377.839 126.817C376.968 125.863 376.411 124.625 375.481 123.162C370.629 128.363 366.631 132.598 362.686 136.887C355.648 144.547 348.676 152.272 341.58 159.878C340.916 160.589 339.494 161.14 338.576 160.968C309.035 155.524 286.003 140.981 273.125 112.961C267.515 100.763 266.295 87.7304 267.338 74.3422C269.636 44.8587 284.665 22.4661 306.138 3.59827C312.074 -1.61482 320.355 -1.05205 325.082 4.56387C330.129 10.553 329.294 18.5622 323.062 23.9708C314.597 31.3106 307.145 39.533 301.772 49.426C293.823 64.0582 290.796 79.6146 295.067 95.8818C298.923 110.579 308.407 121.112 321.925 127.83C330.988 132.332 331.106 132.131 337.954 124.785C343.902 118.399 349.819 111.983 355.731 105.562C356.116 105.141 356.347 104.572 356.424 104.442L356.413 104.448ZM374.954 84.5552C378.715 80.3788 382.275 76.8362 385.35 72.9205C389.905 67.1209 390.083 57.3227 386.09 52.1037C382.133 46.9321 374.883 45.4629 368.284 48.4901C362.561 51.1203 359.801 57.6959 361.098 64.8639C362.656 73.4359 369.368 78.1632 374.948 84.5552H374.954Z" fill="#FFFCFE"/>
<path d="M248.616 160.788H231.369C231.28 159.217 231.115 157.716 231.115 156.216C231.097 135.266 231.109 114.317 231.103 93.3669C231.103 88.5532 231.085 88.5356 226.458 88.5356C202.824 88.5297 179.19 88.5944 155.551 88.4591C152.074 88.4414 151.083 89.536 151.106 92.9315C151.236 113.881 151.171 134.831 151.171 155.78C151.171 157.304 151.171 158.834 151.171 160.641H133.93C133.853 159.229 133.712 157.828 133.712 156.422C133.7 125.115 133.511 93.8083 133.759 62.5075C133.971 36.0439 145.918 16.1124 169.983 4.94904C187.2 -3.03652 204.831 -1.18872 220.803 9.34493C233.989 18.0367 242.949 30.2239 246.638 45.7125C247.978 51.3324 248.681 57.2348 248.722 63.0194C248.917 94.3261 248.816 125.633 248.81 156.934C248.81 158.099 248.698 159.27 248.621 160.794L248.616 160.788ZM191.119 71.8524C203.166 71.8524 215.219 71.8642 227.266 71.8406C229.008 71.8406 230.991 72.1819 231.097 69.3926C231.628 55.4752 229.303 42.4641 220.053 31.2949C204.406 12.3991 177.373 12.5639 162.056 31.5539C153.65 41.9757 150.894 53.8687 151.154 66.8386C151.254 71.8348 151.183 71.8524 156.047 71.8524C167.74 71.8642 179.427 71.8524 191.119 71.8524Z" fill="#FFFCFE"/>
<path d="M116.577 160.788H99.2057C99.2057 159.27 99.2057 157.887 99.2057 156.504C99.2057 135.325 99.1408 114.14 99.2706 92.9609C99.2942 89.6184 98.4561 88.4355 94.9087 88.4532C70.921 88.5944 46.9391 88.5885 22.9514 88.4591C19.6283 88.4414 18.6898 89.4595 18.7134 92.7255C18.8433 113.787 18.7783 134.848 18.7783 155.916C18.7783 157.434 18.7783 158.952 18.7783 160.694H1.28925C1.21842 159.458 1.08266 158.199 1.08266 156.934C1.07086 106.237 1.10627 55.5459 1.00003 4.84901C0.994124 1.38291 1.97394 0.205967 5.42099 0.494319C8.73819 0.7709 12.1144 0.759131 15.4375 0.494319C18.6367 0.241276 18.8197 1.91842 18.8138 4.37235C18.7606 25.0807 18.7783 45.7831 18.7842 66.4914C18.7842 70.0576 20.5176 71.8446 23.9843 71.8524C47.494 71.8524 71.0036 71.8524 94.5132 71.8524C99.1998 71.8524 99.2116 71.8348 99.2116 67.0917C99.2116 46.5069 99.2116 25.9163 99.2116 5.33156C99.2116 2.15381 100.856 0.562974 104.146 0.55905C108.183 0.55905 112.221 0.55905 116.583 0.55905V160.788H116.577Z" fill="#FFFCFE"/>
<path d="M548.772 88.7063C539.706 88.7063 530.634 88.8063 521.568 88.6533C518.498 88.6003 517.359 89.5184 517.401 92.7079C517.548 103.324 518.003 113.781 522.548 123.726C527.919 135.466 537.198 142.122 549.634 143.075C564.107 144.187 578.698 143.846 593.242 144.017C603.04 144.129 603.081 144.04 603.028 153.932C602.981 162.33 603.866 160.935 596.028 160.882C581.006 160.782 565.931 161.141 550.974 160.047C528.893 158.434 512.962 147.536 504.693 126.457C501.47 118.242 500.118 109.732 500.094 101.011C500.059 85.4285 499.752 69.8222 500.478 54.2689C501.21 38.539 507.048 24.6629 518.965 13.8291C527.311 6.2437 537.534 2.53045 548.501 1.57712C559.403 0.629684 570.405 0.794456 581.366 0.576721C587.327 0.459027 593.301 0.706185 599.262 0.494335C602.337 0.382525 603.27 1.55358 603.081 4.42533C602.904 7.14995 602.839 9.91577 603.093 12.6286C603.429 16.2065 601.865 17.0127 598.548 16.9657C587.097 16.795 575.629 16.6302 564.19 17.0069C557.691 17.2187 551.145 18.072 544.765 19.3666C529.188 22.5326 522.258 33.9019 519.16 48.1017C517.879 53.9629 517.826 60.1242 517.519 66.1619C517.277 70.9756 517.483 70.9991 522.506 70.9991C540.285 71.005 558.063 71.0815 575.841 70.9344C579.147 70.905 580.256 71.8936 580.002 75.1655C579.731 78.5963 579.802 82.0683 579.985 85.5109C580.12 88.0472 579.152 88.7828 576.697 88.7533C567.389 88.6474 558.086 88.7121 548.778 88.7121L548.772 88.7063Z" fill="#FFFCFE"/>
<path d="M658.998 88.7121C649.808 88.7121 640.612 88.8063 631.422 88.6592C628.417 88.6121 627.29 89.7007 627.532 92.6078C628.116 99.7048 627.939 106.937 629.302 113.875C633.015 132.806 646.125 143.458 665.927 143.911C680.247 144.24 694.578 144.111 708.898 143.964C712.02 143.934 713.195 144.741 712.97 147.918C712.728 151.355 712.858 154.821 712.923 158.269C712.959 160.247 712.144 160.982 710.143 160.947C693.203 160.641 676.174 161.424 659.352 159.9C633.594 157.569 615.774 142.051 611.589 114.593C608.095 91.6604 608.107 68.2215 611.837 45.2358C615.922 20.0551 633.641 4.00159 659.122 1.50059C671.311 0.305992 683.664 0.788539 695.942 0.564919C700.475 0.482533 705.014 0.647305 709.547 0.511957C711.985 0.44134 713.053 1.23578 712.941 3.76032C712.805 6.8498 712.764 9.95693 712.953 13.0405C713.13 15.9711 712.05 16.9833 709.069 16.948C698.208 16.8067 687.336 16.6184 676.487 16.9951C669.268 17.2481 661.961 17.8719 654.896 19.3136C639.071 22.5385 631.97 34.0843 629.025 48.6607C627.833 54.5454 628.051 60.7126 627.508 66.7386C627.219 69.9634 628.388 71.0933 631.734 71.0638C649.637 70.9226 667.545 71.105 685.453 70.9108C689.171 70.8697 690.328 72.0113 689.968 75.5657C689.697 78.2785 689.915 81.0384 689.915 83.7748C689.915 87.0546 688.322 88.6984 685.134 88.7062C676.422 88.7062 667.704 88.7062 658.992 88.7062L658.998 88.7121Z" fill="#FFFCFE"/>
</g>
<defs>
<clipPath id="clip0_767_299">
<rect width="712" height="161" fill="white" transform="translate(1)"/>
</clipPath>
</defs>
</svg>
