<svg width="710" height="338" viewBox="0 0 710 338" fill="none" xmlns="http://www.w3.org/2000/svg">
<g clip-path="url(#clip0_694_2111)">
<path d="M300.356 88.2292C296.38 83.03 291.839 78.4412 288.869 72.9667C278.203 53.3107 286.808 28.7456 308.887 24.1418C332.64 19.1927 350.085 39.024 346.473 61.3472C344.858 71.3104 339.443 78.7815 332.699 85.537C330.883 87.3585 330.829 88.4294 332.689 90.391C338.604 96.6411 344.288 103.116 349.982 109.582C351.224 110.988 352.353 111.413 354.12 110.673C369.116 104.387 379.852 94.0039 382.606 77.2653C384.957 62.9886 382.002 49.3124 373.608 37.4827C369.17 31.2326 363.732 25.673 358.391 20.1535C353.541 15.1444 352.78 8.66413 357.09 3.63001C361.091 -1.03881 368.032 -1.1489 373.063 3.40483C384.476 13.7333 394.381 25.3528 399.644 40.1399C408.72 65.6307 407.679 90.0407 389.851 111.753C380.323 123.353 367.781 130.118 353.63 134.362C347.43 136.223 343.081 136.083 338.653 130.264C332.419 122.067 324.992 114.816 318.11 107.125C317.389 106.319 316.927 105.273 316.157 104.037C312.136 108.431 308.823 112.009 305.554 115.632C299.722 122.102 293.945 128.627 288.064 135.053C287.514 135.653 286.336 136.118 285.575 135.973C261.096 131.374 242.011 119.089 231.339 95.4201C226.691 85.1167 225.68 74.1077 226.544 62.7984C228.448 37.893 240.901 18.9776 258.695 3.03953C263.614 -1.36407 270.476 -0.888685 274.393 3.8552C278.576 8.91433 277.884 15.6799 272.72 20.2486C265.705 26.4487 259.53 33.3944 255.078 41.7512C248.49 54.1113 245.982 67.2521 249.521 80.9933C252.717 93.4085 260.576 102.306 271.777 107.98C279.287 111.783 279.386 111.613 285.06 105.408C289.988 100.014 294.892 94.5944 299.791 89.17C300.11 88.8147 300.302 88.3343 300.365 88.2242L300.356 88.2292ZM315.72 71.4255C318.837 67.8976 321.787 64.9051 324.334 61.5974C328.109 56.6984 328.257 48.4217 324.948 44.0131C321.669 39.6445 315.661 38.4035 310.193 40.9606C305.451 43.1824 303.163 48.7369 304.238 54.7919C305.529 62.0328 311.091 66.0261 315.715 71.4255H315.72Z" fill="#C9187F"/>
<path d="M211.03 135.821H196.738C196.664 134.494 196.527 133.226 196.527 131.959C196.513 114.262 196.522 96.5655 196.518 78.869C196.518 74.8027 196.503 74.7878 192.668 74.7878C173.084 74.7829 153.5 74.8375 133.911 74.7232C131.031 74.7083 130.209 75.6329 130.228 78.5011C130.336 96.1977 130.282 113.894 130.282 131.591C130.282 132.878 130.282 134.171 130.282 135.697H115.995C115.932 134.504 115.814 133.321 115.814 132.133C115.805 105.687 115.648 79.2418 115.853 52.8014C116.029 30.447 125.929 13.6105 145.87 4.18057C160.138 -2.56499 174.747 -1.00412 187.983 7.89387C198.909 15.2359 206.334 25.5308 209.391 38.6143C210.501 43.3615 211.083 48.3474 211.118 53.2338C211.279 79.6792 211.196 106.125 211.191 132.565C211.191 133.549 211.098 134.539 211.034 135.826L211.03 135.821ZM163.385 60.6952C173.368 60.6952 183.356 60.7052 193.338 60.6853C194.781 60.6853 196.425 60.9736 196.513 58.6174C196.953 46.8611 195.026 35.8703 187.361 26.4355C174.395 10.4738 151.994 10.613 139.301 26.6542C132.336 35.4577 130.052 45.504 130.268 56.46C130.351 60.6803 130.292 60.6952 134.322 60.6952C144.012 60.7052 153.696 60.6952 163.385 60.6952Z" fill="#C9187F"/>
<path d="M101.616 135.821H87.2211C87.2211 134.539 87.2211 133.37 87.2211 132.202C87.2211 114.312 87.1673 96.4164 87.2749 78.526C87.2945 75.7025 86.5999 74.7033 83.6604 74.7182C63.7829 74.8375 43.9103 74.8326 24.0328 74.7232C21.2791 74.7083 20.5015 75.5683 20.521 78.3272C20.6286 96.1182 20.5748 113.909 20.5748 131.705C20.5748 132.988 20.5748 134.27 20.5748 135.742H6.08246C6.02377 134.698 5.91127 133.634 5.91127 132.565C5.90149 89.7404 5.93084 46.9207 5.8428 4.09607C5.8379 1.16819 6.64983 0.174 9.50624 0.417576C12.255 0.65121 15.0528 0.641268 17.8065 0.417576C20.4574 0.203825 20.6091 1.62054 20.6042 3.69343C20.5601 21.1862 20.5748 38.6739 20.5797 56.1667C20.5797 59.1791 22.0161 60.6886 24.8888 60.6952C44.3701 60.6952 63.8514 60.6952 83.3327 60.6952C87.2162 60.6952 87.226 60.6803 87.226 56.6737C87.226 39.2854 87.226 21.892 87.226 4.50369C87.226 1.81938 88.589 0.47557 91.315 0.472256C94.6605 0.472256 98.006 0.472256 101.621 0.472256V135.821H101.616Z" fill="#C9187F"/>
<path d="M459.755 74.932C452.242 74.932 444.725 75.0165 437.212 74.8873C434.669 74.8425 433.725 75.618 433.759 78.3122C433.881 87.2798 434.258 96.1132 438.024 104.514C442.475 114.431 450.164 120.053 460.469 120.859C472.462 121.798 484.553 121.51 496.605 121.654C504.724 121.748 504.758 121.674 504.714 130.03C504.675 137.123 505.409 135.945 498.913 135.901C486.465 135.816 473.974 136.119 461.579 135.195C443.282 133.833 430.081 124.627 423.228 106.821C420.558 99.8812 419.438 92.6932 419.418 85.3262C419.389 72.1632 419.134 58.9803 419.736 45.8421C420.343 32.5547 425.18 20.8332 435.055 11.6817C441.971 5.27419 450.442 2.13753 459.53 1.33224C468.564 0.531915 477.681 0.671101 486.764 0.487176C491.704 0.387757 496.654 0.596537 501.594 0.417583C504.142 0.323135 504.915 1.31235 504.758 3.73817C504.611 6.03972 504.558 8.37606 504.768 10.6677C505.047 13.69 503.751 14.371 501.002 14.3313C491.513 14.1871 482.01 14.0479 472.531 14.366C467.146 14.545 461.721 15.2658 456.434 16.3594C443.526 19.0338 437.784 28.6376 435.216 40.6325C434.155 45.5836 434.111 50.7881 433.857 55.8883C433.656 59.9546 433.827 59.9744 437.99 59.9744C452.722 59.9794 467.454 60.044 482.186 59.9198C484.925 59.8949 485.844 60.73 485.634 63.4939C485.409 66.3919 485.468 69.3248 485.619 72.2328C485.732 74.3753 484.93 74.9966 482.895 74.9718C475.182 74.8823 467.473 74.937 459.76 74.937L459.755 74.932Z" fill="#C9187F"/>
<path d="M551.094 74.937C543.479 74.937 535.859 75.0165 528.243 74.8922C525.754 74.8525 524.819 75.7721 525.02 78.2277C525.504 84.2227 525.357 90.332 526.487 96.1927C529.564 112.184 540.427 121.182 556.837 121.564C568.702 121.843 580.578 121.733 592.444 121.609C595.031 121.584 596.005 122.265 595.819 124.95C595.618 127.853 595.726 130.781 595.78 133.694C595.809 135.364 595.134 135.985 593.476 135.955C579.438 135.697 565.328 136.358 551.388 135.07C530.043 133.102 515.277 119.994 511.809 96.7992C508.913 77.4274 508.923 57.6282 512.014 38.2117C515.399 16.941 530.082 3.38027 551.197 1.26762C561.297 0.258515 571.534 0.666132 581.708 0.477236C585.464 0.407643 589.226 0.54683 592.982 0.432498C595.002 0.372847 595.887 1.04392 595.794 3.17646C595.682 5.7862 595.648 8.41086 595.804 11.0156C595.951 13.4912 595.056 14.3462 592.586 14.3163C583.586 14.197 574.577 14.038 565.587 14.3561C559.605 14.5699 553.55 15.0968 547.695 16.3147C534.582 19.0387 528.698 28.7917 526.257 41.1047C525.269 46.0757 525.45 51.2852 525 56.3755C524.761 59.0996 525.729 60.054 528.502 60.0291C543.337 59.9098 558.177 60.0639 573.016 59.8999C576.098 59.8651 577.056 60.8294 576.758 63.8319C576.533 66.1235 576.714 68.4549 576.714 70.7664C576.714 73.5368 575.394 74.9254 572.752 74.932C565.533 74.932 558.309 74.932 551.09 74.932L551.094 74.937Z" fill="#C9187F"/>
</g>
<path d="M30.6412 199.473C30.6412 199.231 30.7138 199.037 30.859 198.892C31.0526 198.698 31.2704 198.602 31.5124 198.602H40.0066C40.2486 198.602 40.4422 198.698 40.5874 198.892C40.781 199.037 40.8778 199.231 40.8778 199.473V248.55C40.8778 248.792 40.781 249.01 40.5874 249.204C40.4422 249.349 40.2486 249.422 40.0066 249.422H31.5124C31.2704 249.422 31.0526 249.349 30.859 249.204C30.7138 249.01 30.6412 248.792 30.6412 248.55V228.658C30.6412 228.416 30.5202 228.295 30.2782 228.295H18.6622C18.4202 228.295 18.2992 228.416 18.2992 228.658V248.55C18.2992 248.792 18.2024 249.01 18.0088 249.204C17.8636 249.349 17.67 249.422 17.428 249.422H8.93384C8.69184 249.422 8.47404 249.349 8.28044 249.204C8.13524 249.01 8.06264 248.792 8.06264 248.55V199.473C8.06264 199.231 8.13524 199.037 8.28044 198.892C8.47404 198.698 8.69184 198.602 8.93384 198.602H17.428C17.67 198.602 17.8636 198.698 18.0088 198.892C18.2024 199.037 18.2992 199.231 18.2992 199.473V219.075C18.2992 219.317 18.4202 219.438 18.6622 219.438H30.2782C30.5202 219.438 30.6412 219.317 30.6412 219.075V199.473ZM64.2341 250.075C60.8945 250.075 57.9421 249.397 55.3769 248.042C52.8601 246.687 50.8999 244.775 49.4963 242.307C48.0927 239.838 47.3909 236.959 47.3909 233.667V214.356C47.3909 211.113 48.0927 208.257 49.4963 205.789C50.8999 203.321 52.8601 201.409 55.3769 200.054C57.9421 198.698 60.8945 198.021 64.2341 198.021C67.5737 198.021 70.5261 198.698 73.0913 200.054C75.6565 201.409 77.6409 203.321 79.0445 205.789C80.4481 208.257 81.1499 211.113 81.1499 214.356V233.667C81.1499 236.959 80.4481 239.838 79.0445 242.307C77.6409 244.775 75.6565 246.687 73.0913 248.042C70.5261 249.397 67.5737 250.075 64.2341 250.075ZM64.2341 241.29C66.2669 241.29 67.8883 240.637 69.0983 239.33C70.3083 237.975 70.9133 236.233 70.9133 234.103V214.065C70.9133 211.887 70.3083 210.145 69.0983 208.838C67.8883 207.483 66.2669 206.805 64.2341 206.805C62.2497 206.805 60.6525 207.483 59.4425 208.838C58.2325 210.145 57.6275 211.887 57.6275 214.065V234.103C57.6275 236.233 58.2325 237.975 59.4425 239.33C60.6525 240.637 62.2497 241.29 64.2341 241.29ZM64.3067 265.974C62.7095 265.974 61.3785 265.442 60.3137 264.377C59.2973 263.361 58.7891 262.078 58.7891 260.529C58.7891 258.932 59.2973 257.625 60.3137 256.609C61.3785 255.593 62.7095 255.084 64.3067 255.084C65.9039 255.084 67.2107 255.568 68.2271 256.536C69.2435 257.553 69.7517 258.884 69.7517 260.529C69.7517 262.078 69.2193 263.361 68.1545 264.377C67.1381 265.442 65.8555 265.974 64.3067 265.974ZM53.9249 194.318C53.5861 194.318 53.3441 194.221 53.1989 194.028C53.1021 193.786 53.1505 193.52 53.3441 193.229L58.3535 185.679C58.5955 185.292 58.9343 185.098 59.3699 185.098H68.8805C69.3161 185.098 69.6549 185.292 69.8969 185.679L74.9789 193.229C75.0757 193.423 75.1241 193.592 75.1241 193.737C75.1241 194.125 74.8821 194.318 74.3981 194.318H68.0819C67.5495 194.318 67.1865 194.125 66.9929 193.737L64.4519 189.454C64.3067 189.164 64.1615 189.164 64.0163 189.454L61.4753 193.737C61.2817 194.125 60.9187 194.318 60.3863 194.318H53.9249ZM88.8364 249.422C88.5944 249.422 88.3766 249.349 88.183 249.204C88.0378 249.01 87.9652 248.792 87.9652 248.55V199.473C87.9652 199.231 88.0378 199.037 88.183 198.892C88.3766 198.698 88.5944 198.602 88.8364 198.602H97.3306C97.5726 198.602 97.7662 198.698 97.9114 198.892C98.105 199.037 98.2018 199.231 98.2018 199.473V248.55C98.2018 248.792 98.105 249.01 97.9114 249.204C97.7662 249.349 97.5726 249.422 97.3306 249.422H88.8364ZM145.34 199.473C145.34 199.231 145.413 199.037 145.558 198.892C145.752 198.698 145.969 198.602 146.211 198.602H154.633C154.875 198.602 155.069 198.698 155.214 198.892C155.407 199.037 155.504 199.231 155.504 199.473V248.55C155.504 248.792 155.407 249.01 155.214 249.204C155.069 249.349 154.875 249.422 154.633 249.422H145.776C145.292 249.422 144.953 249.204 144.759 248.768L130.893 219.22C130.796 219.075 130.699 219.002 130.602 219.002C130.506 219.002 130.457 219.099 130.457 219.293L130.53 248.55C130.53 248.792 130.433 249.01 130.239 249.204C130.094 249.349 129.901 249.422 129.659 249.422H121.237C120.995 249.422 120.777 249.349 120.584 249.204C120.438 249.01 120.366 248.792 120.366 248.55V199.473C120.366 199.231 120.438 199.037 120.584 198.892C120.777 198.698 120.995 198.602 121.237 198.602H130.022C130.506 198.602 130.844 198.819 131.038 199.255L144.905 228.803C145.001 228.948 145.098 229.021 145.195 229.021C145.292 229.021 145.34 228.924 145.34 228.731V199.473ZM202.392 192.358C202.973 192.358 203.264 192.648 203.264 193.229C203.07 195.794 202.344 197.876 201.086 199.473C199.827 201.07 198.254 202.183 196.367 202.812C196.173 202.861 196.076 202.982 196.076 203.175V233.813C196.076 237.007 195.374 239.838 193.971 242.307C192.616 244.727 190.68 246.614 188.163 247.97C185.646 249.325 182.742 250.002 179.451 250.002C176.16 250.002 173.256 249.325 170.739 247.97C168.222 246.614 166.262 244.727 164.858 242.307C163.503 239.838 162.825 237.007 162.825 233.813V199.473C162.825 199.231 162.898 199.037 163.043 198.892C163.237 198.698 163.455 198.602 163.697 198.602H172.191C172.433 198.602 172.626 198.698 172.772 198.892C172.965 199.037 173.062 199.231 173.062 199.473V234.321C173.062 236.402 173.643 238.072 174.804 239.33C175.966 240.589 177.515 241.218 179.451 241.218C181.387 241.218 182.936 240.589 184.097 239.33C185.259 238.072 185.84 236.402 185.84 234.321V199.473C185.84 199.231 185.912 199.037 186.057 198.892C186.251 198.698 186.469 198.602 186.711 198.602H192.228C193.487 198.602 194.624 198.214 195.641 197.44C196.705 196.666 197.31 195.262 197.456 193.229C197.456 192.648 197.746 192.358 198.327 192.358H202.392ZM184.17 193.81C183.347 193.81 182.621 193.713 181.992 193.52C181.411 193.278 180.661 192.939 179.741 192.503C179.499 192.358 179.136 192.164 178.652 191.922C178.168 191.68 177.757 191.511 177.418 191.414C177.079 191.317 176.74 191.269 176.402 191.269C175.143 191.269 174.078 191.801 173.207 192.866C172.917 193.157 172.675 193.302 172.481 193.302C172.336 193.302 172.167 193.205 171.973 193.011L168.996 190.398C168.609 190.011 168.512 189.599 168.706 189.164C169.432 187.663 170.4 186.502 171.61 185.679C172.868 184.856 174.248 184.445 175.748 184.445C176.619 184.445 177.418 184.59 178.144 184.88C178.87 185.122 179.741 185.509 180.758 186.042C180.951 186.139 181.266 186.332 181.701 186.623C182.137 186.865 182.524 187.058 182.863 187.203C183.25 187.3 183.637 187.349 184.025 187.349C185.38 187.349 186.396 186.84 187.074 185.824C187.316 185.485 187.558 185.316 187.8 185.316C187.945 185.316 188.114 185.413 188.308 185.606L191.139 188.147C191.527 188.534 191.599 188.97 191.357 189.454C190.631 190.906 189.615 191.995 188.308 192.721C187.05 193.447 185.67 193.81 184.17 193.81ZM218.793 249.422C218.551 249.422 218.333 249.349 218.14 249.204C217.995 249.01 217.922 248.792 217.922 248.55V199.473C217.922 199.231 217.995 199.037 218.14 198.892C218.333 198.698 218.551 198.602 218.793 198.602H234.402C237.645 198.602 240.501 199.207 242.969 200.417C245.486 201.627 247.422 203.345 248.777 205.571C250.132 207.798 250.81 210.387 250.81 213.339V234.684C250.81 237.636 250.132 240.226 248.777 242.452C247.422 244.678 245.486 246.397 242.969 247.607C240.501 248.817 237.645 249.422 234.402 249.422H218.793ZM228.159 240.274C228.159 240.516 228.28 240.637 228.522 240.637L234.475 240.564C236.266 240.564 237.718 239.935 238.831 238.677C239.944 237.37 240.525 235.652 240.573 233.522V214.501C240.573 212.323 240.017 210.605 238.903 209.346C237.79 208.04 236.314 207.386 234.475 207.386H228.522C228.28 207.386 228.159 207.507 228.159 207.749V240.274ZM273.597 250.075C270.258 250.075 267.305 249.397 264.74 248.042C262.223 246.687 260.263 244.775 258.859 242.307C257.456 239.838 256.754 236.959 256.754 233.667V214.356C256.754 211.113 257.456 208.257 258.859 205.789C260.263 203.321 262.223 201.409 264.74 200.054C267.305 198.698 270.258 198.021 273.597 198.021C276.937 198.021 279.889 198.698 282.454 200.054C285.02 201.409 287.004 203.321 288.408 205.789C289.811 208.257 290.513 211.113 290.513 214.356V233.667C290.513 236.959 289.811 239.838 288.408 242.307C287.004 244.775 285.02 246.687 282.454 248.042C279.889 249.397 276.937 250.075 273.597 250.075ZM273.597 241.29C275.63 241.29 277.251 240.637 278.461 239.33C279.671 237.975 280.276 236.233 280.276 234.103V214.065C280.276 211.887 279.671 210.145 278.461 208.838C277.251 207.483 275.63 206.805 273.597 206.805C271.613 206.805 270.016 207.483 268.806 208.838C267.596 210.145 266.991 211.887 266.991 214.065V234.103C266.991 236.233 267.596 237.975 268.806 239.33C270.016 240.637 271.613 241.29 273.597 241.29ZM323.269 249.422C322.736 249.422 322.397 249.18 322.252 248.696L320.582 241.581C320.534 241.387 320.413 241.29 320.219 241.29H306.643C306.45 241.29 306.329 241.387 306.28 241.581L304.61 248.696C304.465 249.18 304.151 249.422 303.667 249.422H294.882C294.253 249.422 294.011 249.107 294.156 248.478L307.224 199.328C307.369 198.844 307.708 198.602 308.24 198.602H318.767C319.3 198.602 319.639 198.844 319.784 199.328L332.852 248.478L332.924 248.768C332.924 249.204 332.658 249.422 332.126 249.422H323.269ZM308.24 232.941C308.192 233.087 308.216 233.208 308.313 233.304C308.41 233.353 308.507 233.377 308.603 233.377H318.187C318.283 233.377 318.38 233.353 318.477 233.304C318.574 233.208 318.598 233.087 318.55 232.941L313.54 211.887C313.492 211.694 313.419 211.597 313.322 211.597C313.226 211.597 313.153 211.694 313.105 211.887L308.24 232.941ZM363.282 199.473C363.282 199.231 363.355 199.037 363.5 198.892C363.693 198.698 363.911 198.602 364.153 198.602H372.575C372.817 198.602 373.01 198.698 373.156 198.892C373.349 199.037 373.446 199.231 373.446 199.473V248.55C373.446 248.792 373.349 249.01 373.156 249.204C373.01 249.349 372.817 249.422 372.575 249.422H363.718C363.234 249.422 362.895 249.204 362.701 248.768L348.835 219.22C348.738 219.075 348.641 219.002 348.544 219.002C348.447 219.002 348.399 219.099 348.399 219.293L348.472 248.55C348.472 248.792 348.375 249.01 348.181 249.204C348.036 249.349 347.842 249.422 347.6 249.422H339.179C338.937 249.422 338.719 249.349 338.525 249.204C338.38 249.01 338.308 248.792 338.308 248.55V199.473C338.308 199.231 338.38 199.037 338.525 198.892C338.719 198.698 338.937 198.602 339.179 198.602H347.963C348.447 198.602 348.786 198.819 348.98 199.255L362.846 228.803C362.943 228.948 363.04 229.021 363.137 229.021C363.234 229.021 363.282 228.924 363.282 228.731V199.473ZM403.709 199.473C403.709 199.231 403.781 199.037 403.927 198.892C404.12 198.698 404.338 198.602 404.58 198.602H413.074C413.316 198.602 413.51 198.698 413.655 198.892C413.849 199.037 413.945 199.231 413.945 199.473V248.55C413.945 248.792 413.849 249.01 413.655 249.204C413.51 249.349 413.316 249.422 413.074 249.422H404.58C404.338 249.422 404.12 249.349 403.927 249.204C403.781 249.01 403.709 248.792 403.709 248.55V228.658C403.709 228.416 403.588 228.295 403.346 228.295H391.73C391.488 228.295 391.367 228.416 391.367 228.658V248.55C391.367 248.792 391.27 249.01 391.076 249.204C390.931 249.349 390.738 249.422 390.496 249.422H382.001C381.759 249.422 381.542 249.349 381.348 249.204C381.203 249.01 381.13 248.792 381.13 248.55V199.473C381.13 199.231 381.203 199.037 381.348 198.892C381.542 198.698 381.759 198.602 382.001 198.602H390.496C390.738 198.602 390.931 198.698 391.076 198.892C391.27 199.037 391.367 199.231 391.367 199.473V219.075C391.367 219.317 391.488 219.438 391.73 219.438H403.346C403.588 219.438 403.709 219.317 403.709 219.075V199.473ZM460.838 199.473C460.838 199.231 460.911 199.037 461.056 198.892C461.25 198.698 461.467 198.602 461.709 198.602H470.131C470.373 198.602 470.567 198.698 470.712 198.892C470.905 199.037 471.002 199.231 471.002 199.473V248.55C471.002 248.792 470.905 249.01 470.712 249.204C470.567 249.349 470.373 249.422 470.131 249.422H461.274C460.79 249.422 460.451 249.204 460.257 248.768L446.391 219.22C446.294 219.075 446.197 219.002 446.1 219.002C446.004 219.002 445.955 219.099 445.955 219.293L446.028 248.55C446.028 248.792 445.931 249.01 445.737 249.204C445.592 249.349 445.399 249.422 445.157 249.422H436.735C436.493 249.422 436.275 249.349 436.082 249.204C435.936 249.01 435.864 248.792 435.864 248.55V199.473C435.864 199.231 435.936 199.037 436.082 198.892C436.275 198.698 436.493 198.602 436.735 198.602H445.52C446.004 198.602 446.342 198.819 446.536 199.255L460.403 228.803C460.499 228.948 460.596 229.021 460.693 229.021C460.79 229.021 460.838 228.924 460.838 228.731V199.473ZM501.265 199.473C501.265 199.231 501.338 199.037 501.483 198.892C501.676 198.698 501.894 198.602 502.136 198.602H510.63C510.872 198.602 511.066 198.698 511.211 198.892C511.405 199.037 511.502 199.231 511.502 199.473V248.55C511.502 248.792 511.405 249.01 511.211 249.204C511.066 249.349 510.872 249.422 510.63 249.422H502.136C501.894 249.422 501.676 249.349 501.483 249.204C501.338 249.01 501.265 248.792 501.265 248.55V228.658C501.265 228.416 501.144 228.295 500.902 228.295H489.286C489.044 228.295 488.923 228.416 488.923 228.658V248.55C488.923 248.792 488.826 249.01 488.633 249.204C488.487 249.349 488.294 249.422 488.052 249.422H479.558C479.316 249.422 479.098 249.349 478.904 249.204C478.759 249.01 478.686 248.792 478.686 248.55V199.473C478.686 199.231 478.759 199.037 478.904 198.892C479.098 198.698 479.316 198.602 479.558 198.602H488.052C488.294 198.602 488.487 198.698 488.633 198.892C488.826 199.037 488.923 199.231 488.923 199.473V219.075C488.923 219.317 489.044 219.438 489.286 219.438H500.902C501.144 219.438 501.265 219.317 501.265 219.075V199.473ZM545.819 249.422C545.286 249.422 544.948 249.18 544.802 248.696L543.133 241.581C543.084 241.387 542.963 241.29 542.77 241.29H529.193C529 241.29 528.879 241.387 528.83 241.581L527.161 248.696C527.015 249.18 526.701 249.422 526.217 249.422H517.432C516.803 249.422 516.561 249.107 516.706 248.478L529.774 199.328C529.919 198.844 530.258 198.602 530.791 198.602H541.318C541.85 198.602 542.189 198.844 542.334 199.328L555.402 248.478L555.475 248.768C555.475 249.204 555.208 249.422 554.676 249.422H545.819ZM530.791 232.941C530.742 233.087 530.766 233.208 530.863 233.304C530.96 233.353 531.057 233.377 531.154 233.377H540.737C540.834 233.377 540.93 233.353 541.027 233.304C541.124 233.208 541.148 233.087 541.1 232.941L536.09 211.887C536.042 211.694 535.969 211.597 535.873 211.597C535.776 211.597 535.703 211.694 535.655 211.887L530.791 232.941ZM525.709 194.318C525.37 194.318 525.128 194.221 524.983 194.028C524.886 193.786 524.934 193.52 525.128 193.229L530.137 185.679C530.379 185.292 530.718 185.098 531.154 185.098H540.664C541.1 185.098 541.439 185.292 541.681 185.679L546.763 193.229C546.859 193.423 546.908 193.592 546.908 193.737C546.908 194.125 546.666 194.318 546.182 194.318H539.866C539.333 194.318 538.97 194.125 538.777 193.737L536.236 189.454C536.09 189.164 535.945 189.164 535.8 189.454L533.259 193.737C533.065 194.125 532.702 194.318 532.17 194.318H525.709ZM585.832 199.473C585.832 199.231 585.905 199.037 586.05 198.892C586.244 198.698 586.461 198.602 586.703 198.602H595.125C595.367 198.602 595.561 198.698 595.706 198.892C595.899 199.037 595.996 199.231 595.996 199.473V248.55C595.996 248.792 595.899 249.01 595.706 249.204C595.561 249.349 595.367 249.422 595.125 249.422H586.268C585.784 249.422 585.445 249.204 585.251 248.768L571.385 219.22C571.288 219.075 571.191 219.002 571.094 219.002C570.998 219.002 570.949 219.099 570.949 219.293L571.022 248.55C571.022 248.792 570.925 249.01 570.731 249.204C570.586 249.349 570.393 249.422 570.151 249.422H561.729C561.487 249.422 561.269 249.349 561.076 249.204C560.93 249.01 560.858 248.792 560.858 248.55V199.473C560.858 199.231 560.93 199.037 561.076 198.892C561.269 198.698 561.487 198.602 561.729 198.602H570.514C570.998 198.602 571.336 198.819 571.53 199.255L585.397 228.803C585.493 228.948 585.59 229.021 585.687 229.021C585.784 229.021 585.832 228.924 585.832 228.731V199.473ZM39.6436 285.602C39.8856 285.602 40.0792 285.698 40.2244 285.892C40.418 286.037 40.5148 286.231 40.5148 286.473V293.588C40.5148 293.83 40.418 294.047 40.2244 294.241C40.0792 294.386 39.8856 294.459 39.6436 294.459H28.6084C28.3664 294.459 28.2454 294.58 28.2454 294.822V335.55C28.2454 335.792 28.1486 336.01 27.955 336.204C27.8098 336.349 27.6162 336.422 27.3742 336.422H18.88C18.638 336.422 18.4202 336.349 18.2266 336.204C18.0814 336.01 18.0088 335.792 18.0088 335.55V294.822C18.0088 294.58 17.8878 294.459 17.6458 294.459H6.97364C6.73164 294.459 6.51384 294.386 6.32024 294.241C6.17504 294.047 6.10244 293.83 6.10244 293.588V286.473C6.10244 286.231 6.17504 286.037 6.32024 285.892C6.51384 285.698 6.73164 285.602 6.97364 285.602H39.6436ZM68.8555 286.473C68.8555 286.231 68.9281 286.037 69.0733 285.892C69.2669 285.698 69.4847 285.602 69.7267 285.602H78.2209C78.4629 285.602 78.6565 285.698 78.8017 285.892C78.9953 286.037 79.0921 286.231 79.0921 286.473V335.55C79.0921 335.792 78.9953 336.01 78.8017 336.204C78.6565 336.349 78.4629 336.422 78.2209 336.422H69.7267C69.4847 336.422 69.2669 336.349 69.0733 336.204C68.9281 336.01 68.8555 335.792 68.8555 335.55V315.658C68.8555 315.416 68.7345 315.295 68.4925 315.295H56.8765C56.6345 315.295 56.5135 315.416 56.5135 315.658V335.55C56.5135 335.792 56.4167 336.01 56.2231 336.204C56.0779 336.349 55.8843 336.422 55.6423 336.422H47.1481C46.9061 336.422 46.6883 336.349 46.4947 336.204C46.3495 336.01 46.2769 335.792 46.2769 335.55V286.473C46.2769 286.231 46.3495 286.037 46.4947 285.892C46.6883 285.698 46.9061 285.602 47.1481 285.602H55.6423C55.8843 285.602 56.0779 285.698 56.2231 285.892C56.4167 286.037 56.5135 286.231 56.5135 286.473V306.075C56.5135 306.317 56.6345 306.438 56.8765 306.438H68.4925C68.7345 306.438 68.8555 306.317 68.8555 306.075V286.473ZM113.409 336.422C112.877 336.422 112.538 336.18 112.393 335.696L110.723 328.581C110.675 328.387 110.554 328.29 110.36 328.29H96.7838C96.5902 328.29 96.4692 328.387 96.4208 328.581L94.751 335.696C94.6058 336.18 94.2912 336.422 93.8072 336.422H85.0226C84.3934 336.422 84.1514 336.107 84.2966 335.478L97.3646 286.328C97.5098 285.844 97.8486 285.602 98.381 285.602H108.908C109.44 285.602 109.779 285.844 109.924 286.328L122.992 335.478L123.065 335.768C123.065 336.204 122.799 336.422 122.266 336.422H113.409ZM98.381 319.941C98.3326 320.087 98.3568 320.208 98.4536 320.304C98.5504 320.353 98.6472 320.377 98.744 320.377H108.327C108.424 320.377 108.521 320.353 108.618 320.304C108.714 320.208 108.739 320.087 108.69 319.941L103.681 298.887C103.632 298.694 103.56 298.597 103.463 298.597C103.366 298.597 103.294 298.694 103.245 298.887L98.381 319.941ZM107.02 280.084C107.117 280.278 107.166 280.423 107.166 280.52C107.166 280.907 106.924 281.1 106.44 281.1H100.632C100.196 281.1 99.8572 280.931 99.6152 280.592L94.2428 273.187C94.0976 272.945 94.025 272.776 94.025 272.679C94.025 272.292 94.2912 272.098 94.8236 272.098H101.793C102.277 272.098 102.64 272.292 102.882 272.679L107.02 280.084ZM153.423 286.473C153.423 286.231 153.495 286.037 153.64 285.892C153.834 285.698 154.052 285.602 154.294 285.602H162.715C162.957 285.602 163.151 285.698 163.296 285.892C163.49 286.037 163.587 286.231 163.587 286.473V335.55C163.587 335.792 163.49 336.01 163.296 336.204C163.151 336.349 162.957 336.422 162.715 336.422H153.858C153.374 336.422 153.035 336.204 152.842 335.768L138.975 306.22C138.878 306.075 138.782 306.002 138.685 306.002C138.588 306.002 138.54 306.099 138.54 306.293L138.612 335.55C138.612 335.792 138.515 336.01 138.322 336.204C138.177 336.349 137.983 336.422 137.741 336.422H129.319C129.077 336.422 128.86 336.349 128.666 336.204C128.521 336.01 128.448 335.792 128.448 335.55V286.473C128.448 286.231 128.521 286.037 128.666 285.892C128.86 285.698 129.077 285.602 129.319 285.602H138.104C138.588 285.602 138.927 285.819 139.12 286.255L152.987 315.803C153.084 315.948 153.181 316.021 153.277 316.021C153.374 316.021 153.423 315.924 153.423 315.731V286.473ZM193.849 286.473C193.849 286.231 193.922 286.037 194.067 285.892C194.261 285.698 194.479 285.602 194.721 285.602H203.215C203.457 285.602 203.65 285.698 203.796 285.892C203.989 286.037 204.086 286.231 204.086 286.473V335.55C204.086 335.792 203.989 336.01 203.796 336.204C203.65 336.349 203.457 336.422 203.215 336.422H194.721C194.479 336.422 194.261 336.349 194.067 336.204C193.922 336.01 193.849 335.792 193.849 335.55V315.658C193.849 315.416 193.728 315.295 193.486 315.295H181.87C181.628 315.295 181.507 315.416 181.507 315.658V335.55C181.507 335.792 181.411 336.01 181.217 336.204C181.072 336.349 180.878 336.422 180.636 336.422H172.142C171.9 336.422 171.682 336.349 171.489 336.204C171.343 336.01 171.271 335.792 171.271 335.55V286.473C171.271 286.231 171.343 286.037 171.489 285.892C171.682 285.698 171.9 285.602 172.142 285.602H180.636C180.878 285.602 181.072 285.698 181.217 285.892C181.411 286.037 181.507 286.231 181.507 286.473V306.075C181.507 306.317 181.628 306.438 181.87 306.438H193.486C193.728 306.438 193.849 306.317 193.849 306.075V286.473ZM244.227 285.529C247.131 285.529 249.696 286.182 251.923 287.489C254.197 288.796 255.94 290.635 257.15 293.007C258.408 295.378 259.037 298.089 259.037 301.138C259.037 304.139 258.408 306.801 257.15 309.124C255.94 311.399 254.197 313.165 251.923 314.424C249.696 315.682 247.131 316.311 244.227 316.311H236.386C236.144 316.311 236.023 316.432 236.023 316.674V335.55C236.023 335.792 235.926 336.01 235.733 336.204C235.588 336.349 235.394 336.422 235.152 336.422H226.658C226.416 336.422 226.198 336.349 226.004 336.204C225.859 336.01 225.787 335.792 225.787 335.55V286.4C225.787 286.158 225.859 285.965 226.004 285.819C226.198 285.626 226.416 285.529 226.658 285.529H244.227ZM242.557 308.18C244.445 308.18 245.945 307.575 247.058 306.365C248.22 305.107 248.801 303.437 248.801 301.356C248.801 299.226 248.22 297.532 247.058 296.274C245.945 295.015 244.445 294.386 242.557 294.386H236.386C236.144 294.386 236.023 294.507 236.023 294.749V307.817C236.023 308.059 236.144 308.18 236.386 308.18H242.557ZM287.152 286.473C287.152 286.231 287.224 286.037 287.37 285.892C287.563 285.698 287.781 285.602 288.023 285.602H296.517C296.759 285.602 296.953 285.698 297.098 285.892C297.292 286.037 297.388 286.231 297.388 286.473V335.55C297.388 335.792 297.292 336.01 297.098 336.204C296.953 336.349 296.759 336.422 296.517 336.422H288.023C287.781 336.422 287.563 336.349 287.37 336.204C287.224 336.01 287.152 335.792 287.152 335.55V315.658C287.152 315.416 287.031 315.295 286.789 315.295H275.173C274.931 315.295 274.81 315.416 274.81 315.658V335.55C274.81 335.792 274.713 336.01 274.519 336.204C274.374 336.349 274.181 336.422 273.939 336.422H265.444C265.202 336.422 264.985 336.349 264.791 336.204C264.646 336.01 264.573 335.792 264.573 335.55V286.473C264.573 286.231 264.646 286.037 264.791 285.892C264.985 285.698 265.202 285.602 265.444 285.602H273.939C274.181 285.602 274.374 285.698 274.519 285.892C274.713 286.037 274.81 286.231 274.81 286.473V306.075C274.81 306.317 274.931 306.438 275.173 306.438H286.789C287.031 306.438 287.152 306.317 287.152 306.075V286.473ZM320.745 337.075C317.405 337.075 314.453 336.397 311.887 335.042C309.371 333.687 307.41 331.775 306.007 329.307C304.603 326.838 303.901 323.959 303.901 320.667V301.356C303.901 298.113 304.603 295.257 306.007 292.789C307.41 290.321 309.371 288.409 311.887 287.054C314.453 285.698 317.405 285.021 320.745 285.021C324.084 285.021 327.037 285.698 329.602 287.054C332.167 288.409 334.151 290.321 335.555 292.789C336.959 295.257 337.66 298.113 337.66 301.356V320.667C337.66 323.959 336.959 326.838 335.555 329.307C334.151 331.775 332.167 333.687 329.602 335.042C327.037 336.397 324.084 337.075 320.745 337.075ZM320.745 328.29C322.777 328.29 324.399 327.637 325.609 326.33C326.819 324.975 327.424 323.233 327.424 321.103V301.065C327.424 298.887 326.819 297.145 325.609 295.838C324.399 294.483 322.777 293.805 320.745 293.805C318.76 293.805 317.163 294.483 315.953 295.838C314.743 297.145 314.138 298.887 314.138 301.065V321.103C314.138 323.233 314.743 324.975 315.953 326.33C317.163 327.637 318.76 328.29 320.745 328.29ZM310.363 281.318C310.024 281.318 309.782 281.221 309.637 281.028C309.54 280.786 309.588 280.52 309.782 280.229L314.791 272.679C315.033 272.292 315.372 272.098 315.808 272.098H325.318C325.754 272.098 326.093 272.292 326.335 272.679L331.417 280.229C331.514 280.423 331.562 280.592 331.562 280.737C331.562 281.125 331.32 281.318 330.836 281.318H324.52C323.987 281.318 323.624 281.125 323.431 280.737L320.89 276.454C320.745 276.164 320.599 276.164 320.454 276.454L317.913 280.737C317.72 281.125 317.357 281.318 316.824 281.318H310.363ZM331.707 275.438C331.368 275.438 331.151 275.341 331.054 275.147C330.957 274.954 330.981 274.712 331.126 274.421L335.265 267.016C335.507 266.629 335.87 266.435 336.354 266.435H343.323C343.71 266.435 343.952 266.556 344.049 266.798C344.146 266.992 344.098 267.234 343.904 267.524L338.532 274.929C338.29 275.268 337.951 275.438 337.515 275.438H331.707ZM381.589 286.473C381.589 286.231 381.661 286.037 381.806 285.892C382 285.698 382.218 285.602 382.46 285.602H390.954C391.196 285.602 391.39 285.698 391.535 285.892C391.728 286.037 391.825 286.231 391.825 286.473V335.55C391.825 335.792 391.728 336.01 391.535 336.204C391.39 336.349 391.196 336.422 390.954 336.422H382.46C382.218 336.422 382 336.349 381.806 336.204C381.661 336.01 381.589 335.792 381.589 335.55V315.658C381.589 315.416 381.468 315.295 381.226 315.295H369.61C369.368 315.295 369.247 315.416 369.247 315.658V335.55C369.247 335.792 369.15 336.01 368.956 336.204C368.811 336.349 368.617 336.422 368.375 336.422H359.881C359.639 336.422 359.421 336.349 359.228 336.204C359.083 336.01 359.01 335.792 359.01 335.55V286.473C359.01 286.231 359.083 286.037 359.228 285.892C359.421 285.698 359.639 285.602 359.881 285.602H368.375C368.617 285.602 368.811 285.698 368.956 285.892C369.15 286.037 369.247 286.231 369.247 286.473V306.075C369.247 306.317 369.368 306.438 369.61 306.438H381.226C381.468 306.438 381.589 306.317 381.589 306.075V286.473ZM415.181 337.075C411.842 337.075 408.889 336.397 406.324 335.042C403.807 333.687 401.847 331.775 400.444 329.307C399.04 326.838 398.338 323.959 398.338 320.667V301.356C398.338 298.113 399.04 295.257 400.444 292.789C401.847 290.321 403.807 288.409 406.324 287.054C408.889 285.698 411.842 285.021 415.181 285.021C418.521 285.021 421.473 285.698 424.039 287.054C426.604 288.409 428.588 290.321 429.992 292.789C431.395 295.257 432.097 298.113 432.097 301.356V320.667C432.097 323.959 431.395 326.838 429.992 329.307C428.588 331.775 426.604 333.687 424.039 335.042C421.473 336.397 418.521 337.075 415.181 337.075ZM415.181 328.29C417.214 328.29 418.836 327.637 420.046 326.33C421.256 324.975 421.861 323.233 421.861 321.103V301.065C421.861 298.887 421.256 297.145 420.046 295.838C418.836 294.483 417.214 293.805 415.181 293.805C413.197 293.805 411.6 294.483 410.39 295.838C409.18 297.145 408.575 298.887 408.575 301.065V321.103C408.575 323.233 409.18 324.975 410.39 326.33C411.6 327.637 413.197 328.29 415.181 328.29ZM404.872 281.318C404.533 281.318 404.291 281.221 404.146 281.028C404.049 280.786 404.098 280.52 404.291 280.229L409.301 272.679C409.543 272.292 409.882 272.098 410.317 272.098H419.828C420.263 272.098 420.602 272.292 420.844 272.679L425.926 280.229C426.023 280.423 426.071 280.592 426.071 280.737C426.071 281.125 425.829 281.318 425.345 281.318H419.029C418.497 281.318 418.134 281.125 417.94 280.737L415.399 276.454C415.254 276.164 415.109 276.164 414.964 276.454L412.423 280.737C412.229 281.125 411.866 281.318 411.334 281.318H404.872ZM431.371 271.445C431.468 271.638 431.516 271.783 431.516 271.88C431.516 272.267 431.274 272.461 430.79 272.461H424.982C424.547 272.461 424.208 272.292 423.966 271.953L418.594 264.548C418.448 264.306 418.376 264.136 418.376 264.039C418.376 263.652 418.642 263.459 419.174 263.459H426.144C426.628 263.459 426.991 263.652 427.233 264.039L431.371 271.445ZM469.201 337.002C465.91 337.002 463.006 336.349 460.489 335.042C457.972 333.735 456.012 331.872 454.608 329.452C453.253 327.032 452.575 324.225 452.575 321.03V300.848C452.575 297.702 453.253 294.943 454.608 292.571C456.012 290.151 457.972 288.288 460.489 286.981C463.006 285.674 465.91 285.021 469.201 285.021C472.492 285.021 475.396 285.674 477.913 286.981C480.43 288.239 482.366 290.03 483.721 292.353C485.124 294.677 485.826 297.387 485.826 300.485V300.848C485.826 301.09 485.729 301.307 485.536 301.501C485.391 301.695 485.197 301.791 484.955 301.791L476.461 302.154C475.88 302.154 475.59 301.888 475.59 301.356V300.412C475.59 298.428 475.009 296.83 473.847 295.62C472.686 294.41 471.137 293.805 469.201 293.805C467.265 293.805 465.716 294.41 464.554 295.62C463.393 296.83 462.812 298.428 462.812 300.412V321.684C462.812 323.668 463.393 325.265 464.554 326.475C465.716 327.637 467.265 328.218 469.201 328.218C471.137 328.218 472.686 327.637 473.847 326.475C475.009 325.265 475.59 323.668 475.59 321.684V320.74C475.59 320.208 475.88 319.941 476.461 319.941L484.955 320.304C485.197 320.304 485.391 320.401 485.536 320.595C485.729 320.74 485.826 320.934 485.826 321.176V321.393C485.826 324.491 485.124 327.226 483.721 329.597C482.366 331.969 480.43 333.808 477.913 335.115C475.396 336.373 472.492 337.002 469.201 337.002ZM514.948 286.473C514.948 286.231 515.021 286.037 515.166 285.892C515.36 285.698 515.578 285.602 515.82 285.602H524.314C524.556 285.602 524.749 285.698 524.895 285.892C525.088 286.037 525.185 286.231 525.185 286.473V335.55C525.185 335.792 525.088 336.01 524.895 336.204C524.749 336.349 524.556 336.422 524.314 336.422H515.82C515.578 336.422 515.36 336.349 515.166 336.204C515.021 336.01 514.948 335.792 514.948 335.55V315.658C514.948 315.416 514.827 315.295 514.585 315.295H502.969C502.727 315.295 502.606 315.416 502.606 315.658V335.55C502.606 335.792 502.51 336.01 502.316 336.204C502.171 336.349 501.977 336.422 501.735 336.422H493.241C492.999 336.422 492.781 336.349 492.588 336.204C492.442 336.01 492.37 335.792 492.37 335.55V286.473C492.37 286.231 492.442 286.037 492.588 285.892C492.781 285.698 492.999 285.602 493.241 285.602H501.735C501.977 285.602 502.171 285.698 502.316 285.892C502.51 286.037 502.606 286.231 502.606 286.473V306.075C502.606 306.317 502.727 306.438 502.969 306.438H514.585C514.827 306.438 514.948 306.317 514.948 306.075V286.473ZM533.44 336.422C533.198 336.422 532.981 336.349 532.787 336.204C532.642 336.01 532.569 335.792 532.569 335.55V286.473C532.569 286.231 532.642 286.037 532.787 285.892C532.981 285.698 533.198 285.602 533.44 285.602H541.935C542.177 285.602 542.37 285.698 542.515 285.892C542.709 286.037 542.806 286.231 542.806 286.473V335.55C542.806 335.792 542.709 336.01 542.515 336.204C542.37 336.349 542.177 336.422 541.935 336.422H533.44ZM533.658 281.1C533.319 281.1 533.102 281.004 533.005 280.81C532.908 280.616 532.932 280.374 533.077 280.084L537.216 272.679C537.458 272.292 537.821 272.098 538.305 272.098H545.274C545.661 272.098 545.903 272.219 546 272.461C546.097 272.655 546.049 272.897 545.855 273.187L540.483 280.592C540.241 280.931 539.902 281.1 539.466 281.1H533.658ZM592.921 286.182C593.114 285.795 593.453 285.602 593.937 285.602H602.359C602.601 285.602 602.794 285.698 602.94 285.892C603.133 286.037 603.23 286.231 603.23 286.473V335.55C603.23 335.792 603.133 336.01 602.94 336.204C602.794 336.349 602.601 336.422 602.359 336.422H593.865C593.623 336.422 593.405 336.349 593.211 336.204C593.066 336.01 592.993 335.792 592.993 335.55V303.316C592.993 303.122 592.945 303.026 592.848 303.026C592.751 302.977 592.655 303.026 592.558 303.171L585.879 314.206C585.685 314.593 585.346 314.787 584.862 314.787H583.192C582.708 314.787 582.37 314.593 582.176 314.206L575.497 303.171C575.4 303.026 575.303 302.977 575.206 303.026C575.11 303.026 575.061 303.122 575.061 303.316V335.55C575.061 335.792 574.964 336.01 574.771 336.204C574.626 336.349 574.432 336.422 574.19 336.422H565.696C565.454 336.422 565.236 336.349 565.042 336.204C564.897 336.01 564.825 335.792 564.825 335.55V286.473C564.825 286.231 564.897 286.037 565.042 285.892C565.236 285.698 565.454 285.602 565.696 285.602H574.117C574.601 285.602 574.94 285.795 575.134 286.182L583.846 300.485C583.991 300.775 584.136 300.775 584.281 300.485L592.921 286.182ZM611.641 336.422C611.399 336.422 611.182 336.349 610.988 336.204C610.843 336.01 610.77 335.792 610.77 335.55V286.473C610.77 286.231 610.843 286.037 610.988 285.892C611.182 285.698 611.399 285.602 611.641 285.602H620.136C620.378 285.602 620.571 285.698 620.716 285.892C620.91 286.037 621.007 286.231 621.007 286.473V335.55C621.007 335.792 620.91 336.01 620.716 336.204C620.571 336.349 620.378 336.422 620.136 336.422H611.641ZM653.611 286.473C653.611 286.231 653.684 286.037 653.829 285.892C654.022 285.698 654.24 285.602 654.482 285.602H662.904C663.146 285.602 663.339 285.698 663.485 285.892C663.678 286.037 663.775 286.231 663.775 286.473V335.55C663.775 335.792 663.678 336.01 663.485 336.204C663.339 336.349 663.146 336.422 662.904 336.422H654.047C653.563 336.422 653.224 336.204 653.03 335.768L639.164 306.22C639.067 306.075 638.97 306.002 638.873 306.002C638.776 306.002 638.728 306.099 638.728 306.293L638.801 335.55C638.801 335.792 638.704 336.01 638.51 336.204C638.365 336.349 638.171 336.422 637.929 336.422H629.508C629.266 336.422 629.048 336.349 628.854 336.204C628.709 336.01 628.637 335.792 628.637 335.55V286.473C628.637 286.231 628.709 286.037 628.854 285.892C629.048 285.698 629.266 285.602 629.508 285.602H638.292C638.776 285.602 639.115 285.819 639.309 286.255L653.175 315.803C653.272 315.948 653.369 316.021 653.466 316.021C653.563 316.021 653.611 315.924 653.611 315.731V286.473ZM694.038 286.473C694.038 286.231 694.111 286.037 694.256 285.892C694.449 285.698 694.667 285.602 694.909 285.602H703.403C703.645 285.602 703.839 285.698 703.984 285.892C704.178 286.037 704.275 286.231 704.275 286.473V335.55C704.275 335.792 704.178 336.01 703.984 336.204C703.839 336.349 703.645 336.422 703.403 336.422H694.909C694.667 336.422 694.449 336.349 694.256 336.204C694.111 336.01 694.038 335.792 694.038 335.55V315.658C694.038 315.416 693.917 315.295 693.675 315.295H682.059C681.817 315.295 681.696 315.416 681.696 315.658V335.55C681.696 335.792 681.599 336.01 681.406 336.204C681.26 336.349 681.067 336.422 680.825 336.422H672.331C672.089 336.422 671.871 336.349 671.677 336.204C671.532 336.01 671.459 335.792 671.459 335.55V286.473C671.459 286.231 671.532 286.037 671.677 285.892C671.871 285.698 672.089 285.602 672.331 285.602H680.825C681.067 285.602 681.26 285.698 681.406 285.892C681.599 286.037 681.696 286.231 681.696 286.473V306.075C681.696 306.317 681.817 306.438 682.059 306.438H693.675C693.917 306.438 694.038 306.317 694.038 306.075V286.473Z" fill="#50002F"/>
<defs>
<clipPath id="clip0_694_2111">
<rect width="590" height="136" fill="white" transform="translate(5.84277)"/>
</clipPath>
</defs>
</svg>
