<svg width="1779" height="133" viewBox="0 0 1779 133" fill="none" xmlns="http://www.w3.org/2000/svg">
<g clip-path="url(#clip0_694_2102)">
<path d="M293.016 86.283C289.06 81.1984 284.543 76.7109 281.588 71.3572C270.976 52.1347 279.537 28.1115 301.504 23.6093C325.136 18.7694 342.493 38.1631 338.899 59.994C337.292 69.7374 331.905 77.0437 325.195 83.6502C323.388 85.4315 323.334 86.4787 325.185 88.3971C331.07 94.5093 336.725 100.842 342.39 107.164C343.626 108.54 344.749 108.956 346.507 108.231C361.427 102.085 372.108 91.9303 374.848 75.5609C377.187 61.5991 374.247 48.2246 365.896 36.6559C361.481 30.5436 356.07 25.1067 350.756 19.709C345.931 14.8104 345.174 8.47301 349.462 3.54994C353.442 -1.01589 360.348 -1.12355 365.354 3.32972C376.708 13.4303 386.564 24.7935 391.799 39.2544C400.829 64.183 399.794 88.0545 382.056 109.288C372.577 120.632 360.099 127.248 346.019 131.398C339.851 133.219 335.524 133.082 331.119 127.39C324.916 119.374 317.527 112.283 310.68 104.762C309.962 103.974 309.503 102.951 308.737 101.742C304.737 106.039 301.44 109.538 298.188 113.081C292.386 119.409 286.638 125.79 280.787 132.073C280.24 132.661 279.068 133.116 278.311 132.974C253.956 128.477 234.968 116.462 224.351 93.3152C219.726 83.2391 218.72 72.4729 219.579 61.4132C221.474 37.0572 233.864 18.5589 251.568 2.97248C256.461 -1.33398 263.289 -0.869081 267.186 3.77015C271.347 8.71769 270.658 15.334 265.52 19.8019C258.542 25.8653 252.398 32.6577 247.968 40.8302C241.414 52.9177 238.919 65.7686 242.44 79.2067C245.619 91.348 253.438 100.049 264.583 105.598C272.055 109.318 272.153 109.151 277.798 103.083C282.701 97.8077 287.58 92.5078 292.454 87.203C292.772 86.8556 292.962 86.3858 293.026 86.2781L293.016 86.283ZM308.302 69.8499C311.403 66.3998 314.338 63.4734 316.873 60.2387C320.629 55.4477 320.775 47.3535 317.483 43.0422C314.221 38.77 308.243 37.5563 302.803 40.057C298.085 42.2298 295.809 47.6618 296.879 53.5832C298.163 60.6644 303.697 64.5696 308.297 69.8499H308.302Z" fill="#C9187F"/>
<path d="M204.144 132.825H189.925C189.852 131.527 189.715 130.287 189.715 129.048C189.701 111.742 189.71 94.4354 189.706 77.1292C189.706 73.1527 189.691 73.1381 185.876 73.1381C166.391 73.1332 146.907 73.1867 127.418 73.0749C124.551 73.0603 123.734 73.9645 123.753 76.7695C123.86 94.0757 123.807 111.382 123.807 128.688C123.807 129.947 123.807 131.211 123.807 132.703H109.593C109.529 131.537 109.413 130.38 109.413 129.218C109.403 103.356 109.247 77.4938 109.452 51.6366C109.627 29.7754 119.476 13.3102 139.316 4.08834C153.51 -2.50843 168.046 -0.981985 181.214 7.71972C192.085 14.8998 199.472 24.9676 202.513 37.7625C203.618 42.405 204.197 47.2809 204.231 52.0595C204.392 77.9216 204.309 103.784 204.304 129.641C204.304 130.603 204.212 131.571 204.149 132.83L204.144 132.825ZM156.742 59.3563C166.674 59.3563 176.61 59.3661 186.542 59.3466C187.978 59.3466 189.613 59.6286 189.701 57.3243C190.139 45.8274 188.221 35.0791 180.596 25.8523C167.696 10.2427 145.408 10.3788 132.78 26.0662C125.851 34.6756 123.578 44.5002 123.792 55.2145C123.875 59.3418 123.817 59.3563 127.826 59.3563C137.466 59.3661 147.102 59.3563 156.742 59.3563Z" fill="#C9187F"/>
<path d="M95.2859 132.825H80.9645C80.9645 131.571 80.9645 130.428 80.9645 129.286C80.9645 111.79 80.911 94.2896 81.0181 76.7938C81.0375 74.0326 80.3465 73.0555 77.4219 73.0701C57.6455 73.1867 37.874 73.1819 18.0976 73.0749C15.3579 73.0603 14.5841 73.9013 14.6036 76.5993C14.7107 93.9979 14.6571 111.396 14.6571 128.8C14.6571 130.054 14.6571 131.308 14.6571 132.747H0.238468C0.180073 131.726 0.0681492 130.686 0.0681492 129.641C0.0584167 87.7609 0.0876142 45.8857 2.18217e-05 4.00573C-0.00484442 1.14243 0.802951 0.170171 3.64484 0.408374C6.37966 0.636855 9.16315 0.627132 11.9028 0.408374C14.5403 0.199339 14.6912 1.58481 14.6863 3.61196C14.6425 20.7188 14.6571 37.8209 14.662 54.9277C14.662 57.8737 16.0911 59.3499 18.9492 59.3564C38.3314 59.3564 57.7136 59.3564 77.0959 59.3564C80.9597 59.3564 80.9694 59.3418 80.9694 55.4236C80.9694 38.4188 80.9694 21.4091 80.9694 4.40435C80.9694 1.77926 82.3255 0.465089 85.0376 0.461848C88.3661 0.461848 91.6946 0.461848 95.2907 0.461848V132.825H95.2859Z" fill="#C9187F"/>
<path d="M451.604 73.2791C444.13 73.2791 436.65 73.3617 429.176 73.2353C426.645 73.1916 425.706 73.9499 425.74 76.5848C425.862 85.3545 426.237 93.993 429.984 102.209C434.412 111.907 442.062 117.405 452.315 118.193C464.247 119.111 476.276 118.829 488.267 118.97C496.344 119.063 496.379 118.99 496.335 127.162C496.296 134.099 497.026 132.947 490.563 132.903C478.179 132.82 465.75 133.117 453.419 132.212C435.215 130.88 422.081 121.877 415.263 104.464C412.606 97.6779 411.492 90.6485 411.472 83.444C411.443 70.5713 411.19 57.6792 411.789 44.8308C412.392 31.8366 417.205 20.3737 427.03 11.424C433.911 5.15783 442.339 2.09036 451.38 1.30283C460.368 0.520163 469.439 0.656279 478.476 0.476411C483.391 0.379185 488.315 0.583359 493.23 0.408353C495.765 0.315989 496.534 1.28338 496.379 3.65569C496.233 5.90647 496.179 8.19128 496.388 10.4323C496.666 13.388 495.376 14.054 492.641 14.0151C483.201 13.8741 473.746 13.738 464.315 14.0491C458.957 14.2241 453.561 14.929 448.3 15.9985C435.458 18.6139 429.745 28.0059 427.19 39.7362C426.134 44.578 426.091 49.6678 425.838 54.6555C425.638 58.632 425.808 58.6515 429.95 58.6515C444.607 58.6563 459.264 58.7195 473.921 58.598C476.646 58.5737 477.561 59.3904 477.352 62.0933C477.128 64.9274 477.186 67.7955 477.337 70.6394C477.449 72.7346 476.651 73.3423 474.626 73.318C466.952 73.2305 459.283 73.2839 451.609 73.2839L451.604 73.2791Z" fill="#C9187F"/>
<path d="M542.479 73.284C534.902 73.284 527.32 73.3617 519.743 73.2402C517.267 73.2013 516.337 74.1006 516.537 76.5021C517.018 82.3648 516.872 88.3394 517.996 94.0708C521.057 109.71 531.865 118.509 548.192 118.883C559.997 119.155 571.812 119.048 583.618 118.927C586.192 118.902 587.16 119.568 586.975 122.193C586.776 125.032 586.883 127.896 586.937 130.744C586.966 132.378 586.294 132.985 584.645 132.956C570.678 132.703 556.639 133.35 542.771 132.091C521.534 130.166 506.843 117.347 503.393 94.6639C500.512 75.7195 500.522 56.3569 503.597 37.3688C506.965 16.5673 521.573 3.3057 542.581 1.23965C552.63 0.252813 562.815 0.651439 572.936 0.46671C576.674 0.398652 580.416 0.534768 584.153 0.422958C586.163 0.364623 587.044 1.0209 586.951 3.10639C586.839 5.65857 586.805 8.22533 586.961 10.7726C587.107 13.1936 586.216 14.0297 583.759 14.0005C574.805 13.8839 565.841 13.7283 556.897 14.0394C550.946 14.2485 544.921 14.7638 539.096 15.9548C526.05 18.6188 520.196 28.1566 517.768 40.198C516.785 45.0593 516.965 50.1539 516.517 55.1319C516.279 57.7959 517.242 58.7293 520.001 58.7049C534.761 58.5883 549.525 58.739 564.289 58.5786C567.355 58.5445 568.309 59.4876 568.012 62.4238C567.788 64.6649 567.968 66.9448 567.968 69.2053C567.968 71.9147 566.654 73.2726 564.026 73.2791C556.844 73.2791 549.656 73.2791 542.474 73.2791L542.479 73.284Z" fill="#C9187F"/>
</g>
<path d="M678.68 1.77845C678.68 1.54834 678.749 1.36425 678.887 1.22618C679.071 1.04209 679.278 0.950039 679.509 0.950039H687.586C687.816 0.950039 688 1.04209 688.138 1.22618C688.322 1.36425 688.414 1.54834 688.414 1.77845V48.4455C688.414 48.6756 688.322 48.8827 688.138 49.0668C688 49.2049 687.816 49.2739 687.586 49.2739H679.509C679.278 49.2739 679.071 49.2049 678.887 49.0668C678.749 48.8827 678.68 48.6756 678.68 48.4455V29.5302C678.68 29.3001 678.565 29.185 678.335 29.185H667.29C667.059 29.185 666.944 29.3001 666.944 29.5302V48.4455C666.944 48.6756 666.852 48.8827 666.668 49.0668C666.53 49.2049 666.346 49.2739 666.116 49.2739H658.039C657.809 49.2739 657.602 49.2049 657.418 49.0668C657.28 48.8827 657.211 48.6756 657.211 48.4455V1.77845C657.211 1.54834 657.28 1.36425 657.418 1.22618C657.602 1.04209 657.809 0.950039 658.039 0.950039H666.116C666.346 0.950039 666.53 1.04209 666.668 1.22618C666.852 1.36425 666.944 1.54834 666.944 1.77845V20.4177C666.944 20.6478 667.059 20.7628 667.29 20.7628H678.335C678.565 20.7628 678.68 20.6478 678.68 20.4177V1.77845ZM710.623 49.8952C707.447 49.8952 704.64 49.2509 702.201 47.9623C699.808 46.6736 697.944 44.8557 696.609 42.5086C695.274 40.1614 694.607 37.4231 694.607 34.2935V15.9304C694.607 12.8469 695.274 10.1316 696.609 7.78442C697.944 5.43726 699.808 3.61936 702.201 2.33072C704.64 1.04209 707.447 0.397769 710.623 0.397769C713.799 0.397769 716.606 1.04209 719.045 2.33072C721.484 3.61936 723.371 5.43726 724.706 7.78442C726.041 10.1316 726.708 12.8469 726.708 15.9304V34.2935C726.708 37.4231 726.041 40.1614 724.706 42.5086C723.371 44.8557 721.484 46.6736 719.045 47.9623C716.606 49.2509 713.799 49.8952 710.623 49.8952ZM710.623 41.5421C712.556 41.5421 714.098 40.9208 715.248 39.6782C716.399 38.3895 716.974 36.7327 716.974 34.7077V15.6543C716.974 13.5833 716.399 11.9265 715.248 10.6839C714.098 9.39522 712.556 8.7509 710.623 8.7509C708.736 8.7509 707.217 9.39522 706.067 10.6839C704.916 11.9265 704.341 13.5833 704.341 15.6543V34.7077C704.341 36.7327 704.916 38.3895 706.067 39.6782C707.217 40.9208 708.736 41.5421 710.623 41.5421ZM761.989 49.8262C758.86 49.8262 756.098 49.2049 753.705 47.9623C751.312 46.7197 749.448 44.9478 748.113 42.6467C746.825 40.3455 746.18 37.6762 746.18 34.6387V15.4472C746.18 12.4557 746.825 9.83243 748.113 7.57732C749.448 5.27618 751.312 3.5043 753.705 2.26169C756.098 1.01908 758.86 0.397769 761.989 0.397769C765.119 0.397769 767.88 1.01908 770.273 2.26169C772.667 3.45828 774.507 5.16112 775.796 7.37021C777.131 9.57931 777.798 12.1566 777.798 15.102V15.4472C777.798 15.6773 777.706 15.8844 777.522 16.0685C777.384 16.2526 777.2 16.3446 776.97 16.3446L768.893 16.6898C768.34 16.6898 768.064 16.4367 768.064 15.9304V15.033C768.064 13.1461 767.512 11.6273 766.407 10.4767C765.303 9.32618 763.83 8.7509 761.989 8.7509C760.148 8.7509 758.676 9.32618 757.571 10.4767C756.467 11.6273 755.914 13.1461 755.914 15.033V35.26C755.914 37.1469 756.467 38.6657 757.571 39.8163C758.676 40.9208 760.148 41.4731 761.989 41.4731C763.83 41.4731 765.303 40.9208 766.407 39.8163C767.512 38.6657 768.064 37.1469 768.064 35.26V34.3626C768.064 33.8563 768.34 33.6032 768.893 33.6032L776.97 33.9484C777.2 33.9484 777.384 34.0404 777.522 34.2245C777.706 34.3626 777.798 34.5466 777.798 34.7768V34.9839C777.798 37.9293 777.131 40.5296 775.796 42.7847C774.507 45.0398 772.667 46.7887 770.273 48.0313C767.88 49.2279 765.119 49.8262 761.989 49.8262ZM805.49 1.77845C805.49 1.54834 805.559 1.36425 805.697 1.22618C805.881 1.04209 806.088 0.950039 806.318 0.950039H814.395C814.625 0.950039 814.81 1.04209 814.948 1.22618C815.132 1.36425 815.224 1.54834 815.224 1.77845V48.4455C815.224 48.6756 815.132 48.8827 814.948 49.0668C814.81 49.2049 814.625 49.2739 814.395 49.2739H806.318C806.088 49.2739 805.881 49.2049 805.697 49.0668C805.559 48.8827 805.49 48.6756 805.49 48.4455V29.5302C805.49 29.3001 805.375 29.185 805.145 29.185H794.099C793.869 29.185 793.754 29.3001 793.754 29.5302V48.4455C793.754 48.6756 793.662 48.8827 793.478 49.0668C793.34 49.2049 793.156 49.2739 792.926 49.2739H784.849C784.619 49.2739 784.411 49.2049 784.227 49.0668C784.089 48.8827 784.02 48.6756 784.02 48.4455V1.77845C784.02 1.54834 784.089 1.36425 784.227 1.22618C784.411 1.04209 784.619 0.950039 784.849 0.950039H792.926C793.156 0.950039 793.34 1.04209 793.478 1.22618C793.662 1.36425 793.754 1.54834 793.754 1.77845V20.4177C793.754 20.6478 793.869 20.7628 794.099 20.7628H805.145C805.375 20.7628 805.49 20.6478 805.49 20.4177V1.77845ZM823.074 49.2739C822.844 49.2739 822.636 49.2049 822.452 49.0668C822.314 48.8827 822.245 48.6756 822.245 48.4455V1.77845C822.245 1.54834 822.314 1.36425 822.452 1.22618C822.636 1.04209 822.844 0.950039 823.074 0.950039H831.151C831.381 0.950039 831.565 1.04209 831.703 1.22618C831.887 1.36425 831.979 1.54834 831.979 1.77845V48.4455C831.979 48.6756 831.887 48.8827 831.703 49.0668C831.565 49.2049 831.381 49.2739 831.151 49.2739H823.074ZM879.633 1.50231C879.817 1.13413 880.139 0.950039 880.599 0.950039H888.607C888.837 0.950039 889.021 1.04209 889.159 1.22618C889.343 1.36425 889.435 1.54834 889.435 1.77845V48.4455C889.435 48.6756 889.343 48.8827 889.159 49.0668C889.021 49.2049 888.837 49.2739 888.607 49.2739H880.53C880.3 49.2739 880.093 49.2049 879.909 49.0668C879.771 48.8827 879.702 48.6756 879.702 48.4455V17.7944C879.702 17.6103 879.656 17.5182 879.564 17.5182C879.471 17.4722 879.379 17.5182 879.287 17.6563L872.936 28.1495C872.752 28.5177 872.43 28.7018 871.97 28.7018H870.382C869.922 28.7018 869.6 28.5177 869.416 28.1495L863.064 17.6563C862.972 17.5182 862.88 17.4722 862.788 17.5182C862.696 17.5182 862.65 17.6103 862.65 17.7944V48.4455C862.65 48.6756 862.558 48.8827 862.374 49.0668C862.236 49.2049 862.052 49.2739 861.822 49.2739H853.745C853.515 49.2739 853.308 49.2049 853.123 49.0668C852.985 48.8827 852.916 48.6756 852.916 48.4455V1.77845C852.916 1.54834 852.985 1.36425 853.123 1.22618C853.308 1.04209 853.515 0.950039 853.745 0.950039H861.753C862.213 0.950039 862.535 1.13413 862.719 1.50231L871.003 15.102C871.141 15.3782 871.279 15.3782 871.417 15.102L879.633 1.50231ZM897.434 49.2739C897.204 49.2739 896.996 49.2049 896.812 49.0668C896.674 48.8827 896.605 48.6756 896.605 48.4455V1.77845C896.605 1.54834 896.674 1.36425 896.812 1.22618C896.996 1.04209 897.204 0.950039 897.434 0.950039H905.511C905.741 0.950039 905.925 1.04209 906.063 1.22618C906.247 1.36425 906.339 1.54834 906.339 1.77845V48.4455C906.339 48.6756 906.247 48.8827 906.063 49.0668C905.925 49.2049 905.741 49.2739 905.511 49.2739H897.434ZM937.342 1.77845C937.342 1.54834 937.411 1.36425 937.549 1.22618C937.733 1.04209 937.94 0.950039 938.17 0.950039H946.178C946.408 0.950039 946.592 1.04209 946.73 1.22618C946.915 1.36425 947.007 1.54834 947.007 1.77845V48.4455C947.007 48.6756 946.915 48.8827 946.73 49.0668C946.592 49.2049 946.408 49.2739 946.178 49.2739H937.756C937.296 49.2739 936.974 49.0668 936.79 48.6526L923.604 20.5557C923.512 20.4177 923.42 20.3486 923.328 20.3486C923.236 20.3486 923.19 20.4407 923.19 20.6248L923.259 48.4455C923.259 48.6756 923.167 48.8827 922.983 49.0668C922.845 49.2049 922.661 49.2739 922.43 49.2739H914.423C914.192 49.2739 913.985 49.2049 913.801 49.0668C913.663 48.8827 913.594 48.6756 913.594 48.4455V1.77845C913.594 1.54834 913.663 1.36425 913.801 1.22618C913.985 1.04209 914.192 0.950039 914.423 0.950039H922.776C923.236 0.950039 923.558 1.15714 923.742 1.57135L936.928 29.6682C937.02 29.8063 937.112 29.8753 937.204 29.8753C937.296 29.8753 937.342 29.7833 937.342 29.5992V1.77845ZM975.783 1.77845C975.783 1.54834 975.852 1.36425 975.99 1.22618C976.174 1.04209 976.381 0.950039 976.611 0.950039H984.688C984.919 0.950039 985.103 1.04209 985.241 1.22618C985.425 1.36425 985.517 1.54834 985.517 1.77845V48.4455C985.517 48.6756 985.425 48.8827 985.241 49.0668C985.103 49.2049 984.919 49.2739 984.688 49.2739H976.611C976.381 49.2739 976.174 49.2049 975.99 49.0668C975.852 48.8827 975.783 48.6756 975.783 48.4455V29.5302C975.783 29.3001 975.668 29.185 975.438 29.185H964.392C964.162 29.185 964.047 29.3001 964.047 29.5302V48.4455C964.047 48.6756 963.955 48.8827 963.771 49.0668C963.633 49.2049 963.449 49.2739 963.219 49.2739H955.142C954.912 49.2739 954.705 49.2049 954.521 49.0668C954.382 48.8827 954.313 48.6756 954.313 48.4455V1.77845C954.313 1.54834 954.382 1.36425 954.521 1.22618C954.705 1.04209 954.912 0.950039 955.142 0.950039H963.219C963.449 0.950039 963.633 1.04209 963.771 1.22618C963.955 1.36425 964.047 1.54834 964.047 1.77845V20.4177C964.047 20.6478 964.162 20.7628 964.392 20.7628H975.438C975.668 20.7628 975.783 20.6478 975.783 20.4177V1.77845ZM1021.34 49.8262C1018.21 49.8262 1015.45 49.2049 1013.06 47.9623C1010.66 46.7197 1008.8 44.9478 1007.46 42.6467C1006.17 40.3455 1005.53 37.6762 1005.53 34.6387V15.4472C1005.53 12.4557 1006.17 9.83243 1007.46 7.57732C1008.8 5.27618 1010.66 3.5043 1013.06 2.26169C1015.45 1.01908 1018.21 0.397769 1021.34 0.397769C1024.47 0.397769 1027.23 1.01908 1029.62 2.26169C1032.02 3.45828 1033.86 5.16112 1035.15 7.37021C1036.48 9.57931 1037.15 12.1566 1037.15 15.102V15.4472C1037.15 15.6773 1037.06 15.8844 1036.87 16.0685C1036.73 16.2526 1036.55 16.3446 1036.32 16.3446L1028.24 16.6898C1027.69 16.6898 1027.41 16.4367 1027.41 15.9304V15.033C1027.41 13.1461 1026.86 11.6273 1025.76 10.4767C1024.65 9.32618 1023.18 8.7509 1021.34 8.7509C1019.5 8.7509 1018.03 9.32618 1016.92 10.4767C1015.82 11.6273 1015.26 13.1461 1015.26 15.033V35.26C1015.26 37.1469 1015.82 38.6657 1016.92 39.8163C1018.03 40.9208 1019.5 41.4731 1021.34 41.4731C1023.18 41.4731 1024.65 40.9208 1025.76 39.8163C1026.86 38.6657 1027.41 37.1469 1027.41 35.26V34.3626C1027.41 33.8563 1027.69 33.6032 1028.24 33.6032L1036.32 33.9484C1036.55 33.9484 1036.73 34.0404 1036.87 34.2245C1037.06 34.3626 1037.15 34.5466 1037.15 34.7768V34.9839C1037.15 37.9293 1036.48 40.5296 1035.15 42.7847C1033.86 45.0398 1032.02 46.7887 1029.62 48.0313C1027.23 49.2279 1024.47 49.8262 1021.34 49.8262ZM1044.2 49.2739C1043.97 49.2739 1043.76 49.2049 1043.58 49.0668C1043.44 48.8827 1043.37 48.6756 1043.37 48.4455V1.77845C1043.37 1.54834 1043.44 1.36425 1043.58 1.22618C1043.76 1.04209 1043.97 0.950039 1044.2 0.950039H1052.28C1052.51 0.950039 1052.69 1.04209 1052.83 1.22618C1053.01 1.36425 1053.1 1.54834 1053.1 1.77845V48.4455C1053.1 48.6756 1053.01 48.8827 1052.83 49.0668C1052.69 49.2049 1052.51 49.2739 1052.28 49.2739H1044.2ZM1090.39 0.950039C1090.62 0.950039 1090.8 1.04209 1090.94 1.22618C1091.13 1.36425 1091.22 1.54834 1091.22 1.77845V8.54379C1091.22 8.77391 1091.13 8.98101 1090.94 9.1651C1090.8 9.30317 1090.62 9.3722 1090.39 9.3722H1079.9C1079.67 9.3722 1079.55 9.48726 1079.55 9.71737V48.4455C1079.55 48.6756 1079.46 48.8827 1079.27 49.0668C1079.14 49.2049 1078.95 49.2739 1078.72 49.2739H1070.65C1070.42 49.2739 1070.21 49.2049 1070.02 49.0668C1069.89 48.8827 1069.82 48.6756 1069.82 48.4455V9.71737C1069.82 9.48726 1069.7 9.3722 1069.47 9.3722H1059.32C1059.09 9.3722 1058.89 9.30317 1058.7 9.1651C1058.56 8.98101 1058.5 8.77391 1058.5 8.54379V1.77845C1058.5 1.54834 1058.56 1.36425 1058.7 1.22618C1058.89 1.04209 1059.09 0.950039 1059.32 0.950039H1090.39ZM1107.81 49.2049C1107.58 49.2049 1107.37 49.1359 1107.19 48.9978C1107.05 48.8137 1106.98 48.6066 1106.98 48.3765V30.7037L1106.91 30.2895L1094.97 1.91652C1094.92 1.82447 1094.9 1.6864 1094.9 1.50231C1094.9 1.13413 1095.13 0.950039 1095.59 0.950039H1104.29C1104.8 0.950039 1105.12 1.18015 1105.26 1.64038L1111.68 19.106C1111.72 19.2441 1111.79 19.3131 1111.88 19.3131C1111.98 19.3131 1112.04 19.2441 1112.09 19.106L1118.51 1.64038C1118.65 1.18015 1118.97 0.950039 1119.48 0.950039H1128.18C1128.5 0.950039 1128.71 1.04209 1128.8 1.22618C1128.89 1.41027 1128.89 1.64038 1128.8 1.91652L1116.79 30.2895L1116.72 30.7037V48.3765C1116.72 48.6066 1116.62 48.8137 1116.44 48.9978C1116.3 49.1359 1116.12 49.2049 1115.89 49.2049H1107.81ZM1173.74 49.2739C1173.24 49.2739 1172.92 49.0438 1172.78 48.5836L1171.19 41.8182C1171.14 41.6341 1171.03 41.5421 1170.85 41.5421H1157.94C1157.75 41.5421 1157.64 41.6341 1157.59 41.8182L1156 48.5836C1155.87 49.0438 1155.57 49.2739 1155.11 49.2739H1146.75C1146.15 49.2739 1145.92 48.9748 1146.06 48.3765L1158.49 1.64038C1158.63 1.18015 1158.95 0.950039 1159.45 0.950039H1169.46C1169.97 0.950039 1170.29 1.18015 1170.43 1.64038L1182.86 48.3765L1182.93 48.6526C1182.93 49.0668 1182.67 49.2739 1182.17 49.2739H1173.74ZM1159.45 33.6032C1159.41 33.7412 1159.43 33.8563 1159.52 33.9484C1159.62 33.9944 1159.71 34.0174 1159.8 34.0174H1168.91C1169 34.0174 1169.1 33.9944 1169.19 33.9484C1169.28 33.8563 1169.3 33.7412 1169.26 33.6032L1164.49 13.5833C1164.45 13.3992 1164.38 13.3071 1164.29 13.3071C1164.2 13.3071 1164.13 13.3992 1164.08 13.5833L1159.45 33.6032ZM1200.18 49.8262C1197.01 49.8262 1194.22 49.2739 1191.83 48.1694C1189.44 47.0188 1187.57 45.431 1186.24 43.406C1184.95 41.335 1184.3 38.9648 1184.3 36.2955V34.5006C1184.3 34.2705 1184.37 34.0864 1184.51 33.9484C1184.7 33.7643 1184.9 33.6722 1185.13 33.6722H1193.07C1193.3 33.6722 1193.49 33.7643 1193.62 33.9484C1193.81 34.0864 1193.9 34.2705 1193.9 34.5006V35.8123C1193.9 37.4231 1194.5 38.7807 1195.7 39.8853C1196.89 40.9438 1198.5 41.4731 1200.53 41.4731C1202.32 41.4731 1203.68 41.0128 1204.6 40.0924C1205.57 39.1719 1206.05 37.9984 1206.05 36.5716C1206.05 35.5131 1205.75 34.6157 1205.15 33.8793C1204.55 33.0969 1203.7 32.3836 1202.6 31.7393C1201.54 31.0489 1199.88 30.1285 1197.63 28.9779C1194.87 27.5972 1192.61 26.3086 1190.86 25.112C1189.11 23.9154 1187.62 22.3736 1186.38 20.4867C1185.13 18.5998 1184.51 16.3216 1184.51 13.6523C1184.51 10.983 1185.13 8.65885 1186.38 6.67987C1187.66 4.65487 1189.46 3.11311 1191.76 2.05459C1194.06 0.950042 1196.69 0.397769 1199.63 0.397769C1202.71 0.397769 1205.45 0.996064 1207.85 2.19265C1210.24 3.34322 1212.1 4.97703 1213.44 7.09408C1214.77 9.21113 1215.44 11.6503 1215.44 14.4117V15.7924C1215.44 16.0225 1215.35 16.2296 1215.16 16.4137C1215.03 16.5518 1214.84 16.6208 1214.61 16.6208H1206.67C1206.44 16.6208 1206.23 16.5518 1206.05 16.4137C1205.91 16.2296 1205.84 16.0225 1205.84 15.7924V14.5498C1205.84 12.8929 1205.27 11.5123 1204.12 10.4077C1202.97 9.30317 1201.4 8.7509 1199.42 8.7509C1197.77 8.7509 1196.45 9.18811 1195.49 10.0625C1194.57 10.891 1194.11 12.0645 1194.11 13.5833C1194.11 14.6418 1194.38 15.5623 1194.94 16.3446C1195.49 17.127 1196.34 17.8864 1197.49 18.6228C1198.64 19.3131 1200.39 20.2336 1202.74 21.3841L1204.19 22.2125C1206.86 23.6853 1208.93 24.9739 1210.4 26.0785C1211.92 27.137 1213.18 28.4947 1214.2 30.1515C1215.21 31.8083 1215.72 33.8103 1215.72 36.1574C1215.72 40.3455 1214.29 43.6822 1211.44 46.1674C1208.63 48.6066 1204.88 49.8262 1200.18 49.8262ZM1236.05 49.8262C1232.87 49.8262 1230.09 49.2739 1227.7 48.1694C1225.3 47.0188 1223.44 45.431 1222.1 43.406C1220.81 41.335 1220.17 38.9648 1220.17 36.2955V34.5006C1220.17 34.2705 1220.24 34.0864 1220.38 33.9484C1220.56 33.7643 1220.77 33.6722 1221 33.6722H1228.94C1229.17 33.6722 1229.35 33.7643 1229.49 33.9484C1229.67 34.0864 1229.77 34.2705 1229.77 34.5006V35.8123C1229.77 37.4231 1230.36 38.7807 1231.56 39.8853C1232.76 40.9438 1234.37 41.4731 1236.39 41.4731C1238.19 41.4731 1239.55 41.0128 1240.47 40.0924C1241.43 39.1719 1241.92 37.9984 1241.92 36.5716C1241.92 35.5131 1241.62 34.6157 1241.02 33.8793C1240.42 33.0969 1239.57 32.3836 1238.46 31.7393C1237.41 31.0489 1235.75 30.1285 1233.49 28.9779C1230.73 27.5972 1228.48 26.3086 1226.73 25.112C1224.98 23.9154 1223.48 22.3736 1222.24 20.4867C1221 18.5998 1220.38 16.3216 1220.38 13.6523C1220.38 10.983 1221 8.65885 1222.24 6.67987C1223.53 4.65487 1225.32 3.11311 1227.63 2.05459C1229.93 0.950042 1232.55 0.397769 1235.5 0.397769C1238.58 0.397769 1241.32 0.996064 1243.71 2.19265C1246.1 3.34322 1247.97 4.97703 1249.3 7.09408C1250.64 9.21113 1251.3 11.6503 1251.3 14.4117V15.7924C1251.3 16.0225 1251.21 16.2296 1251.03 16.4137C1250.89 16.5518 1250.71 16.6208 1250.48 16.6208H1242.54C1242.31 16.6208 1242.1 16.5518 1241.92 16.4137C1241.78 16.2296 1241.71 16.0225 1241.71 15.7924V14.5498C1241.71 12.8929 1241.13 11.5123 1239.98 10.4077C1238.83 9.30317 1237.27 8.7509 1235.29 8.7509C1233.63 8.7509 1232.32 9.18811 1231.35 10.0625C1230.43 10.891 1229.97 12.0645 1229.97 13.5833C1229.97 14.6418 1230.25 15.5623 1230.8 16.3446C1231.35 17.127 1232.21 17.8864 1233.36 18.6228C1234.51 19.3131 1236.26 20.2336 1238.6 21.3841L1240.05 22.2125C1242.72 23.6853 1244.79 24.9739 1246.27 26.0785C1247.78 27.137 1249.05 28.4947 1250.06 30.1515C1251.07 31.8083 1251.58 33.8103 1251.58 36.1574C1251.58 40.3455 1250.15 43.6822 1247.3 46.1674C1244.49 48.6066 1240.74 49.8262 1236.05 49.8262ZM1272.6 49.8952C1269.43 49.8952 1266.62 49.2509 1264.18 47.9623C1261.79 46.6736 1259.92 44.8557 1258.59 42.5086C1257.26 40.1614 1256.59 37.4231 1256.59 34.2935V15.9304C1256.59 12.8469 1257.26 10.1316 1258.59 7.78442C1259.92 5.43726 1261.79 3.61936 1264.18 2.33072C1266.62 1.04209 1269.43 0.397769 1272.6 0.397769C1275.78 0.397769 1278.59 1.04209 1281.03 2.33072C1283.47 3.61936 1285.35 5.43726 1286.69 7.78442C1288.02 10.1316 1288.69 12.8469 1288.69 15.9304V34.2935C1288.69 37.4231 1288.02 40.1614 1286.69 42.5086C1285.35 44.8557 1283.47 46.6736 1281.03 47.9623C1278.59 49.2509 1275.78 49.8952 1272.6 49.8952ZM1272.6 41.5421C1274.54 41.5421 1276.08 40.9208 1277.23 39.6782C1278.38 38.3895 1278.96 36.7327 1278.96 34.7077V15.6543C1278.96 13.5833 1278.38 11.9265 1277.23 10.6839C1276.08 9.39522 1274.54 8.7509 1272.6 8.7509C1270.72 8.7509 1269.2 9.39522 1268.05 10.6839C1266.9 11.9265 1266.32 13.5833 1266.32 15.6543V34.7077C1266.32 36.7327 1266.9 38.3895 1268.05 39.6782C1269.2 40.9208 1270.72 41.5421 1272.6 41.5421ZM1310.15 49.8262C1307.02 49.8262 1304.26 49.2049 1301.87 47.9623C1299.47 46.7197 1297.61 44.9478 1296.27 42.6467C1294.99 40.3455 1294.34 37.6762 1294.34 34.6387V15.4472C1294.34 12.4557 1294.99 9.83243 1296.27 7.57732C1297.61 5.27618 1299.47 3.5043 1301.87 2.26169C1304.26 1.01908 1307.02 0.397769 1310.15 0.397769C1313.28 0.397769 1316.04 1.01908 1318.43 2.26169C1320.83 3.45828 1322.67 5.16112 1323.96 7.37021C1325.29 9.57931 1325.96 12.1566 1325.96 15.102V15.4472C1325.96 15.6773 1325.87 15.8844 1325.68 16.0685C1325.54 16.2526 1325.36 16.3446 1325.13 16.3446L1317.05 16.6898C1316.5 16.6898 1316.22 16.4367 1316.22 15.9304V15.033C1316.22 13.1461 1315.67 11.6273 1314.57 10.4767C1313.46 9.32618 1311.99 8.7509 1310.15 8.7509C1308.31 8.7509 1306.84 9.32618 1305.73 10.4767C1304.63 11.6273 1304.07 13.1461 1304.07 15.033V35.26C1304.07 37.1469 1304.63 38.6657 1305.73 39.8163C1306.84 40.9208 1308.31 41.4731 1310.15 41.4731C1311.99 41.4731 1313.46 40.9208 1314.57 39.8163C1315.67 38.6657 1316.22 37.1469 1316.22 35.26V34.3626C1316.22 33.8563 1316.5 33.6032 1317.05 33.6032L1325.13 33.9484C1325.36 33.9484 1325.54 34.0404 1325.68 34.2245C1325.87 34.3626 1325.96 34.5466 1325.96 34.7768V34.9839C1325.96 37.9293 1325.29 40.5296 1323.96 42.7847C1322.67 45.0398 1320.83 46.7887 1318.43 48.0313C1316.04 49.2279 1313.28 49.8262 1310.15 49.8262ZM1333.01 49.2739C1332.78 49.2739 1332.57 49.2049 1332.39 49.0668C1332.25 48.8827 1332.18 48.6756 1332.18 48.4455V1.77845C1332.18 1.54834 1332.25 1.36425 1332.39 1.22618C1332.57 1.04209 1332.78 0.950039 1333.01 0.950039H1341.09C1341.32 0.950039 1341.5 1.04209 1341.64 1.22618C1341.82 1.36425 1341.91 1.54834 1341.91 1.77845V48.4455C1341.91 48.6756 1341.82 48.8827 1341.64 49.0668C1341.5 49.2049 1341.32 49.2739 1341.09 49.2739H1333.01ZM1374.71 49.2739C1374.21 49.2739 1373.88 49.0438 1373.75 48.5836L1372.16 41.8182C1372.11 41.6341 1372 41.5421 1371.81 41.5421H1358.9C1358.72 41.5421 1358.6 41.6341 1358.56 41.8182L1356.97 48.5836C1356.83 49.0438 1356.53 49.2739 1356.07 49.2739H1347.72C1347.12 49.2739 1346.89 48.9748 1347.03 48.3765L1359.46 1.64038C1359.59 1.18015 1359.92 0.950039 1360.42 0.950039H1370.43C1370.94 0.950039 1371.26 1.18015 1371.4 1.64038L1383.82 48.3765L1383.89 48.6526C1383.89 49.0668 1383.64 49.2739 1383.13 49.2739H1374.71ZM1360.42 33.6032C1360.38 33.7412 1360.4 33.8563 1360.49 33.9484C1360.58 33.9944 1360.68 34.0174 1360.77 34.0174H1369.88C1369.97 34.0174 1370.06 33.9944 1370.16 33.9484C1370.25 33.8563 1370.27 33.7412 1370.23 33.6032L1365.46 13.5833C1365.42 13.3992 1365.35 13.3071 1365.25 13.3071C1365.16 13.3071 1365.09 13.3992 1365.05 13.5833L1360.42 33.6032ZM1413.99 0.950039C1414.22 0.950039 1414.4 1.04209 1414.54 1.22618C1414.72 1.36425 1414.81 1.54834 1414.81 1.77845V8.54379C1414.81 8.77391 1414.72 8.98101 1414.54 9.1651C1414.4 9.30317 1414.22 9.3722 1413.99 9.3722H1403.49C1403.26 9.3722 1403.15 9.48726 1403.15 9.71737V48.4455C1403.15 48.6756 1403.06 48.8827 1402.87 49.0668C1402.73 49.2049 1402.55 49.2739 1402.32 49.2739H1394.24C1394.01 49.2739 1393.81 49.2049 1393.62 49.0668C1393.48 48.8827 1393.41 48.6756 1393.41 48.4455V9.71737C1393.41 9.48726 1393.3 9.3722 1393.07 9.3722H1382.92C1382.69 9.3722 1382.48 9.30317 1382.3 9.1651C1382.16 8.98101 1382.09 8.77391 1382.09 8.54379V1.77845C1382.09 1.54834 1382.16 1.36425 1382.3 1.22618C1382.48 1.04209 1382.69 0.950039 1382.92 0.950039H1413.99ZM1421.12 49.2739C1420.89 49.2739 1420.68 49.2049 1420.5 49.0668C1420.36 48.8827 1420.29 48.6756 1420.29 48.4455V1.77845C1420.29 1.54834 1420.36 1.36425 1420.5 1.22618C1420.68 1.04209 1420.89 0.950039 1421.12 0.950039H1429.2C1429.43 0.950039 1429.61 1.04209 1429.75 1.22618C1429.94 1.36425 1430.03 1.54834 1430.03 1.77845V48.4455C1430.03 48.6756 1429.94 48.8827 1429.75 49.0668C1429.61 49.2049 1429.43 49.2739 1429.2 49.2739H1421.12ZM1452.47 49.8952C1449.29 49.8952 1446.49 49.2509 1444.05 47.9623C1441.65 46.6736 1439.79 44.8557 1438.46 42.5086C1437.12 40.1614 1436.45 37.4231 1436.45 34.2935V15.9304C1436.45 12.8469 1437.12 10.1316 1438.46 7.78442C1439.79 5.43726 1441.65 3.61936 1444.05 2.33072C1446.49 1.04209 1449.29 0.397769 1452.47 0.397769C1455.65 0.397769 1458.45 1.04209 1460.89 2.33072C1463.33 3.61936 1465.22 5.43726 1466.55 7.78442C1467.89 10.1316 1468.56 12.8469 1468.56 15.9304V34.2935C1468.56 37.4231 1467.89 40.1614 1466.55 42.5086C1465.22 44.8557 1463.33 46.6736 1460.89 47.9623C1458.45 49.2509 1455.65 49.8952 1452.47 49.8952ZM1452.47 41.5421C1454.4 41.5421 1455.94 40.9208 1457.1 39.6782C1458.25 38.3895 1458.82 36.7327 1458.82 34.7077V15.6543C1458.82 13.5833 1458.25 11.9265 1457.1 10.6839C1455.94 9.39522 1454.4 8.7509 1452.47 8.7509C1450.58 8.7509 1449.06 9.39522 1447.91 10.6839C1446.76 11.9265 1446.19 13.5833 1446.19 15.6543V34.7077C1446.19 36.7327 1446.76 38.3895 1447.91 39.6782C1449.06 40.9208 1450.58 41.5421 1452.47 41.5421ZM1498.78 1.77845C1498.78 1.54834 1498.85 1.36425 1498.99 1.22618C1499.17 1.04209 1499.38 0.950039 1499.61 0.950039H1507.62C1507.85 0.950039 1508.03 1.04209 1508.17 1.22618C1508.36 1.36425 1508.45 1.54834 1508.45 1.77845V48.4455C1508.45 48.6756 1508.36 48.8827 1508.17 49.0668C1508.03 49.2049 1507.85 49.2739 1507.62 49.2739H1499.2C1498.74 49.2739 1498.42 49.0668 1498.23 48.6526L1485.05 20.5557C1484.95 20.4177 1484.86 20.3486 1484.77 20.3486C1484.68 20.3486 1484.63 20.4407 1484.63 20.6248L1484.7 48.4455C1484.7 48.6756 1484.61 48.8827 1484.42 49.0668C1484.29 49.2049 1484.1 49.2739 1483.87 49.2739H1475.86C1475.63 49.2739 1475.43 49.2049 1475.24 49.0668C1475.1 48.8827 1475.04 48.6756 1475.04 48.4455V1.77845C1475.04 1.54834 1475.1 1.36425 1475.24 1.22618C1475.43 1.04209 1475.63 0.950039 1475.86 0.950039H1484.22C1484.68 0.950039 1485 1.15714 1485.18 1.57135L1498.37 29.6682C1498.46 29.8063 1498.55 29.8753 1498.65 29.8753C1498.74 29.8753 1498.78 29.7833 1498.78 29.5992V1.77845ZM1558.91 8.47476C1558.91 8.70487 1558.82 8.91198 1558.64 9.09607C1558.5 9.23413 1558.32 9.30317 1558.09 9.30317H1539.65C1539.42 9.30317 1539.31 9.41823 1539.31 9.64834V20.4177C1539.31 20.6478 1539.42 20.7628 1539.65 20.7628H1551.11C1551.34 20.7628 1551.53 20.8549 1551.67 21.039C1551.85 21.177 1551.94 21.3611 1551.94 21.5912V28.2876C1551.94 28.5177 1551.85 28.7248 1551.67 28.9089C1551.53 29.0469 1551.34 29.116 1551.11 29.116H1539.65C1539.42 29.116 1539.31 29.231 1539.31 29.4611V48.4455C1539.31 48.6756 1539.22 48.8827 1539.03 49.0668C1538.89 49.2049 1538.71 49.2739 1538.48 49.2739H1530.4C1530.17 49.2739 1529.97 49.2049 1529.78 49.0668C1529.64 48.8827 1529.58 48.6756 1529.58 48.4455V1.77845C1529.58 1.54834 1529.64 1.36425 1529.78 1.22618C1529.97 1.04209 1530.17 0.950039 1530.4 0.950039H1558.09C1558.32 0.950039 1558.5 1.04209 1558.64 1.22618C1558.82 1.36425 1558.91 1.54834 1558.91 1.77845V8.47476ZM1578.54 49.8952C1575.36 49.8952 1572.56 49.2509 1570.12 47.9623C1567.72 46.6736 1565.86 44.8557 1564.52 42.5086C1563.19 40.1614 1562.52 37.4231 1562.52 34.2935V15.9304C1562.52 12.8469 1563.19 10.1316 1564.52 7.78442C1565.86 5.43726 1567.72 3.61936 1570.12 2.33072C1572.56 1.04209 1575.36 0.397769 1578.54 0.397769C1581.71 0.397769 1584.52 1.04209 1586.96 2.33072C1589.4 3.61936 1591.29 5.43726 1592.62 7.78442C1593.96 10.1316 1594.62 12.8469 1594.62 15.9304V34.2935C1594.62 37.4231 1593.96 40.1614 1592.62 42.5086C1591.29 44.8557 1589.4 46.6736 1586.96 47.9623C1584.52 49.2509 1581.71 49.8952 1578.54 49.8952ZM1578.54 41.5421C1580.47 41.5421 1582.01 40.9208 1583.16 39.6782C1584.31 38.3895 1584.89 36.7327 1584.89 34.7077V15.6543C1584.89 13.5833 1584.31 11.9265 1583.16 10.6839C1582.01 9.39522 1580.47 8.7509 1578.54 8.7509C1576.65 8.7509 1575.13 9.39522 1573.98 10.6839C1572.83 11.9265 1572.26 13.5833 1572.26 15.6543V34.7077C1572.26 36.7327 1572.83 38.3895 1573.98 39.6782C1575.13 40.9208 1576.65 41.5421 1578.54 41.5421ZM1623.82 49.2739C1623.31 49.2739 1622.99 49.0438 1622.85 48.5836L1615.88 29.5302C1615.79 29.3461 1615.67 29.254 1615.53 29.254H1611.18C1610.95 29.254 1610.84 29.3691 1610.84 29.5992V48.4455C1610.84 48.6756 1610.75 48.8827 1610.56 49.0668C1610.42 49.2049 1610.24 49.2739 1610.01 49.2739H1601.93C1601.7 49.2739 1601.5 49.2049 1601.31 49.0668C1601.17 48.8827 1601.1 48.6756 1601.1 48.4455V1.77845C1601.1 1.54834 1601.17 1.36425 1601.31 1.22618C1601.5 1.04209 1601.7 0.950039 1601.93 0.950039H1618.78C1621.49 0.950039 1623.91 1.57135 1626.03 2.81396C1628.14 4.01055 1629.78 5.7134 1630.93 7.92249C1632.08 10.1316 1632.65 12.6628 1632.65 15.5162C1632.65 18.4617 1632.01 21.016 1630.72 23.179C1629.43 25.3421 1627.61 26.9529 1625.27 28.0114C1625.04 28.1035 1624.97 28.2645 1625.06 28.4947L1632.93 48.3074C1632.97 48.3995 1633 48.5146 1633 48.6526C1633 49.0668 1632.74 49.2739 1632.24 49.2739H1623.82ZM1611.18 9.30317C1610.95 9.30317 1610.84 9.41823 1610.84 9.64834V21.4532C1610.84 21.6833 1610.95 21.7983 1611.18 21.7983H1617.19C1618.89 21.7983 1620.27 21.2461 1621.33 20.1415C1622.39 18.991 1622.92 17.4722 1622.92 15.5853C1622.92 13.6523 1622.39 12.1336 1621.33 11.029C1620.27 9.87845 1618.89 9.30317 1617.19 9.30317H1611.18ZM666.806 132.274C666.346 132.274 666.047 132.044 665.909 131.584L655.071 84.8475V84.5713C655.071 84.1571 655.324 83.95 655.83 83.95H664.321C664.873 83.95 665.173 84.2032 665.219 84.7094L670.465 111.219C670.511 111.357 670.58 111.426 670.672 111.426C670.764 111.426 670.833 111.357 670.879 111.219L675.919 84.7094C675.965 84.2032 676.264 83.95 676.816 83.95H684.479C684.985 83.95 685.284 84.2032 685.376 84.7094L690.899 111.219C690.945 111.357 691.014 111.426 691.106 111.426C691.198 111.426 691.267 111.357 691.313 111.219L696.284 84.7094C696.33 84.2032 696.629 83.95 697.181 83.95H705.327C705.926 83.95 706.156 84.2492 706.018 84.8475L695.939 131.515C695.847 132.021 695.548 132.274 695.041 132.274H687.24C686.734 132.274 686.435 132.021 686.343 131.515L680.751 103.763C680.705 103.625 680.636 103.556 680.544 103.556C680.452 103.556 680.383 103.625 680.337 103.763L675.298 131.515C675.251 132.021 674.952 132.274 674.4 132.274H666.806ZM724.713 132.895C721.537 132.895 718.73 132.251 716.291 130.962C713.898 129.674 712.034 127.856 710.699 125.509C709.364 123.161 708.697 120.423 708.697 117.294V98.9304C708.697 95.8469 709.364 93.1316 710.699 90.7844C712.034 88.4373 713.898 86.6194 716.291 85.3307C718.73 84.0421 721.537 83.3978 724.713 83.3978C727.889 83.3978 730.696 84.0421 733.135 85.3307C735.574 86.6194 737.461 88.4373 738.796 90.7844C740.131 93.1316 740.798 95.8469 740.798 98.9304V117.294C740.798 120.423 740.131 123.161 738.796 125.509C737.461 127.856 735.574 129.674 733.135 130.962C730.696 132.251 727.889 132.895 724.713 132.895ZM724.713 124.542C726.646 124.542 728.188 123.921 729.338 122.678C730.489 121.39 731.064 119.733 731.064 117.708V98.6543C731.064 96.5833 730.489 94.9265 729.338 93.6839C728.188 92.3952 726.646 91.7509 724.713 91.7509C722.826 91.7509 721.307 92.3952 720.157 93.6839C719.006 94.9265 718.431 96.5833 718.431 98.6543V117.708C718.431 119.733 719.006 121.39 720.157 122.678C721.307 123.921 722.826 124.542 724.713 124.542ZM773.857 84.5023C774.041 84.1341 774.363 83.95 774.823 83.95H782.831C783.061 83.95 783.245 84.0421 783.383 84.2262C783.567 84.3642 783.659 84.5483 783.659 84.7785V131.446C783.659 131.676 783.567 131.883 783.383 132.067C783.245 132.205 783.061 132.274 782.831 132.274H774.754C774.524 132.274 774.317 132.205 774.133 132.067C773.995 131.883 773.926 131.676 773.926 131.446V100.794C773.926 100.61 773.88 100.518 773.788 100.518C773.696 100.472 773.604 100.518 773.511 100.656L767.16 111.149C766.976 111.518 766.654 111.702 766.194 111.702H764.606C764.146 111.702 763.824 111.518 763.64 111.149L757.288 100.656C757.196 100.518 757.104 100.472 757.012 100.518C756.92 100.518 756.874 100.61 756.874 100.794V131.446C756.874 131.676 756.782 131.883 756.598 132.067C756.46 132.205 756.276 132.274 756.046 132.274H747.969C747.739 132.274 747.532 132.205 747.348 132.067C747.209 131.883 747.14 131.676 747.14 131.446V84.7785C747.14 84.5483 747.209 84.3642 747.348 84.2262C747.532 84.0421 747.739 83.95 747.969 83.95H755.977C756.437 83.95 756.759 84.1341 756.943 84.5023L765.227 98.102C765.365 98.3782 765.504 98.3782 765.642 98.102L773.857 84.5023ZM820.238 91.4748C820.238 91.7049 820.146 91.912 819.962 92.0961C819.824 92.2341 819.64 92.3032 819.409 92.3032H800.908C800.678 92.3032 800.563 92.4182 800.563 92.6483V103.418C800.563 103.648 800.678 103.763 800.908 103.763H812.437C812.667 103.763 812.851 103.855 812.989 104.039C813.173 104.177 813.265 104.361 813.265 104.591V111.288C813.265 111.518 813.173 111.725 812.989 111.909C812.851 112.047 812.667 112.116 812.437 112.116H800.908C800.678 112.116 800.563 112.231 800.563 112.461V123.576C800.563 123.806 800.678 123.921 800.908 123.921H819.409C819.64 123.921 819.824 124.013 819.962 124.197C820.146 124.335 820.238 124.519 820.238 124.749V131.446C820.238 131.676 820.146 131.883 819.962 132.067C819.824 132.205 819.64 132.274 819.409 132.274H791.658C791.428 132.274 791.221 132.205 791.036 132.067C790.898 131.883 790.829 131.676 790.829 131.446V84.7785C790.829 84.5483 790.898 84.3642 791.036 84.2262C791.221 84.0421 791.428 83.95 791.658 83.95H819.409C819.64 83.95 819.824 84.0421 819.962 84.2262C820.146 84.3642 820.238 84.5483 820.238 84.7785V91.4748ZM849.836 84.7785C849.836 84.5483 849.905 84.3642 850.043 84.2262C850.227 84.0421 850.434 83.95 850.664 83.95H858.672C858.902 83.95 859.086 84.0421 859.224 84.2262C859.408 84.3642 859.5 84.5483 859.5 84.7785V131.446C859.5 131.676 859.408 131.883 859.224 132.067C859.086 132.205 858.902 132.274 858.672 132.274H850.25C849.79 132.274 849.468 132.067 849.283 131.653L836.098 103.556C836.006 103.418 835.914 103.349 835.822 103.349C835.73 103.349 835.684 103.441 835.684 103.625L835.753 131.446C835.753 131.676 835.661 131.883 835.477 132.067C835.339 132.205 835.154 132.274 834.924 132.274H826.916C826.686 132.274 826.479 132.205 826.295 132.067C826.157 131.883 826.088 131.676 826.088 131.446V84.7785C826.088 84.5483 826.157 84.3642 826.295 84.2262C826.479 84.0421 826.686 83.95 826.916 83.95H835.27C835.73 83.95 836.052 84.1571 836.236 84.5713L849.422 112.668C849.514 112.806 849.606 112.875 849.698 112.875C849.79 112.875 849.836 112.783 849.836 112.599V84.7785ZM910.036 91.4748C910.036 91.7049 909.944 91.912 909.76 92.0961C909.622 92.2341 909.438 92.3032 909.208 92.3032H890.707C890.476 92.3032 890.361 92.4182 890.361 92.6483V103.418C890.361 103.648 890.476 103.763 890.707 103.763H902.235C902.465 103.763 902.65 103.855 902.788 104.039C902.972 104.177 903.064 104.361 903.064 104.591V111.288C903.064 111.518 902.972 111.725 902.788 111.909C902.65 112.047 902.465 112.116 902.235 112.116H890.707C890.476 112.116 890.361 112.231 890.361 112.461V123.576C890.361 123.806 890.476 123.921 890.707 123.921H909.208C909.438 123.921 909.622 124.013 909.76 124.197C909.944 124.335 910.036 124.519 910.036 124.749V131.446C910.036 131.676 909.944 131.883 909.76 132.067C909.622 132.205 909.438 132.274 909.208 132.274H881.456C881.226 132.274 881.019 132.205 880.835 132.067C880.697 131.883 880.628 131.676 880.628 131.446V84.7785C880.628 84.5483 880.697 84.3642 880.835 84.2262C881.019 84.0421 881.226 83.95 881.456 83.95H909.208C909.438 83.95 909.622 84.0421 909.76 84.2262C909.944 84.3642 910.036 84.5483 910.036 84.7785V91.4748ZM914.851 132.274C914.529 132.274 914.298 132.205 914.16 132.067C914.068 131.883 914.091 131.63 914.229 131.307L925.62 108.319C925.666 108.181 925.666 108.043 925.62 107.905L914.229 84.9165C914.137 84.7324 914.091 84.5944 914.091 84.5023C914.091 84.1341 914.344 83.95 914.851 83.95H923.342C923.802 83.95 924.124 84.1571 924.308 84.5713L931.143 99.1375C931.281 99.4137 931.419 99.4137 931.557 99.1375L938.322 84.5713C938.506 84.1571 938.829 83.95 939.289 83.95H947.78C948.102 83.95 948.309 84.0421 948.401 84.2262C948.539 84.3642 948.539 84.5944 948.401 84.9165L937.08 107.905C937.034 108.043 937.034 108.181 937.08 108.319L948.401 131.307C948.493 131.492 948.539 131.63 948.539 131.722C948.539 132.09 948.286 132.274 947.78 132.274H939.358C938.898 132.274 938.575 132.067 938.391 131.653L931.557 117.155C931.419 116.879 931.281 116.879 931.143 117.155L924.308 131.653C924.124 132.067 923.802 132.274 923.342 132.274H914.851ZM983.385 91.4748C983.385 91.7049 983.293 91.912 983.109 92.0961C982.971 92.2341 982.787 92.3032 982.556 92.3032H964.055C963.825 92.3032 963.71 92.4182 963.71 92.6483V103.418C963.71 103.648 963.825 103.763 964.055 103.763H975.584C975.814 103.763 975.998 103.855 976.136 104.039C976.32 104.177 976.412 104.361 976.412 104.591V111.288C976.412 111.518 976.32 111.725 976.136 111.909C975.998 112.047 975.814 112.116 975.584 112.116H964.055C963.825 112.116 963.71 112.231 963.71 112.461V123.576C963.71 123.806 963.825 123.921 964.055 123.921H982.556C982.787 123.921 982.971 124.013 983.109 124.197C983.293 124.335 983.385 124.519 983.385 124.749V131.446C983.385 131.676 983.293 131.883 983.109 132.067C982.971 132.205 982.787 132.274 982.556 132.274H954.805C954.575 132.274 954.368 132.205 954.183 132.067C954.045 131.883 953.976 131.676 953.976 131.446V84.7785C953.976 84.5483 954.045 84.3642 954.183 84.2262C954.368 84.0421 954.575 83.95 954.805 83.95H982.556C982.787 83.95 982.971 84.0421 983.109 84.2262C983.293 84.3642 983.385 84.5483 983.385 84.7785V91.4748ZM1004.22 132.826C1001.09 132.826 998.325 132.205 995.931 130.962C993.538 129.72 991.674 127.948 990.34 125.647C989.051 123.346 988.407 120.676 988.407 117.639V98.4472C988.407 95.4557 989.051 92.8324 990.34 90.5773C991.674 88.2762 993.538 86.5043 995.931 85.2617C998.325 84.0191 1001.09 83.3978 1004.22 83.3978C1007.34 83.3978 1010.11 84.0191 1012.5 85.2617C1014.89 86.4583 1016.73 88.1611 1018.02 90.3702C1019.36 92.5793 1020.02 95.1566 1020.02 98.102V98.4472C1020.02 98.6773 1019.93 98.8844 1019.75 99.0685C1019.61 99.2526 1019.43 99.3446 1019.2 99.3446L1011.12 99.6898C1010.57 99.6898 1010.29 99.4367 1010.29 98.9304V98.033C1010.29 96.1461 1009.74 94.6273 1008.63 93.4767C1007.53 92.3262 1006.06 91.7509 1004.22 91.7509C1002.37 91.7509 1000.9 92.3262 999.797 93.4767C998.693 94.6273 998.14 96.1461 998.14 98.033V118.26C998.14 120.147 998.693 121.666 999.797 122.816C1000.9 123.921 1002.37 124.473 1004.22 124.473C1006.06 124.473 1007.53 123.921 1008.63 122.816C1009.74 121.666 1010.29 120.147 1010.29 118.26V117.363C1010.29 116.856 1010.57 116.603 1011.12 116.603L1019.2 116.948C1019.43 116.948 1019.61 117.04 1019.75 117.224C1019.93 117.363 1020.02 117.547 1020.02 117.777V117.984C1020.02 120.929 1019.36 123.53 1018.02 125.785C1016.73 128.04 1014.89 129.789 1012.5 131.031C1010.11 132.228 1007.34 132.826 1004.22 132.826ZM1041.71 132.826C1038.58 132.826 1035.82 132.182 1033.43 130.893C1031.03 129.605 1029.17 127.81 1027.83 125.509C1026.55 123.161 1025.9 120.469 1025.9 117.432V84.7785C1025.9 84.5483 1025.97 84.3642 1026.11 84.2262C1026.29 84.0421 1026.5 83.95 1026.73 83.95H1034.81C1035.04 83.95 1035.22 84.0421 1035.36 84.2262C1035.54 84.3642 1035.64 84.5483 1035.64 84.7785V117.915C1035.64 119.894 1036.19 121.482 1037.29 122.678C1038.4 123.875 1039.87 124.473 1041.71 124.473C1043.55 124.473 1045.02 123.875 1046.13 122.678C1047.23 121.482 1047.79 119.894 1047.79 117.915V84.7785C1047.79 84.5483 1047.85 84.3642 1047.99 84.2262C1048.18 84.0421 1048.38 83.95 1048.61 83.95H1056.69C1056.92 83.95 1057.1 84.0421 1057.24 84.2262C1057.43 84.3642 1057.52 84.5483 1057.52 84.7785V117.432C1057.52 120.469 1056.85 123.161 1055.52 125.509C1054.23 127.81 1052.39 129.605 1049.99 130.893C1047.6 132.182 1044.84 132.826 1041.71 132.826ZM1094.5 83.95C1094.73 83.95 1094.92 84.0421 1095.05 84.2262C1095.24 84.3642 1095.33 84.5483 1095.33 84.7785V91.5438C1095.33 91.7739 1095.24 91.981 1095.05 92.1651C1094.92 92.3032 1094.73 92.3722 1094.5 92.3722H1084.01C1083.78 92.3722 1083.66 92.4873 1083.66 92.7174V131.446C1083.66 131.676 1083.57 131.883 1083.39 132.067C1083.25 132.205 1083.06 132.274 1082.83 132.274H1074.76C1074.53 132.274 1074.32 132.205 1074.14 132.067C1074 131.883 1073.93 131.676 1073.93 131.446V92.7174C1073.93 92.4873 1073.81 92.3722 1073.58 92.3722H1063.44C1063.21 92.3722 1063 92.3032 1062.81 92.1651C1062.68 91.981 1062.61 91.7739 1062.61 91.5438V84.7785C1062.61 84.5483 1062.68 84.3642 1062.81 84.2262C1063 84.0421 1063.21 83.95 1063.44 83.95H1094.5ZM1101.64 132.274C1101.41 132.274 1101.2 132.205 1101.02 132.067C1100.88 131.883 1100.81 131.676 1100.81 131.446V84.7785C1100.81 84.5483 1100.88 84.3642 1101.02 84.2262C1101.2 84.0421 1101.41 83.95 1101.64 83.95H1109.71C1109.94 83.95 1110.13 84.0421 1110.27 84.2262C1110.45 84.3642 1110.54 84.5483 1110.54 84.7785V131.446C1110.54 131.676 1110.45 131.883 1110.27 132.067C1110.13 132.205 1109.94 132.274 1109.71 132.274H1101.64ZM1128.84 132.274C1128.34 132.274 1128.01 132.044 1127.88 131.584L1115.86 84.8475V84.5713C1115.86 84.1571 1116.12 83.95 1116.62 83.95H1125.39C1125.9 83.95 1126.2 84.2032 1126.29 84.7094L1133.26 116.81C1133.31 116.994 1133.38 117.086 1133.47 117.086C1133.56 117.086 1133.63 116.994 1133.68 116.81L1140.58 84.7094C1140.67 84.2032 1140.97 83.95 1141.48 83.95H1149.97C1150.61 83.95 1150.86 84.2492 1150.73 84.8475L1138.58 131.584C1138.44 132.044 1138.12 132.274 1137.61 132.274H1128.84ZM1185.3 91.4748C1185.3 91.7049 1185.2 91.912 1185.02 92.0961C1184.88 92.2341 1184.7 92.3032 1184.47 92.3032H1165.97C1165.74 92.3032 1165.62 92.4182 1165.62 92.6483V103.418C1165.62 103.648 1165.74 103.763 1165.97 103.763H1177.5C1177.73 103.763 1177.91 103.855 1178.05 104.039C1178.23 104.177 1178.32 104.361 1178.32 104.591V111.288C1178.32 111.518 1178.23 111.725 1178.05 111.909C1177.91 112.047 1177.73 112.116 1177.5 112.116H1165.97C1165.74 112.116 1165.62 112.231 1165.62 112.461V123.576C1165.62 123.806 1165.74 123.921 1165.97 123.921H1184.47C1184.7 123.921 1184.88 124.013 1185.02 124.197C1185.2 124.335 1185.3 124.519 1185.3 124.749V131.446C1185.3 131.676 1185.2 131.883 1185.02 132.067C1184.88 132.205 1184.7 132.274 1184.47 132.274H1156.72C1156.49 132.274 1156.28 132.205 1156.09 132.067C1155.96 131.883 1155.89 131.676 1155.89 131.446V84.7785C1155.89 84.5483 1155.96 84.3642 1156.09 84.2262C1156.28 84.0421 1156.49 83.95 1156.72 83.95H1184.47C1184.7 83.95 1184.88 84.0421 1185.02 84.2262C1185.2 84.3642 1185.3 84.5483 1185.3 84.7785V91.4748ZM1205.64 132.826C1202.47 132.826 1199.68 132.274 1197.29 131.169C1194.9 130.019 1193.03 128.431 1191.7 126.406C1190.41 124.335 1189.77 121.965 1189.77 119.296V117.501C1189.77 117.271 1189.83 117.086 1189.97 116.948C1190.16 116.764 1190.36 116.672 1190.59 116.672H1198.53C1198.76 116.672 1198.95 116.764 1199.09 116.948C1199.27 117.086 1199.36 117.271 1199.36 117.501V118.812C1199.36 120.423 1199.96 121.781 1201.16 122.885C1202.35 123.944 1203.96 124.473 1205.99 124.473C1207.78 124.473 1209.14 124.013 1210.06 123.092C1211.03 122.172 1211.51 120.998 1211.51 119.572C1211.51 118.513 1211.21 117.616 1210.61 116.879C1210.02 116.097 1209.16 115.384 1208.06 114.739C1207 114.049 1205.34 113.128 1203.09 111.978C1200.33 110.597 1198.07 109.309 1196.32 108.112C1194.57 106.915 1193.08 105.374 1191.84 103.487C1190.59 101.6 1189.97 99.3216 1189.97 96.6523C1189.97 93.983 1190.59 91.6589 1191.84 89.6799C1193.13 87.6549 1194.92 86.1131 1197.22 85.0546C1199.52 83.95 1202.15 83.3978 1205.09 83.3978C1208.17 83.3978 1210.91 83.9961 1213.31 85.1927C1215.7 86.3432 1217.56 87.977 1218.9 90.0941C1220.23 92.2111 1220.9 94.6503 1220.9 97.4117V98.7924C1220.9 99.0225 1220.81 99.2296 1220.62 99.4137C1220.49 99.5518 1220.3 99.6208 1220.07 99.6208H1212.13C1211.9 99.6208 1211.7 99.5518 1211.51 99.4137C1211.37 99.2296 1211.3 99.0225 1211.3 98.7924V97.5498C1211.3 95.8929 1210.73 94.5123 1209.58 93.4077C1208.43 92.3032 1206.86 91.7509 1204.88 91.7509C1203.23 91.7509 1201.92 92.1881 1200.95 93.0625C1200.03 93.891 1199.57 95.0645 1199.57 96.5833C1199.57 97.6418 1199.84 98.5623 1200.4 99.3446C1200.95 100.127 1201.8 100.886 1202.95 101.623C1204.1 102.313 1205.85 103.234 1208.2 104.384L1209.65 105.213C1212.32 106.685 1214.39 107.974 1215.86 109.078C1217.38 110.137 1218.64 111.495 1219.66 113.151C1220.67 114.808 1221.18 116.81 1221.18 119.157C1221.18 123.346 1219.75 126.682 1216.9 129.167C1214.09 131.607 1210.34 132.826 1205.64 132.826ZM1279.28 131.238C1279.47 131.515 1279.56 131.699 1279.56 131.791C1279.56 132.113 1279.31 132.274 1278.8 132.274H1269.9C1269.53 132.274 1269.18 132.113 1268.86 131.791L1266.65 129.305C1266.51 129.121 1266.35 129.098 1266.17 129.236C1262.39 131.676 1258.21 132.895 1253.6 132.895C1249.37 132.895 1245.94 131.86 1243.32 129.789C1240.69 127.718 1239.38 124.68 1239.38 120.676C1239.38 117.639 1240.12 115.084 1241.59 113.013C1243.06 110.896 1245.09 108.963 1247.67 107.215C1247.85 107.03 1247.87 106.869 1247.74 106.731C1245.53 103.924 1244.08 101.784 1243.39 100.311C1242.7 98.7924 1242.35 97.1816 1242.35 95.4787C1242.35 93.1776 1242.9 91.1066 1244.01 89.2657C1245.16 87.4248 1246.75 85.9981 1248.77 84.9856C1250.8 83.927 1253.12 83.3978 1255.74 83.3978C1258.46 83.3978 1260.87 83.927 1262.99 84.9856C1265.11 86.0441 1266.77 87.5398 1267.96 89.4728C1269.16 91.3597 1269.76 93.5458 1269.76 96.031C1269.76 98.8384 1269 101.278 1267.48 103.349C1266.01 105.374 1263.98 107.261 1261.4 109.009C1261.27 109.147 1261.24 109.309 1261.34 109.493L1267.06 116.258C1267.16 116.396 1267.32 116.396 1267.55 116.258C1268.88 114.647 1270.08 112.921 1271.14 111.08C1271.28 110.85 1271.44 110.712 1271.62 110.666C1271.85 110.574 1272.08 110.597 1272.31 110.735L1278.25 114.118C1278.71 114.44 1278.8 114.808 1278.52 115.222C1277.05 117.938 1275.26 120.584 1273.14 123.161C1273 123.299 1273 123.438 1273.14 123.576L1279.28 131.238ZM1256.02 92.2341C1254.82 92.2341 1253.86 92.6023 1253.12 93.3387C1252.43 94.029 1252.08 94.9725 1252.08 96.1691C1252.08 96.9054 1252.27 97.6418 1252.64 98.3782C1253.05 99.1145 1253.93 100.357 1255.26 102.106C1255.4 102.29 1255.56 102.313 1255.74 102.175C1257.12 101.209 1258.18 100.265 1258.92 99.3446C1259.66 98.3782 1260.02 97.3196 1260.02 96.1691C1260.02 94.9725 1259.66 94.029 1258.92 93.3387C1258.18 92.6023 1257.22 92.2341 1256.02 92.2341ZM1254.29 124.68C1256.09 124.68 1258.14 123.99 1260.44 122.609C1260.67 122.425 1260.71 122.264 1260.58 122.126L1257.75 118.812L1255.95 116.741L1253.81 114.187C1253.67 114.003 1253.51 113.98 1253.33 114.118C1251.99 115.084 1250.96 116.051 1250.22 117.017C1249.53 117.984 1249.19 119.042 1249.19 120.193C1249.19 121.528 1249.65 122.609 1250.57 123.438C1251.49 124.266 1252.73 124.68 1254.29 124.68ZM1329.23 91.4748C1329.23 91.7049 1329.14 91.912 1328.95 92.0961C1328.82 92.2341 1328.63 92.3032 1328.4 92.3032H1309.9C1309.67 92.3032 1309.55 92.4182 1309.55 92.6483V103.418C1309.55 103.648 1309.67 103.763 1309.9 103.763H1321.43C1321.66 103.763 1321.84 103.855 1321.98 104.039C1322.17 104.177 1322.26 104.361 1322.26 104.591V111.288C1322.26 111.518 1322.17 111.725 1321.98 111.909C1321.84 112.047 1321.66 112.116 1321.43 112.116H1309.9C1309.67 112.116 1309.55 112.231 1309.55 112.461V123.576C1309.55 123.806 1309.67 123.921 1309.9 123.921H1328.4C1328.63 123.921 1328.82 124.013 1328.95 124.197C1329.14 124.335 1329.23 124.519 1329.23 124.749V131.446C1329.23 131.676 1329.14 131.883 1328.95 132.067C1328.82 132.205 1328.63 132.274 1328.4 132.274H1300.65C1300.42 132.274 1300.21 132.205 1300.03 132.067C1299.89 131.883 1299.82 131.676 1299.82 131.446V84.7785C1299.82 84.5483 1299.89 84.3642 1300.03 84.2262C1300.21 84.0421 1300.42 83.95 1300.65 83.95H1328.4C1328.63 83.95 1328.82 84.0421 1328.95 84.2262C1329.14 84.3642 1329.23 84.5483 1329.23 84.7785V91.4748ZM1358.83 84.7785C1358.83 84.5483 1358.9 84.3642 1359.03 84.2262C1359.22 84.0421 1359.43 83.95 1359.66 83.95H1367.66C1367.89 83.95 1368.08 84.0421 1368.22 84.2262C1368.4 84.3642 1368.49 84.5483 1368.49 84.7785V131.446C1368.49 131.676 1368.4 131.883 1368.22 132.067C1368.08 132.205 1367.89 132.274 1367.66 132.274H1359.24C1358.78 132.274 1358.46 132.067 1358.28 131.653L1345.09 103.556C1345 103.418 1344.91 103.349 1344.81 103.349C1344.72 103.349 1344.68 103.441 1344.68 103.625L1344.74 131.446C1344.74 131.676 1344.65 131.883 1344.47 132.067C1344.33 132.205 1344.15 132.274 1343.92 132.274H1335.91C1335.68 132.274 1335.47 132.205 1335.29 132.067C1335.15 131.883 1335.08 131.676 1335.08 131.446V84.7785C1335.08 84.5483 1335.15 84.3642 1335.29 84.2262C1335.47 84.0421 1335.68 83.95 1335.91 83.95H1344.26C1344.72 83.95 1345.04 84.1571 1345.23 84.5713L1358.41 112.668C1358.51 112.806 1358.6 112.875 1358.69 112.875C1358.78 112.875 1358.83 112.783 1358.83 112.599V84.7785ZM1405.83 83.95C1406.06 83.95 1406.24 84.0421 1406.38 84.2262C1406.57 84.3642 1406.66 84.5483 1406.66 84.7785V91.5438C1406.66 91.7739 1406.57 91.981 1406.38 92.1651C1406.24 92.3032 1406.06 92.3722 1405.83 92.3722H1395.34C1395.11 92.3722 1394.99 92.4873 1394.99 92.7174V131.446C1394.99 131.676 1394.9 131.883 1394.71 132.067C1394.58 132.205 1394.39 132.274 1394.16 132.274H1386.09C1385.86 132.274 1385.65 132.205 1385.46 132.067C1385.33 131.883 1385.26 131.676 1385.26 131.446V92.7174C1385.26 92.4873 1385.14 92.3722 1384.91 92.3722H1374.76C1374.53 92.3722 1374.33 92.3032 1374.14 92.1651C1374 91.981 1373.94 91.7739 1373.94 91.5438V84.7785C1373.94 84.5483 1374 84.3642 1374.14 84.2262C1374.33 84.0421 1374.53 83.95 1374.76 83.95H1405.83ZM1434.85 132.274C1434.34 132.274 1434.02 132.044 1433.88 131.584L1426.91 112.53C1426.82 112.346 1426.7 112.254 1426.56 112.254H1422.22C1421.99 112.254 1421.87 112.369 1421.87 112.599V131.446C1421.87 131.676 1421.78 131.883 1421.59 132.067C1421.46 132.205 1421.27 132.274 1421.04 132.274H1412.96C1412.73 132.274 1412.53 132.205 1412.34 132.067C1412.21 131.883 1412.14 131.676 1412.14 131.446V84.7785C1412.14 84.5483 1412.21 84.3642 1412.34 84.2262C1412.53 84.0421 1412.73 83.95 1412.96 83.95H1429.81C1432.52 83.95 1434.94 84.5713 1437.06 85.814C1439.17 87.0106 1440.81 88.7134 1441.96 90.9225C1443.11 93.1316 1443.69 95.6628 1443.69 98.5162C1443.69 101.462 1443.04 104.016 1441.75 106.179C1440.46 108.342 1438.65 109.953 1436.3 111.011C1436.07 111.103 1436 111.265 1436.09 111.495L1443.96 131.307C1444.01 131.399 1444.03 131.515 1444.03 131.653C1444.03 132.067 1443.78 132.274 1443.27 132.274H1434.85ZM1422.22 92.3032C1421.99 92.3032 1421.87 92.4182 1421.87 92.6483V104.453C1421.87 104.683 1421.99 104.798 1422.22 104.798H1428.22C1429.92 104.798 1431.3 104.246 1432.36 103.142C1433.42 101.991 1433.95 100.472 1433.95 98.5853C1433.95 96.6523 1433.42 95.1336 1432.36 94.029C1431.3 92.8785 1429.92 92.3032 1428.22 92.3032H1422.22ZM1479.03 91.4748C1479.03 91.7049 1478.94 91.912 1478.75 92.0961C1478.61 92.2341 1478.43 92.3032 1478.2 92.3032H1459.7C1459.47 92.3032 1459.35 92.4182 1459.35 92.6483V103.418C1459.35 103.648 1459.47 103.763 1459.7 103.763H1471.23C1471.46 103.763 1471.64 103.855 1471.78 104.039C1471.96 104.177 1472.06 104.361 1472.06 104.591V111.288C1472.06 111.518 1471.96 111.725 1471.78 111.909C1471.64 112.047 1471.46 112.116 1471.23 112.116H1459.7C1459.47 112.116 1459.35 112.231 1459.35 112.461V123.576C1459.35 123.806 1459.47 123.921 1459.7 123.921H1478.2C1478.43 123.921 1478.61 124.013 1478.75 124.197C1478.94 124.335 1479.03 124.519 1479.03 124.749V131.446C1479.03 131.676 1478.94 131.883 1478.75 132.067C1478.61 132.205 1478.43 132.274 1478.2 132.274H1450.45C1450.22 132.274 1450.01 132.205 1449.83 132.067C1449.69 131.883 1449.62 131.676 1449.62 131.446V84.7785C1449.62 84.5483 1449.69 84.3642 1449.83 84.2262C1450.01 84.0421 1450.22 83.95 1450.45 83.95H1478.2C1478.43 83.95 1478.61 84.0421 1478.75 84.2262C1478.94 84.3642 1479.03 84.5483 1479.03 84.7785V91.4748ZM1502.21 83.881C1504.97 83.881 1507.41 84.5023 1509.52 85.7449C1511.69 86.9875 1513.34 88.7364 1514.49 90.9915C1515.69 93.2466 1516.29 95.8239 1516.29 98.7233C1516.29 101.577 1515.69 104.108 1514.49 106.317C1513.34 108.48 1511.69 110.16 1509.52 111.357C1507.41 112.553 1504.97 113.151 1502.21 113.151H1494.75C1494.52 113.151 1494.41 113.267 1494.41 113.497V131.446C1494.41 131.676 1494.31 131.883 1494.13 132.067C1493.99 132.205 1493.81 132.274 1493.58 132.274H1485.5C1485.27 132.274 1485.06 132.205 1484.88 132.067C1484.74 131.883 1484.67 131.676 1484.67 131.446V84.7094C1484.67 84.4793 1484.74 84.2952 1484.88 84.1571C1485.06 83.9731 1485.27 83.881 1485.5 83.881H1502.21ZM1500.62 105.42C1502.41 105.42 1503.84 104.844 1504.9 103.694C1506 102.497 1506.56 100.909 1506.56 98.9304C1506.56 96.9054 1506 95.2946 1504.9 94.0981C1503.84 92.9015 1502.41 92.3032 1500.62 92.3032H1494.75C1494.52 92.3032 1494.41 92.4182 1494.41 92.6483V105.074C1494.41 105.305 1494.52 105.42 1494.75 105.42H1500.62ZM1544.27 132.274C1543.76 132.274 1543.44 132.044 1543.3 131.584L1536.33 112.53C1536.23 112.346 1536.12 112.254 1535.98 112.254H1531.63C1531.4 112.254 1531.29 112.369 1531.29 112.599V131.446C1531.29 131.676 1531.19 131.883 1531.01 132.067C1530.87 132.205 1530.69 132.274 1530.46 132.274H1522.38C1522.15 132.274 1521.94 132.205 1521.76 132.067C1521.62 131.883 1521.55 131.676 1521.55 131.446V84.7785C1521.55 84.5483 1521.62 84.3642 1521.76 84.2262C1521.94 84.0421 1522.15 83.95 1522.38 83.95H1539.23C1541.94 83.95 1544.36 84.5713 1546.47 85.814C1548.59 87.0106 1550.22 88.7134 1551.38 90.9225C1552.53 93.1316 1553.1 95.6628 1553.1 98.5162C1553.1 101.462 1552.46 104.016 1551.17 106.179C1549.88 108.342 1548.06 109.953 1545.71 111.011C1545.48 111.103 1545.42 111.265 1545.51 111.495L1553.38 131.307C1553.42 131.399 1553.45 131.515 1553.45 131.653C1553.45 132.067 1553.19 132.274 1552.69 132.274H1544.27ZM1531.63 92.3032C1531.4 92.3032 1531.29 92.4182 1531.29 92.6483V104.453C1531.29 104.683 1531.4 104.798 1531.63 104.798H1537.64C1539.34 104.798 1540.72 104.246 1541.78 103.142C1542.84 101.991 1543.37 100.472 1543.37 98.5853C1543.37 96.6523 1542.84 95.1336 1541.78 94.029C1540.72 92.8785 1539.34 92.3032 1537.64 92.3032H1531.63ZM1588.44 91.4748C1588.44 91.7049 1588.35 91.912 1588.17 92.0961C1588.03 92.2341 1587.85 92.3032 1587.62 92.3032H1569.12C1568.88 92.3032 1568.77 92.4182 1568.77 92.6483V103.418C1568.77 103.648 1568.88 103.763 1569.12 103.763H1580.64C1580.87 103.763 1581.06 103.855 1581.2 104.039C1581.38 104.177 1581.47 104.361 1581.47 104.591V111.288C1581.47 111.518 1581.38 111.725 1581.2 111.909C1581.06 112.047 1580.87 112.116 1580.64 112.116H1569.12C1568.88 112.116 1568.77 112.231 1568.77 112.461V123.576C1568.77 123.806 1568.88 123.921 1569.12 123.921H1587.62C1587.85 123.921 1588.03 124.013 1588.17 124.197C1588.35 124.335 1588.44 124.519 1588.44 124.749V131.446C1588.44 131.676 1588.35 131.883 1588.17 132.067C1588.03 132.205 1587.85 132.274 1587.62 132.274H1559.86C1559.63 132.274 1559.43 132.205 1559.24 132.067C1559.11 131.883 1559.04 131.676 1559.04 131.446V84.7785C1559.04 84.5483 1559.11 84.3642 1559.24 84.2262C1559.43 84.0421 1559.63 83.95 1559.86 83.95H1587.62C1587.85 83.95 1588.03 84.0421 1588.17 84.2262C1588.35 84.3642 1588.44 84.5483 1588.44 84.7785V91.4748ZM1618.04 84.7785C1618.04 84.5483 1618.11 84.3642 1618.25 84.2262C1618.43 84.0421 1618.64 83.95 1618.87 83.95H1626.88C1627.11 83.95 1627.29 84.0421 1627.43 84.2262C1627.62 84.3642 1627.71 84.5483 1627.71 84.7785V131.446C1627.71 131.676 1627.62 131.883 1627.43 132.067C1627.29 132.205 1627.11 132.274 1626.88 132.274H1618.46C1618 132.274 1617.67 132.067 1617.49 131.653L1604.3 103.556C1604.21 103.418 1604.12 103.349 1604.03 103.349C1603.94 103.349 1603.89 103.441 1603.89 103.625L1603.96 131.446C1603.96 131.676 1603.87 131.883 1603.68 132.067C1603.55 132.205 1603.36 132.274 1603.13 132.274H1595.12C1594.89 132.274 1594.69 132.205 1594.5 132.067C1594.36 131.883 1594.29 131.676 1594.29 131.446V84.7785C1594.29 84.5483 1594.36 84.3642 1594.5 84.2262C1594.69 84.0421 1594.89 83.95 1595.12 83.95H1603.48C1603.94 83.95 1604.26 84.1571 1604.44 84.5713L1617.63 112.668C1617.72 112.806 1617.81 112.875 1617.9 112.875C1618 112.875 1618.04 112.783 1618.04 112.599V84.7785ZM1664.22 91.4748C1664.22 91.7049 1664.13 91.912 1663.94 92.0961C1663.81 92.2341 1663.62 92.3032 1663.39 92.3032H1644.89C1644.66 92.3032 1644.55 92.4182 1644.55 92.6483V103.418C1644.55 103.648 1644.66 103.763 1644.89 103.763H1656.42C1656.65 103.763 1656.83 103.855 1656.97 104.039C1657.16 104.177 1657.25 104.361 1657.25 104.591V111.288C1657.25 111.518 1657.16 111.725 1656.97 111.909C1656.83 112.047 1656.65 112.116 1656.42 112.116H1644.89C1644.66 112.116 1644.55 112.231 1644.55 112.461V123.576C1644.55 123.806 1644.66 123.921 1644.89 123.921H1663.39C1663.62 123.921 1663.81 124.013 1663.94 124.197C1664.13 124.335 1664.22 124.519 1664.22 124.749V131.446C1664.22 131.676 1664.13 131.883 1663.94 132.067C1663.81 132.205 1663.62 132.274 1663.39 132.274H1635.64C1635.41 132.274 1635.2 132.205 1635.02 132.067C1634.88 131.883 1634.81 131.676 1634.81 131.446V84.7785C1634.81 84.5483 1634.88 84.3642 1635.02 84.2262C1635.2 84.0421 1635.41 83.95 1635.64 83.95H1663.39C1663.62 83.95 1663.81 84.0421 1663.94 84.2262C1664.13 84.3642 1664.22 84.5483 1664.22 84.7785V91.4748ZM1685.53 132.826C1682.4 132.826 1679.64 132.182 1677.25 130.893C1674.86 129.605 1672.99 127.81 1671.66 125.509C1670.37 123.161 1669.73 120.469 1669.73 117.432V84.7785C1669.73 84.5483 1669.79 84.3642 1669.93 84.2262C1670.12 84.0421 1670.32 83.95 1670.55 83.95H1678.63C1678.86 83.95 1679.04 84.0421 1679.18 84.2262C1679.37 84.3642 1679.46 84.5483 1679.46 84.7785V117.915C1679.46 119.894 1680.01 121.482 1681.12 122.678C1682.22 123.875 1683.69 124.473 1685.53 124.473C1687.38 124.473 1688.85 123.875 1689.95 122.678C1691.06 121.482 1691.61 119.894 1691.61 117.915V84.7785C1691.61 84.5483 1691.68 84.3642 1691.82 84.2262C1692 84.0421 1692.21 83.95 1692.44 83.95H1700.51C1700.74 83.95 1700.93 84.0421 1701.07 84.2262C1701.25 84.3642 1701.34 84.5483 1701.34 84.7785V117.432C1701.34 120.469 1700.68 123.161 1699.34 125.509C1698.05 127.81 1696.21 129.605 1693.82 130.893C1691.43 132.182 1688.66 132.826 1685.53 132.826ZM1731.01 132.274C1730.5 132.274 1730.18 132.044 1730.04 131.584L1723.07 112.53C1722.98 112.346 1722.86 112.254 1722.72 112.254H1718.37C1718.14 112.254 1718.03 112.369 1718.03 112.599V131.446C1718.03 131.676 1717.94 131.883 1717.75 132.067C1717.62 132.205 1717.43 132.274 1717.2 132.274H1709.12C1708.89 132.274 1708.69 132.205 1708.5 132.067C1708.36 131.883 1708.3 131.676 1708.3 131.446V84.7785C1708.3 84.5483 1708.36 84.3642 1708.5 84.2262C1708.69 84.0421 1708.89 83.95 1709.12 83.95H1725.97C1728.68 83.95 1731.1 84.5713 1733.22 85.814C1735.33 87.0106 1736.97 88.7134 1738.12 90.9225C1739.27 93.1316 1739.84 95.6628 1739.84 98.5162C1739.84 101.462 1739.2 104.016 1737.91 106.179C1736.62 108.342 1734.8 109.953 1732.46 111.011C1732.23 111.103 1732.16 111.265 1732.25 111.495L1740.12 131.307C1740.17 131.399 1740.19 131.515 1740.19 131.653C1740.19 132.067 1739.94 132.274 1739.43 132.274H1731.01ZM1718.37 92.3032C1718.14 92.3032 1718.03 92.4182 1718.03 92.6483V104.453C1718.03 104.683 1718.14 104.798 1718.37 104.798H1724.38C1726.08 104.798 1727.46 104.246 1728.52 103.142C1729.58 101.991 1730.11 100.472 1730.11 98.5853C1730.11 96.6523 1729.58 95.1336 1728.52 94.029C1727.46 92.8785 1726.08 92.3032 1724.38 92.3032H1718.37ZM1760.34 132.826C1757.17 132.826 1754.38 132.274 1751.99 131.169C1749.6 130.019 1747.73 128.431 1746.4 126.406C1745.11 124.335 1744.47 121.965 1744.47 119.296V117.501C1744.47 117.271 1744.53 117.086 1744.67 116.948C1744.86 116.764 1745.06 116.672 1745.29 116.672H1753.23C1753.46 116.672 1753.65 116.764 1753.79 116.948C1753.97 117.086 1754.06 117.271 1754.06 117.501V118.812C1754.06 120.423 1754.66 121.781 1755.86 122.885C1757.05 123.944 1758.66 124.473 1760.69 124.473C1762.48 124.473 1763.84 124.013 1764.76 123.092C1765.73 122.172 1766.21 120.998 1766.21 119.572C1766.21 118.513 1765.91 117.616 1765.31 116.879C1764.72 116.097 1763.86 115.384 1762.76 114.739C1761.7 114.049 1760.04 113.128 1757.79 111.978C1755.03 110.597 1752.77 109.309 1751.02 108.112C1749.28 106.915 1747.78 105.374 1746.54 103.487C1745.29 101.6 1744.67 99.3216 1744.67 96.6523C1744.67 93.983 1745.29 91.6589 1746.54 89.6799C1747.83 87.6549 1749.62 86.1131 1751.92 85.0546C1754.22 83.95 1756.85 83.3978 1759.79 83.3978C1762.87 83.3978 1765.61 83.9961 1768.01 85.1927C1770.4 86.3432 1772.26 87.977 1773.6 90.0941C1774.93 92.2111 1775.6 94.6503 1775.6 97.4117V98.7924C1775.6 99.0225 1775.51 99.2296 1775.32 99.4137C1775.19 99.5518 1775 99.6208 1774.77 99.6208H1766.83C1766.6 99.6208 1766.4 99.5518 1766.21 99.4137C1766.07 99.2296 1766 99.0225 1766 98.7924V97.5498C1766 95.8929 1765.43 94.5123 1764.28 93.4077C1763.13 92.3032 1761.56 91.7509 1759.58 91.7509C1757.93 91.7509 1756.62 92.1881 1755.65 93.0625C1754.73 93.891 1754.27 95.0645 1754.27 96.5833C1754.27 97.6418 1754.54 98.5623 1755.1 99.3446C1755.65 100.127 1756.5 100.886 1757.65 101.623C1758.8 102.313 1760.55 103.234 1762.9 104.384L1764.35 105.213C1767.02 106.685 1769.09 107.974 1770.56 109.078C1772.08 110.137 1773.34 111.495 1774.36 113.151C1775.37 114.808 1775.88 116.81 1775.88 119.157C1775.88 123.346 1774.45 126.682 1771.6 129.167C1768.79 131.607 1765.04 132.826 1760.34 132.826Z" fill="#50002F"/>
<defs>
<clipPath id="clip0_694_2102">
<rect width="587" height="133" fill="white"/>
</clipPath>
</defs>
</svg>
