<svg width="1331" height="148" viewBox="0 0 1331 148" fill="none" xmlns="http://www.w3.org/2000/svg">
<g clip-path="url(#clip0_686_4715)">
<path d="M293.016 99.8759C289.06 94.7913 284.543 90.3038 281.588 84.9501C270.976 65.7276 279.537 41.7044 301.504 37.2021C325.136 32.3623 342.493 51.756 338.899 73.5869C337.292 83.3303 331.905 90.6366 325.195 97.2431C323.388 99.0244 323.334 100.072 325.185 101.99C331.07 108.102 336.725 114.435 342.39 120.757C343.626 122.132 344.749 122.548 346.507 121.824C361.427 115.678 372.108 105.523 374.848 89.1538C377.187 75.192 374.247 61.8175 365.896 50.2488C361.481 44.1365 356.07 38.6996 350.756 33.3019C345.931 28.4033 345.174 22.0659 349.462 17.1428C353.442 12.577 360.348 12.4693 365.354 16.9226C376.708 27.0232 386.564 38.3864 391.799 52.8473C400.829 77.7759 399.794 101.647 382.056 122.881C372.577 134.225 360.099 140.841 346.019 144.991C339.851 146.811 335.524 146.674 331.119 140.983C324.916 132.967 317.527 125.876 310.68 118.355C309.962 117.567 309.503 116.544 308.737 115.335C304.737 119.632 301.44 123.131 298.188 126.674C292.386 133.001 286.638 139.383 280.787 145.666C280.24 146.254 279.068 146.709 278.311 146.567C253.956 142.069 234.968 130.055 224.351 106.908C219.726 96.832 218.72 86.0658 219.579 75.0061C221.474 50.6501 233.864 32.1518 251.568 16.5654C256.461 12.2589 263.289 12.7238 267.186 17.3631C271.347 22.3106 270.658 28.9269 265.52 33.3948C258.542 39.4581 252.398 46.2506 247.968 54.4231C241.414 66.5106 238.919 79.3615 242.44 92.7996C245.619 104.941 253.438 113.642 264.583 119.191C272.055 122.911 272.153 122.744 277.798 116.676C282.701 111.401 287.58 106.101 292.454 100.796C292.772 100.448 292.962 99.9787 293.026 99.871L293.016 99.8759ZM308.302 83.4428C311.403 79.9927 314.338 77.0663 316.873 73.8316C320.629 69.0406 320.775 60.9464 317.483 56.6351C314.221 52.3629 308.243 51.1492 302.803 53.6499C298.085 55.8227 295.809 61.2547 296.879 67.1761C298.163 74.2573 303.697 78.1625 308.297 83.4428H308.302Z" fill="#C9187F"/>
<path d="M204.144 146.418H189.925C189.852 145.12 189.715 143.88 189.715 142.641C189.701 125.334 189.71 108.028 189.706 90.7221C189.706 86.7456 189.691 86.731 185.876 86.731C166.391 86.7261 146.907 86.7796 127.418 86.6678C124.551 86.6532 123.734 87.5574 123.753 90.3624C123.86 107.669 123.807 124.975 123.807 142.281C123.807 143.54 123.807 144.804 123.807 146.296H109.593C109.529 145.13 109.413 143.973 109.413 142.811C109.403 116.949 109.247 91.0867 109.452 65.2295C109.627 43.3683 119.476 26.9031 139.316 17.6812C153.51 11.0845 168.046 12.6109 181.214 21.3126C192.085 28.4927 199.472 38.5605 202.513 51.3554C203.618 55.9979 204.197 60.8738 204.231 65.6524C204.392 91.5145 204.309 117.377 204.304 143.234C204.304 144.196 204.212 145.164 204.149 146.423L204.144 146.418ZM156.742 72.9492C166.674 72.9492 176.61 72.959 186.542 72.9395C187.978 72.9395 189.613 73.2215 189.701 70.9172C190.139 59.4203 188.221 48.672 180.596 39.4452C167.696 23.8356 145.408 23.9717 132.78 39.6591C125.851 48.2685 123.578 58.0931 123.792 68.8074C123.875 72.9346 123.817 72.9492 127.826 72.9492C137.466 72.959 147.102 72.9492 156.742 72.9492Z" fill="#C9187F"/>
<path d="M95.2859 146.418H80.9645C80.9645 145.164 80.9645 144.021 80.9645 142.879C80.9645 125.383 80.911 107.882 81.0181 90.3867C81.0375 87.6255 80.3465 86.6484 77.4219 86.6629C57.6455 86.7796 37.874 86.7748 18.0976 86.6678C15.3579 86.6532 14.5841 87.4942 14.6036 90.1922C14.7107 107.591 14.6571 124.989 14.6571 142.393C14.6571 143.647 14.6571 144.901 14.6571 146.34H0.238468C0.180073 145.319 0.0681492 144.279 0.0681492 143.234C0.0584167 101.354 0.0876142 59.4786 2.18217e-05 17.5986C-0.00484442 14.7353 0.802951 13.7631 3.64484 14.0013C6.37966 14.2298 9.16315 14.22 11.9028 14.0013C14.5403 13.7922 14.6912 15.1777 14.6863 17.2049C14.6425 34.3117 14.6571 51.4137 14.662 68.5206C14.662 71.4666 16.0911 72.9428 18.9492 72.9493C38.3314 72.9493 57.7136 72.9493 77.0959 72.9493C80.9597 72.9493 80.9694 72.9347 80.9694 69.0165C80.9694 52.0117 80.9694 35.002 80.9694 17.9972C80.9694 15.3722 82.3255 14.058 85.0376 14.0547C88.3661 14.0547 91.6946 14.0547 95.2907 14.0547V146.418H95.2859Z" fill="#C9187F"/>
<path d="M451.604 86.872C444.13 86.872 436.65 86.9546 429.176 86.8282C426.645 86.7845 425.706 87.5428 425.74 90.1777C425.862 98.9474 426.237 107.586 429.984 115.802C434.412 125.5 442.062 130.998 452.315 131.785C464.247 132.704 476.276 132.422 488.267 132.563C496.344 132.656 496.379 132.583 496.335 140.755C496.296 147.692 497.026 146.539 490.563 146.496C478.179 146.413 465.75 146.71 453.419 145.805C435.215 144.473 422.081 135.47 415.263 118.057C412.606 111.271 411.492 104.241 411.472 97.0369C411.443 84.1642 411.19 71.2721 411.789 58.4237C412.392 45.4295 417.205 33.9666 427.03 25.0169C433.911 18.7507 442.339 15.6833 451.38 14.8957C460.368 14.1131 469.439 14.2492 478.476 14.0693C483.391 13.9721 488.315 14.1763 493.23 14.0012C495.765 13.9089 496.534 14.8763 496.379 17.2486C496.233 19.4994 496.179 21.7842 496.388 24.0252C496.666 26.9809 495.376 27.6469 492.641 27.608C483.201 27.467 473.746 27.3309 464.315 27.642C458.957 27.817 453.561 28.5219 448.3 29.5914C435.458 32.2068 429.745 41.5988 427.19 53.3291C426.134 58.1709 426.091 63.2607 425.838 68.2484C425.638 72.2249 425.808 72.2444 429.95 72.2444C444.607 72.2492 459.264 72.3124 473.921 72.1909C476.646 72.1666 477.561 72.9833 477.352 75.6861C477.128 78.5203 477.186 81.3884 477.337 84.2323C477.449 86.3275 476.651 86.9352 474.626 86.9109C466.952 86.8234 459.283 86.8768 451.609 86.8768L451.604 86.872Z" fill="#C9187F"/>
<path d="M542.479 86.8768C534.902 86.8768 527.32 86.9546 519.743 86.8331C517.267 86.7942 516.337 87.6935 516.537 90.095C517.018 95.9577 516.872 101.932 517.996 107.664C521.057 123.302 531.865 132.101 548.192 132.476C559.997 132.748 571.812 132.641 583.618 132.519C586.192 132.495 587.16 133.161 586.975 135.786C586.776 138.625 586.883 141.489 586.937 144.337C586.966 145.971 586.294 146.578 584.645 146.549C570.678 146.296 556.639 146.943 542.771 145.684C521.534 143.759 506.843 130.94 503.393 108.257C500.512 89.3124 500.522 69.9498 503.597 50.9617C506.965 30.1602 521.573 16.8986 542.581 14.8325C552.63 13.8457 562.815 14.2443 572.936 14.0596C576.674 13.9915 580.416 14.1277 584.153 14.0159C586.163 13.9575 587.044 14.6138 586.951 16.6993C586.839 19.2515 586.805 21.8182 586.961 24.3655C587.107 26.7865 586.216 27.6226 583.759 27.5934C574.805 27.4768 565.841 27.3212 556.897 27.6323C550.946 27.8414 544.921 28.3567 539.096 29.5477C526.05 32.2117 520.196 41.7495 517.768 53.7909C516.785 58.6522 516.965 63.7468 516.517 68.7248C516.279 71.3888 517.242 72.3222 520.001 72.2978C534.761 72.1812 549.525 72.3319 564.289 72.1715C567.355 72.1374 568.309 73.0805 568.012 76.0167C567.788 78.2578 567.968 80.5377 567.968 82.7982C567.968 85.5076 566.654 86.8655 564.026 86.872C556.844 86.872 549.656 86.872 542.474 86.872L542.479 86.8768Z" fill="#C9187F"/>
</g>
<path d="M681.457 14.4768C681.457 14.2437 681.527 14.0572 681.667 13.9173C681.853 13.7308 682.063 13.6376 682.296 13.6376H690.479C690.712 13.6376 690.898 13.7308 691.038 13.9173C691.225 14.0572 691.318 14.2437 691.318 14.4768V61.7537C691.318 61.9868 691.225 62.1966 691.038 62.3831C690.898 62.523 690.712 62.5929 690.479 62.5929H682.296C682.063 62.5929 681.853 62.523 681.667 62.3831C681.527 62.1966 681.457 61.9868 681.457 61.7537V42.5911C681.457 42.358 681.34 42.2415 681.107 42.2415H669.917C669.684 42.2415 669.568 42.358 669.568 42.5911V61.7537C669.568 61.9868 669.474 62.1966 669.288 62.3831C669.148 62.523 668.962 62.5929 668.728 62.5929H660.546C660.313 62.5929 660.103 62.523 659.916 62.3831C659.777 62.1966 659.707 61.9868 659.707 61.7537V14.4768C659.707 14.2437 659.777 14.0572 659.916 13.9173C660.103 13.7308 660.313 13.6376 660.546 13.6376H668.728C668.962 13.6376 669.148 13.7308 669.288 13.9173C669.474 14.0572 669.568 14.2437 669.568 14.4768V33.3596C669.568 33.5927 669.684 33.7093 669.917 33.7093H681.107C681.34 33.7093 681.457 33.5927 681.457 33.3596V14.4768ZM713.817 63.2223C710.6 63.2223 707.756 62.5696 705.285 61.2641C702.86 59.9586 700.972 58.117 699.62 55.7391C698.268 53.3613 697.592 50.5872 697.592 47.4167V28.8137C697.592 25.6899 698.268 22.9391 699.62 20.5613C700.972 18.1834 702.86 16.3418 705.285 15.0363C707.756 13.7308 710.6 13.0781 713.817 13.0781C717.034 13.0781 719.878 13.7308 722.349 15.0363C724.82 16.3418 726.732 18.1834 728.084 20.5613C729.436 22.9391 730.112 25.6899 730.112 28.8137V47.4167C730.112 50.5872 729.436 53.3613 728.084 55.7391C726.732 58.117 724.82 59.9586 722.349 61.2641C719.878 62.5696 717.034 63.2223 713.817 63.2223ZM713.817 54.76C715.775 54.76 717.337 54.1306 718.503 52.8718C719.668 51.5663 720.251 49.8878 720.251 47.8364V28.534C720.251 26.4359 719.668 24.7574 718.503 23.4986C717.337 22.1931 715.775 21.5404 713.817 21.5404C711.905 21.5404 710.367 22.1931 709.201 23.4986C708.036 24.7574 707.453 26.4359 707.453 28.534V47.8364C707.453 49.8878 708.036 51.5663 709.201 52.8718C710.367 54.1306 711.905 54.76 713.817 54.76ZM713.887 78.5383C712.348 78.5383 711.066 78.0255 710.04 76.9997C709.061 76.0206 708.572 74.7851 708.572 73.2931C708.572 71.7545 709.061 70.4957 710.04 69.5166C711.066 68.5375 712.348 68.0479 713.887 68.0479C715.426 68.0479 716.684 68.5142 717.663 69.4466C718.643 70.4257 719.132 71.7079 719.132 73.2931C719.132 74.7851 718.619 76.0206 717.594 76.9997C716.614 78.0255 715.379 78.5383 713.887 78.5383ZM703.886 9.51133C703.56 9.51133 703.327 9.41808 703.187 9.23159C703.093 8.99847 703.14 8.74204 703.327 8.46229L708.152 1.18893C708.385 0.815934 708.712 0.629437 709.131 0.629437H718.293C718.713 0.629437 719.039 0.815934 719.272 1.18893L724.168 8.46229C724.261 8.64879 724.307 8.81197 724.307 8.95184C724.307 9.32483 724.074 9.51133 723.608 9.51133H717.524C717.011 9.51133 716.661 9.32483 716.475 8.95184L714.027 4.82561C713.887 4.54586 713.747 4.54586 713.607 4.82561L711.159 8.95184C710.973 9.32483 710.623 9.51133 710.11 9.51133H703.886ZM737.517 62.5929C737.284 62.5929 737.074 62.523 736.887 62.3831C736.747 62.1966 736.677 61.9868 736.677 61.7537V14.4768C736.677 14.2437 736.747 14.0572 736.887 13.9173C737.074 13.7308 737.284 13.6376 737.517 13.6376H745.699C745.932 13.6376 746.119 13.7308 746.259 13.9173C746.445 14.0572 746.538 14.2437 746.538 14.4768V61.7537C746.538 61.9868 746.445 62.1966 746.259 62.3831C746.119 62.523 745.932 62.5929 745.699 62.5929H737.517ZM791.947 14.4768C791.947 14.2437 792.017 14.0572 792.157 13.9173C792.343 13.7308 792.553 13.6376 792.786 13.6376H800.899C801.132 13.6376 801.319 13.7308 801.459 13.9173C801.645 14.0572 801.738 14.2437 801.738 14.4768V61.7537C801.738 61.9868 801.645 62.1966 801.459 62.3831C801.319 62.523 801.132 62.5929 800.899 62.5929H792.367C791.901 62.5929 791.574 62.3831 791.388 61.9635L778.03 33.4994C777.937 33.3596 777.843 33.2896 777.75 33.2896C777.657 33.2896 777.61 33.3829 777.61 33.5694L777.68 61.7537C777.68 61.9868 777.587 62.1966 777.4 62.3831C777.261 62.523 777.074 62.5929 776.841 62.5929H768.728C768.495 62.5929 768.285 62.523 768.099 62.3831C767.959 62.1966 767.889 61.9868 767.889 61.7537V14.4768C767.889 14.2437 767.959 14.0572 768.099 13.9173C768.285 13.7308 768.495 13.6376 768.728 13.6376H777.191C777.657 13.6376 777.983 13.8474 778.17 14.267L791.528 42.731C791.621 42.8709 791.714 42.9408 791.807 42.9408C791.901 42.9408 791.947 42.8476 791.947 42.6611V14.4768ZM846.906 7.62306C847.466 7.62306 847.745 7.9028 847.745 8.46229C847.559 10.9334 846.859 12.9382 845.647 14.4768C844.435 16.0154 842.92 17.0878 841.101 17.6939C840.915 17.7405 840.822 17.8571 840.822 18.0435V47.5566C840.822 50.6338 840.146 53.3613 838.794 55.7391C837.488 58.0704 835.623 59.8887 833.199 61.1942C830.774 62.4996 827.977 63.1524 824.806 63.1524C821.636 63.1524 818.838 62.4996 816.414 61.1942C813.989 59.8887 812.101 58.0704 810.749 55.7391C809.444 53.3613 808.791 50.6338 808.791 47.5566V14.4768C808.791 14.2437 808.861 14.0572 809.001 13.9173C809.187 13.7308 809.397 13.6376 809.63 13.6376H817.813C818.046 13.6376 818.232 13.7308 818.372 13.9173C818.559 14.0572 818.652 14.2437 818.652 14.4768V48.0462C818.652 50.051 819.211 51.6595 820.33 52.8718C821.449 54.084 822.941 54.6901 824.806 54.6901C826.671 54.6901 828.163 54.084 829.282 52.8718C830.401 51.6595 830.961 50.051 830.961 48.0462V14.4768C830.961 14.2437 831.031 14.0572 831.17 13.9173C831.357 13.7308 831.567 13.6376 831.8 13.6376H837.115C838.327 13.6376 839.423 13.2646 840.402 12.5186C841.428 11.7726 842.011 10.4205 842.15 8.46229C842.15 7.9028 842.43 7.62306 842.99 7.62306H846.906ZM829.352 9.02178C828.56 9.02178 827.86 8.92853 827.254 8.74203C826.695 8.50891 825.972 8.18254 825.086 7.76293C824.853 7.62305 824.503 7.43656 824.037 7.20344C823.571 6.97032 823.174 6.80713 822.848 6.71389C822.522 6.62064 822.195 6.57401 821.869 6.57401C820.657 6.57401 819.631 7.08688 818.792 8.11261C818.512 8.39235 818.279 8.53222 818.092 8.53222C817.953 8.53222 817.789 8.43898 817.603 8.25248L814.735 5.73478C814.362 5.36179 814.269 4.96548 814.456 4.54586C815.155 3.10051 816.088 1.98154 817.253 1.18893C818.465 0.396317 819.794 1.14705e-05 821.24 1.14705e-05C822.079 1.14705e-05 822.848 0.139883 823.547 0.419627C824.247 0.652748 825.086 1.02574 826.065 1.53861C826.252 1.63186 826.555 1.81835 826.974 2.09809C827.394 2.33122 827.767 2.51771 828.093 2.65759C828.466 2.75084 828.839 2.79746 829.212 2.79746C830.518 2.79746 831.497 2.30791 832.15 1.3288C832.383 1.00243 832.616 0.839247 832.849 0.839247C832.989 0.839247 833.152 0.932494 833.338 1.11899L836.066 3.56676C836.439 3.93975 836.509 4.35937 836.276 4.82561C835.576 6.22433 834.597 7.27337 833.338 7.97274C832.126 8.6721 830.797 9.02178 829.352 9.02178ZM862.705 62.5929C862.472 62.5929 862.262 62.523 862.076 62.3831C861.936 62.1966 861.866 61.9868 861.866 61.7537V14.4768C861.866 14.2437 861.936 14.0572 862.076 13.9173C862.262 13.7308 862.472 13.6376 862.705 13.6376H877.741C880.865 13.6376 883.616 14.2204 885.994 15.386C888.418 16.5516 890.283 18.2067 891.589 20.3514C892.894 22.4962 893.547 24.9905 893.547 27.8346V48.3959C893.547 51.2399 892.894 53.7343 891.589 55.879C890.283 58.0237 888.418 59.6789 885.994 60.8445C883.616 62.0101 880.865 62.5929 877.741 62.5929H862.705ZM871.727 53.7809C871.727 54.0141 871.843 54.1306 872.077 54.1306L877.811 54.0607C879.536 54.0607 880.935 53.4546 882.008 52.2423C883.08 50.9835 883.639 49.3283 883.686 47.2769V28.9536C883.686 26.8555 883.15 25.2003 882.077 23.9881C881.005 22.7293 879.583 22.0998 877.811 22.0998H872.077C871.843 22.0998 871.727 22.2164 871.727 22.4495V53.7809ZM915.498 63.2223C912.281 63.2223 909.437 62.5696 906.966 61.2641C904.542 59.9586 902.653 58.117 901.301 55.7391C899.949 53.3613 899.273 50.5872 899.273 47.4167V28.8137C899.273 25.6899 899.949 22.9391 901.301 20.5613C902.653 18.1834 904.542 16.3418 906.966 15.0363C909.437 13.7308 912.281 13.0781 915.498 13.0781C918.715 13.0781 921.559 13.7308 924.03 15.0363C926.501 16.3418 928.413 18.1834 929.765 20.5613C931.117 22.9391 931.793 25.6899 931.793 28.8137V47.4167C931.793 50.5872 931.117 53.3613 929.765 55.7391C928.413 58.117 926.501 59.9586 924.03 61.2641C921.559 62.5696 918.715 63.2223 915.498 63.2223ZM915.498 54.76C917.456 54.76 919.018 54.1306 920.184 52.8718C921.35 51.5663 921.932 49.8878 921.932 47.8364V28.534C921.932 26.4359 921.35 24.7574 920.184 23.4986C919.018 22.1931 917.456 21.5404 915.498 21.5404C913.587 21.5404 912.048 22.1931 910.882 23.4986C909.717 24.7574 909.134 26.4359 909.134 28.534V47.8364C909.134 49.8878 909.717 51.5663 910.882 52.8718C912.048 54.1306 913.587 54.76 915.498 54.76ZM963.347 62.5929C962.834 62.5929 962.508 62.3598 962.368 61.8935L960.759 55.0398C960.713 54.8533 960.596 54.76 960.41 54.76H947.332C947.145 54.76 947.029 54.8533 946.982 55.0398L945.374 61.8935C945.234 62.3598 944.931 62.5929 944.464 62.5929H936.002C935.396 62.5929 935.163 62.2898 935.303 61.6837L947.891 14.3369C948.031 13.8707 948.357 13.6376 948.87 13.6376H959.011C959.524 13.6376 959.85 13.8707 959.99 14.3369L972.579 61.6837L972.649 61.9635C972.649 62.3831 972.392 62.5929 971.879 62.5929H963.347ZM948.87 46.7174C948.824 46.8573 948.847 46.9738 948.94 47.0671C949.033 47.1137 949.127 47.137 949.22 47.137H958.452C958.545 47.137 958.638 47.1137 958.731 47.0671C958.825 46.9738 958.848 46.8573 958.801 46.7174L953.976 26.4359C953.929 26.2494 953.859 26.1561 953.766 26.1561C953.673 26.1561 953.603 26.2494 953.556 26.4359L948.87 46.7174ZM1001.89 14.4768C1001.89 14.2437 1001.96 14.0572 1002.1 13.9173C1002.29 13.7308 1002.5 13.6376 1002.73 13.6376H1010.84C1011.08 13.6376 1011.26 13.7308 1011.4 13.9173C1011.59 14.0572 1011.68 14.2437 1011.68 14.4768V61.7537C1011.68 61.9868 1011.59 62.1966 1011.4 62.3831C1011.26 62.523 1011.08 62.5929 1010.84 62.5929H1002.31C1001.85 62.5929 1001.52 62.3831 1001.33 61.9635L987.975 33.4994C987.882 33.3596 987.789 33.2896 987.695 33.2896C987.602 33.2896 987.555 33.3829 987.555 33.5694L987.625 61.7537C987.625 61.9868 987.532 62.1966 987.346 62.3831C987.206 62.523 987.019 62.5929 986.786 62.5929H978.674C978.44 62.5929 978.231 62.523 978.044 62.3831C977.904 62.1966 977.834 61.9868 977.834 61.7537V14.4768C977.834 14.2437 977.904 14.0572 978.044 13.9173C978.231 13.7308 978.44 13.6376 978.674 13.6376H987.136C987.602 13.6376 987.928 13.8474 988.115 14.267L1001.47 42.731C1001.57 42.8709 1001.66 42.9408 1001.75 42.9408C1001.85 42.9408 1001.89 42.8476 1001.89 42.6611V14.4768ZM1040.84 14.4768C1040.84 14.2437 1040.91 14.0572 1041.05 13.9173C1041.23 13.7308 1041.44 13.6376 1041.68 13.6376H1049.86C1050.09 13.6376 1050.28 13.7308 1050.42 13.9173C1050.6 14.0572 1050.7 14.2437 1050.7 14.4768V61.7537C1050.7 61.9868 1050.6 62.1966 1050.42 62.3831C1050.28 62.523 1050.09 62.5929 1049.86 62.5929H1041.68C1041.44 62.5929 1041.23 62.523 1041.05 62.3831C1040.91 62.1966 1040.84 61.9868 1040.84 61.7537V42.5911C1040.84 42.358 1040.72 42.2415 1040.49 42.2415H1029.3C1029.06 42.2415 1028.95 42.358 1028.95 42.5911V61.7537C1028.95 61.9868 1028.85 62.1966 1028.67 62.3831C1028.53 62.523 1028.34 62.5929 1028.11 62.5929H1019.92C1019.69 62.5929 1019.48 62.523 1019.3 62.3831C1019.16 62.1966 1019.09 61.9868 1019.09 61.7537V14.4768C1019.09 14.2437 1019.16 14.0572 1019.3 13.9173C1019.48 13.7308 1019.69 13.6376 1019.92 13.6376H1028.11C1028.34 13.6376 1028.53 13.7308 1028.67 13.9173C1028.85 14.0572 1028.95 14.2437 1028.95 14.4768V33.3596C1028.95 33.5927 1029.06 33.7093 1029.3 33.7093H1040.49C1040.72 33.7093 1040.84 33.5927 1040.84 33.3596V14.4768ZM1095.87 14.4768C1095.87 14.2437 1095.94 14.0572 1096.08 13.9173C1096.27 13.7308 1096.48 13.6376 1096.71 13.6376H1104.82C1105.05 13.6376 1105.24 13.7308 1105.38 13.9173C1105.57 14.0572 1105.66 14.2437 1105.66 14.4768V61.7537C1105.66 61.9868 1105.57 62.1966 1105.38 62.3831C1105.24 62.523 1105.05 62.5929 1104.82 62.5929H1096.29C1095.82 62.5929 1095.5 62.3831 1095.31 61.9635L1081.95 33.4994C1081.86 33.3596 1081.77 33.2896 1081.67 33.2896C1081.58 33.2896 1081.53 33.3829 1081.53 33.5694L1081.6 61.7537C1081.6 61.9868 1081.51 62.1966 1081.32 62.3831C1081.18 62.523 1081 62.5929 1080.76 62.5929H1072.65C1072.42 62.5929 1072.21 62.523 1072.02 62.3831C1071.88 62.1966 1071.81 61.9868 1071.81 61.7537V14.4768C1071.81 14.2437 1071.88 14.0572 1072.02 13.9173C1072.21 13.7308 1072.42 13.6376 1072.65 13.6376H1081.11C1081.58 13.6376 1081.91 13.8474 1082.09 14.267L1095.45 42.731C1095.54 42.8709 1095.64 42.9408 1095.73 42.9408C1095.82 42.9408 1095.87 42.8476 1095.87 42.6611V14.4768ZM1134.81 14.4768C1134.81 14.2437 1134.88 14.0572 1135.02 13.9173C1135.21 13.7308 1135.42 13.6376 1135.65 13.6376H1143.83C1144.07 13.6376 1144.25 13.7308 1144.39 13.9173C1144.58 14.0572 1144.67 14.2437 1144.67 14.4768V61.7537C1144.67 61.9868 1144.58 62.1966 1144.39 62.3831C1144.25 62.523 1144.07 62.5929 1143.83 62.5929H1135.65C1135.42 62.5929 1135.21 62.523 1135.02 62.3831C1134.88 62.1966 1134.81 61.9868 1134.81 61.7537V42.5911C1134.81 42.358 1134.7 42.2415 1134.46 42.2415H1123.27C1123.04 42.2415 1122.92 42.358 1122.92 42.5911V61.7537C1122.92 61.9868 1122.83 62.1966 1122.64 62.3831C1122.5 62.523 1122.32 62.5929 1122.08 62.5929H1113.9C1113.67 62.5929 1113.46 62.523 1113.27 62.3831C1113.13 62.1966 1113.06 61.9868 1113.06 61.7537V14.4768C1113.06 14.2437 1113.13 14.0572 1113.27 13.9173C1113.46 13.7308 1113.67 13.6376 1113.9 13.6376H1122.08C1122.32 13.6376 1122.5 13.7308 1122.64 13.9173C1122.83 14.0572 1122.92 14.2437 1122.92 14.4768V33.3596C1122.92 33.5927 1123.04 33.7093 1123.27 33.7093H1134.46C1134.7 33.7093 1134.81 33.5927 1134.81 33.3596V14.4768ZM1177.73 62.5929C1177.22 62.5929 1176.89 62.3598 1176.75 61.8935L1175.14 55.0398C1175.1 54.8533 1174.98 54.76 1174.79 54.76H1161.72C1161.53 54.76 1161.41 54.8533 1161.37 55.0398L1159.76 61.8935C1159.62 62.3598 1159.32 62.5929 1158.85 62.5929H1150.39C1149.78 62.5929 1149.55 62.2898 1149.69 61.6837L1162.28 14.3369C1162.42 13.8707 1162.74 13.6376 1163.25 13.6376H1173.4C1173.91 13.6376 1174.23 13.8707 1174.37 14.3369L1186.96 61.6837L1187.03 61.9635C1187.03 62.3831 1186.78 62.5929 1186.26 62.5929H1177.73ZM1163.25 46.7174C1163.21 46.8573 1163.23 46.9738 1163.32 47.0671C1163.42 47.1137 1163.51 47.137 1163.6 47.137H1172.84C1172.93 47.137 1173.02 47.1137 1173.12 47.0671C1173.21 46.9738 1173.23 46.8573 1173.19 46.7174L1168.36 26.4359C1168.31 26.2494 1168.24 26.1561 1168.15 26.1561C1168.06 26.1561 1167.99 26.2494 1167.94 26.4359L1163.25 46.7174ZM1158.36 9.51133C1158.03 9.51133 1157.8 9.41808 1157.66 9.23159C1157.57 8.99847 1157.61 8.74204 1157.8 8.46229L1162.63 1.18893C1162.86 0.815934 1163.18 0.629437 1163.6 0.629437H1172.77C1173.19 0.629437 1173.51 0.815934 1173.75 1.18893L1178.64 8.46229C1178.73 8.64879 1178.78 8.81197 1178.78 8.95184C1178.78 9.32483 1178.55 9.51133 1178.08 9.51133H1172C1171.48 9.51133 1171.13 9.32483 1170.95 8.95184L1168.5 4.82561C1168.36 4.54586 1168.22 4.54586 1168.08 4.82561L1165.63 8.95184C1165.45 9.32483 1165.1 9.51133 1164.58 9.51133H1158.36ZM1216.28 14.4768C1216.28 14.2437 1216.35 14.0572 1216.49 13.9173C1216.67 13.7308 1216.88 13.6376 1217.12 13.6376H1225.23C1225.46 13.6376 1225.65 13.7308 1225.79 13.9173C1225.97 14.0572 1226.07 14.2437 1226.07 14.4768V61.7537C1226.07 61.9868 1225.97 62.1966 1225.79 62.3831C1225.65 62.523 1225.46 62.5929 1225.23 62.5929H1216.7C1216.23 62.5929 1215.9 62.3831 1215.72 61.9635L1202.36 33.4994C1202.27 33.3596 1202.17 33.2896 1202.08 33.2896C1201.99 33.2896 1201.94 33.3829 1201.94 33.5694L1202.01 61.7537C1202.01 61.9868 1201.92 62.1966 1201.73 62.3831C1201.59 62.523 1201.4 62.5929 1201.17 62.5929H1193.06C1192.82 62.5929 1192.62 62.523 1192.43 62.3831C1192.29 62.1966 1192.22 61.9868 1192.22 61.7537V14.4768C1192.22 14.2437 1192.29 14.0572 1192.43 13.9173C1192.62 13.7308 1192.82 13.6376 1193.06 13.6376H1201.52C1201.99 13.6376 1202.31 13.8474 1202.5 14.267L1215.86 42.731C1215.95 42.8709 1216.04 42.9408 1216.14 42.9408C1216.23 42.9408 1216.28 42.8476 1216.28 42.6611V14.4768ZM690.129 97.6376C690.362 97.6376 690.548 97.7308 690.688 97.9173C690.875 98.0572 690.968 98.2437 690.968 98.4768V105.331C690.968 105.564 690.875 105.773 690.688 105.96C690.548 106.1 690.362 106.17 690.129 106.17H679.499C679.265 106.17 679.149 106.286 679.149 106.519V145.754C679.149 145.987 679.056 146.197 678.869 146.383C678.729 146.523 678.543 146.593 678.31 146.593H670.127C669.894 146.593 669.684 146.523 669.498 146.383C669.358 146.197 669.288 145.987 669.288 145.754V106.519C669.288 106.286 669.171 106.17 668.938 106.17H658.658C658.424 106.17 658.215 106.1 658.028 105.96C657.888 105.773 657.818 105.564 657.818 105.331V98.4768C657.818 98.2437 657.888 98.0572 658.028 97.9173C658.215 97.7308 658.424 97.6376 658.658 97.6376H690.129ZM718.269 98.4768C718.269 98.2437 718.339 98.0572 718.479 97.9173C718.665 97.7308 718.875 97.6376 719.108 97.6376H727.291C727.524 97.6376 727.71 97.7308 727.85 97.9173C728.037 98.0572 728.13 98.2437 728.13 98.4768V145.754C728.13 145.987 728.037 146.197 727.85 146.383C727.71 146.523 727.524 146.593 727.291 146.593H719.108C718.875 146.593 718.665 146.523 718.479 146.383C718.339 146.197 718.269 145.987 718.269 145.754V126.591C718.269 126.358 718.152 126.241 717.919 126.241H706.729C706.496 126.241 706.38 126.358 706.38 126.591V145.754C706.38 145.987 706.286 146.197 706.1 146.383C705.96 146.523 705.774 146.593 705.54 146.593H697.358C697.125 146.593 696.915 146.523 696.729 146.383C696.589 146.197 696.519 145.987 696.519 145.754V98.4768C696.519 98.2437 696.589 98.0572 696.729 97.9173C696.915 97.7308 697.125 97.6376 697.358 97.6376H705.54C705.774 97.6376 705.96 97.7308 706.1 97.9173C706.286 98.0572 706.38 98.2437 706.38 98.4768V117.36C706.38 117.593 706.496 117.709 706.729 117.709H717.919C718.152 117.709 718.269 117.593 718.269 117.36V98.4768ZM761.188 146.593C760.675 146.593 760.349 146.36 760.209 145.894L758.6 139.04C758.554 138.853 758.437 138.76 758.251 138.76H745.172C744.986 138.76 744.869 138.853 744.823 139.04L743.214 145.894C743.074 146.36 742.771 146.593 742.305 146.593H733.843C733.237 146.593 733.004 146.29 733.143 145.684L745.732 98.3369C745.872 97.8707 746.198 97.6376 746.711 97.6376H756.852C757.365 97.6376 757.691 97.8707 757.831 98.3369L770.419 145.684L770.489 145.963C770.489 146.383 770.233 146.593 769.72 146.593H761.188ZM746.711 130.717C746.664 130.857 746.688 130.974 746.781 131.067C746.874 131.114 746.967 131.137 747.061 131.137H756.292C756.386 131.137 756.479 131.114 756.572 131.067C756.665 130.974 756.689 130.857 756.642 130.717L751.816 110.436C751.77 110.249 751.7 110.156 751.607 110.156C751.513 110.156 751.443 110.249 751.397 110.436L746.711 130.717ZM755.033 92.3224C755.127 92.5089 755.173 92.6488 755.173 92.742C755.173 93.115 754.94 93.3015 754.474 93.3015H748.879C748.459 93.3015 748.133 93.1383 747.9 92.812L742.725 85.6785C742.585 85.4454 742.515 85.2822 742.515 85.1889C742.515 84.8159 742.771 84.6294 743.284 84.6294H749.998C750.464 84.6294 750.814 84.8159 751.047 85.1889L755.033 92.3224ZM799.733 98.4768C799.733 98.2437 799.803 98.0572 799.943 97.9173C800.129 97.7308 800.339 97.6376 800.572 97.6376H808.685C808.918 97.6376 809.105 97.7308 809.244 97.9173C809.431 98.0572 809.524 98.2437 809.524 98.4768V145.754C809.524 145.987 809.431 146.197 809.244 146.383C809.105 146.523 808.918 146.593 808.685 146.593H800.153C799.686 146.593 799.36 146.383 799.174 145.963L785.816 117.499C785.723 117.36 785.629 117.29 785.536 117.29C785.443 117.29 785.396 117.383 785.396 117.569L785.466 145.754C785.466 145.987 785.373 146.197 785.186 146.383C785.046 146.523 784.86 146.593 784.627 146.593H776.514C776.281 146.593 776.071 146.523 775.885 146.383C775.745 146.197 775.675 145.987 775.675 145.754V98.4768C775.675 98.2437 775.745 98.0572 775.885 97.9173C776.071 97.7308 776.281 97.6376 776.514 97.6376H784.977C785.443 97.6376 785.769 97.8474 785.956 98.267L799.313 126.731C799.407 126.871 799.5 126.941 799.593 126.941C799.686 126.941 799.733 126.848 799.733 126.661V98.4768ZM838.677 98.4768C838.677 98.2437 838.747 98.0572 838.886 97.9173C839.073 97.7308 839.283 97.6376 839.516 97.6376H847.698C847.931 97.6376 848.118 97.7308 848.258 97.9173C848.444 98.0572 848.538 98.2437 848.538 98.4768V145.754C848.538 145.987 848.444 146.197 848.258 146.383C848.118 146.523 847.931 146.593 847.698 146.593H839.516C839.283 146.593 839.073 146.523 838.886 146.383C838.747 146.197 838.677 145.987 838.677 145.754V126.591C838.677 126.358 838.56 126.241 838.327 126.241H827.137C826.904 126.241 826.787 126.358 826.787 126.591V145.754C826.787 145.987 826.694 146.197 826.508 146.383C826.368 146.523 826.181 146.593 825.948 146.593H817.766C817.533 146.593 817.323 146.523 817.136 146.383C816.996 146.197 816.926 145.987 816.926 145.754V98.4768C816.926 98.2437 816.996 98.0572 817.136 97.9173C817.323 97.7308 817.533 97.6376 817.766 97.6376H825.948C826.181 97.6376 826.368 97.7308 826.508 97.9173C826.694 98.0572 826.787 98.2437 826.787 98.4768V117.36C826.787 117.593 826.904 117.709 827.137 117.709H838.327C838.56 117.709 838.677 117.593 838.677 117.36V98.4768ZM887.206 97.5676C890.003 97.5676 892.474 98.1971 894.619 99.4559C896.81 100.715 898.489 102.486 899.654 104.771C900.867 107.056 901.473 109.667 901.473 112.604C901.473 115.495 900.867 118.059 899.654 120.297C898.489 122.488 896.81 124.19 894.619 125.402C892.474 126.614 890.003 127.221 887.206 127.221H879.653C879.42 127.221 879.303 127.337 879.303 127.57V145.754C879.303 145.987 879.21 146.197 879.023 146.383C878.883 146.523 878.697 146.593 878.464 146.593H870.281C870.048 146.593 869.838 146.523 869.652 146.383C869.512 146.197 869.442 145.987 869.442 145.754V98.4069C869.442 98.1737 869.512 97.9872 869.652 97.8474C869.838 97.6609 870.048 97.5676 870.281 97.5676H887.206ZM885.597 119.388C887.416 119.388 888.861 118.805 889.933 117.639C891.052 116.427 891.612 114.819 891.612 112.814C891.612 110.762 891.052 109.13 889.933 107.918C888.861 106.706 887.416 106.1 885.597 106.1H879.653C879.42 106.1 879.303 106.216 879.303 106.45V119.038C879.303 119.271 879.42 119.388 879.653 119.388H885.597ZM928.555 98.4768C928.555 98.2437 928.625 98.0572 928.765 97.9173C928.952 97.7308 929.162 97.6376 929.395 97.6376H937.577C937.81 97.6376 937.997 97.7308 938.137 97.9173C938.323 98.0572 938.416 98.2437 938.416 98.4768V145.754C938.416 145.987 938.323 146.197 938.137 146.383C937.997 146.523 937.81 146.593 937.577 146.593H929.395C929.162 146.593 928.952 146.523 928.765 146.383C928.625 146.197 928.555 145.987 928.555 145.754V126.591C928.555 126.358 928.439 126.241 928.206 126.241H917.016C916.783 126.241 916.666 126.358 916.666 126.591V145.754C916.666 145.987 916.573 146.197 916.387 146.383C916.247 146.523 916.06 146.593 915.827 146.593H907.645C907.411 146.593 907.202 146.523 907.015 146.383C906.875 146.197 906.805 145.987 906.805 145.754V98.4768C906.805 98.2437 906.875 98.0572 907.015 97.9173C907.202 97.7308 907.411 97.6376 907.645 97.6376H915.827C916.06 97.6376 916.247 97.7308 916.387 97.9173C916.573 98.0572 916.666 98.2437 916.666 98.4768V117.36C916.666 117.593 916.783 117.709 917.016 117.709H928.206C928.439 117.709 928.555 117.593 928.555 117.36V98.4768ZM960.916 147.222C957.699 147.222 954.855 146.57 952.384 145.264C949.959 143.959 948.071 142.117 946.719 139.739C945.367 137.361 944.691 134.587 944.691 131.417V112.814C944.691 109.69 945.367 106.939 946.719 104.561C948.071 102.183 949.959 100.342 952.384 99.0363C954.855 97.7308 957.699 97.0781 960.916 97.0781C964.133 97.0781 966.977 97.7308 969.448 99.0363C971.919 100.342 973.831 102.183 975.183 104.561C976.535 106.939 977.211 109.69 977.211 112.814V131.417C977.211 134.587 976.535 137.361 975.183 139.739C973.831 142.117 971.919 143.959 969.448 145.264C966.977 146.57 964.133 147.222 960.916 147.222ZM960.916 138.76C962.874 138.76 964.436 138.131 965.601 136.872C966.767 135.566 967.35 133.888 967.35 131.836V112.534C967.35 110.436 966.767 108.757 965.601 107.499C964.436 106.193 962.874 105.54 960.916 105.54C959.004 105.54 957.466 106.193 956.3 107.499C955.134 108.757 954.552 110.436 954.552 112.534V131.836C954.552 133.888 955.134 135.566 956.3 136.872C957.466 138.131 959.004 138.76 960.916 138.76ZM950.915 93.5113C950.588 93.5113 950.355 93.4181 950.215 93.2316C950.122 92.9985 950.169 92.742 950.355 92.4623L955.181 85.1889C955.414 84.8159 955.74 84.6294 956.16 84.6294H965.322C965.741 84.6294 966.068 84.8159 966.301 85.1889L971.196 92.4623C971.29 92.6488 971.336 92.812 971.336 92.9518C971.336 93.3248 971.103 93.5113 970.637 93.5113H964.552C964.04 93.5113 963.69 93.3248 963.503 92.9518L961.056 88.8256C960.916 88.5459 960.776 88.5459 960.636 88.8256L958.188 92.9518C958.002 93.3248 957.652 93.5113 957.139 93.5113H950.915ZM971.476 87.8465C971.15 87.8465 970.94 87.7533 970.847 87.5668C970.753 87.3803 970.777 87.1471 970.917 86.8674L974.903 79.7339C975.136 79.3609 975.486 79.1744 975.952 79.1744H982.666C983.039 79.1744 983.272 79.291 983.365 79.5241C983.458 79.7106 983.412 79.9437 983.225 80.2235L978.05 87.3569C977.817 87.6833 977.491 87.8465 977.071 87.8465H971.476ZM1019.53 98.4768C1019.53 98.2437 1019.6 98.0572 1019.74 97.9173C1019.92 97.7308 1020.13 97.6376 1020.37 97.6376H1028.55C1028.78 97.6376 1028.97 97.7308 1029.11 97.9173C1029.29 98.0572 1029.39 98.2437 1029.39 98.4768V145.754C1029.39 145.987 1029.29 146.197 1029.11 146.383C1028.97 146.523 1028.78 146.593 1028.55 146.593H1020.37C1020.13 146.593 1019.92 146.523 1019.74 146.383C1019.6 146.197 1019.53 145.987 1019.53 145.754V126.591C1019.53 126.358 1019.41 126.241 1019.18 126.241H1007.99C1007.75 126.241 1007.64 126.358 1007.64 126.591V145.754C1007.64 145.987 1007.54 146.197 1007.36 146.383C1007.22 146.523 1007.03 146.593 1006.8 146.593H998.616C998.383 146.593 998.173 146.523 997.987 146.383C997.847 146.197 997.777 145.987 997.777 145.754V98.4768C997.777 98.2437 997.847 98.0572 997.987 97.9173C998.173 97.7308 998.383 97.6376 998.616 97.6376H1006.8C1007.03 97.6376 1007.22 97.7308 1007.36 97.9173C1007.54 98.0572 1007.64 98.2437 1007.64 98.4768V117.36C1007.64 117.593 1007.75 117.709 1007.99 117.709H1019.18C1019.41 117.709 1019.53 117.593 1019.53 117.36V98.4768ZM1051.89 147.222C1048.67 147.222 1045.83 146.57 1043.36 145.264C1040.93 143.959 1039.04 142.117 1037.69 139.739C1036.34 137.361 1035.66 134.587 1035.66 131.417V112.814C1035.66 109.69 1036.34 106.939 1037.69 104.561C1039.04 102.183 1040.93 100.342 1043.36 99.0363C1045.83 97.7308 1048.67 97.0781 1051.89 97.0781C1055.1 97.0781 1057.95 97.7308 1060.42 99.0363C1062.89 100.342 1064.8 102.183 1066.15 104.561C1067.51 106.939 1068.18 109.69 1068.18 112.814V131.417C1068.18 134.587 1067.51 137.361 1066.15 139.739C1064.8 142.117 1062.89 143.959 1060.42 145.264C1057.95 146.57 1055.1 147.222 1051.89 147.222ZM1051.89 138.76C1053.85 138.76 1055.41 138.131 1056.57 136.872C1057.74 135.566 1058.32 133.888 1058.32 131.836V112.534C1058.32 110.436 1057.74 108.757 1056.57 107.499C1055.41 106.193 1053.85 105.54 1051.89 105.54C1049.98 105.54 1048.44 106.193 1047.27 107.499C1046.11 108.757 1045.52 110.436 1045.52 112.534V131.836C1045.52 133.888 1046.11 135.566 1047.27 136.872C1048.44 138.131 1049.98 138.76 1051.89 138.76ZM1041.96 93.5113C1041.63 93.5113 1041.4 93.4181 1041.26 93.2316C1041.16 92.9985 1041.21 92.742 1041.4 92.4623L1046.22 85.1889C1046.46 84.8159 1046.78 84.6294 1047.2 84.6294H1056.36C1056.78 84.6294 1057.11 84.8159 1057.34 85.1889L1062.24 92.4623C1062.33 92.6488 1062.38 92.812 1062.38 92.9518C1062.38 93.3248 1062.14 93.5113 1061.68 93.5113H1055.59C1055.08 93.5113 1054.73 93.3248 1054.54 92.9518L1052.1 88.8256C1051.96 88.5459 1051.82 88.5459 1051.68 88.8256L1049.23 92.9518C1049.04 93.3248 1048.69 93.5113 1048.18 93.5113H1041.96ZM1067.48 84C1067.58 84.1865 1067.62 84.3264 1067.62 84.4196C1067.62 84.7926 1067.39 84.9791 1066.92 84.9791H1061.33C1060.91 84.9791 1060.58 84.8159 1060.35 84.4896L1055.17 77.3561C1055.03 77.123 1054.96 76.9598 1054.96 76.8665C1054.96 76.4935 1055.22 76.307 1055.73 76.307H1062.45C1062.91 76.307 1063.26 76.4935 1063.5 76.8665L1067.48 84ZM1103.92 147.152C1100.75 147.152 1097.96 146.523 1095.53 145.264C1093.11 144.005 1091.22 142.21 1089.87 139.879C1088.56 137.548 1087.91 134.844 1087.91 131.766V112.324C1087.91 109.294 1088.56 106.636 1089.87 104.351C1091.22 102.02 1093.11 100.225 1095.53 98.9664C1097.96 97.7075 1100.75 97.0781 1103.92 97.0781C1107.1 97.0781 1109.89 97.7075 1112.32 98.9664C1114.74 100.179 1116.61 101.904 1117.91 104.142C1119.26 106.38 1119.94 108.991 1119.94 111.974V112.324C1119.94 112.557 1119.85 112.767 1119.66 112.954C1119.52 113.14 1119.33 113.233 1119.1 113.233L1110.92 113.583C1110.36 113.583 1110.08 113.327 1110.08 112.814V111.905C1110.08 109.993 1109.52 108.454 1108.4 107.289C1107.28 106.123 1105.79 105.54 1103.92 105.54C1102.06 105.54 1100.57 106.123 1099.45 107.289C1098.33 108.454 1097.77 109.993 1097.77 111.905V132.396C1097.77 134.307 1098.33 135.846 1099.45 137.012C1100.57 138.131 1102.06 138.69 1103.92 138.69C1105.79 138.69 1107.28 138.131 1108.4 137.012C1109.52 135.846 1110.08 134.307 1110.08 132.396V131.487C1110.08 130.974 1110.36 130.717 1110.92 130.717L1119.1 131.067C1119.33 131.067 1119.52 131.16 1119.66 131.347C1119.85 131.487 1119.94 131.673 1119.94 131.906V132.116C1119.94 135.1 1119.26 137.734 1117.91 140.019C1116.61 142.303 1114.74 144.075 1112.32 145.334C1109.89 146.546 1107.1 147.152 1103.92 147.152ZM1147.99 98.4768C1147.99 98.2437 1148.06 98.0572 1148.2 97.9173C1148.39 97.7308 1148.6 97.6376 1148.83 97.6376H1157.02C1157.25 97.6376 1157.44 97.7308 1157.58 97.9173C1157.76 98.0572 1157.85 98.2437 1157.85 98.4768V145.754C1157.85 145.987 1157.76 146.197 1157.58 146.383C1157.44 146.523 1157.25 146.593 1157.02 146.593H1148.83C1148.6 146.593 1148.39 146.523 1148.2 146.383C1148.06 146.197 1147.99 145.987 1147.99 145.754V126.591C1147.99 126.358 1147.88 126.241 1147.64 126.241H1136.45C1136.22 126.241 1136.1 126.358 1136.1 126.591V145.754C1136.1 145.987 1136.01 146.197 1135.83 146.383C1135.69 146.523 1135.5 146.593 1135.27 146.593H1127.08C1126.85 146.593 1126.64 146.523 1126.45 146.383C1126.31 146.197 1126.24 145.987 1126.24 145.754V98.4768C1126.24 98.2437 1126.31 98.0572 1126.45 97.9173C1126.64 97.7308 1126.85 97.6376 1127.08 97.6376H1135.27C1135.5 97.6376 1135.69 97.7308 1135.83 97.9173C1136.01 98.0572 1136.1 98.2437 1136.1 98.4768V117.36C1136.1 117.593 1136.22 117.709 1136.45 117.709H1147.64C1147.88 117.709 1147.99 117.593 1147.99 117.36V98.4768ZM1165.81 146.593C1165.57 146.593 1165.36 146.523 1165.18 146.383C1165.04 146.197 1164.97 145.987 1164.97 145.754V98.4768C1164.97 98.2437 1165.04 98.0572 1165.18 97.9173C1165.36 97.7308 1165.57 97.6376 1165.81 97.6376H1173.99C1174.22 97.6376 1174.41 97.7308 1174.55 97.9173C1174.74 98.0572 1174.83 98.2437 1174.83 98.4768V145.754C1174.83 145.987 1174.74 146.197 1174.55 146.383C1174.41 146.523 1174.22 146.593 1173.99 146.593H1165.81ZM1166.02 93.3015C1165.69 93.3015 1165.48 93.2083 1165.39 93.0218C1165.29 92.8353 1165.32 92.6022 1165.46 92.3224L1169.44 85.1889C1169.68 84.8159 1170.03 84.6294 1170.49 84.6294H1177.21C1177.58 84.6294 1177.81 84.746 1177.91 84.9791C1178 85.1656 1177.95 85.3987 1177.77 85.6785L1172.59 92.812C1172.36 93.1383 1172.03 93.3015 1171.61 93.3015H1166.02ZM1223.11 98.1971C1223.29 97.8241 1223.62 97.6376 1224.08 97.6376H1232.2C1232.43 97.6376 1232.62 97.7308 1232.76 97.9173C1232.94 98.0572 1233.04 98.2437 1233.04 98.4768V145.754C1233.04 145.987 1232.94 146.197 1232.76 146.383C1232.62 146.523 1232.43 146.593 1232.2 146.593H1224.01C1223.78 146.593 1223.57 146.523 1223.39 146.383C1223.25 146.197 1223.18 145.987 1223.18 145.754V114.702C1223.18 114.515 1223.13 114.422 1223.04 114.422C1222.94 114.376 1222.85 114.422 1222.76 114.562L1216.32 125.192C1216.14 125.565 1215.81 125.752 1215.34 125.752H1213.73C1213.27 125.752 1212.94 125.565 1212.75 125.192L1206.32 114.562C1206.23 114.422 1206.13 114.376 1206.04 114.422C1205.95 114.422 1205.9 114.515 1205.9 114.702V145.754C1205.9 145.987 1205.81 146.197 1205.62 146.383C1205.48 146.523 1205.29 146.593 1205.06 146.593H1196.88C1196.65 146.593 1196.44 146.523 1196.25 146.383C1196.11 146.197 1196.04 145.987 1196.04 145.754V98.4768C1196.04 98.2437 1196.11 98.0572 1196.25 97.9173C1196.44 97.7308 1196.65 97.6376 1196.88 97.6376H1204.99C1205.46 97.6376 1205.78 97.8241 1205.97 98.1971L1214.36 111.974C1214.5 112.254 1214.64 112.254 1214.78 111.974L1223.11 98.1971ZM1241.14 146.593C1240.91 146.593 1240.7 146.523 1240.51 146.383C1240.37 146.197 1240.3 145.987 1240.3 145.754V98.4768C1240.3 98.2437 1240.37 98.0572 1240.51 97.9173C1240.7 97.7308 1240.91 97.6376 1241.14 97.6376H1249.32C1249.55 97.6376 1249.74 97.7308 1249.88 97.9173C1250.07 98.0572 1250.16 98.2437 1250.16 98.4768V145.754C1250.16 145.987 1250.07 146.197 1249.88 146.383C1249.74 146.523 1249.55 146.593 1249.32 146.593H1241.14ZM1281.57 98.4768C1281.57 98.2437 1281.64 98.0572 1281.78 97.9173C1281.97 97.7308 1282.17 97.6376 1282.41 97.6376H1290.52C1290.75 97.6376 1290.94 97.7308 1291.08 97.9173C1291.27 98.0572 1291.36 98.2437 1291.36 98.4768V145.754C1291.36 145.987 1291.27 146.197 1291.08 146.383C1290.94 146.523 1290.75 146.593 1290.52 146.593H1281.99C1281.52 146.593 1281.2 146.383 1281.01 145.963L1267.65 117.499C1267.56 117.36 1267.46 117.29 1267.37 117.29C1267.28 117.29 1267.23 117.383 1267.23 117.569L1267.3 145.754C1267.3 145.987 1267.21 146.197 1267.02 146.383C1266.88 146.523 1266.7 146.593 1266.46 146.593H1258.35C1258.12 146.593 1257.91 146.523 1257.72 146.383C1257.58 146.197 1257.51 145.987 1257.51 145.754V98.4768C1257.51 98.2437 1257.58 98.0572 1257.72 97.9173C1257.91 97.7308 1258.12 97.6376 1258.35 97.6376H1266.81C1267.28 97.6376 1267.6 97.8474 1267.79 98.267L1281.15 126.731C1281.24 126.871 1281.34 126.941 1281.43 126.941C1281.52 126.941 1281.57 126.848 1281.57 126.661V98.4768ZM1320.51 98.4768C1320.51 98.2437 1320.58 98.0572 1320.72 97.9173C1320.91 97.7308 1321.12 97.6376 1321.35 97.6376H1329.53C1329.77 97.6376 1329.95 97.7308 1330.09 97.9173C1330.28 98.0572 1330.37 98.2437 1330.37 98.4768V145.754C1330.37 145.987 1330.28 146.197 1330.09 146.383C1329.95 146.523 1329.77 146.593 1329.53 146.593H1321.35C1321.12 146.593 1320.91 146.523 1320.72 146.383C1320.58 146.197 1320.51 145.987 1320.51 145.754V126.591C1320.51 126.358 1320.4 126.241 1320.16 126.241H1308.97C1308.74 126.241 1308.62 126.358 1308.62 126.591V145.754C1308.62 145.987 1308.53 146.197 1308.34 146.383C1308.2 146.523 1308.02 146.593 1307.78 146.593H1299.6C1299.37 146.593 1299.16 146.523 1298.97 146.383C1298.83 146.197 1298.76 145.987 1298.76 145.754V98.4768C1298.76 98.2437 1298.83 98.0572 1298.97 97.9173C1299.16 97.7308 1299.37 97.6376 1299.6 97.6376H1307.78C1308.02 97.6376 1308.2 97.7308 1308.34 97.9173C1308.53 98.0572 1308.62 98.2437 1308.62 98.4768V117.36C1308.62 117.593 1308.74 117.709 1308.97 117.709H1320.16C1320.4 117.709 1320.51 117.593 1320.51 117.36V98.4768Z" fill="#50002F"/>
<defs>
<clipPath id="clip0_686_4715">
<rect width="587" height="133" fill="white" transform="translate(0 13.5929)"/>
</clipPath>
</defs>
</svg>
